<svg xmlns="http://www.w3.org/2000/svg" width="122" height="32" fill="none"><path fill="#3C43B7" d="M29.177 0H2.807A2.823 2.823 0 000 2.807v26.37A2.823 2.823 0 002.82 32h26.37a2.823 2.823 0 002.823-2.823V2.807A2.823 2.823 0 0029.177 0zM19.102 23.922a6.201 6.201 0 01-8.264-2.937L4.804 8.33a.199.199 0 01.091-.268A6.201 6.201 0 0113.16 11l6.034 12.666a.2.2 0 01-.09.258zm6.9-10.417h-3.078v3.078h-2.97v-3.078h-3.078v-2.97h3.078V7.457h2.97v3.078H26v2.97z"/><path fill="#333" d="M64.826.062a1.838 1.838 0 00-1.41.483c-.296.338-.45.778-.428 1.227v.457c-.018.452.14.893.44 1.23a2.304 2.304 0 002.824 0c.3-.337.459-.778.44-1.23v-.457c.018-.45-.14-.89-.44-1.227a1.841 1.841 0 00-1.426-.483zM51.83 23.048l1.925-6.054 3.26-9.073H60l-6.48 18.368h-3.45l-.032-.088-6.41-18.28h3.085l3.191 9.07 1.926 6.057zM63.292 7.92h3.07v18.37h-3.07V7.92zm20.548 2.318l-.03.036L73.487 23.53H84.12v2.758H69.89v-2.566l.03-.035 10.114-13.013h-9.827V7.921H83.84v2.317zM91.056.062h-3.071v23.172a3.12 3.12 0 00.786 2.177c.529.574 1.305.868 2.327.868h2.611V23.53h-2.653V.062zm7.287.092c.243-.083.501-.114.757-.092a1.844 1.844 0 011.42.483c.298.338.454.777.438 1.227v.457c.017.451-.139.892-.438 1.23a2.306 2.306 0 01-2.826 0 1.756 1.756 0 01-.438-1.23v-.457a1.75 1.75 0 01.431-1.227c.19-.175.413-.308.656-.39zm2.295 7.766h-3.071v18.37h3.071V7.92z"/><path fill="#333" fill-rule="evenodd" d="M119.567 10.117a8.888 8.888 0 011.514 3.02l-.016-.01c.683 2.6.683 5.333 0 7.933a8.937 8.937 0 01-1.498 3.029 6.832 6.832 0 01-2.379 1.932 7.056 7.056 0 01-3.111.679h-.222a6.792 6.792 0 01-5.081-2.324v1.906H105.7V.055h3.074v9.791a6.648 6.648 0 013.72-2.176l.213-.043.251-.042a8.217 8.217 0 011.119-.079 7.006 7.006 0 013.111.682 6.822 6.822 0 012.379 1.93zm-8.012 13.597a6.52 6.52 0 001.768.238h-.016c1.544 0 2.774-.49 3.659-1.459.884-.97 1.334-2.262 1.334-3.845v-3.103c0-1.58-.453-2.876-1.334-3.842-.882-.966-2.112-1.455-3.656-1.455a5.967 5.967 0 00-1.769.26c-.519.153-1.01.39-1.452.703a3.416 3.416 0 00-.963 1.067 2.71 2.71 0 00-.349 1.328v3.264c-.068.078-.134.16-.196.238.061.085.127.166.196.245v3.028c-.01.524.11 1.042.349 1.508.242.441.576.824.979 1.123.437.32.928.558 1.45.702z" clip-rule="evenodd"/></svg>