<svg xmlns="http://www.w3.org/2000/svg" width="64" height="64" fill="none" viewBox="0 0 64 64"><path fill="#FFA628" fill-rule="evenodd" d="M32 0C14.327 0 0 14.327 0 32c0 17.673 14.327 32 32 32 17.673 0 32-14.327 32-32C64 14.327 49.673 0 32 0Zm4.095 28.082 5.467-3.895a1 1 0 0 1 1.006-.09l11.876 5.581-11.864-8.582a1 1 0 0 0-1.11-.042l-5.38 3.313a1 1 0 0 1-1.086-.024l-4.873-3.304a1 1 0 0 0-1.024-.059l-8.997 4.693 8.348-1.49a1 1 0 0 1 .722.146l5.788 3.776a1 1 0 0 0 1.127-.023Zm-12.458 8.834 5.217 2.485-5.204-4.417a1 1 0 0 0-1.027-.163l-4.77 1.96a1 1 0 0 1-1.023-.16l-3.035-2.545a1 1 0 0 0-1.127-.109l-4.412 2.441 4.552-.458a1 1 0 0 1 .794.275l3.172 3.059a1 1 0 0 0 1.158.166l4.811-2.517a1 1 0 0 1 .894-.017Zm23.57 3.65-4.167 2.568 4.17-1.524a1 1 0 0 1 .823.062l2.07 1.133a1 1 0 0 0 1.125-.114l1.126-.951a1 1 0 0 1 .777-.227l3.017.399-2.922-1.615a1 1 0 0 0-1.04.045l-1.223.819a1 1 0 0 1-.927.098l-1.934-.77a1 1 0 0 0-.894.078Z" clip-rule="evenodd"/></svg>