<svg xmlns="http://www.w3.org/2000/svg" width="26" height="26" fill="none" viewBox="0 0 26 26"><path fill="url(#paint0_linear_2653_63)" fill-rule="evenodd" d="M25.4405 13.0384C25.4405 19.9255 19.8574 25.5086 12.9702 25.5086C6.08312 25.5086 0.5 19.9255 0.5 13.0384C0.5 6.15123 6.08312 0.568115 12.9702 0.568115C19.8574 0.568115 25.4405 6.15123 25.4405 13.0384ZM16.5048 18.19C16.5048 18.19 16.0452 17.6411 15.6622 17.1687C17.3346 16.6963 17.973 15.6622 17.973 15.6622C17.4495 16.0069 16.9517 16.2495 16.5048 16.4155C15.8665 16.6836 15.2537 16.8495 14.6537 16.9644C13.4281 17.1942 12.3046 17.1304 11.3471 16.9517C10.6194 16.8112 9.99387 16.6197 9.47044 16.4027C9.17681 16.2878 8.85765 16.1474 8.53848 15.9686C8.51933 15.9559 8.50018 15.9463 8.48103 15.9367L8.48102 15.9367C8.46188 15.9271 8.44273 15.9176 8.42358 15.9048C8.41383 15.8999 8.40594 15.8951 8.3992 15.8909C8.3883 15.8841 8.38041 15.8793 8.37252 15.8793C8.14272 15.7516 8.01505 15.6622 8.01505 15.6622C8.01505 15.6622 8.62785 16.6708 10.2492 17.1559C9.86621 17.6411 9.39384 18.2028 9.39384 18.2028C6.57243 18.1134 5.50004 16.275 5.50004 16.275C5.50004 12.2025 7.33842 8.89596 7.33842 8.89596C9.17681 7.52994 10.9131 7.56824 10.9131 7.56824L11.0407 7.72144C8.74275 8.37253 7.69589 9.38109 7.69589 9.38109C7.69589 9.38109 7.97675 9.22789 8.44912 9.02362C9.81514 8.4236 10.9003 8.2704 11.3471 8.21933L11.3758 8.21449C11.4402 8.20353 11.4973 8.1938 11.5642 8.1938C12.3429 8.09167 13.2238 8.06613 14.143 8.16827C15.3558 8.3087 16.658 8.66616 17.9857 9.38109C17.9857 9.38109 16.9772 8.4236 14.8069 7.7725L14.9856 7.56824C14.9856 7.56824 16.7346 7.52994 18.5602 8.89596C18.5602 8.89596 20.3986 12.2025 20.3986 16.275C20.3986 16.2744 20.3957 16.2788 20.3896 16.2879C20.281 16.4508 19.1778 18.1054 16.5048 18.19ZM15.2157 12.2663C14.488 12.2663 13.9135 12.8918 13.9135 13.6706C13.9135 14.4494 14.5008 15.0749 15.2157 15.0749C15.9434 15.0749 16.5179 14.4494 16.5179 13.6706C16.5179 12.8918 15.9306 12.2663 15.2157 12.2663ZM10.5559 12.2663C9.8282 12.2663 9.2537 12.8918 9.2537 13.6706C9.2537 14.4494 9.84096 15.0749 10.5559 15.0749C11.2836 15.0749 11.8581 14.4494 11.8581 13.6706C11.8708 12.8918 11.2836 12.2663 10.5559 12.2663Z" clip-rule="evenodd"/><defs><linearGradient id="paint0_linear_2653_63" x1="4.085" x2="22.434" y1="4.153" y2="24.117" gradientUnits="userSpaceOnUse"><stop stop-color="#FFAD33"/><stop offset="1" stop-color="#FF8A00"/></linearGradient></defs></svg>