<svg xmlns="http://www.w3.org/2000/svg" width="30" height="31" fill="none" viewBox="0 0 30 31"><mask id="cut-out"><rect width="100%" height="100%" fill="#fff"/><path fill="#000" d="M13.99 18.468c0-.832-.206-1.652-.598-2.387L9.648 9.067a1.029 1.029 0 1 1 1.83-.942l2.744 5.534c.047.108.101.22.163.337.04.074.076.15.109.226.038.09.088.173.124.264.016.038.031.073.047.104.078.156.147.307.21.455.063.15.28.159.351.01l.22-.453c.147-.303.298-.617.454-.944l2.81-5.576a.96.96 0 1 1 1.705.883l-3.862 7.255a4.98 4.98 0 0 0-.583 2.339v3.988a.99.99 0 0 1-1.98 0v-4.079Z"/></mask><path fill="url(#a)" d="M0 15.238c0 8.284 6.716 15 15 15 8.284 0 15-6.716 15-15 0-8.285-6.716-15-15-15-8.284 0-15 6.715-15 15Z" mask="url(#cut-out)"/><defs><linearGradient id="a" x1="4.313" x2="26.384" y1="4.55" y2="28.564" gradientUnits="userSpaceOnUse"><stop stop-color="#FFAD33"/><stop offset="1" stop-color="#FF8A00"/></linearGradient></defs></svg>