<svg xmlns="http://www.w3.org/2000/svg" width="100%" height="100%" fill="none" viewBox="0 0 64 64"><path fill="#FFA628" d="M42.694 34.567v9.127H37.89v-8.49a2.41 2.41 0 0 0-2.41-2.411 2.404 2.404 0 0 0-2.395 2.41v8.491H28.28V29.28h4.805v1.912c.827-1.343 2.532-2.239 3.996-2.239a5.614 5.614 0 0 1 5.614 5.615ZM24.728 25.728a2.903 2.903 0 0 1-4.956-2.046 2.91 2.91 0 0 1 2.91-2.91 2.903 2.903 0 0 1 2.046 4.956ZM25.076 29.28v14.414h-4.77V29.28h4.77Z"/><path fill="#FFA628" fill-rule="evenodd" d="M32 0C14.327 0 0 14.327 0 32c0 17.673 14.327 32 32 32 17.673 0 32-14.327 32-32C64 14.327 49.673 0 32 0Zm13.991 18.009A3.444 3.444 0 0 0 43.556 17H19.444A3.444 3.444 0 0 0 16 20.444v24.112A3.444 3.444 0 0 0 19.444 48h24.112A3.444 3.444 0 0 0 47 44.556V20.444c0-.913-.363-1.79-1.009-2.435Z" clip-rule="evenodd"/></svg>