<svg xmlns="http://www.w3.org/2000/svg" width="50" height="44" fill="none" viewBox="0 0 50 44"><g clip-path="url(#clip0_9031_18263)"><path fill="#912626" d="M48.0312 33.1306C45.3634 34.5212 31.5436 40.2034 28.6014 41.7373C25.6592 43.2713 24.0248 43.2565 21.7005 42.1454C19.3763 41.0343 4.66956 35.0937 2.02029 33.8274C0.696342 33.1947 0 32.6604 0 32.1558V27.1029C0 27.1029 19.1465 22.9348 22.2375 21.8259C25.3282 20.7169 26.4007 20.6769 29.031 21.6404C31.6617 22.6042 47.3902 25.442 49.9898 26.3941L49.9886 31.3755C49.989 31.875 49.3892 32.423 48.0312 33.1306Z"/><path fill="#C6302B" d="M48.0302 28.1076C45.3626 29.4975 31.5431 35.1799 28.601 36.7136C25.659 38.2479 24.0246 38.2328 21.7004 37.1217C19.3761 36.0114 4.6699 30.0698 2.02083 28.8043C-0.628236 27.5379 -0.683694 26.6664 1.91851 25.6475C4.52072 24.6282 19.1463 18.8901 22.2376 17.7811C25.3284 16.6726 26.4006 16.6322 29.031 17.596C31.6615 18.5595 45.3985 24.0273 47.9978 24.9793C50.5981 25.9324 50.6978 26.7172 48.0302 28.1076Z"/><path fill="#912626" d="M48.0312 24.9547C45.3634 26.3455 31.5436 32.0275 28.6014 33.562C25.6592 35.0954 24.0248 35.0806 21.7005 33.9695C19.3761 32.859 4.66956 26.9178 2.02029 25.6515C0.696342 25.0188 0 24.4853 0 23.9805V18.927C0 18.927 19.1465 14.7591 22.2375 13.6502C25.3282 12.5412 26.4007 12.501 29.031 13.4647C31.6619 14.4284 47.3903 17.2655 49.9898 18.2178L49.9886 23.1998C49.989 23.6991 49.3892 24.2471 48.0312 24.9547Z"/><path fill="#C6302B" d="M48.0302 19.9317C45.3626 21.3221 31.5431 27.0041 28.601 28.5384C25.659 30.0721 24.0246 30.057 21.7004 28.9459C19.3761 27.8356 4.6699 21.8942 2.02083 20.6285C-0.628236 19.3625 -0.683694 18.4908 1.91851 17.4715C4.52072 16.4528 19.1464 10.7143 22.2376 9.60552C25.3284 8.49676 26.4006 8.45653 29.031 9.4202C31.6615 10.3837 45.3985 15.8511 47.9978 16.8035C50.5981 17.7564 50.6978 18.5414 48.0302 19.9317Z"/><path fill="#912626" d="M48.0312 16.4757C45.3634 17.8661 31.5436 23.5485 28.6014 25.083C25.6592 26.6166 24.0248 26.6016 21.7005 25.4905C19.3761 24.38 4.66956 18.4386 2.02029 17.1729C0.696342 16.5396 0 16.0059 0 15.5017V10.4481C0 10.4481 19.1465 6.28036 22.2375 5.1716C25.3282 4.06245 26.4007 4.02262 29.031 4.98609C31.6619 5.94977 47.3903 8.78688 49.9898 9.73923L49.9886 14.721C49.989 15.2199 49.3892 15.7679 48.0312 16.4757Z"/><path fill="#C6302B" d="M48.0301 11.4527C45.3625 12.8431 31.543 18.5255 28.6009 20.0592C25.6589 21.5929 24.0245 21.5778 21.7003 20.4673C19.3762 19.3562 4.66981 13.4152 2.02093 12.1493C-0.628334 10.8835 -0.683596 10.0116 1.91841 8.9925C4.52062 7.97357 19.1464 2.23587 22.2375 1.12672C25.3283 0.0177687 26.4005 -0.0220669 29.0309 0.941604C31.6614 1.90527 45.3984 7.37271 47.9977 8.32506C50.598 9.27721 50.6977 10.0624 48.0301 11.4527Z"/><path fill="#fff" d="M31.1035 6.53722L26.8055 6.98342L25.8434 9.29857L24.2894 6.71511L19.3266 6.26911L23.0297 4.93364L21.9186 2.88367L25.3857 4.23964L28.6542 3.16955L27.7707 5.28923L31.1035 6.53722ZM25.5868 17.7689L17.5656 14.4421L29.0593 12.6778L25.5868 17.7689ZM14.466 7.82407C17.8589 7.82407 20.6093 8.89026 20.6093 10.2052C20.6093 11.5206 17.8589 12.5866 14.466 12.5866C11.0732 12.5866 8.32275 11.5204 8.32275 10.2052C8.32275 8.89026 11.0732 7.82407 14.466 7.82407Z"/><path fill="#621B1C" d="M36.1831 7.17006L42.9856 9.85818L36.189 12.5438L36.1831 7.17006Z"/><path fill="#9A2928" d="M28.6572 10.147L36.183 7.17004L36.1889 12.5438L35.451 12.8324L28.6572 10.147Z"/></g><defs><clipPath id="clip0_9031_18263"><rect width="50" height="42.96" fill="#fff" transform="translate(0 0.140625)"/></clipPath></defs></svg>