<svg width="72" height="50" fill="none" xmlns="http://www.w3.org/2000/svg"><path fill-rule="evenodd" clip-rule="evenodd" d="M48.755 45.138c1.8 2.221 3.962 4.802 3.962 4.802 12.567-.398 17.754-8.177 18.265-8.943a.405.405 0 0 1 .042-.06c0-19.148-8.644-34.694-8.644-34.694C53.797-.18 45.575 0 45.575 0l-.84.96c10.204 3.061 14.945 7.563 14.945 7.563-6.242-3.361-12.364-5.042-18.067-5.702a50.787 50.787 0 0 0-12.124.12 5.05 5.05 0 0 0-.886.097l-.135.023c-2.1.24-7.202.96-13.625 3.781-2.22.96-3.541 1.68-3.541 1.68S16.222 3.783 27.027.722l-.6-.72S18.263-.18 9.62 6.243c0 0-8.643 15.546-8.643 34.694 0 0 5.042 8.643 18.307 9.063 0 0 2.22-2.641 4.021-4.922-7.623-2.28-10.504-7.023-10.504-7.023s.6.42 1.68 1.02c.038 0 .075.024.126.055.032.02.07.043.115.066.09.06.18.105.27.15.09.045.18.09.27.15 1.5.84 3.001 1.5 4.382 2.04 2.46 1.021 5.402 1.921 8.823 2.582 4.502.84 9.784 1.14 15.546.06 2.821-.54 5.703-1.32 8.704-2.581 2.1-.78 4.441-1.921 6.902-3.542 0 0-3 4.862-10.864 7.083Zm-8.223-16.446c0-3.662 2.7-6.603 6.122-6.603 3.361 0 6.122 2.941 6.122 6.603 0 3.661-2.7 6.602-6.122 6.602-3.361 0-6.122-2.94-6.122-6.602Zm-21.909 0c0-3.662 2.701-6.603 6.122-6.603 3.422 0 6.183 2.941 6.123 6.603 0 3.661-2.701 6.602-6.123 6.602-3.36 0-6.122-2.94-6.122-6.602Z" fill="url(#a)"/><defs><linearGradient id="a" x1="11.046" y1="7.188" x2="44.909" y2="58.803" gradientUnits="userSpaceOnUse"><stop stop-color="#FFAD33"/><stop offset="1" stop-color="#FF8A00"/></linearGradient></defs></svg>