<svg width="52" height="50" fill="none" xmlns="http://www.w3.org/2000/svg"><path fill-rule="evenodd" clip-rule="evenodd" d="M25.62 0C19.657-.006 13.886 2.157 9.342 6.102 4.798 10.047 1.78 15.515.824 21.528a26.09 26.09 0 0 0 3.308 17.385c3.09 5.21 7.895 9.125 13.554 11.045 1.264.236 1.71-.567 1.71-1.243v-4.359c-7.009 1.558-8.488-3.446-8.488-3.446a6.846 6.846 0 0 0-2.788-3.76c-2.264-1.574.185-1.574.185-1.574a5.22 5.22 0 0 1 2.216.87 5.353 5.353 0 0 1 1.62 1.774c.34.631.8 1.187 1.352 1.637.552.45 1.185.783 1.864.982a5.253 5.253 0 0 0 4.085-.48 5.496 5.496 0 0 1 1.541-3.43c-5.577-.645-11.43-2.848-11.43-12.587a10.034 10.034 0 0 1 2.572-6.876 9.532 9.532 0 0 1 .247-6.782s2.11-.692 6.901 2.628a23.26 23.26 0 0 1 12.57 0c4.791-3.32 6.886-2.628 6.886-2.628a9.483 9.483 0 0 1 .308 6.734 10.034 10.034 0 0 1 2.573 6.877c0 9.85-5.87 12.005-11.461 12.587a6.076 6.076 0 0 1 1.357 2.17c.296.815.416 1.685.353 2.55v7.034c0 .834.447 1.48 1.725 1.227 5.595-1.97 10.328-5.896 13.364-11.085a26.093 26.093 0 0 0 3.224-17.274c-.952-5.966-3.939-11.396-8.432-15.331C37.248 2.238 31.538.052 25.62 0Z" fill="url(#a)"/><defs><linearGradient id="a" x1="7.688" y1="7.188" x2="44.473" y2="47.21" gradientUnits="userSpaceOnUse"><stop stop-color="#FFAD33"/><stop offset="1" stop-color="#FF8A00"/></linearGradient></defs></svg>