<svg width="60" height="52" fill="none" xmlns="http://www.w3.org/2000/svg"><path fill-rule="evenodd" clip-rule="evenodd" d="M48.034 7.316a1.451 1.451 0 1 1 2.903 0 1.451 1.451 0 0 1-2.903 0ZM49.485.625A6.688 6.688 0 0 0 43.73 3.9l-9.496-1.9-2.079-.415-.589 2.036-3.479 12.031c-6.174.316-11.743 2.144-15.941 4.955-1.82-1.463-3.797-2.123-5.737-1.916-2.148.23-3.855 1.482-4.9 3.05C.47 23.297-.012 25.303.397 27.271c.42 2.014 1.74 3.803 3.934 4.904-.045.434-.068.872-.068 1.314 0 9.878 11.523 17.885 25.737 17.885 14.215 0 25.738-8.007 25.738-17.885 0-.442-.023-.88-.069-1.314 2.196-1.1 3.515-2.89 3.935-4.905.41-1.967-.073-3.973-1.111-5.53-1.045-1.567-2.753-2.82-4.9-3.049-1.941-.207-3.917.453-5.738 1.916-3.98-2.665-9.193-4.447-14.985-4.893l2.538-8.776 7.479 1.496a6.693 6.693 0 0 0 13.29-1.119A6.692 6.692 0 0 0 49.485.625ZM5.1 26.864a2.12 2.12 0 0 1-.187-.533c-.135-.65.017-1.407.434-2.032.409-.613.973-.96 1.552-1.022a2.3 2.3 0 0 1 .971.124L5.1 26.864Zm47.033-3.463 2.77 3.463c.093-.18.151-.36.187-.533.136-.65-.017-1.407-.433-2.032-.41-.613-.974-.96-1.553-1.022a2.3 2.3 0 0 0-.971.124Zm-9.443 8.053a4.071 4.071 0 1 1-8.143 0 4.071 4.071 0 0 1 8.143 0Zm-4.363 9.016c-5.09 4.217-11.487 4.217-16.577 0l-1.744 1.6c6.107 5.088 13.959 5.088 20.066 0l-1.745-1.6ZM21.46 35.526a4.071 4.071 0 1 0 0-8.143 4.071 4.071 0 0 0 0 8.143Z" fill="url(#a)"/><defs><linearGradient id="a" x1="8.805" y1="7.92" x2="45.193" y2="54.333" gradientUnits="userSpaceOnUse"><stop stop-color="#FFAD33"/><stop offset="1" stop-color="#FF8A00"/></linearGradient></defs></svg>