<svg width="72" height="50" fill="none" xmlns="http://www.w3.org/2000/svg"><path fill-rule="evenodd" clip-rule="evenodd" d="M67.804 3.828a8.974 8.974 0 0 1 2.317 4.002c2.358 9.491 1.813 24.482.046 34.34a8.975 8.975 0 0 1-6.319 6.319C58.308 50 36.01 50 36.01 50s-22.298 0-27.838-1.511a8.974 8.974 0 0 1-6.32-6.319C-.52 32.72.132 17.72 1.807 7.875a8.974 8.974 0 0 1 6.319-6.318C13.665.046 35.964 0 35.964 0s22.298 0 27.838 1.511a8.974 8.974 0 0 1 4.002 2.317ZM47.364 25 28.866 35.715v-21.43L47.364 25Z" fill="url(#a)"/><defs><linearGradient id="a" x1="10.566" y1="7.188" x2="44.168" y2="59.39" gradientUnits="userSpaceOnUse"><stop stop-color="#FFAD33"/><stop offset="1" stop-color="#FF8A00"/></linearGradient></defs></svg>