<svg width="122" height="24" fill="none" xmlns="http://www.w3.org/2000/svg"><path d="M30.658 10.367c.947 0 1.693-.373 2.296-1.12l1.206 1.263c-.976 1.091-2.096 1.636-3.416 1.636-1.32 0-2.382-.402-3.243-1.234-.86-.832-1.263-1.865-1.263-3.128 0-1.263.43-2.325 1.292-3.157.86-.832 1.923-1.263 3.186-1.263 1.406 0 2.582.545 3.5 1.607l-1.176 1.35c-.602-.747-1.349-1.12-2.238-1.12-.718 0-1.32.23-1.837.689-.517.459-.775 1.09-.775 1.894 0 .804.23 1.435.717 1.923.488.402 1.062.66 1.751.66Zm5.023 1.664V3.508h1.894v6.83h3.645v1.694h-5.54Zm13.862-1.176c-.861.832-1.923 1.263-3.186 1.263s-2.325-.43-3.186-1.263c-.86-.832-1.291-1.894-1.291-3.128 0-1.235.43-2.296 1.291-3.129.861-.832 1.923-1.263 3.186-1.263s2.325.431 3.186 1.263c.86.833 1.291 1.894 1.291 3.129 0 1.234-.43 2.296-1.291 3.128Zm-.66-3.128c0-.747-.259-1.407-.718-1.952-.488-.545-1.09-.804-1.808-.804s-1.32.259-1.808.804a2.807 2.807 0 0 0-.746 1.952c0 .774.258 1.406.746 1.951.488.545 1.09.804 1.808.804.717 0 1.32-.259 1.808-.804s.718-1.177.718-1.951Zm5.826 2.123c.315.402.746.603 1.291.603.545 0 .976-.2 1.263-.603.316-.402.459-.947.459-1.607V3.508h1.894v4.764c0 1.234-.344 2.181-1.033 2.841-.689.66-1.55 1.005-2.612 1.005-1.061 0-1.951-.345-2.64-1.005-.689-.66-1.033-1.607-1.033-2.841V3.508h1.894v4.706c.029.69.2 1.234.517 1.636ZM68.11 4.627c.804.746 1.234 1.78 1.234 3.1s-.401 2.382-1.176 3.156c-.804.775-2.01 1.149-3.616 1.149h-2.956V3.508h3.013c1.521 0 2.698.373 3.501 1.119Zm-1.377 5.08c.459-.43.689-1.09.689-1.923 0-.832-.23-1.492-.69-1.923-.458-.46-1.176-.689-2.152-.689H63.52v5.195h1.206c.86 0 1.52-.23 2.009-.66Zm13.431-6.2h1.923v8.524h-1.923L76.12 6.693v5.338h-1.923V3.508h1.808l4.161 5.51v-5.51Zm10.074 8.524-.804-1.836h-3.587l-.804 1.836h-2.037l3.673-8.523h1.837l3.674 8.523h-1.952Zm-2.554-5.97-1.062 2.47h2.123l-1.061-2.47Zm8.58-.889v6.86h-1.922v-6.86h-2.41V3.508h6.744v1.664h-2.411Zm3.789-1.664h1.894v8.523h-1.894V3.508Zm7.146 5.424 2.182-5.424h2.066l-3.444 8.523h-1.607l-3.415-8.523h2.066l2.152 5.424Zm11.394-5.424V5.2h-4.247v1.78h3.817v1.607h-3.817v1.779h4.391v1.664h-6.285V3.508h6.141ZM28.477 19.293c.517 0 .947-.201 1.291-.632l.69.718c-.546.602-1.177.918-1.924.918-.746 0-1.348-.23-1.808-.689-.488-.459-.717-1.062-.717-1.75 0-.718.23-1.292.717-1.78.488-.488 1.09-.717 1.78-.717.775 0 1.435.287 1.98.89l-.66.745c-.345-.43-.746-.63-1.263-.63-.402 0-.746.143-1.033.4-.287.26-.43.604-.43 1.063 0 .459.143.803.401 1.062.258.287.603.402.976.402Zm6.716.287c-.488.459-1.09.717-1.78.717-.688 0-1.291-.23-1.78-.718-.487-.459-.716-1.061-.716-1.75 0-.689.229-1.292.717-1.75a2.543 2.543 0 0 1 1.78-.718c.688 0 1.29.23 1.779.717.488.46.717 1.062.717 1.75 0 .69-.23 1.292-.717 1.752Zm-.345-1.751c0-.43-.143-.804-.401-1.09-.288-.288-.603-.46-1.005-.46-.402 0-.746.143-1.005.46-.286.286-.401.66-.401 1.09 0 .43.143.775.401 1.09.288.287.603.46 1.005.46.402 0 .746-.144 1.005-.46.258-.287.401-.66.401-1.09Zm6.257-.603-1.292 2.64h-.631l-1.291-2.64v3.014h-1.062v-4.764h1.435l1.234 2.611 1.234-2.611h1.435v4.764h-1.062v-3.014Zm5.539-1.32c.344.287.517.717.517 1.32 0 .603-.173 1.033-.517 1.292-.344.287-.861.401-1.579.401h-.631v1.32h-1.062v-4.764h1.693c.718 0 1.235.144 1.579.43Zm-.775 1.865a.974.974 0 0 0 .2-.631c0-.287-.085-.46-.257-.574-.173-.115-.43-.172-.775-.172h-.603V18h.718c.344 0 .573-.086.717-.23Zm3.387 1.235a.87.87 0 0 0 .717.344.87.87 0 0 0 .718-.345c.172-.23.258-.516.258-.918v-2.64h1.062v2.669c0 .689-.201 1.234-.574 1.607-.373.373-.861.545-1.464.545s-1.09-.2-1.464-.574c-.373-.373-.574-.918-.574-1.607v-2.669h1.062v2.698c0 .373.086.689.259.89Zm5.883-2.612v3.846h-1.062v-3.846h-1.349v-.918h3.76v.918h-1.349Zm2.152-.918h1.062v4.792h-1.062v-4.793Zm5.568 0h1.062v4.764H62.86l-2.267-2.985v2.985H59.53v-4.764h.976l2.353 3.07v-3.07Zm5.367 2.353h1.062v1.693c-.488.517-1.12.804-1.98.804-.689 0-1.292-.23-1.78-.69-.488-.458-.717-1.061-.717-1.75 0-.717.23-1.291.717-1.78.488-.487 1.062-.717 1.751-.717.689 0 1.292.23 1.78.69l-.546.803c-.2-.201-.402-.316-.603-.373a1.856 1.856 0 0 0-.573-.115c-.402 0-.747.143-1.034.402-.287.287-.43.631-.43 1.09 0 .46.143.804.402 1.09.258.26.574.403.947.403s.689-.058.918-.201l.086-1.35Zm7.089-2.354v.919h-2.21v1.033h2.124v.947h-2.124v1.866h-1.062v-4.764h3.272Zm4.936 4.104c-.488.46-1.09.718-1.779.718-.718 0-1.291-.23-1.78-.718-.487-.459-.717-1.061-.717-1.75 0-.689.23-1.292.718-1.75a2.543 2.543 0 0 1 1.779-.718c.718 0 1.291.23 1.78.717.487.46.717 1.062.717 1.75 0 .69-.23 1.292-.718 1.752Zm-.373-1.75c0-.43-.143-.804-.401-1.09-.288-.288-.603-.46-1.005-.46-.402 0-.746.143-1.004.46-.288.286-.402.66-.402 1.09 0 .43.143.775.401 1.09.287.287.603.46 1.005.46.402 0 .746-.144 1.005-.46.286-.287.401-.66.401-1.09Zm3.272 1.177a.87.87 0 0 0 .718.344.87.87 0 0 0 .717-.345c.172-.23.258-.516.258-.918v-2.64h1.062v2.669c0 .689-.2 1.234-.574 1.607-.373.373-.86.545-1.463.545-.603 0-1.091-.2-1.464-.574-.373-.373-.574-.918-.574-1.607v-2.669h1.062v2.698c-.029.373.086.689.258.89Zm7.204-3.53h1.062v4.764h-1.062l-2.268-2.985v2.985h-1.061v-4.764H88l2.354 3.07v-3.07Zm5.883.63c.46.431.689 1.005.689 1.752 0 .746-.23 1.32-.66 1.75-.43.43-1.12.66-2.038.66h-1.636v-4.793h1.694c.86 0 1.52.201 1.951.632Zm-.775 2.842c.259-.258.402-.603.402-1.062 0-.459-.143-.832-.402-1.09-.258-.259-.66-.373-1.205-.373h-.603v2.898h.689c.488-.029.861-.143 1.12-.373Zm5.654 1.292-.43-1.034h-2.01l-.43 1.034h-1.148l2.067-4.793h1.033l2.066 4.793h-1.148Zm-1.435-3.358-.603 1.377h1.206l-.603-1.377Zm4.822-.488v3.846h-1.091v-3.846h-1.349v-.918h3.789v.918h-1.349Zm2.123-.918h1.062v4.792h-1.062v-4.793Zm6.257 4.103a2.544 2.544 0 0 1-1.779.718c-.718 0-1.292-.23-1.78-.718-.488-.459-.717-1.061-.717-1.75 0-.689.229-1.292.717-1.75a2.545 2.545 0 0 1 1.78-.718c.717 0 1.291.23 1.779.717.488.46.718 1.062.718 1.75 0 .69-.23 1.292-.718 1.752Zm-.344-1.75c0-.43-.144-.804-.402-1.09-.287-.288-.603-.46-1.005-.46-.401 0-.746.143-1.004.46-.287.286-.402.66-.402 1.09 0 .43.144.775.402 1.09.287.287.603.46 1.004.46.402 0 .747-.144 1.005-.46.258-.287.402-.66.402-1.09Zm5.309-2.354h1.091v4.765h-1.091l-2.267-2.985v2.985h-1.062v-4.764h1.004l2.325 3.07v-3.07Z" fill="#666564"/><path d="M5.776 14.586H3.164v6.142h6.113v-2.64H5.776v-3.502Zm13.144.029v3.472H15.42v-.029 2.67h6.113v-6.142h-2.64l.028.029ZM3.164 8.473h2.64l-.028-.029V4.971h3.501v-2.64H3.164v6.142ZM15.42 2.33v2.64h3.501v3.502h2.612V2.33h-6.113Z" fill="#12100C" fill-opacity=".7"/><path d="M15.075 8.473 11.573 4.97h3.846v-2.64H9.277v2.64l3.502 3.502h2.296Zm-3.157 6.113H9.622l2.898 2.899.574.602H9.277v2.64h6.142v-2.669l-1.75-1.721-1.752-1.751Zm7.002-6.113v3.817l-.603-.603L15.42 8.79v2.324l1.722 1.722 1.75 1.75h2.64V8.474h-2.61Zm-9.643 3.472L5.804 8.473h-2.64v6.113h2.612v-3.817l3.501 3.501v-2.325Z" fill="#666564"/></svg>