<svg width="72" height="16" fill="none" xmlns="http://www.w3.org/2000/svg"><path d="m15.896 6.162-.021-.058-2.2-5.74a.58.58 0 0 0-1.1.06L11.09 4.97H5.076L3.591.424a.582.582 0 0 0-1.1-.06L.294 6.105l-.023.058a4.085 4.085 0 0 0 1.355 4.721l.008.006.02.015 3.346 2.508 1.66 1.255 1.01.763a.682.682 0 0 0 .821 0l1.01-.763 1.66-1.255 3.37-2.523.01-.007a4.085 4.085 0 0 0 1.357-4.72ZM29.069 5.865h2.364c-.394-2.513-2.57-4.264-5.403-4.264-3.351 0-5.866 2.464-5.866 6.59 0 4.053 2.402 6.566 5.934 6.566 3.171 0 5.44-2.039 5.44-5.34V7.879h-5.196v1.813h2.952c-.037 1.826-1.257 2.982-3.183 2.982-2.144 0-3.614-1.606-3.614-4.508 0-2.883 1.495-4.483 3.564-4.483 1.544 0 2.6.825 3.008 2.182ZM33.102 14.582h2.263v-9.6h-2.263v9.6Zm1.141-11.126c.72 0 1.307-.55 1.307-1.225S34.963.999 34.243.999c-.719 0-1.313.55-1.313 1.232 0 .682.584 1.225 1.31 1.225h.003ZM42.143 4.982h-1.895V2.676h-2.263v2.306h-1.363v1.75h1.363v5.342c-.013 1.806 1.301 2.698 3.001 2.645a4.597 4.597 0 0 0 1.333-.225l-.382-1.77a2.756 2.756 0 0 1-.662.088c-.57 0-1.027-.2-1.027-1.114v-4.97h1.895V4.982ZM43.895 14.582h7.96v-1.945h-5.64V1.775h-2.32v12.807ZM56.192 14.776c1.507 0 2.406-.707 2.82-1.513h.074v1.319h2.18V8.154c0-2.539-2.07-3.302-3.903-3.302-2.02 0-3.57.9-4.07 2.65l2.114.302c.224-.657.863-1.22 1.972-1.22 1.051 0 1.626.538 1.626 1.482v.038c0 .65-.682.682-2.376.862-1.863.2-3.645.757-3.645 2.92-.007 1.89 1.375 2.89 3.208 2.89Zm.744-1.66c-.945 0-1.62-.432-1.62-1.264 0-.87.756-1.231 1.764-1.376.595-.08 1.783-.231 2.076-.468v1.132c.006 1.065-.858 1.972-2.22 1.972v.004ZM62.932 14.582h2.227v-1.513h.13c.357.7 1.102 1.682 2.753 1.682 2.263 0 3.958-1.795 3.958-4.959 0-3.201-1.745-4.94-3.965-4.94-1.694 0-2.401 1.02-2.746 1.714h-.095v-4.79h-2.262v12.806Zm2.22-4.802c0-1.868.8-3.071 2.258-3.071 1.507 0 2.283 1.282 2.283 3.07 0 1.79-.788 3.114-2.283 3.114-1.445 0-2.258-1.25-2.258-3.113Z" fill="#666564"/></svg>