<svg width="35" height="23" fill="none" xmlns="http://www.w3.org/2000/svg"><path d="M28.627 5.005c.019-.513.234-.99.61-1.34.375-.35.866-.532 1.38-.516a1.931 1.931 0 0 1 1.857 1.992c-.02.514-.235.99-.61 1.339a1.905 1.905 0 0 1-1.381.517 1.93 1.93 0 0 1-1.855-1.992h-.001ZM33.769 6.9c.087-.058.152-.105.179-.116l.029-.046c-.074-.464-.767-2.718-1.29-3.26-.145-.147-.26-.293-.494-.43-1.896-1.104-6.392-1.771-6.603-1.801l-.036.01-.013.032-.02 1.036c-.46-.154-3.798-1.233-6.928-1.341C15.94.89 12.074.546 6.952 3.696L6.8 3.79C4.39 5.293 2.727 7.147 1.857 9.3c-.273.678-.64 2.207-.276 3.646.157.629.449 1.26.842 1.826.89 1.278 2.383 2.126 3.991 2.27 2.27.203 3.989-.817 4.6-2.726.42-1.317 0-3.25-1.611-4.236-1.311-.803-2.72-.62-3.538-.08-.71.47-1.111 1.202-1.105 2.004.017 1.424 1.243 2.18 2.124 2.183.257 0 .514-.045.804-.14.103-.03.2-.07.307-.136l.034-.02.021-.014-.007.005a.725.725 0 0 0 .294-.796.723.723 0 0 0-.83-.512l-.05.012-.067.02-.098.034c-.203.05-.355.054-.387.055-.103-.006-.611-.158-.611-.714v-.008c0-.204.082-.347.127-.425.158-.248.59-.491 1.174-.44.767.066 1.32.46 1.685 1.2.34.69.251 1.539-.229 2.16-.476.616-1.325.877-2.454.755a3.363 3.363 0 0 1-2.639-1.8c-.527-.997-.556-2.178-.074-3.086C5.036 8.162 7.212 8.184 8.406 8.39c1.765.306 3.774 1.935 4.487 3.816.115.3.174.537.225.755l.077.324 1.995.974.026.02.048-.005.009-.057c-.012-.045-.041-.086-.087-.644-.038-.495-.116-1.851.567-2.524.265-.262.67-.497.988-.572 1.308-.32 2.841-.099 4.291 1.58.75.866 1.116 1.261 1.3 1.438l.064.058.075.056c.06.033 2.494 1.153 2.494 1.153l.05-.011v-.053c-.015-.018-1.541-1.99-1.27-3.614.214-1.293 1.244-1.176 2.667-1.015.465.054.994.115 1.543.127 1.529.01 3.176-.272 4.191-.717.657-.285 1.076-.475 1.34-.714.094-.078.143-.205.194-.342l.035-.09c.043-.111.106-.345.133-.473.011-.056.017-.116-.023-.147l-.14.026c-.446.268-1.56.776-2.602.798-1.294.026-3.899-1.301-4.17-1.442l-.027-.03c-.063-.157-.455-1.081-.538-1.277 1.875 1.236 3.43 1.92 4.622 2.025 1.326.118 2.358-.606 2.8-.915Zm-2.948-1.716c-.33 0-.595-.178-.595-.396 0-.22.265-.398.595-.398.329 0 .595.178.595.398 0 .218-.266.396-.595.396Zm-.22-1.467c-.36-.013-.7.114-.96.359a1.33 1.33 0 0 0-.426.933A1.347 1.347 0 0 0 30.51 6.4c.359.01.701-.117.964-.36a1.345 1.345 0 0 0-.872-2.323Z" fill="#666564"/><path d="M14.65 16.126c-.845 0-1.31.715-1.31 1.21v.633c0 .728.595 1.179 1.147 1.179h1.935c.244 0 .295.16.295.294v.41c0 .043-.01.436-.295.436h-2.64c-.261 0-.45.182-.45.432v.113c0 .249.189.43.45.43h2.783c.728 0 1.197-.506 1.197-1.29v-.684c0-.737-.529-1.066-1.054-1.066h-1.904c-.287 0-.416-.215-.416-.367v-.378c0-.237.159-.375.437-.375h2.108c.258 0 .453-.186.453-.431v-.114c0-.246-.198-.432-.462-.432H14.65ZM22.557 16.126a.452.452 0 0 0-.451.453v3.24c0 .26-.212.469-.468.469h-1.47a.468.468 0 0 1-.469-.469v-3.24a.453.453 0 0 0-.452-.453h-.143a.45.45 0 0 0-.453.453v3.363c0 .783.616 1.351 1.465 1.351h1.573c.847 0 1.464-.568 1.464-1.351v-3.363a.448.448 0 0 0-.452-.453h-.143ZM25.38 16.126c-.846 0-1.311.715-1.311 1.21v.633c0 .728.595 1.179 1.146 1.179h1.934c.244 0 .296.16.296.294v.41c0 .043-.009.436-.296.436h-2.64c-.26 0-.451.182-.451.432v.113c0 .249.19.43.451.43h2.784c.727 0 1.199-.506 1.199-1.29v-.684c0-.737-.53-1.066-1.056-1.066h-1.904c-.287 0-.416-.215-.416-.367v-.378c0-.237.158-.375.437-.375h2.108c.258 0 .452-.186.452-.431v-.114c0-.246-.197-.432-.463-.432h-2.27ZM29.822 16.126c-.25 0-.44.186-.44.433v4.274c0 .245.185.43.43.43h3.406c.262 0 .452-.181.452-.43v-.113c0-.25-.19-.432-.452-.432h-2.79V19.2h2.044c.262 0 .452-.184.452-.433v-.113c0-.25-.19-.43-.452-.43h-2.044v-1.122h2.648c.26 0 .451-.18.451-.43v-.114c0-.25-.19-.432-.451-.432H29.82h.001ZM.647 20.447v-1.471c0-.173.142-.314.315-.314h.813c.169 0 .313.144.313.314v1.471c0 .174-.14.315-.314.315H.957a.308.308 0 0 1-.309-.315Zm.226-2.289c-.427 0-.774.332-.774.742v1.611c0 .416.336.755.748.755h1.042a.753.753 0 0 0 .749-.755V18.9c0-.41-.348-.742-.775-.742h-.99ZM3.955 20.417v-1.408c0-.194.152-.346.346-.346h.762c.194 0 .346.152.346.346v1.408a.347.347 0 0 1-.346.346H4.3a.347.347 0 0 1-.346-.346Zm1.043-2.277c-.3 0-.527.108-.71.196-.11.053-.206.099-.28.099a.089.089 0 0 1-.078-.04l-.07-.133a.215.215 0 0 0-.172-.103h-.103c-.1 0-.179.09-.179.198v4.087c0 .128.101.23.23.23h.089a.23.23 0 0 0 .23-.23v-1.356c0-.04.026-.084.052-.084.075 0 .17.044.282.095.182.083.408.186.709.186h.096c.532 0 .863-.304.863-.792v-1.56c0-.482-.338-.793-.863-.793h-.096ZM7.274 18.971c0-.173.135-.308.308-.308h.838c.172 0 .307.135.307.308v.5H7.274v-.5Zm.225-.812c-.427 0-.773.332-.773.741v1.6c0 .415.336.767.734.767h1.075c.133 0 .23-.093.23-.218v-.07c0-.126-.097-.216-.23-.216h-.883c-.248 0-.379-.122-.379-.353v-.468h1.595c.256 0 .408-.157.408-.422v-.62c0-.41-.348-.741-.773-.741H7.5ZM11.49 18.14c-.3 0-.526.107-.709.194-.113.053-.21.1-.29.1-.034 0-.048-.004-.075-.051l-.063-.115a.188.188 0 0 0-.18-.11h-.09c-.106 0-.185.084-.185.198v2.681c0 .127.1.23.23.23h.089a.23.23 0 0 0 .23-.23V19.01c0-.19.156-.347.346-.347h.761c.19 0 .346.156.346.347v2.028c0 .127.101.23.23.23h.089a.23.23 0 0 0 .23-.23v-2.106c0-.48-.338-.791-.864-.791h-.095ZM34.35 20.638h.055c.062 0 .115-.023.115-.082 0-.041-.03-.082-.115-.082a.334.334 0 0 0-.055.003v.16Zm0 .262h-.075v-.473c.04-.006.077-.012.133-.012.072 0 .12.015.148.036.028.02.043.052.043.098 0 .062-.041.1-.092.115v.004c.041.008.07.045.08.115a.39.39 0 0 0 .03.117h-.08a.342.342 0 0 1-.032-.12c-.011-.06-.042-.084-.102-.084h-.053v.204Zm.08-.605a.35.35 0 0 0-.34.358c0 .202.153.36.341.36.189.002.34-.158.34-.358 0-.2-.151-.36-.34-.36h-.002Zm.001-.066c.232 0 .417.188.417.424a.42.42 0 1 1-.84 0c0-.236.19-.424.421-.424h.002Z" fill="#666564"/></svg>