<svg width="93" height="21" fill="none" xmlns="http://www.w3.org/2000/svg"><path d="M33.729 10.049c-1.17 0-2.082.304-2.983.784v8.701c0 .234-.198.457-.432.457h-1.989c-.234 0-.432-.211-.432-.457V8.213a.44.44 0 0 1 .432-.433h1.884a.44.44 0 0 1 .432.433v.456a5.083 5.083 0 0 1 3.1-1.041.44.44 0 0 1 .432.433v1.555a.458.458 0 0 1-.444.433ZM45.132 14.867h-7.053v.07c0 1.252.515 2.749 2.597 2.749 1.579 0 3.076-.129 3.977-.222h.07c.222 0 .386.105.386.327v1.427c0 .351-.07.503-.456.562-1.404.257-2.246.362-4.2.362-2.163 0-5.24-1.17-5.24-5.427v-1.602c0-3.38 1.884-5.497 5.194-5.497 3.333 0 5.146 2.269 5.146 5.497v1.216c.012.351-.117.538-.421.538Zm-2.444-2.117c0-1.684-.936-2.666-2.27-2.666-1.333 0-2.315.947-2.315 2.666v.082h4.584v-.082ZM57.564 19.979h-1.988c-.234 0-.433-.21-.433-.456V12.47c0-1.883-.175-2.421-1.836-2.421-.737 0-1.532.304-2.444.784v8.701c0 .234-.2.457-.433.457h-1.988c-.234 0-.433-.211-.433-.457V8.213a.44.44 0 0 1 .433-.433h1.883a.44.44 0 0 1 .432.433v.456c1.252-.796 2.082-1.041 3.51-1.041 3.11 0 3.742 2.093 3.742 4.842v7.053c-.012.245-.199.456-.445.456ZM69.905 19.593c-1.345.35-2.959.561-4.35.561-3.486 0-5.17-2.058-5.17-5.427v-1.66c0-3.38 1.684-5.428 5.17-5.428.514 0 1.274.047 2.081.152V3.967a.44.44 0 0 1 .433-.433h1.988a.44.44 0 0 1 .433.433V19.03c0 .305-.093.433-.585.562Zm-2.269-9.486a19.204 19.204 0 0 0-2.082-.152c-1.86 0-2.315 1.322-2.315 3.1v1.66c0 1.778.456 3.1 2.315 3.1.784 0 1.661-.07 2.082-.152v-7.556ZM82.841 14.867h-7.053v.07c0 1.252.515 2.749 2.597 2.749 1.579 0 3.076-.129 3.977-.222h.07c.21 0 .386.105.386.327v1.427c0 .351-.07.503-.456.562-1.404.257-2.246.362-4.2.362-2.163 0-5.24-1.17-5.24-5.427v-1.602c0-3.38 1.884-5.497 5.194-5.497 3.333 0 5.146 2.269 5.146 5.497v1.216c.012.351-.117.538-.42.538Zm-2.444-2.117c0-1.684-.936-2.666-2.27-2.666-1.344 0-2.315.947-2.315 2.666v.082h4.585v-.082ZM91.566 10.049c-1.17 0-2.082.304-2.983.784v8.701c0 .234-.198.457-.432.457h-1.989c-.234 0-.433-.211-.433-.457V8.213a.44.44 0 0 1 .433-.433h1.883a.44.44 0 0 1 .433.433v.456a5.083 5.083 0 0 1 3.1-1.041.44.44 0 0 1 .432.433v1.555a.458.458 0 0 1-.444.433ZM13.414.797h-.234v2.644h2.643V.797h-2.409ZM6.42.798A6.226 6.226 0 0 0 2 2.634 6.226 6.226 0 0 0 .163 7.055v9.404h2.643V7.02A3.748 3.748 0 0 1 3.917 4.53 3.774 3.774 0 0 1 6.432 3.44h5.053V.798H6.42ZM17.754 9.475h-.234v2.643h2.644V9.475h-2.41ZM17.754 5.137h-.234v2.644h2.644V5.137h-2.41ZM19.93.797h-2.41v2.644h2.644V.797h-.234ZM17.754 13.815h-.234v2.643h2.644v-2.643h-2.41ZM17.754 18.154h-.234V20.797h2.644V18.154h-2.41ZM13.414 18.154h-.234V20.797h2.643V18.154h-2.409ZM9.076 18.154h-.234V20.797h2.643V18.154H9.076ZM4.736 18.154h-.234V20.797h2.643V18.154H4.736ZM.396 18.154H.162V20.797h2.643V18.154H.396Z" fill="#666564"/></svg>