<svg xmlns="http://www.w3.org/2000/svg" width="1767" height="620" fill="none" viewBox="0 0 1767 620"><g style="mix-blend-mode:multiply" filter="url(#filter0_i)"><g style="mix-blend-mode:multiply"><path fill="#666564" d="M685.841 401.989C701.941 412.289 724.941 420.089 749.741 420.089C786.441 420.089 807.841 400.689 807.841 372.689C807.841 347.189 793.041 331.889 755.541 317.889C710.241 301.389 682.241 277.489 682.241 238.789C682.241 195.489 718.041 163.389 772.041 163.389C800.041 163.389 821.041 169.989 833.041 176.989L823.141 206.289C814.441 200.889 795.941 193.089 770.841 193.089C732.941 193.089 718.541 215.789 718.541 234.689C718.541 260.689 735.441 273.389 773.741 288.289C820.741 306.389 844.241 329.089 844.241 369.889C844.241 412.689 812.941 450.189 747.441 450.189C720.641 450.189 691.441 441.989 676.541 432.089L685.841 401.989Z"/></g><g style="mix-blend-mode:multiply"><path fill="#666564" d="M934.74 198.489V246.289H986.64V273.889H934.74V381.389C934.74 406.089 941.74 420.089 961.94 420.089C971.84 420.089 977.64 419.289 982.94 417.589L984.54 445.189C977.54 447.689 966.44 450.089 952.44 450.089C935.54 450.089 921.94 444.289 913.34 434.889C903.44 423.789 899.34 406.089 899.34 382.589V273.889H868.44V246.289H899.34V209.189L934.74 198.489Z"/></g><g style="mix-blend-mode:multiply"><path fill="#666564" d="M1194.24 390.889C1194.24 411.889 1194.64 429.989 1195.84 445.689H1163.74L1161.64 413.189H1160.84C1151.74 429.289 1130.34 450.289 1094.94 450.289C1063.64 450.289 1026.14 432.589 1026.14 362.989V246.289H1062.44V356.289C1062.44 394.189 1074.34 420.189 1106.94 420.189C1131.24 420.189 1148.14 403.289 1154.74 386.789C1156.84 381.889 1158.04 375.289 1158.04 368.289V246.289H1194.34V390.889H1194.24Z"/></g><g style="mix-blend-mode:multiply"><path fill="#666564" d="M1426.24 153.189V394.189C1426.24 411.889 1427.04 432.089 1427.84 445.689H1395.74L1394.14 411.089H1392.94C1382.24 433.289 1358.34 450.189 1325.74 450.189C1277.54 450.189 1240.04 409.389 1240.04 348.789C1239.64 282.489 1281.24 242.089 1329.44 242.089C1360.34 242.089 1380.54 256.489 1389.64 272.189H1390.44V153.189H1426.24ZM1390.34 327.389C1390.34 322.889 1389.94 316.689 1388.74 312.189C1383.34 289.489 1363.64 270.589 1336.44 270.589C1298.94 270.589 1276.74 303.589 1276.74 347.189C1276.74 387.589 1296.94 420.989 1335.64 420.989C1359.94 420.989 1382.24 404.489 1388.74 377.689C1389.94 372.789 1390.34 367.789 1390.34 361.989V327.389Z"/></g><g style="mix-blend-mode:multiply"><path fill="#666564" d="M1527.14 190.189C1527.14 202.589 1518.44 212.389 1504.04 212.389C1490.84 212.389 1482.24 202.489 1482.24 190.189C1482.24 177.789 1491.34 167.489 1504.94 167.489C1518.04 167.589 1527.14 177.489 1527.14 190.189ZM1486.74 445.689V246.289H1523.04V445.689H1486.74Z"/></g><g style="mix-blend-mode:multiply"><path fill="#666564" d="M1763.64 344.289C1763.64 417.989 1712.14 450.189 1664.34 450.189C1610.74 450.189 1568.74 410.589 1568.74 347.589C1568.74 281.289 1612.84 242.089 1667.64 242.089C1724.94 242.189 1763.64 283.789 1763.64 344.289ZM1605.84 346.389C1605.84 390.089 1630.54 422.989 1666.04 422.989C1700.64 422.989 1726.64 390.489 1726.64 345.489C1726.64 311.689 1709.74 269.289 1666.94 269.289C1624.34 269.289 1605.84 308.889 1605.84 346.389Z"/></g><g style="mix-blend-mode:multiply"><path fill="#666564" fill-rule="evenodd" d="M529.179 91.06C650.162 212.043 650.162 408.195 529.179 529.179C408.195 650.162 212.043 650.162 91.06 529.179C-29.924 408.195 -29.924 212.043 91.06 91.06C212.043 -29.9237 408.195 -29.9237 529.179 91.06ZM449.741 408.989H416.141L344.141 302.989C381.041 292.289 404.841 267.089 404.841 227.389C404.841 176.089 361.941 155.089 315.741 155.089C303.841 155.089 291.816 156.489 279.791 157.889C267.766 159.289 255.741 160.689 243.841 160.689C228.041 160.689 215.441 158.389 200.941 155.089V179.789L239.241 184.489V408.989H200.941V435.089H312.441V408.989H268.141V307.689H313.441L398.441 435.089H449.741V408.989ZM292.441 282.989L268.141 282.489V184.489C284.941 182.589 300.841 181.189 316.241 181.189C348.841 181.189 374.541 195.189 374.541 230.689C374.541 261.089 351.741 283.889 292.441 282.989Z" clip-rule="evenodd"/></g><g style="mix-blend-mode:multiply"><path fill="#666564" d="M1743.24 167.589C1730.34 167.589 1719.84 178.089 1719.84 190.989C1719.84 203.889 1730.34 214.389 1743.24 214.389C1756.14 214.389 1766.64 203.889 1766.64 190.989C1766.64 178.089 1756.14 167.589 1743.24 167.589ZM1762.84 190.989C1762.84 201.789 1754.04 210.489 1743.34 210.489C1732.54 210.489 1723.84 201.689 1723.84 190.989C1723.84 180.189 1732.64 171.489 1743.34 171.489C1754.04 171.389 1762.84 180.189 1762.84 190.989Z"/></g><g style="mix-blend-mode:multiply"><path fill="#666564" d="M1751.54 200.489L1745.74 191.989C1749.04 190.789 1750.74 188.389 1750.74 184.989C1750.74 179.889 1746.44 178.089 1742.34 178.089C1741.24 178.089 1740.14 178.189 1739.14 178.389C1738.14 178.489 1737.04 178.589 1736.04 178.589C1734.64 178.589 1733.54 178.389 1732.34 178.089L1731.74 177.989V181.289L1735.14 181.689V200.489H1731.74V203.889H1742.64V200.489H1738.74V192.589H1741.94L1749.24 203.589L1749.44 203.789H1754.74V200.389H1751.54V200.489ZM1747.04 185.289C1747.04 186.489 1746.54 187.489 1745.64 188.189C1744.54 188.989 1742.84 189.389 1740.64 189.389H1738.74V181.689C1740.14 181.589 1741.34 181.489 1742.44 181.489C1744.54 181.489 1747.04 182.189 1747.04 185.289Z"/></g></g><defs><filter id="filter0_i" width="1766.32" height="623.594" x=".322" y=".322" color-interpolation-filters="sRGB" filterUnits="userSpaceOnUse"><feFlood flood-opacity="0" result="BackgroundImageFix"/><feBlend in="SourceGraphic" in2="BackgroundImageFix" mode="normal" result="shape"/><feColorMatrix in="SourceAlpha" result="hardAlpha" type="matrix" values="0 0 0 0 0 0 0 0 0 0 0 0 0 0 0 0 0 0 127 0"/><feOffset dy="4"/><feGaussianBlur stdDeviation="2"/><feComposite in2="hardAlpha" k2="-1" k3="1" operator="arithmetic"/><feColorMatrix type="matrix" values="0 0 0 0 0 0 0 0 0 0 0 0 0 0 0 0 0 0 0.25 0"/><feBlend in2="shape" mode="normal" result="effect1_innerShadow"/></filter></defs></svg>