<svg width="44" height="22" fill="none" xmlns="http://www.w3.org/2000/svg"><g clip-path="url(#a)"><path d="M1.07.788v20.503h20.943l20.5-20.5H1.07V.787ZM27.596 19.195v1.53h.231v-.664h.26l.418.663h.26l-.447-.663c.223-.028.404-.158.404-.433 0-.301-.185-.433-.549-.433h-.576Zm.231.202h.318c.156 0 .331.026.331.217 0 .238-.177.26-.375.26h-.274v-.477Zm.289-.764c-.732 0-1.356.564-1.356 1.327 0 .768.624 1.342 1.356 1.342.722 0 1.327-.573 1.327-1.342 0-.763-.605-1.327-1.327-1.327Zm0 .216c.597 0 1.067.483 1.067 1.111 0 .639-.47 1.11-1.067 1.11a1.086 1.086 0 0 1-1.096-1.11c0-.628.488-1.11 1.096-1.11Z" fill="#666564"/><path fill-rule="evenodd" clip-rule="evenodd" d="M25.902 10.599h-.898V7.313h.898c1.2 0 2.154.395 2.154 1.622 0 1.267-.955 1.664-2.154 1.664Zm-9.669 2.348a3.73 3.73 0 0 1-1.306-.231l1.294-4.081h.027l1.267 4.092c-.381.136-.816.22-1.28.22h-.002Zm9.43-8.303h-4.079v9.7l-3.563-9.7h-3.532l-3.045 8.11c-.322-2.044-2.44-2.752-4.104-3.28-1.097-.353-2.265-.871-2.255-1.446.01-.47.628-.906 1.847-.84.822.04 1.546.107 2.985.803l1.417-2.469c-1.313-.67-3.132-1.092-4.62-1.095h-.01c-1.735 0-3.182.566-4.08 1.493a3.451 3.451 0 0 0-.976 2.38c-.023 1.25.437 2.137 1.4 2.847.816.597 1.856.982 2.775 1.27 1.133.35 2.058.655 2.047 1.305a.946.946 0 0 1-.268.634c-.282.293-.716.402-1.315.415-1.156.023-2.014-.157-3.379-.964l-1.26 2.504a9.412 9.412 0 0 0 4.618 1.228h.213c1.43-.028 2.587-.436 3.51-1.179l.15-.13-.408 1.097h3.704l.622-1.893c.651.22 1.393.344 2.177.344.766 0 1.489-.115 2.128-.325l.598 1.874h6.045v-3.92h1.319c3.185 0 5.07-1.62 5.07-4.341 0-3.029-1.83-4.418-5.73-4.418" fill="#F9F9F9"/></g><defs><clipPath id="a"><path fill="#fff" transform="translate(.454 .165)" d="M0 0h42.675v21.754H0z"/></clipPath></defs></svg>