<svg width="130" height="22" fill="none" xmlns="http://www.w3.org/2000/svg"><g clip-path="url(#a)" fill="#666564"><path d="m6.554 2.966 4.82 17.263c.33 1.154 1.566 1.854 2.72 1.524 1.195-.33 1.895-1.524 1.566-2.678L10.838 1.812C10.509.66 9.273-.042 8.119.288c-1.194.33-1.894 1.524-1.565 2.678Z"/><path d="M15.495 2.843 3.382 16.192c-.824.906-.741 2.266.206 3.09.907.783 2.307.7 3.131-.206l12.072-13.35c.824-.906.742-2.265-.206-3.09-.865-.782-2.307-.7-3.09.207Z"/><path d="m1.775 10.3 17.222 5.562c1.154.371 2.43-.247 2.802-1.4a2.185 2.185 0 0 0-1.401-2.761L3.176 6.139c-1.154-.371-2.431.247-2.802 1.4a2.185 2.185 0 0 0 1.4 2.761ZM34.118 13.555c0-.412-.165-.741-.453-.989-.288-.247-.66-.453-1.112-.659a25.253 25.253 0 0 0-1.442-.618c-.495-.206-.99-.494-1.442-.782-.454-.33-.783-.742-1.113-1.195-.288-.454-.412-1.072-.412-1.813 0-.618.124-1.195.33-1.648.206-.453.494-.865.906-1.195.412-.33.865-.536 1.4-.7.537-.165 1.113-.206 1.773-.206.741 0 1.483.082 2.142.206.66.123 1.236.33 1.648.576l-.783 2.143c-.288-.165-.7-.33-1.236-.453-.535-.165-1.153-.206-1.771-.206-.577 0-1.072.123-1.401.37-.33.248-.454.536-.454.948 0 .37.124.7.412.948.289.247.66.494 1.113.7.453.206.948.412 1.442.66.536.205.989.494 1.442.823.453.33.824.7 1.112 1.195.289.453.454 1.03.454 1.73 0 .701-.124 1.319-.371 1.813a2.878 2.878 0 0 1-.989 1.236c-.412.33-.906.577-1.524.742a7.115 7.115 0 0 1-1.937.247c-.948 0-1.771-.082-2.472-.247-.7-.165-1.236-.33-1.566-.536l.825-2.183c.123.082.33.165.535.247.206.082.453.165.742.247.288.083.576.124.865.206.33.041.618.083.948.083.741 0 1.318-.124 1.73-.371.453-.371.66-.783.66-1.319ZM46.6 10.382c-.164-.618-.453-1.112-.782-1.565a3.23 3.23 0 0 0-1.36-.99c-.535-.246-1.195-.37-1.936-.37-1.401 0-2.472.412-3.255 1.277-.783.865-1.154 2.06-1.154 3.626 0 .742.083 1.4.248 2.019.206.618.453 1.112.824 1.565.37.412.823.742 1.4.99.536.246 1.195.37 1.937.37 1.4 0 2.472-.412 3.214-1.277.782-.865 1.153-2.06 1.153-3.667 0-.7-.082-1.36-.288-1.978Zm-2.677 4.203c-.33.453-.783.7-1.401.7-.33 0-.618-.082-.865-.206-.248-.165-.412-.37-.577-.618-.165-.247-.247-.577-.33-.906a4.953 4.953 0 0 1-.123-1.154c0-1.03.164-1.771.494-2.184.33-.412.783-.659 1.4-.659.701 0 1.154.247 1.443.783.288.536.412 1.195.412 2.06 0 .989-.124 1.73-.453 2.184ZM51.176 7.746v5.315c0 .742.082 1.319.247 1.648.206.33.536.495 1.071.495.454 0 .824-.124 1.154-.413.33-.288.536-.618.7-.988V7.746h2.431v6.51c0 .494.041 1.03.083 1.524.04.495.123.948.206 1.319h-1.813l-.412-1.401h-.083c-.288.453-.7.865-1.194 1.195-.495.33-1.113.453-1.813.453-.453 0-.907-.082-1.277-.206-.371-.124-.7-.33-.948-.618a2.759 2.759 0 0 1-.577-1.154 7.578 7.578 0 0 1-.206-1.813V7.746h2.431ZM64.524 10.012c-.37-.124-.742-.206-1.03-.206-.453 0-.783.123-1.112.37a1.547 1.547 0 0 0-.577.866v6.015h-2.431V7.746h1.895l.289 1.236h.082c.206-.454.495-.824.865-1.072.371-.247.783-.37 1.277-.37.33 0 .7.082 1.113.206l-.37 2.266ZM72.764 16.48c-.37.288-.824.494-1.36.618-.535.165-1.07.206-1.606.206-.742 0-1.401-.123-1.896-.37-.494-.248-.947-.578-1.236-.99a3.885 3.885 0 0 1-.7-1.565 10.139 10.139 0 0 1-.206-2.02c0-1.565.37-2.8 1.071-3.625.7-.865 1.73-1.277 3.09-1.277.7 0 1.236.041 1.648.165.412.123.783.247 1.154.412l-.577 1.977a7.428 7.428 0 0 0-.865-.33 3.303 3.303 0 0 0-.948-.123c-.66 0-1.195.206-1.524.66-.33.453-.536 1.153-.536 2.1 0 .413.041.784.124 1.113.082.33.206.618.412.865.164.248.412.454.659.577.288.124.618.206.989.206.412 0 .741-.041 1.03-.165.288-.123.535-.247.782-.412l.495 1.978ZM81.624 9.435a3.075 3.075 0 0 0-.825-1.154 3.006 3.006 0 0 0-1.194-.618 5.232 5.232 0 0 0-1.401-.206c-1.401 0-2.513.412-3.296 1.236-.783.824-1.195 2.06-1.195 3.708 0 1.525.33 2.72 1.03 3.626.7.865 1.813 1.318 3.296 1.318.742 0 1.4-.082 2.019-.288.66-.206 1.153-.453 1.524-.783l-.782-1.607c-.206.165-.536.33-.948.495-.412.164-.865.206-1.36.206-.824 0-1.4-.206-1.771-.577-.371-.412-.577-.989-.577-1.772h5.603c.082-.33.124-.618.124-.947.04-.289.04-.577.04-.824a4.096 4.096 0 0 0-.287-1.813Zm-1.937 2.1h-3.46c.082-.617.246-1.153.535-1.524.33-.37.783-.576 1.4-.576.536 0 .948.164 1.195.535.289.371.371.865.33 1.566ZM90.399 7.704c-.618-.123-1.319-.164-2.143-.164-1.524 0-2.678.412-3.46 1.277-.783.865-1.195 2.101-1.195 3.79 0 1.607.288 2.76.865 3.502s1.483 1.113 2.72 1.113c1.111 0 1.894-.289 2.306-.865h.083v.576c0 .66-.165 1.154-.454 1.525-.288.37-.865.577-1.73.577-.577 0-1.03-.042-1.4-.165-.372-.124-.701-.206-.99-.33l-.494 1.937c.247.123.66.247 1.154.412.535.123 1.236.206 2.142.206 1.319 0 2.349-.33 3.09-.99.742-.617 1.113-1.647 1.113-2.966V8.075c-.454-.123-.948-.288-1.607-.37Zm-.865 6.304c-.124.412-.33.742-.577.948-.247.206-.618.33-1.072.33-.576 0-.988-.248-1.277-.701-.288-.453-.453-1.154-.453-2.06 0-1.03.165-1.772.536-2.225.33-.453.824-.7 1.442-.7.577 0 1.07.082 1.442.247v4.161h-.041ZM99.216 10.012c-.371-.124-.742-.206-1.03-.206-.454 0-.783.123-1.113.37a1.547 1.547 0 0 0-.577.866v6.015h-2.43V7.746h1.895l.288 1.236h.083c.206-.454.494-.824.865-1.072.37-.247.782-.37 1.277-.37.33 0 .7.082 1.112.206l-.37 2.266ZM108.28 15.697c-.041-.494-.041-1.03-.041-1.565 0-.536.041-1.072.082-1.607.041-.577.041-1.113.041-1.648 0-.495-.041-.948-.164-1.36-.083-.412-.289-.742-.536-1.03-.247-.288-.577-.494-1.03-.66-.453-.164-.989-.246-1.607-.246-.742 0-1.442.082-2.142.206-.701.123-1.278.288-1.772.535l.577 1.813c.329-.165.783-.288 1.318-.412.536-.082 1.071-.165 1.566-.165.659 0 1.071.165 1.236.453.206.289.247.783.165 1.484-.824-.041-1.566 0-2.225.082s-1.236.247-1.731.495c-.453.247-.824.535-1.112.947-.247.37-.371.865-.371 1.442 0 .412.083.783.206 1.113.124.33.33.618.577.865.247.247.536.412.906.577.33.123.742.206 1.195.206.701 0 1.277-.124 1.689-.412a3.397 3.397 0 0 0 1.031-.99h.082l.412 1.278h1.978c-.206-.453-.289-.906-.33-1.4Zm-2.596-1.483a1.938 1.938 0 0 1-.618.7c-.288.206-.659.33-1.153.33-.371 0-.66-.082-.866-.288-.206-.207-.288-.454-.288-.824 0-.248.082-.454.247-.618.165-.165.371-.289.659-.371a5.64 5.64 0 0 1 .948-.165c.371-.041.742 0 1.113 0v1.236h-.042ZM117.881 8.611c-.577-.742-1.442-1.112-2.637-1.112-.618 0-1.195.123-1.607.33-.453.205-.824.576-1.154 1.03h-.082l-.289-1.113h-1.771v13.06h2.431v-3.831c.247.123.494.206.741.247.248.082.577.082.948.082.7 0 1.277-.123 1.813-.37a3.723 3.723 0 0 0 1.359-1.03c.371-.454.66-.99.824-1.607.206-.66.289-1.36.289-2.184.041-1.607-.247-2.76-.865-3.502Zm-2.143 5.933c-.329.494-.865.742-1.565.742-.33 0-.619-.042-.825-.124-.206-.083-.37-.206-.576-.33V10.96c.164-.453.37-.824.618-1.07.288-.248.659-.372 1.112-.372.618 0 1.071.206 1.319.66.247.453.412 1.07.412 1.895.041 1.154-.124 1.978-.495 2.472ZM126.41 17.099v-5.315c0-.742-.124-1.319-.33-1.649-.206-.33-.577-.494-1.154-.494-.412 0-.782.124-1.153.412-.33.288-.577.618-.66 1.071V17.1h-2.43V3.997h2.43v4.779h.083c.288-.412.659-.7 1.112-.948.454-.247.989-.37 1.648-.37.454 0 .907.082 1.236.205.33.124.66.33.907.618.247.289.412.66.535 1.195.124.495.206 1.071.206 1.813v5.81h-2.43Z"/></g><defs><clipPath id="a"><path fill="#fff" transform="translate(.129 .165)" d="M0 0h128.877v21.754H0z"/></clipPath></defs></svg>