<svg width="95" height="23" fill="none" xmlns="http://www.w3.org/2000/svg"><g clip-path="url(#a)" fill-rule="evenodd" clip-rule="evenodd" fill="#666564"><path d="M1.253 15.76c-1.5-2.94-1.55-5.572-.636-7.886C1.69 5.193 4.074 2.958 7.013 1.171L7.43.922V1.4l-.02 3.407c1.59.03 2.99.367 4.39.705 2.106.506 3.864 1.033 5.92.725 1.767-.258-2.146 3.456-7.588 4.568-3.496.715-5.304 2.702-5.83 4.777a5.24 5.24 0 0 0 .238 3.327 4.164 4.164 0 0 0 2.175 2.235c1.281.546 2.98.477 4.966-.646.755-.03 1.51-.119 2.255-.268l.327-.07-.169.14c-3.128 2.492-5.86 2.79-7.845 1.907-1.252-.557-2.205-1.6-2.742-2.84a6.496 6.496 0 0 1-.337-4.112c.606-2.463 2.681-4.807 6.723-5.632 1.133-.228 2.354-.526 3.486-.963a8.946 8.946 0 0 0 2.354-1.301c-.963-.01-2.066-.278-3.307-.566-1.758-.417-3.774-.904-5.94-.775l-.287.02V5.75l.02-2.671C4.014 4.588 2.365 6.424 1.63 8.54c-.576 1.649-.576 3.476.15 5.442a6.272 6.272 0 0 0-.438 1.937l-.089-.159Z"/><path d="m7.549 7.338.884-.944 1.261 1.063-2.145-.12ZM4.936 16.98c3.159 1.48 6.049 1.202 8.76.07 2.751-1.142 5.333-3.168 7.846-5.135.785-.605 1.56-1.211 2.324-1.787l-4.022 1.261 1.976-4.697-.298.089a12.276 12.276 0 0 0-1.877 2.056c-.963 1.31-1.847 2.94-2.642 4.876-.556.368-1.112.705-1.668 1.023.933-2.582 2.006-4.727 3.218-6.426 1.35-1.877 2.87-3.208 4.568-3.972 1.738-.785 3.605-.894 5.651-.407 1.112.218 8.273 3.774 6.346 3.654-4.161-1.53-8.273 1.679-12.414 4.926l-.417.328c-2.572 2.016-5.224 4.082-8.074 5.284-2.89 1.221-5.98 1.559-9.386.09l-.129-.06-.03-.14c-.03-.129-.05-.268-.07-.397-.02-.129-.029-.278-.039-.407l-.03-.447.407.219ZM42.21 14.906h.685V6.693h3.198v-.606H39.02v.606h3.198v8.213h-.01Zm9.663-6.237-1.57 3.675-.714 1.817-.735-1.807-1.45-3.685h-.666l2.503 6.158-1.152 2.681h.655l3.804-8.839h-.675Zm6.167 5.76c-1.43 0-2.522-1.102-2.522-2.622 0-1.52 1.072-2.621 2.522-2.621 1.41 0 2.553.854 2.553 2.611 0 1.758-1.133 2.632-2.553 2.632Zm-2.572 3.08v-4.043c.526 1.033 1.52 1.55 2.572 1.55 1.758 0 3.169-1.143 3.169-3.228 0-2.007-1.341-3.149-3.03-3.208-1.211 0-2.204.615-2.701 1.569v-1.48h-.606v8.84h.596Zm11.203-2.514c.993 0 2.085-.407 2.691-1.201l-.437-.358c-.466.616-1.43.944-2.244.944-1.291 0-2.414-.845-2.543-2.314h5.621c.239-2.434-1.32-3.506-3.078-3.506-1.758 0-3.168 1.35-3.168 3.218-.01 1.996 1.4 3.217 3.158 3.217Zm-2.543-3.456c.14-1.53 1.252-2.403 2.543-2.403 1.5 0 2.512.854 2.522 2.403h-5.065Zm9.942 3.367V11.64h4.43v-1.54h-4.43V7.686h4.688v-1.6H72.4v8.83h1.669v-.01Zm9.484-6.356c-1.986 0-3.217 1.47-3.217 3.247 0 1.778 1.211 3.248 3.227 3.248s3.248-1.45 3.248-3.248c0-1.797-1.281-3.247-3.258-3.247Zm.01 1.4c1.033 0 1.689.904 1.689 1.848 0 .943-.566 1.827-1.689 1.827-1.122 0-1.688-.884-1.688-1.828 0-.943.576-1.847 1.688-1.847Zm7.747.835-1.222-2.096h-1.847v.05l2.046 3.019-2.175 3.118v.04h1.847l1.35-2.086 1.352 2.086h1.847v-.04l-2.175-3.118 2.046-3.02V8.69h-1.847l-1.222 2.095Z"/></g><defs><clipPath id="a"><path fill="#fff" transform="translate(.01 .922)" d="M0 0h94.498v21.75H0z"/></clipPath></defs></svg>