<svg width="59" height="21" fill="none" xmlns="http://www.w3.org/2000/svg"><path d="M4.157 14.326c.244.646.58 1.198 1.012 1.657.43.459.94.81 1.53 1.053.59.244 1.232.366 1.925.366a4.76 4.76 0 0 0 1.896-.38 4.664 4.664 0 0 0 1.545-1.067 4.839 4.839 0 0 0 1.025-1.643c.244-.637.365-1.349.365-2.135V.042h2.95v19.663h-2.922v-1.826a6.773 6.773 0 0 1-2.317 1.601c-.89.375-1.85.562-2.88.562a7.795 7.795 0 0 1-2.935-.548 6.873 6.873 0 0 1-2.36-1.559 7.355 7.355 0 0 1-1.572-2.43c-.384-.945-.576-1.998-.576-3.16V.042h2.95v12.135c0 .786.12 1.503.364 2.149ZM21.49.042v7.162a7.513 7.513 0 0 1 2.275-1.559 6.821 6.821 0 0 1 2.809-.575c1.048 0 2.031.196 2.95.59a7.536 7.536 0 0 1 2.387 1.6 7.537 7.537 0 0 1 1.6 2.388 7.34 7.34 0 0 1 .59 2.922c0 1.03-.196 1.999-.59 2.907a7.578 7.578 0 0 1-1.6 2.373 7.537 7.537 0 0 1-2.388 1.602c-.918.393-1.9.59-2.95.59a6.919 6.919 0 0 1-2.822-.576 7.463 7.463 0 0 1-2.29-1.56v1.798h-2.809V.042h2.837Zm.322 14.466c.253.6.604 1.123 1.054 1.573.45.45.974.805 1.573 1.067.6.262 1.245.394 1.938.394.674 0 1.31-.132 1.91-.394a4.913 4.913 0 0 0 1.56-1.067 5.21 5.21 0 0 0 1.052-1.573c.263-.6.394-1.245.394-1.938 0-.693-.131-1.344-.393-1.953a5.163 5.163 0 0 0-1.054-1.587c-.44-.45-.96-.8-1.559-1.053a4.864 4.864 0 0 0-1.91-.38c-.674 0-1.31.127-1.91.38a4.89 4.89 0 0 0-1.573 1.053 5.04 5.04 0 0 0-1.067 1.587 4.883 4.883 0 0 0-.394 1.953c0 .692.127 1.339.38 1.938ZM35.702 9.677c.375-.9.89-1.69 1.545-2.374A7.208 7.208 0 0 1 42.5 5.098c1.03 0 1.985.187 2.865.562.88.374 1.639.894 2.276 1.559a7.128 7.128 0 0 1 1.488 2.36c.356.908.534 1.896.534 2.963v.927H38.006a4.87 4.87 0 0 0 1.615 2.907c.421.365.899.651 1.433.857.533.206 1.1.309 1.699.309 1.704 0 3.08-.702 4.13-2.107l2.05 1.517a7.628 7.628 0 0 1-2.64 2.247c-1.05.543-2.23.815-3.54.815a7.91 7.91 0 0 1-2.992-.562 7.285 7.285 0 0 1-2.415-1.573 7.463 7.463 0 0 1-1.615-2.374c-.394-.908-.59-1.896-.59-2.963 0-1.011.187-1.966.561-2.865Zm3.947-1.11c-.796.665-1.325 1.55-1.587 2.655h8.736c-.244-1.105-.763-1.99-1.56-2.655-.795-.665-1.727-.997-2.794-.997-1.068 0-2 .332-2.795.997ZM54.97 8.89c-.599.655-.898 1.545-.898 2.668v8.146h-2.838V5.38h2.81v1.77c.355-.581.819-1.04 1.39-1.377.57-.337 1.25-.506 2.036-.506h.983v2.64h-1.18c-.936 0-1.703.328-2.303.984Z" fill="#666564"/></svg>