<svg width="117" height="20" fill="none" xmlns="http://www.w3.org/2000/svg"><g clip-path="url(#a)" fill="#666564"><path d="M50.725 17.32 45.69 3.3c-.064-.194-.16-.45-.16-.674 0-.608.514-1.184 1.25-1.184.641 0 1.06.416 1.25 1.024l4.172 12.082 4.202-12.113c.191-.574.577-.991 1.215-.991h.13c.675 0 1.092.417 1.283.991L63.2 14.548l4.237-12.143c.16-.516.51-.962 1.186-.962.705 0 1.219.543 1.219 1.153 0 .224-.097.479-.16.674l-5.067 14.051c-.259.734-.77 1.12-1.348 1.12h-.096c-.642 0-1.124-.386-1.35-1.12L57.686 5.408l-4.17 11.913c-.225.734-.707 1.12-1.347 1.12H52.1c-.607 0-1.118-.386-1.376-1.12M87.423 2.687c0-.676.545-1.254 1.219-1.254.71 0 1.254.546 1.254 1.254v2.845c1.22-2.763 3.925-4.067 5.718-4.067.742 0 1.224.546 1.224 1.252 0 .676-.448 1.156-1.096 1.252-3.214.385-5.845 2.796-5.845 7.585v5.633c0 .675-.514 1.252-1.22 1.252a1.236 1.236 0 0 1-1.253-1.252l-.001-14.503v.003ZM104.813 18.623c-4.472 0-8.12-3.469-8.12-8.558v-.066c0-4.737 3.306-8.55 7.806-8.55 4.814 0 7.555 3.972 7.555 8.328 0 .67-.54 1.148-1.135 1.148H99.152c.343 3.559 2.828 5.562 5.728 5.562 2.016 0 3.49-.796 4.689-1.909.189-.157.409-.284.694-.284.596 0 1.07.477 1.07 1.052 0 .285-.126.572-.381.792-1.54 1.493-3.368 2.482-6.136 2.482l-.003.003Zm4.819-9.51c-.253-2.992-1.954-5.597-5.197-5.597-2.833 0-4.974 2.383-5.285 5.597h10.482ZM69.954 13.49v-.065c0-3.49 2.884-5.35 7.078-5.35 2.116 0 3.62.288 5.097.707v-.58c0-2.976-1.831-4.516-4.935-4.516-1.666 0-2.636.213-3.856.756a1.24 1.24 0 0 1-.444.097c-.577 0-1.092-.482-1.092-1.057 0-.511.223-.828.674-1.028 1.631-.707 2.86-.943 4.974-.943 2.337 0 4.13.607 5.346 1.825 1.123 1.121 1.7 2.722 1.7 4.838v9.14c0 .702-.512 1.216-1.189 1.216-.702 0-1.178-.513-1.178-1.153v-1.58c-1.155 1.509-3.079 2.852-5.988 2.852-3.076-.002-6.187-1.762-6.187-5.158v-.001Zm12.205-1.28v-1.602a17.348 17.348 0 0 0-4.872-.705c-3.103 0-4.835 1.347-4.835 3.427v.063c0 2.082 1.92 3.3 4.164 3.3 3.042 0 5.543-1.86 5.543-4.483ZM5.906 2.534C5.364 1.345 4.023.807 2.771 1.363 1.518 1.92 1.057 3.31 1.623 4.499l5.256 11.423c.827 1.79 1.698 2.73 3.333 2.73 1.747 0 2.508-1.023 3.334-2.73 0 0 4.585-9.982 4.63-10.09a.663.663 0 0 1 .661-.425.73.73 0 0 1 .726.74v9.76c0 1.506.835 2.74 2.44 2.74s2.472-1.234 2.472-2.74v-7.99c0-1.54 1.104-2.54 2.609-2.54 1.504 0 2.506 1.035 2.506 2.54v7.99c0 1.506.837 2.74 2.44 2.74 1.604 0 2.476-1.234 2.476-2.74v-7.99c0-1.54 1.1-2.54 2.605-2.54 1.502 0 2.507 1.035 2.507 2.54v7.99c0 1.506.837 2.74 2.441 2.74 1.604 0 2.474-1.234 2.474-2.74V6.815c0-3.341-2.687-5.682-5.92-5.682-3.229 0-5.252 2.234-5.252 2.234-1.075-1.393-2.556-2.23-5.064-2.23-2.646 0-4.962 2.23-4.962 2.23-1.076-1.393-2.907-2.23-4.423-2.23-2.345 0-4.207 1.03-5.344 3.629l-3.356 7.914L5.906 2.534ZM112.244 3.53v-.014c0-1.118.907-2.06 2.047-2.06 1.156 0 2.051.932 2.051 2.051v.009a2.06 2.06 0 0 1-2.051 2.063 2.039 2.039 0 0 1-2.047-2.05Zm3.704-.014V3.51c0-.92-.71-1.674-1.657-1.674-.938 0-1.659.767-1.659 1.679v.01c0 .918.712 1.672 1.659 1.672.936 0 1.657-.766 1.657-1.682Z"/><path d="M113.547 2.687c0-.122.097-.219.221-.219h.683c.257 0 .456.073.579.203.113.11.174.268.174.452v.006a.609.609 0 0 1-.396.604l.302.368c.042.055.07.1.07.168 0 .12-.102.2-.207.2-.097 0-.163-.05-.214-.112l-.425-.538h-.349v.432a.214.214 0 0 1-.217.217.217.217 0 0 1-.22-.217V2.687h-.001Zm.879.745c.213 0 .331-.111.331-.28v-.007c0-.185-.126-.285-.338-.285h-.436v.571h.443Z"/></g><defs><clipPath id="a"><path fill="#fff" transform="translate(.268 .542)" d="M0 0h116.574v19H0z"/></clipPath></defs></svg>