<svg xmlns="http://www.w3.org/2000/svg" width="301" height="105" fill="none" viewBox="0 0 301 105"><g clip-path="url(#clip0_695_928)"><rect width="103.684" height="104" x=".434" y=".266" fill="#0539E0" rx="10.363"/><g filter="url(#filter0_ddii_695_928)"><ellipse cx="111.801" cy="6.792" stroke="url(#paint0_linear_695_928)" stroke-width="32.249" rx="86.299" ry="51.461" transform="rotate(-35.3619 111.801 6.79248)"/></g></g><path fill="#1E130F" d="M144.91 46.6261C141.671 46.6261 138.85 45.919 136.447 44.5047C134.045 43.0753 132.197 41.0679 130.904 38.4827C129.627 35.8976 128.988 32.9094 128.988 29.5182C128.988 26.1271 129.627 23.1389 130.904 20.5537C132.197 17.9685 134.045 15.9688 136.447 14.5546C138.85 13.1251 141.671 12.4104 144.91 12.4104C147.389 12.4104 149.624 12.8286 151.616 13.665C153.608 14.5014 155.296 15.7027 156.68 17.269C158.079 18.8201 159.128 20.6678 159.828 22.812L153.578 24.5456C152.954 22.523 151.913 20.9719 150.453 19.8922C148.993 18.7973 147.145 18.2499 144.91 18.2499C142.857 18.2499 141.131 18.7137 139.732 19.6413C138.333 20.5537 137.276 21.8539 136.561 23.5419C135.862 25.2147 135.512 27.2068 135.512 29.5182C135.512 31.8297 135.862 33.8294 136.561 35.5174C137.276 37.1902 138.333 38.4904 139.732 39.418C141.131 40.3304 142.857 40.7866 144.91 40.7866C147.145 40.7866 148.993 40.2468 150.453 39.1671C151.913 38.0722 152.954 36.5134 153.578 34.4909L159.828 36.2245C159.128 38.3687 158.079 40.2239 156.68 41.7903C155.296 43.3414 153.608 44.5351 151.616 45.3715C149.624 46.2079 147.389 46.6261 144.91 46.6261Z"/><path fill="#1E130F" d="M164.851 13.0947H175.48C177.092 13.0947 178.4 13.1555 179.404 13.2772C181.974 13.5813 184.186 14.4862 186.042 15.9916C187.912 17.4971 189.334 19.4284 190.307 21.7855C191.28 24.1274 191.767 26.705 191.767 29.5182C191.767 32.3315 191.28 34.9167 190.307 37.2738C189.334 39.6157 187.912 41.5393 186.042 43.0448C184.186 44.5503 181.974 45.4551 179.404 45.7593C178.4 45.8809 177.092 45.9418 175.48 45.9418H164.851V13.0947ZM175.48 40.1023C177.092 40.1023 178.278 40.0263 179.039 39.8742C180.407 39.6005 181.548 38.9542 182.46 37.9353C183.388 36.9012 184.072 35.6543 184.513 34.1944C184.969 32.7193 185.198 31.1606 185.198 29.5182C185.198 27.8303 184.962 26.2487 184.49 24.7737C184.034 23.2986 183.342 22.0592 182.415 21.0556C181.502 20.0519 180.377 19.4208 179.039 19.1623C178.278 19.0102 177.092 18.9342 175.48 18.9342H171.146V40.1023H175.48Z"/><path fill="#1E130F" d="M197.24 13.0947H218.681V18.8886H203.444V25.9142H215.944V31.708H203.444V40.1479H218.681V45.9418H197.24V13.0947Z"/><path fill="#1E130F" d="M138.911 92.007C136.721 92.007 134.881 91.4899 133.391 90.4558C131.916 89.4218 130.813 88.0227 130.083 86.2587C129.353 84.4795 128.989 82.4874 128.989 80.2824V66.8014H131.635V79.6209C131.635 82.7839 132.266 85.217 133.528 86.9202C134.805 88.6234 136.714 89.475 139.253 89.475C141.838 89.475 143.777 88.6234 145.07 86.9202C146.378 85.217 147.032 82.9436 147.032 80.0999V66.8014H149.678V91.4367H147.283V87.7414C146.385 89.1556 145.214 90.2201 143.77 90.9349C142.325 91.6496 140.705 92.007 138.911 92.007Z"/><path fill="#1E130F" d="M174.085 78.6172C174.085 75.4542 173.446 73.0211 172.169 71.3179C170.907 69.6147 169.006 68.7631 166.466 68.7631C163.881 68.7631 161.935 69.6147 160.627 71.3179C159.334 73.0211 158.688 75.2945 158.688 78.1382V91.4367H156.042V66.8014H158.437V70.4967C159.334 69.0824 160.505 68.018 161.95 67.3032C163.395 66.5885 165.014 66.2311 166.809 66.2311C168.998 66.2311 170.831 66.7482 172.306 67.7822C173.796 68.8163 174.906 70.223 175.636 72.0022C176.366 73.7662 176.731 75.7507 176.731 77.9557V91.4367H174.085V78.6172Z"/><path fill="#1E130F" d="M183.096 58.4756H185.719V61.8287H183.096V58.4756ZM183.096 66.8014H185.719V91.4367H183.096V66.8014Z"/><path fill="#1E130F" d="M190.293 66.8014H193.008L200.627 87.8554L208.222 66.8014H210.96L202.018 91.4367H199.235L190.293 66.8014Z"/><path fill="#1E130F" d="M224.333 92.121C221.991 92.121 219.953 91.5964 218.219 90.5471C216.486 89.4826 215.148 87.9771 214.205 86.0306C213.277 84.0841 212.813 81.7955 212.813 79.1647C212.813 76.4882 213.277 74.1692 214.205 72.2075C215.132 70.2458 216.455 68.7403 218.174 67.691C219.907 66.6417 221.945 66.1171 224.287 66.1171C226.675 66.1171 228.72 66.6645 230.423 67.7594C232.126 68.8391 233.411 70.4131 234.278 72.4812C235.16 74.5494 235.586 77.0129 235.555 79.8718H215.642C215.764 82.9588 216.569 85.3463 218.06 87.0343C219.565 88.7222 221.641 89.5662 224.287 89.5662C226.173 89.5662 227.83 89.1252 229.26 88.2432C230.689 87.3612 231.822 86.0838 232.658 84.4111L235.031 85.4604C234.042 87.5741 232.613 89.2165 230.742 90.3874C228.872 91.5431 226.735 92.121 224.333 92.121ZM232.727 77.4995C232.468 74.595 231.624 72.39 230.195 70.8845C228.765 69.3638 226.811 68.6034 224.333 68.6034C221.793 68.6034 219.778 69.379 218.288 70.9301C216.798 72.466 215.931 74.6558 215.687 77.4995H232.727Z"/><path fill="#1E130F" d="M240.601 66.8014H242.996V70.6792C243.498 69.7972 244.076 69.0748 244.73 68.5122C245.414 67.8735 246.251 67.3869 247.239 67.0523C248.243 66.7178 249.239 66.5505 250.227 66.5505C250.911 66.5505 251.55 66.6341 252.143 66.8014V69.2877C251.459 69.1357 250.813 69.0596 250.204 69.0596C248.562 69.0596 247.148 69.5615 245.962 70.5651C245.171 71.2494 244.578 72.063 244.182 73.0058C243.787 73.9335 243.528 74.8915 243.407 75.88C243.3 76.8684 243.247 77.9861 243.247 79.2331V91.4367H240.601V66.8014Z"/><path fill="#1E130F" d="M264.672 92.0754C262.786 92.0754 261.106 91.8093 259.631 91.277C258.156 90.7296 256.954 89.9464 256.027 88.9275C255.099 87.8935 254.491 86.6693 254.202 85.2551L256.894 84.7988C257.289 86.2739 258.186 87.4449 259.585 88.3117C260.999 89.1632 262.733 89.589 264.786 89.589C266.139 89.589 267.318 89.399 268.322 89.0188C269.325 88.6234 270.093 88.0607 270.625 87.3308C271.173 86.5857 271.447 85.7189 271.447 84.7304C271.447 83.8636 271.256 83.1793 270.876 82.6775C270.496 82.1756 269.781 81.7118 268.732 81.286C267.698 80.845 266.056 80.3204 263.805 79.7121C261.463 79.0886 259.661 78.4804 258.399 77.8873C257.152 77.279 256.262 76.5947 255.73 75.8343C255.213 75.074 254.955 74.116 254.955 72.9602C254.955 71.622 255.342 70.4359 256.118 69.4018C256.894 68.3677 257.981 67.5618 259.38 66.9839C260.779 66.406 262.383 66.1171 264.193 66.1171C266.002 66.1171 267.637 66.4212 269.097 67.0295C270.572 67.6226 271.758 68.459 272.656 69.5387C273.553 70.6183 274.07 71.8577 274.207 73.2568L271.515 73.7586C271.348 72.7093 270.922 71.7969 270.238 71.0213C269.553 70.2458 268.664 69.6527 267.569 69.2421C266.489 68.8163 265.257 68.6034 263.874 68.6034C262.657 68.6034 261.577 68.7859 260.634 69.1509C259.692 69.5006 258.954 69.9949 258.422 70.6336C257.905 71.2722 257.646 72.0022 257.646 72.8234C257.646 73.5685 257.859 74.192 258.285 74.6938C258.711 75.1804 259.441 75.6367 260.475 76.0624C261.524 76.4882 263.037 76.9521 265.014 77.4539C267.417 78.0622 269.272 78.6856 270.58 79.3243C271.888 79.963 272.815 80.7082 273.363 81.5598C273.925 82.3961 274.207 83.4606 274.207 84.7532C274.207 86.2739 273.826 87.5817 273.066 88.6766C272.306 89.7715 271.203 90.6155 269.759 91.2086C268.329 91.7864 266.634 92.0754 264.672 92.0754Z"/><path fill="#1E130F" d="M289.423 92.121C287.081 92.121 285.043 91.5964 283.309 90.5471C281.576 89.4826 280.238 87.9771 279.295 86.0306C278.367 84.0841 277.903 81.7955 277.903 79.1647C277.903 76.4882 278.367 74.1692 279.295 72.2075C280.222 70.2458 281.545 68.7403 283.264 67.691C284.997 66.6417 287.035 66.1171 289.377 66.1171C291.765 66.1171 293.81 66.6645 295.513 67.7594C297.216 68.8391 298.501 70.4131 299.368 72.4812C300.25 74.5494 300.676 77.0129 300.645 79.8718H280.732C280.854 82.9588 281.659 85.3463 283.15 87.0343C284.655 88.7222 286.731 89.5662 289.377 89.5662C291.263 89.5662 292.92 89.1252 294.35 88.2432C295.779 87.3612 296.912 86.0838 297.748 84.4111L300.121 85.4604C299.132 87.5741 297.703 89.2165 295.832 90.3874C293.962 91.5431 291.825 92.121 289.423 92.121ZM297.817 77.4995C297.558 74.595 296.714 72.39 295.285 70.8845C293.855 69.3638 291.901 68.6034 289.423 68.6034C286.883 68.6034 284.868 69.379 283.378 70.9301C281.888 72.466 281.021 74.6558 280.777 77.4995H297.817Z"/><defs><filter id="filter0_ddii_695_928" width="228.302" height="205.884" x="-1.27" y="-90.753" color-interpolation-filters="sRGB" filterUnits="userSpaceOnUse"><feFlood flood-opacity="0" result="BackgroundImageFix"/><feColorMatrix in="SourceAlpha" result="hardAlpha" type="matrix" values="0 0 0 0 0 0 0 0 0 0 0 0 0 0 0 0 0 0 127 0"/><feOffset dy="1.079"/><feGaussianBlur stdDeviation="1.349"/><feColorMatrix type="matrix" values="0 0 0 0 0 0 0 0 0 0 0 0 0 0 0 0 0 0 0.25 0"/><feBlend in2="BackgroundImageFix" mode="normal" result="effect1_dropShadow_695_928"/><feColorMatrix in="SourceAlpha" result="hardAlpha" type="matrix" values="0 0 0 0 0 0 0 0 0 0 0 0 0 0 0 0 0 0 127 0"/><feOffset dx="1.079" dy="5.397"/><feGaussianBlur stdDeviation="10.793"/><feColorMatrix type="matrix" values="0 0 0 0 0.937255 0 0 0 0 0.615686 0 0 0 0 0.513726 0 0 0 0.2 0"/><feBlend in2="effect1_dropShadow_695_928" mode="normal" result="effect2_dropShadow_695_928"/><feBlend in="SourceGraphic" in2="effect2_dropShadow_695_928" mode="normal" result="shape"/><feColorMatrix in="SourceAlpha" result="hardAlpha" type="matrix" values="0 0 0 0 0 0 0 0 0 0 0 0 0 0 0 0 0 0 127 0"/><feOffset dx="-8.635"/><feGaussianBlur stdDeviation="5.397"/><feComposite in2="hardAlpha" k2="-1" k3="1" operator="arithmetic"/><feColorMatrix type="matrix" values="0 0 0 0 0.937255 0 0 0 0 0.615686 0 0 0 0 0.513726 0 0 0 0.9 0"/><feBlend in2="shape" mode="normal" result="effect3_innerShadow_695_928"/><feColorMatrix in="SourceAlpha" result="hardAlpha" type="matrix" values="0 0 0 0 0 0 0 0 0 0 0 0 0 0 0 0 0 0 127 0"/><feOffset dx="8.095" dy="5.397"/><feGaussianBlur stdDeviation="6.746"/><feComposite in2="hardAlpha" k2="-1" k3="1" operator="arithmetic"/><feColorMatrix type="matrix" values="0 0 0 0 0.1125 0 0 0 0 0.0697917 0 0 0 0 0.05625 0 0 0 1 0"/><feBlend in2="effect3_innerShadow_695_928" mode="normal" result="effect4_innerShadow_695_928"/></filter><linearGradient id="paint0_linear_695_928" x1="1.013" x2="-19.449" y1="47.974" y2="71.232" gradientUnits="userSpaceOnUse"><stop stop-color="#0539E0"/><stop offset="1" stop-color="#030E31"/></linearGradient><clipPath id="clip0_695_928"><rect width="103.684" height="104" x=".434" y=".266" fill="#fff" rx="10.363"/></clipPath></defs></svg>