<svg xmlns="http://www.w3.org/2000/svg" width="186" height="27" fill="none" viewBox="0 0 186 27"><path fill="#000" d="M36.9634 26.0593C36.9634 26.0593 36.9634 22.4218 36.9634 22.0115C36.9634 14.2305 36.9634 9.28014 36.9634 1.49907C36.9634 1.19822 36.9634 0.487122 36.9634 0.487122C46.0299 0.487122 55.1511 0.487122 64.286 0.487122V4.16569H41.2436V11.181H64.0945C64.0945 12.4664 64.0672 13.7382 64.0672 13.7382V15.2698C57.5579 15.2151 49.5033 15.1604 43.0077 15.1604C42.447 15.1604 41.8864 15.1604 41.23 15.1604V22.0389C49.2025 22.0389 57.0246 22.0389 65.2706 22.0389C65.2432 22.709 65.2706 23.9944 65.2706 26.0457C55.8896 26.0457 46.3581 26.0457 36.9771 26.0457L36.9634 26.0593Z"/><path fill="#000" d="M0.902344 26.0594C0.902344 17.5672 0.902344 9.00666 0.902344 0.377747C1.49037 0.377747 1.98267 0.377747 2.47497 0.377747C9.79108 0.377747 17.1072 0.377747 24.4233 0.377747C29.2232 0.377747 31.548 2.66147 31.589 7.44771C31.6164 10.8938 31.589 14.3536 31.589 17.7997C31.589 23.6662 30.8232 26.0457 25.3532 26.0457H0.902344V26.0594ZM5.16894 22.0116C11.856 22.0116 18.4473 22.0389 25.025 21.9842C26.3925 21.9842 27.2404 21.0954 27.3087 19.7279C27.4181 17.3074 27.4455 14.8869 27.4455 12.4664C27.4455 10.5109 27.4045 8.55539 27.2951 6.59987C27.213 5.23237 26.4199 4.45289 25.0113 4.35717C24.4507 4.31614 23.8763 4.24777 23.3156 4.24777C17.6952 4.24777 12.0748 4.24777 6.45439 4.24777C6.01679 4.24777 5.57919 4.32982 5.15526 4.35717V21.9979L5.16894 22.0116Z"/><path fill="#000" d="M112.613 26.0594H111.642C108.182 26.0594 106.377 23.5021 106.227 20.0013C106.035 15.4749 106.022 10.9211 106.227 6.39472C106.391 2.62043 108.729 0.487128 112.572 0.405078C118.507 0.295679 124.428 0.295679 130.363 0.405078C134.452 0.473453 136.708 2.8529 136.79 6.96907C136.859 10.5246 136.804 14.0801 136.804 17.6492C136.804 23.3654 135.149 26.0594 130.568 26.0594H112.627H112.613ZM121.488 4.34347C118.712 4.34347 115.936 4.28877 113.146 4.35715C111.136 4.41185 110.452 5.0409 110.411 7.10582C110.316 11.1673 110.329 15.2288 110.411 19.2902C110.452 21.2731 111.273 21.9979 113.201 22.0116C118.712 22.0526 124.223 22.0526 129.734 22.0116C131.594 22.0116 132.483 21.3141 132.538 19.4543C132.661 15.2424 132.661 11.0169 132.538 6.80497C132.483 4.99987 131.69 4.41185 129.816 4.35715C127.04 4.28877 124.264 4.34347 121.474 4.34347H121.488Z"/><path fill="#000" d="M139.84 26.0593L141.084 24.7192C144.968 20.8081 148.879 16.9244 152.79 13.0271C148.674 8.92457 144.175 4.4255 140.1 0.377705H140.715C142.315 0.377705 144.353 0.323005 145.953 0.377705C145.953 0.377705 146.472 1.00675 146.841 1.38965C149.7 4.34345 152.544 7.3246 155.156 10.0459C157.385 7.981 159.573 5.97077 161.747 3.96055C162.048 3.68705 165.303 0.377705 165.303 0.377705H170.376C166.328 4.41183 162.116 8.5827 158.233 12.439C162.677 17.0475 167.108 21.6286 171.32 25.991L169.091 26.0457C167.901 26.1004 166.725 26.0457 165.535 26.0457C162.226 22.5585 158.903 19.0577 155.539 15.5159C152.106 19.0851 148.77 22.5722 145.419 26.0457C143.669 26.0457 141.604 26.0457 139.84 26.0457V26.0593Z"/><path fill="#000" d="M84.141 26.0594C78.589 17.5809 73.0369 9.11606 67.3071 0.377744C68.9618 0.377744 70.8763 0.391419 72.2301 0.446119C72.2301 0.446119 72.6951 1.02047 72.9959 1.47174C76.9206 7.44771 80.8043 13.4647 84.7154 19.4543C84.9342 19.7962 85.1803 20.1244 85.5496 20.6304C86.6709 18.9074 87.7376 17.3074 88.7905 15.6937C91.799 11.0716 94.7528 6.42209 97.775 1.82729C98.9374 0.0632189 98.0485 0.323044 100.483 0.350394C101.454 0.350394 102.438 0.377744 103.765 0.377744C98.0759 9.07504 92.5101 17.5672 86.9444 26.0594H84.1547H84.141Z"/><path fill="#F4A100" d="M162.458 3.20846C161.87 2.60676 161.282 1.99138 160.694 1.38968C160.312 0.99311 159.806 0.377735 159.806 0.377735C158.206 0.323035 156.182 0.377735 154.568 0.377735H153.953C155.758 2.16916 157.645 4.05631 159.546 5.94346L162.445 3.19478L162.458 3.20846Z"/><path fill="#F4A100" d="M172.1 12.4395C175.984 8.56946 180.195 4.41226 184.243 0.378143H179.17C179.17 0.378143 175.915 3.68749 175.614 3.96099C173.44 5.98489 171.252 7.99511 169.023 10.0464C167.71 8.67886 166.343 7.24299 164.934 5.77976L162.158 8.54211C163.676 10.06 165.194 11.5643 166.657 13.0275C162.746 16.9249 158.835 20.8222 154.951 24.7196L153.707 26.0598H159.286C162.623 22.5863 165.973 19.0992 169.406 15.53C172.77 19.0718 176.093 22.5726 179.402 26.0598C180.592 26.0598 181.782 26.1008 182.958 26.0598L185.187 26.0051C180.975 21.6564 176.558 17.0616 172.1 12.4532V12.4395Z"/></svg>