<svg xmlns="http://www.w3.org/2000/svg" width="186" height="26" fill="none" viewBox="0 0 186 26"><path fill="#fff" d="M36.9219 25.7363C36.9219 25.7363 36.9219 22.0988 36.9219 21.6886C36.9219 13.9075 36.9219 8.95714 36.9219 1.17607C36.9219 0.875223 36.9219 0.164124 36.9219 0.164124C45.9884 0.164124 55.1096 0.164124 64.2445 0.164124V3.84269H41.2021V10.858H64.053C64.053 12.1434 64.0257 13.4152 64.0257 13.4152V14.9468C57.5164 14.8921 49.4618 14.8374 42.9662 14.8374C42.4055 14.8374 41.8449 14.8374 41.1885 14.8374V21.7159C49.161 21.7159 56.9831 21.7159 65.2291 21.7159C65.2017 22.386 65.2291 23.6714 65.2291 25.7227C55.8481 25.7227 46.3166 25.7227 36.9355 25.7227L36.9219 25.7363Z"/><path fill="#fff" d="M0.860352 25.7364C0.860352 17.2442 0.860352 8.68367 0.860352 0.0547485C1.44838 0.0547485 1.94068 0.0547485 2.43297 0.0547485C9.74909 0.0547485 17.0652 0.0547485 24.3813 0.0547485C29.1812 0.0547485 31.506 2.33847 31.547 7.12472C31.5744 10.5708 31.547 14.0306 31.547 17.4767C31.547 23.3433 30.7812 25.7227 25.3112 25.7227H0.860352V25.7364ZM5.12695 21.6886C11.814 21.6886 18.4054 21.7159 24.983 21.6612C26.3505 21.6612 27.1984 20.7724 27.2668 19.4049C27.3762 16.9844 27.4035 14.5639 27.4035 12.1434C27.4035 10.1879 27.3625 8.23239 27.2531 6.27687C27.171 4.90937 26.3779 4.12989 24.9694 4.03417C24.4087 3.99314 23.8343 3.92477 23.2737 3.92477C17.6532 3.92477 12.0328 3.92477 6.4124 3.92477C5.9748 3.92477 5.5372 4.00682 5.11327 4.03417V21.6749L5.12695 21.6886Z"/><path fill="#fff" d="M112.571 25.7364H111.6C108.14 25.7364 106.335 23.1792 106.185 19.6784C105.993 15.1519 105.98 10.5982 106.185 6.07175C106.349 2.29746 108.687 0.164161 112.53 0.0821109C118.465 -0.0272889 124.386 -0.0272889 130.321 0.0821109C134.41 0.150486 136.666 2.52993 136.748 6.6461C136.817 10.2016 136.762 13.7571 136.762 17.3263C136.762 23.0424 135.107 25.7364 130.526 25.7364H112.585H112.571ZM121.446 4.02051C118.67 4.02051 115.894 3.96581 113.104 4.03418C111.094 4.08888 110.41 4.71793 110.369 6.78285C110.274 10.8443 110.287 14.9058 110.369 18.9673C110.41 20.9501 111.231 21.6749 113.159 21.6886C118.67 21.7296 124.181 21.7296 129.692 21.6886C131.552 21.6886 132.441 20.9912 132.496 19.1314C132.619 14.9195 132.619 10.6939 132.496 6.482C132.441 4.67691 131.648 4.08888 129.774 4.03418C126.998 3.96581 124.222 4.02051 121.433 4.02051H121.446Z"/><path fill="#fff" d="M139.798 25.7363L141.042 24.3962C144.926 20.4851 148.837 16.6014 152.748 12.7041C148.632 8.60157 144.133 4.1025 140.058 0.0547066H140.673C142.273 0.0547066 144.311 6.64778e-06 145.911 0.0547066C145.911 0.0547066 146.43 0.683756 146.799 1.06666C149.658 4.02045 152.502 7.0016 155.114 9.72292C157.343 7.658 159.531 5.64778 161.705 3.63755C162.006 3.36405 165.261 0.0547066 165.261 0.0547066H170.334C166.286 4.08883 162.074 8.2597 158.191 12.116C162.635 16.7245 167.066 21.3056 171.278 25.668L169.049 25.7227C167.859 25.7774 166.683 25.7227 165.493 25.7227C162.184 22.2355 158.861 18.7347 155.497 15.1929C152.064 18.7621 148.728 22.2492 145.377 25.7227C143.627 25.7227 141.562 25.7227 139.798 25.7227V25.7363Z"/><path fill="#fff" d="M84.0995 25.7364C78.5475 17.2579 72.9954 8.79306 67.2656 0.0547455C68.9203 0.0547455 70.8348 0.0684205 72.1886 0.12312C72.1886 0.12312 72.6536 0.69747 72.9544 1.14874C76.8791 7.12471 80.7628 13.1417 84.6739 19.1314C84.8927 19.4732 85.1388 19.8014 85.5081 20.3074C86.6294 18.5844 87.6961 16.9844 88.749 15.3707C91.7575 10.7486 94.7113 6.09909 97.7335 1.50429C98.8959 -0.259779 98.007 4.55867e-05 100.441 0.0273956C101.412 0.0273956 102.397 0.0547455 103.723 0.0547455C98.0343 8.75204 92.4686 17.2442 86.9029 25.7364H84.1132H84.0995Z"/><path fill="#F4A100" d="M162.416 2.88543C161.828 2.28373 161.24 1.66835 160.652 1.06666C160.269 0.670081 159.763 0.0547066 159.763 0.0547066C158.163 6.65151e-06 156.139 0.0547066 154.526 0.0547066H153.91C155.715 1.84613 157.602 3.73328 159.503 5.62043L162.402 2.87175L162.416 2.88543Z"/><path fill="#F4A100" d="M172.058 12.1165C175.942 8.24649 180.153 4.0893 184.201 0.0551758H179.128C179.128 0.0551758 175.873 3.36452 175.572 3.63802C173.398 5.66192 171.21 7.67214 168.981 9.72339C167.668 8.35589 166.301 6.92002 164.892 5.4568L162.116 8.21914C163.634 9.73707 165.152 11.2413 166.615 12.7045C162.704 16.6019 158.793 20.4993 154.909 24.3967L153.665 25.7368H159.244C162.581 22.2634 165.932 18.7762 169.364 15.2071C172.728 18.7489 176.051 22.2497 179.36 25.7368C180.55 25.7368 181.74 25.7778 182.916 25.7368L185.145 25.6821C180.933 21.3335 176.516 16.7387 172.058 12.1302V12.1165Z"/></svg>