<svg xmlns="http://www.w3.org/2000/svg" width="147" height="71" fill="none" viewBox="0 0 147 71"><g clip-path="url(#clip0_7383_12060)"><path fill="url(#paint0_linear_7383_12060)" d="M1.24414 61.9185H31.2796V62.1567H1.24414V61.9185Z"/><path fill="url(#paint1_linear_7383_12060)" d="M31.2796 61.9185H1.24414V62.1567H31.2796V61.9185Z"/><path fill="url(#paint2_linear_7383_12060)" d="M42.3208 45.5173C42.5819 45.4458 42.8906 45.3743 43.2942 45.3029C43.7022 45.2348 44.1153 45.2029 44.5289 45.2076C44.9003 45.1914 45.2713 45.248 45.6211 45.3744C45.8898 45.4787 46.127 45.651 46.3097 45.8746C46.4841 46.0985 46.6059 46.3591 46.6658 46.6369C46.7432 46.9567 46.7831 47.2845 46.7845 47.6136V50.5675H45.3362V47.7803C45.3605 47.4359 45.295 47.0911 45.1462 46.7798C45.0623 46.6744 44.9525 46.5927 44.8277 46.5426C44.7028 46.4925 44.5671 46.4757 44.4339 46.494C44.3226 46.4909 44.2112 46.4988 44.1015 46.5178C43.9828 46.5178 43.8878 46.5416 43.7929 46.5416V50.5675H42.3208L42.3208 45.5173ZM39.614 47.9233C39.63 47.5483 39.5394 47.1766 39.3528 46.8513C39.2594 46.7325 39.1404 46.6365 39.0047 46.5705C38.869 46.5045 38.7201 46.4702 38.5693 46.4702C38.4185 46.4702 38.2696 46.5045 38.1339 46.5705C37.9982 46.6365 37.8792 46.7325 37.7858 46.8513C37.5799 47.1693 37.4802 47.5447 37.5008 47.9233C37.4838 48.309 37.5831 48.6909 37.7858 49.0191C37.8748 49.1443 37.9923 49.2464 38.1286 49.3168C38.2649 49.3873 38.416 49.424 38.5693 49.424C38.7226 49.424 38.8737 49.3873 39.01 49.3168C39.1463 49.2464 39.2638 49.1443 39.3528 49.0191C39.5392 48.6851 39.6297 48.3057 39.614 47.9233ZM41.1098 47.9233C41.1182 48.3032 41.062 48.6819 40.9436 49.0429C40.8308 49.3692 40.6531 49.669 40.4213 49.9243C40.1865 50.1789 39.8991 50.379 39.5792 50.5107C39.2593 50.6423 38.9147 50.7024 38.5693 50.6866C38.2124 50.6876 37.8583 50.623 37.5246 50.496C37.2186 50.3641 36.9436 50.1694 36.7173 49.9243C36.4838 49.6703 36.3059 49.37 36.1949 49.0429C35.9417 48.3181 35.9417 47.5285 36.1949 46.8037C36.3117 46.4864 36.4891 46.1951 36.7173 45.9461C36.9446 45.7081 37.2198 45.5213 37.5246 45.3982C37.8474 45.262 38.1955 45.1971 38.5455 45.2076C38.8947 45.2065 39.2411 45.2712 39.5665 45.3982C39.8666 45.5301 40.1402 45.7157 40.3738 45.9461C40.602 46.1951 40.7794 46.4864 40.8961 46.8037C41.042 47.1586 41.1147 47.5394 41.1098 47.9233L41.1098 47.9233ZM33.1083 50.6866C31.9923 50.6866 31.1376 50.3769 30.5677 49.7576C29.9742 49.1382 29.6892 48.2568 29.6892 47.1134C29.6848 46.5936 29.7733 46.0772 29.9504 45.5888C30.1092 45.17 30.3572 44.791 30.6771 44.4783C30.9969 44.1656 31.381 43.9267 31.8024 43.7783C32.2506 43.6126 32.7256 43.5319 33.2033 43.5401C33.4662 43.5381 33.7286 43.562 33.9868 43.6116C34.2243 43.6592 34.4379 43.7069 34.6041 43.7545C34.7573 43.8023 34.9079 43.858 35.0553 43.9213C35.15 43.9531 35.2384 44.0015 35.3165 44.0642L34.8653 45.3029C34.6337 45.1753 34.3862 45.0791 34.1293 45.0171C33.8189 44.9379 33.4998 44.8978 33.1795 44.898C32.9452 44.9007 32.7127 44.9409 32.491 45.0171C32.2643 45.0921 32.0602 45.2232 31.8974 45.3982C31.7175 45.594 31.5729 45.8197 31.47 46.0652C31.3609 46.3875 31.3048 46.7254 31.3038 47.0657C31.2976 47.3624 31.3295 47.6587 31.3988 47.9471C31.4657 48.2035 31.5784 48.4456 31.7312 48.6618C31.8996 48.8642 32.1103 49.0268 32.3485 49.1382C32.6335 49.2594 32.9415 49.3164 33.2508 49.305C33.4495 49.3029 33.6478 49.2869 33.8444 49.2573C34.0054 49.2417 34.1645 49.2098 34.3192 49.162C34.4402 49.1296 34.5592 49.0898 34.6754 49.0429C34.7659 48.9932 34.8614 48.9532 34.9603 48.9238L35.3877 50.1625C35.1018 50.3342 34.7885 50.4551 34.4617 50.5199C34.0214 50.6428 33.5652 50.699 33.1083 50.6866L33.1083 50.6866ZM27.2437 47.423C27.243 47.3004 27.2188 47.1791 27.1725 47.0657C27.1315 46.9553 27.0756 46.8511 27.0063 46.756C26.9278 46.6586 26.831 46.5776 26.7213 46.5178C26.5864 46.4585 26.4412 46.4261 26.2939 46.4225C26.1455 46.4145 25.9977 46.4474 25.8666 46.5178C25.7535 46.5612 25.6548 46.6354 25.5816 46.7322C25.4996 46.8315 25.4353 46.9443 25.3917 47.0657C25.3461 47.1888 25.3143 47.3167 25.2967 47.4468H27.2437L27.2437 47.423ZM23.8009 47.9709C23.7941 47.5559 23.8667 47.1435 24.0146 46.756C24.1361 46.4299 24.3311 46.1364 24.5844 45.8984C24.8083 45.6732 25.0747 45.4951 25.368 45.3743C25.6636 45.2615 25.9777 45.205 26.294 45.2076C26.6171 45.189 26.9405 45.2388 27.2432 45.3537C27.5458 45.4686 27.8211 45.6461 28.051 45.8746C28.515 46.4331 28.7448 47.1505 28.6921 47.8756V48.1615C28.6921 48.2568 28.6683 48.352 28.6683 48.4235H25.3205C25.3278 48.5687 25.3706 48.7098 25.4451 48.8344C25.5197 48.9591 25.6237 49.0634 25.7479 49.1382C26.0483 49.3197 26.3945 49.4106 26.7451 49.4002C27.0079 49.4011 27.2703 49.3772 27.5287 49.3287C27.7488 49.2895 27.9638 49.2256 28.1697 49.1382L28.3597 50.3292C28.26 50.3769 28.1568 50.4168 28.051 50.4483C27.9039 50.4938 27.7529 50.5257 27.5999 50.5436C27.4337 50.5674 27.2675 50.5913 27.0775 50.6151C26.8962 50.6344 26.7138 50.6424 26.5314 50.6389C26.1175 50.6501 25.7056 50.5772 25.3205 50.4245C24.9955 50.3026 24.7029 50.107 24.4658 49.8528C24.2285 49.615 24.0568 49.3195 23.9672 48.9952C23.8467 48.6677 23.7903 48.3199 23.801 47.9709L23.8009 47.9709ZM22.8275 47.9471C22.8283 48.3284 22.764 48.7071 22.6375 49.0667C22.5208 49.384 22.3434 49.6753 22.1152 49.9243C21.8745 50.1686 21.5825 50.3558 21.2604 50.4722C20.8943 50.6011 20.5087 50.6655 20.1207 50.6628C19.9305 50.6658 19.7402 50.6578 19.5509 50.6389L18.981 50.5675C18.7972 50.5473 18.6148 50.5155 18.4349 50.4722C18.2687 50.4245 18.1025 50.4007 17.9838 50.3531V43.0637L19.4559 42.8254V45.422C19.6252 45.3523 19.7999 45.2965 19.9783 45.2553C20.1654 45.2148 20.3569 45.1988 20.5481 45.2076C20.8821 45.204 21.2134 45.2688 21.5216 45.3982C21.8014 45.5174 22.0465 45.7059 22.2339 45.9461C22.432 46.2005 22.5773 46.4921 22.6613 46.8037C22.7796 47.1729 22.8357 47.5593 22.8275 47.9471L22.8275 47.9471ZM21.3316 47.8995C21.3316 46.9466 20.9755 46.4702 20.2869 46.4702C20.1355 46.4742 19.9847 46.4902 19.8358 46.5178C19.7139 46.5571 19.5949 46.6049 19.4796 46.6608V49.3526C19.5729 49.3745 19.6689 49.3825 19.7646 49.3764C19.8833 49.3764 20.002 49.4002 20.1207 49.4002C20.2926 49.4116 20.4647 49.3807 20.6219 49.3101C20.7792 49.2395 20.9168 49.1314 21.023 48.9953C21.237 48.6711 21.3449 48.2881 21.3316 47.8995L21.3316 47.8995ZM16.5354 50.3769C16.2743 50.4484 15.9656 50.5199 15.5619 50.5913C15.154 50.6594 14.7408 50.6913 14.3273 50.6866C13.9559 50.7028 13.5849 50.6462 13.2351 50.5198C12.9664 50.4155 12.7292 50.2432 12.5465 50.0196C12.3764 49.793 12.2552 49.5334 12.1904 49.2573C12.1115 48.9378 12.0716 48.6098 12.0716 48.2806V45.3744H13.52V48.09C13.4992 48.4419 13.5644 48.7936 13.71 49.1144C13.7882 49.2274 13.8963 49.3163 14.0221 49.371C14.148 49.4257 14.2866 49.4441 14.4223 49.424C14.5336 49.4272 14.6449 49.4192 14.7547 49.4002C14.8734 49.4002 14.9684 49.3764 15.0633 49.3764V45.3506H16.5354V50.3769L16.5354 50.3769ZM9.7448 50.5437C9.60234 50.3293 9.43615 50.0672 9.24618 49.8052C9.05523 49.5318 8.84913 49.2693 8.62886 49.0191C8.41517 48.757 8.17773 48.5188 7.94029 48.2568C7.71485 48.0294 7.47706 47.8147 7.22799 47.6136V50.5198H5.68457V43.6592H7.2279V46.2558C7.63154 45.827 8.03517 45.3982 8.43882 44.9218C8.84246 44.4691 9.22235 44.0404 9.57851 43.6592H11.4067C10.9319 44.2071 10.4808 44.755 10.0059 45.2553C9.53102 45.7793 9.03241 46.2796 8.51005 46.8037C9.08691 47.2955 9.61925 47.8376 10.1009 48.4235C10.6327 49.084 11.1243 49.7761 11.573 50.496H9.74471L9.7448 50.5437Z"/><path fill="url(#paint3_linear_7383_12060)" fill-rule="evenodd" d="M22.0908 20.2425L21.236 20.433C21.236 20.3139 21.2123 20.1948 21.2123 20.0757C21.2095 19.1688 21.4559 18.2786 21.9246 17.503L23.5866 18.9799C23.6137 19.0094 23.6459 19.0336 23.6816 19.0514C23.5796 19.3025 23.5155 19.5674 23.4917 19.8375C23.4442 19.8613 23.3729 19.8613 23.3255 19.8852L22.0908 20.2425ZM25.3199 15.1923V17.5268C25.0883 17.5992 24.8713 17.7121 24.6788 17.8603C24.6076 17.8127 24.5364 17.7412 24.4651 17.6936L22.7793 16.5025C23.4696 15.811 24.3577 15.353 25.3199 15.1923ZM13.7568 20.576C14.5641 17.0266 15.2527 14.025 16.0599 10.4756C16.4161 8.87959 16.6535 8.45079 18.1019 7.61705C20.0963 6.44979 21.5922 5.61604 23.7291 4.37731C25.0587 3.61501 25.3199 3.66266 25.3199 5.30635V13.5486C23.8316 13.7311 22.4539 14.4307 21.426 15.5258L20.7136 15.0256C20.6703 15.0004 20.633 14.9661 20.6042 14.9249C20.5755 14.8837 20.5561 14.8368 20.5474 14.7873C20.4812 14.5626 20.3488 14.3633 20.1675 14.2156C20.0069 14.0868 19.8019 14.0271 19.5975 14.0497C19.393 14.0723 19.2059 14.1753 19.077 14.3361C18.9482 14.4969 18.8881 14.7024 18.9101 14.9076C18.932 15.1127 19.0341 15.3008 19.1941 15.4305C19.3019 15.5263 19.4329 15.592 19.574 15.6211C19.6689 15.6449 19.7639 15.6449 19.8589 15.6687C19.9358 15.6858 20.0084 15.7182 20.0726 15.764L20.7374 16.3596C20.0073 17.4425 19.6185 18.7207 19.6214 20.0281C19.6214 20.2663 19.6452 20.5045 19.6689 20.7427L18.2206 21.0524C18.1171 21.0493 18.0137 21.0573 17.9119 21.0762L17.6982 21.1477C16.7485 21.3383 15.7987 21.5527 14.8253 21.7671C13.5194 22.0767 13.4719 21.8147 13.7568 20.576L13.7568 20.576ZM27.0057 17.5268V15.1923C27.959 15.3647 28.8417 15.8117 29.5462 16.4787L27.718 17.7889C27.6942 17.8127 27.6705 17.8365 27.6467 17.8365C27.448 17.7047 27.2323 17.6005 27.0057 17.5268L27.0057 17.5268ZM31.0895 20.2663L28.8101 19.7422C28.7865 19.4951 28.7223 19.2537 28.6202 19.0276C28.6439 19.0038 28.6677 18.9799 28.6914 18.9799L30.3772 17.4792C30.8563 18.2601 31.111 19.1587 31.1133 20.0757C31.0922 20.1369 31.0841 20.2018 31.0895 20.2663L31.0895 20.2663ZM28.1216 7.66468C29.3563 8.26022 30.2348 8.68901 31.4694 9.28455C33.1789 10.1183 34.8885 10.9521 36.6217 11.762C37.0491 13.6201 37.4765 15.4782 37.8802 17.3362C38.1413 18.4559 38.2601 19.0514 38.5212 20.1472C38.9249 21.8862 38.8774 22.0291 37.0966 21.6241L32.7041 20.6236C32.7239 20.4337 32.7318 20.2428 32.7279 20.0519C32.7373 18.7325 32.3391 17.4426 31.5882 16.3595L32.2055 15.7878C32.2799 15.7247 32.3703 15.6835 32.4667 15.6687C32.6984 15.651 32.9205 15.5685 33.1078 15.4305C33.1879 15.3667 33.2546 15.2876 33.3042 15.1978C33.3537 15.108 33.3851 15.0093 33.3966 14.9073C33.408 14.8054 33.3993 14.7021 33.3708 14.6035C33.3424 14.5049 33.2948 14.4129 33.2309 14.3328C33.1669 14.2528 33.0878 14.1861 32.9981 14.1368C32.9084 14.0874 32.8099 14.0563 32.7082 14.0453C32.6065 14.0343 32.5036 14.0435 32.4055 14.0724C32.3073 14.1014 32.2159 14.1495 32.1363 14.214L32.1343 14.2156C32.0151 14.3035 31.9177 14.4176 31.8493 14.5491C31.8019 14.6444 31.7781 14.7159 31.7306 14.8112C31.7054 14.8887 31.6553 14.9557 31.5882 15.0017L30.8759 15.502C29.8446 14.4112 28.4687 13.7126 26.9819 13.5248V8.49844C27.0057 7.33118 27.1007 7.18825 28.1216 7.66468H28.1216ZM26.6021 22.6723C26.4533 22.7011 26.3024 22.7171 26.1509 22.7199C26.0081 22.7239 25.8651 22.7159 25.7235 22.6961L25.6523 22.839L24.6076 24.7686C25.1124 24.9404 25.6416 25.0289 26.1747 25.0306C26.7153 25.0269 27.252 24.9385 27.7655 24.7686L26.7207 22.8629C26.6728 22.805 26.6329 22.7409 26.602 22.6723L26.6021 22.6723ZM28.454 21.4097L30.7334 21.9338C30.3581 22.8586 29.7124 23.6476 28.8814 24.1969L27.9792 22.0053C28.1573 21.8235 28.3164 21.624 28.454 21.4097L28.454 21.4097ZM21.5921 21.91L23.8715 21.3859C24.0111 21.6126 24.1786 21.8207 24.3701 22.0052L24.2989 22.1482L23.4679 24.1968C22.6228 23.6466 21.9677 22.8479 21.5922 21.91L21.5921 21.91ZM40.2545 25.9358C39.1623 27.2936 38.6637 27.9368 37.5715 29.2946C36.3369 30.8431 35.3396 32.1056 34.105 33.654C33.2265 34.7736 32.5854 34.7974 31.137 34.7974H21.1648C19.2653 34.7974 19.1229 34.7974 17.9594 33.3205C16.796 31.8674 15.8937 30.7239 14.7541 29.2708C13.8518 28.1274 13.6144 27.8415 12.7121 26.6981C11.3113 24.9353 11.0738 24.2921 13.2582 23.8157L20.0013 22.2911C20.5254 23.7245 21.5224 24.935 22.8268 25.7214L22.5182 26.436C22.4819 26.5276 22.4146 26.6035 22.3282 26.6504C22.1196 26.7606 21.9528 26.9363 21.8534 27.1507C21.7606 27.3364 21.7452 27.5514 21.8105 27.7485C21.8758 27.9455 22.0164 28.1085 22.2015 28.2016C22.3865 28.2946 22.6009 28.3101 22.7973 28.2446C22.9937 28.1791 23.1562 28.038 23.2489 27.8523L23.2533 27.8434L23.2542 27.8415C23.3186 27.7067 23.3588 27.5615 23.3729 27.4127C23.3768 27.3168 23.3689 27.2208 23.3492 27.1269C23.3418 27.0445 23.3583 26.9618 23.3967 26.8886L23.7766 26.1978C24.5278 26.4821 25.3243 26.6274 26.1272 26.6266C26.9403 26.631 27.7466 26.4773 28.5015 26.1741L28.8814 26.8649C28.9333 26.9505 28.9503 27.0529 28.9289 27.1507C28.8883 27.3775 28.9216 27.6114 29.0239 27.8177C29.1137 28.0046 29.2737 28.148 29.4688 28.2165C29.664 28.2851 29.8782 28.2732 30.0646 28.1834C30.251 28.0937 30.3942 27.9334 30.4629 27.7377C30.5316 27.5421 30.5202 27.3271 30.4311 27.14L30.4261 27.1297L30.4247 27.1269C30.3655 26.9896 30.2763 26.8675 30.1635 26.7696C30.0902 26.7061 30.0106 26.6503 29.9261 26.6028C29.8905 26.5827 29.8594 26.5554 29.8349 26.5226C29.8104 26.4898 29.7929 26.4522 29.7836 26.4123L29.475 25.65C30.7789 24.8692 31.77 23.6559 32.2767 22.2197L39.7084 23.911C41.2042 24.316 41.1093 24.84 40.2545 25.9358" clip-rule="evenodd"/><path fill="url(#paint4_linear_7383_12060)" fill-rule="evenodd" d="M27.0056 17.527V15.1925C27.9589 15.3649 28.8416 15.8118 29.5462 16.4788L27.7179 17.789C27.6942 17.8128 27.6704 17.8367 27.6467 17.8367C27.4479 17.7049 27.2323 17.6007 27.0056 17.527L27.0056 17.527ZM31.0895 20.2665L28.8101 19.7424C28.7864 19.4953 28.7223 19.2538 28.6202 19.0277C28.6439 19.0039 28.6677 18.9801 28.6914 18.9801L30.3772 17.4793C30.8563 18.2603 31.111 19.1589 31.1133 20.0759C31.0922 20.1371 31.0841 20.202 31.0895 20.2665L31.0895 20.2665ZM28.1216 7.66483C29.3562 8.26037 30.2347 8.68916 31.4694 9.2847C33.1789 10.1184 34.8884 10.9522 36.6217 11.7621C37.0491 13.6202 37.4765 15.4783 37.8801 17.3364C38.1413 18.456 38.26 19.0516 38.5212 20.1473C38.9248 21.8863 38.8774 22.0292 37.0966 21.6243L32.704 20.6238C32.7238 20.4339 32.7317 20.2429 32.7278 20.052C32.7372 18.7327 32.3391 17.4428 31.5881 16.3597L32.2054 15.788C32.2798 15.7248 32.3703 15.6836 32.4666 15.6689C32.6983 15.6512 32.9204 15.5686 33.1077 15.4307C33.1878 15.3668 33.2545 15.2878 33.3041 15.198C33.3537 15.1082 33.3851 15.0095 33.3965 14.9075C33.408 14.8055 33.3992 14.7023 33.3708 14.6037C33.3423 14.5051 33.2948 14.4131 33.2308 14.333C33.1669 14.2529 33.0878 14.1863 32.9981 14.1369C32.9084 14.0876 32.8098 14.0565 32.7081 14.0454C32.6064 14.0344 32.5036 14.0436 32.4054 14.0726C32.3073 14.1015 32.2158 14.1496 32.1362 14.2141L32.1342 14.2158C32.0151 14.3036 31.9176 14.4177 31.8493 14.5493C31.8018 14.6446 31.778 14.716 31.7306 14.8113C31.7053 14.8888 31.6552 14.9558 31.5881 15.0019L30.8758 15.5021C29.8446 14.4114 28.4686 13.7127 26.9819 13.525V8.49859C27.0056 7.33133 27.1006 7.1884 28.1216 7.66483H28.1216ZM28.454 21.4099L30.7333 21.934C30.3581 22.8587 29.7124 23.6477 28.8814 24.197L27.9791 22.0054C28.1573 21.8237 28.3164 21.6241 28.454 21.4099L28.454 21.4099ZM26.1509 25.0069V22.7201C26.3023 22.716 26.4531 22.7001 26.602 22.6724C26.6245 22.7328 26.6566 22.7891 26.697 22.8392L27.7417 24.7449C27.2283 24.9148 26.6915 25.0032 26.1509 25.007L26.1509 25.0069ZM40.2545 25.936C39.1623 27.2938 38.6637 27.937 37.5715 29.2948C36.3368 30.8432 35.3396 32.1058 34.1049 33.6542C33.2264 34.7738 32.5854 34.7976 31.137 34.7976H26.1746V26.6268C26.9878 26.6312 27.7941 26.4775 28.549 26.1742L28.9288 26.865C28.9807 26.9507 28.9977 27.053 28.9763 27.1509C28.9357 27.3777 28.969 27.6116 29.0713 27.8179C29.1635 28.0028 29.3248 28.1437 29.5201 28.2097C29.7153 28.2758 29.9287 28.2616 30.1137 28.1704C30.2986 28.0792 30.4401 27.9183 30.5073 27.7229C30.5744 27.5274 30.5618 27.3132 30.4722 27.1271C30.413 26.9898 30.3237 26.8676 30.211 26.7697C30.1376 26.7063 30.0581 26.6504 29.9735 26.603C29.9379 26.5829 29.9069 26.5555 29.8823 26.5227C29.8578 26.4899 29.8404 26.4524 29.8311 26.4124L29.5224 25.6501C30.8264 24.8694 31.8174 23.656 32.3241 22.2198L39.7558 23.9112C41.2042 24.3161 41.1092 24.8402 40.2545 25.936" clip-rule="evenodd"/><path fill="url(#paint5_linear_7383_12060)" d="M95.3399 25.65H91.3984V34.8928H100.587V30.9384H95.3399V25.65ZM115.071 25.6739V30.9384H109.847L109.8 30.8908V34.8928H119.012V25.65H115.047L115.071 25.6739ZM91.3985 16.4073H95.3636L95.3399 16.3834V11.1189H100.563L100.587 11.1665V7.16449H91.3985V16.4073ZM109.8 7.16449V11.1189H115.071V16.4073H119.012V7.16449H109.8Z"/><g opacity=".8"><path fill="url(#paint6_linear_7383_12060)" d="M109.324 16.4073L104.053 11.1189H109.799V7.16449H100.586V11.1665L105.834 16.4073L109.324 16.4073ZM104.575 25.65H101.085L105.454 30.0332L106.356 30.9384H100.586V34.8928H109.799V30.8908L107.187 28.2704L104.575 25.65ZM115.07 16.4073V22.1721L114.168 21.2669L109.799 16.9075V20.4093L112.434 23.0297L115.046 25.65H119.011V16.4073L115.07 16.4073ZM100.586 21.648L95.3629 16.4072H91.374V25.65H95.3392V19.8852L100.587 25.1498L100.586 21.648Z" opacity=".8"/></g><path fill="url(#paint7_linear_7383_12060)" d="M72.1187 44.9693L71.1215 46.1604C70.9152 45.9002 70.6561 45.6869 70.3614 45.535C70.0666 45.383 69.743 45.2957 69.412 45.279C69.1616 45.2798 68.9138 45.3301 68.6828 45.427C68.4517 45.5239 68.242 45.6655 68.0655 45.8438C67.889 46.022 67.7493 46.2333 67.6542 46.4657C67.5591 46.6982 67.5106 46.9471 67.5114 47.1983C67.5115 47.2176 67.5118 47.2369 67.5125 47.2562C67.4871 47.7608 67.6626 48.2548 68.0003 48.6296C68.338 49.0045 68.8102 49.2293 69.3132 49.2548C69.3461 49.2564 69.379 49.2572 69.412 49.2572C70.0652 49.221 70.6786 48.9304 71.1215 48.4473L72.1425 49.5192C71.3996 50.2747 70.3977 50.7177 69.3408 50.758C68.8894 50.7741 68.4392 50.7009 68.016 50.5424C67.5928 50.384 67.2049 50.1436 66.8743 49.8347C66.5438 49.5259 66.2771 49.1548 66.0895 48.7425C65.9019 48.3303 65.7971 47.885 65.781 47.4321C65.7789 47.3735 65.7783 47.3149 65.7792 47.2562C65.7792 45.279 67.3463 43.8021 69.412 43.8021C70.4275 43.8399 71.3925 44.2561 72.1187 44.9693ZM72.9497 50.6865V43.4686H74.6355V50.6865H72.9497ZM81.3074 48.0661C81.3074 49.686 80.1678 50.758 78.4582 50.758C76.7487 50.758 75.5853 49.686 75.5853 48.0661C75.5853 46.4463 76.725 45.3981 78.4582 45.3981C80.1678 45.3981 81.3074 46.4463 81.3074 48.0661ZM77.271 48.09C77.271 48.8999 77.7459 49.4478 78.4345 49.4478C79.123 49.4478 79.5979 48.8999 79.5979 48.09C79.5979 47.28 79.123 46.7321 78.4345 46.7321C77.7459 46.7321 77.2711 47.28 77.2711 48.09H77.271ZM87.3145 50.6865H85.6287V49.8289C85.4577 50.1276 85.2072 50.3727 84.9053 50.5368C84.6034 50.7008 84.262 50.7774 83.9192 50.758C82.7795 50.758 82.0435 49.9719 82.0435 48.757V45.4458H83.7293V48.2805C83.7293 48.8999 84.0617 49.2811 84.6078 49.2811C85.2489 49.2811 85.6288 48.757 85.6288 48.0423V45.4458H87.3145L87.3145 50.6865ZM93.9152 50.6865H92.2294V49.9957C92.0457 50.2368 91.8083 50.4313 91.5362 50.5637C91.264 50.696 90.9647 50.7626 90.6623 50.758C89.1902 50.758 88.2168 49.6622 88.2168 48.0423C88.2168 46.4463 89.1665 45.3743 90.6149 45.3743C90.9253 45.3616 91.2341 45.4243 91.5152 45.557C91.7963 45.6897 92.0413 45.8885 92.2294 46.1366V43.4686H93.9152V50.6865L93.9152 50.6865ZM92.2294 48.09C92.2294 47.28 91.7546 46.7321 91.066 46.7321C90.3774 46.7321 89.9026 47.28 89.9026 48.09C89.9026 48.8999 90.3774 49.4716 91.066 49.4716C91.7783 49.4478 92.2294 48.8999 92.2294 48.09L92.2294 48.09Z"/><path fill="url(#paint8_linear_7383_12060)" d="M100.065 50.6866L96.9305 46.494V50.6866H95.3159V43.8736H96.8355L99.9696 48.09V43.8736H101.584V50.6866H100.065ZM107.568 47.2563V50.6866H105.929V50.091C105.738 50.3245 105.494 50.5089 105.217 50.629C104.94 50.7491 104.639 50.8015 104.338 50.7818C103.222 50.7818 102.534 50.091 102.534 49.1381C102.534 48.1376 103.246 47.5659 104.552 47.5421H105.929V47.4706C105.929 46.9465 105.597 46.6369 104.908 46.6369C104.362 46.6707 103.829 46.8167 103.341 47.0657L102.866 45.9461C103.617 45.5622 104.446 45.3583 105.288 45.3505C106.737 45.3743 107.568 46.089 107.568 47.2563V47.2563ZM105.929 48.9238V48.4473H104.861C104.362 48.4473 104.101 48.6141 104.101 49.019C104.101 49.4002 104.362 49.6384 104.837 49.6384C105.072 49.6541 105.305 49.5929 105.502 49.464C105.699 49.3351 105.849 49.1455 105.929 48.9238V48.9238ZM112.103 50.4245C111.672 50.6569 111.191 50.7796 110.702 50.7818C109.681 50.7818 108.968 50.2101 108.968 49.1143V46.8036H108.232V45.7078H108.968V44.2547H110.63V45.7078H112.008V46.8275H110.63V48.8761C110.63 49.2811 110.797 49.4717 111.105 49.4478C111.327 49.429 111.544 49.3726 111.746 49.2811L112.103 50.4245ZM114.667 43.9451C114.676 44.1758 114.593 44.4007 114.437 44.5703C114.281 44.74 114.064 44.8404 113.834 44.8497C113.819 44.8503 113.804 44.8505 113.788 44.8503C113.554 44.8472 113.331 44.7517 113.166 44.5845C113.002 44.4173 112.91 44.1919 112.91 43.957C112.91 43.7221 113.002 43.4966 113.166 43.3294C113.331 43.1622 113.554 43.0667 113.788 43.0637C113.905 43.0573 114.022 43.0758 114.132 43.1179C114.241 43.1599 114.341 43.2246 114.424 43.3078C114.506 43.3909 114.571 43.4906 114.613 43.6004C114.655 43.7102 114.673 43.8276 114.667 43.945V43.9451ZM112.934 50.6866V45.4458H114.596V50.6866H112.934ZM117.207 50.6866L115.237 45.4458H116.97L118.086 49.162L119.226 45.4458H120.888L118.917 50.6866H117.207ZM126.444 48.5188H122.763C122.822 48.8014 122.977 49.0543 123.203 49.2329C123.429 49.4116 123.711 49.5046 123.998 49.4955C124.468 49.4862 124.918 49.299 125.256 48.9714L126.135 49.829C125.843 50.1385 125.489 50.3816 125.096 50.5419C124.703 50.7022 124.28 50.7759 123.856 50.758C122.146 50.758 121.078 49.686 121.078 48.09C121.078 46.4701 122.194 45.3981 123.808 45.3981C125.636 45.3981 126.539 46.6131 126.444 48.5188V48.5188ZM124.829 47.6136C124.841 47.4739 124.823 47.3332 124.777 47.2009C124.73 47.0686 124.656 46.9478 124.56 46.8464C124.463 46.745 124.346 46.6654 124.217 46.6129C124.087 46.5603 123.948 46.536 123.808 46.5416C123.215 46.5416 122.835 46.9704 122.716 47.6136H124.829Z"/><path fill="url(#paint9_linear_7383_12060)" d="M133.282 44.9693L132.285 46.1604C132.078 45.9002 131.819 45.687 131.524 45.535C131.23 45.383 130.906 45.2958 130.575 45.279C130.069 45.2807 129.585 45.4838 129.229 45.8438C128.872 46.2037 128.673 46.691 128.675 47.1983C128.675 47.2176 128.675 47.2369 128.676 47.2562C128.65 47.7608 128.826 48.2548 129.163 48.6297C129.501 49.0045 129.973 49.2293 130.476 49.2548C130.509 49.2565 130.542 49.2573 130.575 49.2572C131.228 49.221 131.842 48.9304 132.285 48.4473L133.306 49.5192C132.563 50.2747 131.561 50.7177 130.504 50.758C130.052 50.7741 129.602 50.7009 129.179 50.5425C128.756 50.384 128.368 50.1436 128.037 49.8347C127.707 49.5259 127.44 49.1548 127.253 48.7425C127.065 48.3303 126.96 47.885 126.944 47.4321C126.942 47.3735 126.941 47.3149 126.942 47.2562C126.942 45.279 128.509 43.8021 130.575 43.8021C131.59 43.8446 132.553 44.2601 133.282 44.9693ZM139.146 48.0661C139.146 49.686 138.007 50.758 136.297 50.758C134.588 50.758 133.424 49.686 133.424 48.0661C133.424 46.4463 134.564 45.3981 136.297 45.3981C138.007 45.3981 139.146 46.4463 139.146 48.0661ZM135.134 48.09C135.134 48.8999 135.609 49.4478 136.297 49.4478C136.986 49.4478 137.461 48.8999 137.461 48.09C137.461 47.28 136.986 46.7321 136.297 46.7321C135.609 46.7321 135.134 47.28 135.134 48.09H135.134ZM145.391 47.3753V50.6865H143.729V47.8517C143.744 47.7228 143.731 47.5921 143.691 47.4686C143.651 47.3452 143.584 47.232 143.496 47.1368C143.408 47.0417 143.301 46.9669 143.181 46.9175C143.061 46.8682 142.932 46.8456 142.803 46.8512C142.662 46.8506 142.523 46.8778 142.393 46.9314C142.263 46.9851 142.145 47.064 142.046 47.1637C141.947 47.2634 141.868 47.3818 141.814 47.5122C141.761 47.6425 141.734 47.7822 141.734 47.9232V50.7103H140.049V45.4696H141.734V46.3271C141.916 46.0269 142.175 45.7817 142.485 45.6181C142.794 45.4544 143.142 45.3784 143.491 45.3981C144.631 45.3743 145.391 46.1604 145.391 47.3753V47.3753Z"/><path fill="url(#paint10_linear_7383_12060)" d="M56.8042 4.09143H57.0417V52.5684H56.8042V4.09143Z"/><path fill="url(#paint11_linear_7383_12060)" d="M57.0416 4.09143H56.8042V52.5684H57.0416V4.09143Z"/><path fill="url(#paint12_linear_7383_12060)" d="M57.0416 4.09143H56.8042V52.5684H57.0416V4.09143Z"/><path fill="url(#paint13_linear_7383_12060)" d="M57.0416 4.09143H56.8042V52.5684H57.0416V4.09143Z"/><path fill="url(#paint14_linear_7383_12060)" d="M56.8042 4.09143H57.0417V52.5684H56.8042V4.09143Z"/><path fill="url(#paint15_linear_7383_12060)" d="M115.355 61.9185H145.391V62.1567H115.355V61.9185Z"/><path fill="url(#paint16_linear_7383_12060)" d="M145.391 61.9185H115.355V62.1567H145.391V61.9185Z"/><path fill="url(#paint17_linear_7383_12060)" d="M145.391 61.9185H115.355V62.1567H145.391V61.9185Z"/><path fill="url(#paint18_linear_7383_12060)" d="M145.391 61.9185H115.355V62.1567H145.391V61.9185Z"/><path fill="url(#paint19_linear_7383_12060)" d="M115.355 61.9185H145.391V62.1567H115.355V61.9185Z"/><path fill="url(#paint20_linear_7383_12060)" d="M49.9098 65.3709H45.9985V58.5573H49.9098V59.7411H47.4385V61.2371H49.7379V62.4208H47.4385V64.1778H49.9098V65.3709Z"/><path fill="url(#paint21_linear_7383_12060)" d="M54.8954 65.3709L54.705 64.7044H54.6306C54.4745 64.9506 54.2501 65.1458 53.985 65.266C53.6863 65.4023 53.3609 65.47 53.0328 65.4641C52.7814 65.4829 52.5288 65.4488 52.2913 65.3642C52.0537 65.2795 51.8364 65.1461 51.6531 64.9724C51.3205 64.5797 51.1539 64.0722 51.1886 63.558V60.1605H52.6054V63.2038C52.5849 63.4995 52.6545 63.7945 52.8051 64.0496C52.8792 64.1463 52.9763 64.2227 53.0875 64.272C53.1986 64.3212 53.3204 64.3417 53.4415 64.3315C53.6069 64.3456 53.773 64.3163 53.9237 64.2464C54.0744 64.1766 54.2043 64.0686 54.3008 63.9331C54.5094 63.5258 54.6011 63.0684 54.5656 62.6119V60.1605H55.9824V65.3709H54.8954Z"/><path fill="url(#paint22_linear_7383_12060)" d="M60.3664 60.0626C60.5269 60.0596 60.6873 60.0737 60.8448 60.1045L60.738 61.4374C60.6013 61.4038 60.4607 61.3881 60.32 61.3908C59.9361 61.3673 59.5578 61.4924 59.2631 61.7403C59.1338 61.8667 59.033 62.0195 58.9677 62.1884C58.9024 62.3572 58.874 62.5382 58.8845 62.719V65.3709H57.4678V60.1605H58.5409L58.7499 61.0366H58.8196C58.9752 60.7504 59.1995 60.5078 59.4721 60.3305C59.7373 60.1546 60.0485 60.0613 60.3664 60.0626Z"/><path fill="url(#paint23_linear_7383_12060)" d="M66.5075 62.7564C66.5504 63.4817 66.3105 64.1954 65.8385 64.7465C65.5966 64.9918 65.3053 65.1826 64.9842 65.3064C64.663 65.4301 64.3193 65.4839 63.9759 65.4641C63.5149 65.4736 63.0597 65.3603 62.6566 65.1356C62.2759 64.9168 61.9699 64.5879 61.7786 64.1918C61.566 63.744 61.461 63.2523 61.4721 62.7564C61.4275 62.0331 61.6658 61.3209 62.1363 60.7711C62.3802 60.5275 62.6726 60.3385 62.9945 60.2164C63.3163 60.0943 63.6602 60.0419 64.0037 60.0626C64.4644 60.0532 64.9194 60.1657 65.323 60.3889C65.7029 60.6053 66.0089 60.9318 66.2008 61.3256C66.4139 61.7717 66.519 62.2619 66.5075 62.7564ZM62.9167 62.7564C62.891 63.1624 62.9787 63.5675 63.1699 63.9262C63.2599 64.0597 63.3838 64.1668 63.5286 64.2364C63.6735 64.306 63.8343 64.3357 63.9944 64.3223C64.1529 64.3357 64.3122 64.3062 64.4556 64.237C64.5989 64.1677 64.7212 64.0612 64.8097 63.9285C64.9981 63.5681 65.0841 63.1626 65.0582 62.7564C65.0847 62.3536 64.9978 61.9515 64.8073 61.5959C64.7074 61.4751 64.5822 61.3778 64.4406 61.3109C64.299 61.2441 64.1444 61.2093 63.988 61.2091C63.8315 61.2089 63.6769 61.2432 63.5351 61.3097C63.3933 61.3761 63.2678 61.4731 63.1676 61.5936C62.9766 61.9498 62.8897 62.3529 62.9167 62.7564V62.7564Z"/><path fill="url(#paint24_linear_7383_12060)" d="M70.5309 65.4642C70.256 65.4762 69.9822 65.422 69.7324 65.3061C69.4827 65.1901 69.2643 65.0158 69.0955 64.7977H69.0212C69.0706 65.2327 69.0953 65.4843 69.0955 65.5527V67.6639H67.6787V60.1606H68.8307L69.0305 60.8363H69.0955C69.2499 60.5874 69.4678 60.3844 69.7267 60.2484C69.9857 60.1123 70.2761 60.0482 70.568 60.0627C70.8482 60.052 71.1266 60.1116 71.3781 60.2361C71.6295 60.3606 71.846 60.5461 72.008 60.7758C72.3865 61.3639 72.5687 62.0576 72.5283 62.7564C72.539 63.2507 72.4563 63.7425 72.2845 64.2059C72.1491 64.5795 71.9077 64.9051 71.5899 65.1426C71.2799 65.36 70.909 65.4726 70.5309 65.4642ZM70.1128 61.1998C69.9685 61.1875 69.8233 61.2105 69.6898 61.267C69.5563 61.3234 69.4385 61.4115 69.3464 61.5237C69.1573 61.8468 69.0698 62.2196 69.0955 62.5933V62.7471C69.0626 63.1635 69.1488 63.5806 69.344 63.9495C69.4333 64.0726 69.5526 64.1707 69.6904 64.2343C69.8283 64.2979 69.9801 64.325 70.1313 64.313C70.7663 64.313 71.0838 63.7879 71.0838 62.7378C71.109 62.3392 71.028 61.9411 70.8491 61.5843C70.7731 61.4588 70.6643 61.3566 70.5345 61.2888C70.4047 61.2211 70.2589 61.1903 70.1128 61.1998V61.1998Z"/><path fill="url(#paint25_linear_7383_12060)" d="M76.0493 65.4642C75.6929 65.4852 75.3359 65.4346 74.9993 65.3154C74.6627 65.1962 74.3532 65.0107 74.089 64.7698C73.8435 64.5078 73.6542 64.1981 73.5327 63.8598C73.4113 63.5216 73.3603 63.1619 73.3829 62.803C73.3359 62.0693 73.5693 61.3452 74.0356 60.7781C74.2672 60.5354 74.5484 60.3458 74.8599 60.2223C75.1714 60.0989 75.5058 60.0444 75.8402 60.0627C76.1537 60.0439 76.4676 60.0901 76.7625 60.1983C77.0573 60.3065 77.3268 60.4745 77.5542 60.6918C77.7665 60.9261 77.9301 61.2005 78.0354 61.499C78.1407 61.7975 78.1856 62.1141 78.1674 62.4302V63.1199H74.8183C74.8126 63.4695 74.9405 63.8081 75.1758 64.066C75.3009 64.1839 75.4486 64.2749 75.61 64.3333C75.7714 64.3918 75.9429 64.4166 76.1142 64.4062C76.4127 64.4078 76.7105 64.375 77.0015 64.3083C77.3027 64.2351 77.5953 64.1305 77.8748 63.9961V65.096C77.6228 65.2217 77.3559 65.3149 77.0805 65.3732C76.7408 65.4392 76.3952 65.4697 76.0493 65.4642ZM75.8494 61.074C75.718 61.067 75.5866 61.089 75.4647 61.1385C75.3427 61.1881 75.233 61.2639 75.1435 61.3606C74.9581 61.5913 74.855 61.8776 74.8507 62.1739H76.8389C76.8521 61.878 76.7543 61.5878 76.5648 61.3606C76.473 61.2642 76.3616 61.1887 76.2381 61.1393C76.1147 61.0898 75.9821 61.0676 75.8494 61.074H75.8494Z"/><path fill="url(#paint26_linear_7383_12060)" d="M86.1757 65.3709H81.4283V64.369L83.1331 62.6399C83.6379 62.121 83.9676 61.7614 84.1225 61.561C84.2589 61.3916 84.3715 61.2042 84.457 61.0041C84.5247 60.8352 84.5594 60.6548 84.5592 60.4727C84.5681 60.3607 84.5525 60.248 84.5136 60.1426C84.4747 60.0372 84.4134 59.9415 84.3339 59.8623C84.1654 59.7223 83.9507 59.6508 83.7322 59.6618C83.4662 59.6625 83.2039 59.7247 82.9658 59.8436C82.6878 59.9848 82.4274 60.1584 82.19 60.3609L81.4097 59.4335C81.6657 59.2039 81.9444 59.0009 82.2412 58.8276C82.4688 58.7067 82.7107 58.6151 82.9612 58.555C83.2475 58.4884 83.5406 58.4563 83.8345 58.4595C84.2219 58.4517 84.606 58.5313 84.9586 58.6925C85.2675 58.8337 85.53 59.06 85.7157 59.345C85.8974 59.6316 85.9911 59.9654 85.9853 60.3051C85.9874 60.6073 85.9314 60.9072 85.8204 61.1882C85.6921 61.4937 85.52 61.7787 85.3094 62.0341C84.9319 62.4736 84.5244 62.8862 84.0899 63.2691L83.2167 64.094V64.1593H86.1757L86.1757 65.3709Z"/><path fill="url(#paint27_linear_7383_12060)" d="M91.5681 61.964C91.5681 63.154 91.3738 64.0348 90.9851 64.6065C90.7848 64.8925 90.5143 65.1216 90.1997 65.2719C89.8852 65.4221 89.5373 65.4883 89.1898 65.464C88.8432 65.4835 88.4976 65.4121 88.1869 65.2568C87.8761 65.1016 87.6111 64.8678 87.4177 64.5785C87.0196 63.9883 86.8206 63.1168 86.8208 61.964C86.8208 60.7616 87.0143 59.8753 87.4014 59.3052C87.6155 59.0351 87.8883 58.8177 88.1989 58.6695C88.5095 58.5213 88.8497 58.4462 89.1936 58.45C89.5376 58.4539 89.8761 58.5365 90.1833 58.6915C90.4906 58.8466 90.7584 59.0701 90.9665 59.3448C91.3675 59.9413 91.5681 60.8144 91.5681 61.964ZM88.2469 61.964C88.2156 62.5709 88.2887 63.1786 88.4629 63.7606C88.5081 63.9184 88.6037 64.057 88.735 64.1551C88.8663 64.2532 89.0261 64.3054 89.1898 64.3036C89.3537 64.3032 89.513 64.2493 89.6437 64.1501C89.7744 64.0509 89.8694 63.9117 89.9144 63.7536C90.2124 62.5752 90.2116 61.3407 89.9122 60.1627C89.8673 60.0049 89.7723 59.8662 89.6418 59.7673C89.5112 59.6685 89.3522 59.6151 89.1886 59.6151C89.0251 59.6151 88.866 59.6685 88.7354 59.7673C88.6049 59.8662 88.51 60.0049 88.4651 60.1627C88.2895 60.7461 88.2157 61.3555 88.2469 61.964Z"/><path fill="url(#paint28_linear_7383_12060)" d="M97.036 65.3709H92.2887V64.369L93.9935 62.6399C94.4982 62.121 94.828 61.7614 94.9828 61.561C95.1193 61.3916 95.2318 61.2042 95.3173 61.0041C95.3851 60.8352 95.4198 60.6548 95.4196 60.4727C95.4284 60.3607 95.4129 60.248 95.374 60.1426C95.3351 60.0372 95.2737 59.9415 95.1943 59.8623C95.0258 59.7223 94.8111 59.6508 94.5926 59.6618C94.3266 59.6625 94.0643 59.7247 93.8261 59.8436C93.5482 59.9848 93.2878 60.1584 93.0504 60.3609L92.27 59.4335C92.5261 59.2039 92.8047 59.0009 93.1016 58.8276C93.3292 58.7067 93.5711 58.6151 93.8216 58.555C94.1078 58.4884 94.401 58.4563 94.6948 58.4595C95.0822 58.4517 95.4664 58.5313 95.819 58.6925C96.1278 58.8337 96.3904 59.06 96.5761 59.345C96.7578 59.6316 96.8515 59.9654 96.8457 60.3051C96.8478 60.6073 96.7918 60.9072 96.6807 61.1882C96.5525 61.4937 96.3803 61.7787 96.1697 62.0341C95.7922 62.4736 95.3848 62.8862 94.9503 63.2691L94.0771 64.094V64.1593H97.036L97.036 65.3709Z"/><path fill="url(#paint29_linear_7383_12060)" d="M146.151 61.9185H105.929V62.1567H146.151V61.9185Z"/><path fill="url(#paint30_linear_7383_12060)" d="M146.151 61.9185H105.929V62.1567H146.151V61.9185Z"/><path fill="url(#paint31_linear_7383_12060)" d="M105.929 61.9185H146.151V62.1567H105.929L105.929 61.9185Z"/><path fill="url(#paint32_linear_7383_12060)" d="M41.3227 61.9185H1.10107V62.1567H41.3227V61.9185Z"/><path fill="url(#paint33_linear_7383_12060)" d="M41.3227 61.9185H1.10107V62.1567H41.3227V61.9185Z"/><path fill="url(#paint34_linear_7383_12060)" d="M1.10107 61.9185H41.3227V62.1567H1.10107V61.9185Z"/><path fill="url(#paint35_linear_7383_12060)" d="M102.453 65.3709H97.7052V64.369L99.41 62.6399C99.9147 62.121 100.245 61.7614 100.399 61.561C100.536 61.3916 100.648 61.2042 100.734 61.0041C100.802 60.8352 100.836 60.6548 100.836 60.4727C100.845 60.3607 100.829 60.248 100.79 60.1426C100.752 60.0372 100.69 59.9415 100.611 59.8623C100.442 59.7223 100.228 59.6508 100.009 59.6618C99.7431 59.6625 99.4808 59.7247 99.2426 59.8436C98.9647 59.9848 98.7043 60.1584 98.4669 60.3609L97.6865 59.4335C97.9426 59.2039 98.2212 59.0009 98.5181 58.8276C98.7457 58.7067 98.9876 58.6151 99.2381 58.555C99.5243 58.4884 99.8175 58.4563 100.111 58.4595C100.499 58.4517 100.883 58.5313 101.235 58.6925C101.544 58.8337 101.807 59.06 101.993 59.345C102.174 59.6316 102.268 59.9654 102.262 60.3051C102.264 60.6073 102.208 60.9072 102.097 61.1882C101.969 61.4937 101.797 61.7787 101.586 62.0341C101.209 62.4736 100.801 62.8862 100.367 63.2691L99.4936 64.094V64.1593H102.453L102.453 65.3709Z"/></g><defs><linearGradient id="paint0_linear_7383_12060" x1="-13.032" x2="128.915" y1="50.825" y2="104.801" gradientUnits="userSpaceOnUse"><stop stop-color="#D13F37"/><stop offset="1" stop-color="#F67130"/></linearGradient><linearGradient id="paint1_linear_7383_12060" x1="-13.032" x2="128.915" y1="50.825" y2="104.801" gradientUnits="userSpaceOnUse"><stop stop-color="#D13F37"/><stop offset="1" stop-color="#F67130"/></linearGradient><linearGradient id="paint2_linear_7383_12060" x1="-7.161" x2="134.786" y1="35.387" y2="89.363" gradientUnits="userSpaceOnUse"><stop stop-color="#D13F37"/><stop offset="1" stop-color="#F67130"/></linearGradient><linearGradient id="paint3_linear_7383_12060" x1="1.911" x2="143.858" y1="11.528" y2="65.503" gradientUnits="userSpaceOnUse"><stop stop-color="#D13F37"/><stop offset="1" stop-color="#F67130"/></linearGradient><linearGradient id="paint4_linear_7383_12060" x1="1.899" x2="143.847" y1="11.558" y2="65.534" gradientUnits="userSpaceOnUse"><stop stop-color="#D13F37"/><stop offset="1" stop-color="#F67130"/></linearGradient><linearGradient id="paint5_linear_7383_12060" x1="11.881" x2="153.829" y1="-14.692" y2="39.284" gradientUnits="userSpaceOnUse"><stop stop-color="#D13F37"/><stop offset="1" stop-color="#F67130"/></linearGradient><linearGradient id="paint6_linear_7383_12060" x1="11.879" x2="153.826" y1="-14.688" y2="39.288" gradientUnits="userSpaceOnUse"><stop stop-color="#D13F37"/><stop offset="1" stop-color="#F67130"/></linearGradient><linearGradient id="paint7_linear_7383_12060" x1=".179" x2="142.126" y1="16.084" y2="70.06" gradientUnits="userSpaceOnUse"><stop stop-color="#D13F37"/><stop offset="1" stop-color="#F67130"/></linearGradient><linearGradient id="paint8_linear_7383_12060" x1="3.508" x2="145.455" y1="7.329" y2="61.305" gradientUnits="userSpaceOnUse"><stop stop-color="#D13F37"/><stop offset="1" stop-color="#F67130"/></linearGradient><linearGradient id="paint9_linear_7383_12060" x1="6.921" x2="148.869" y1="-1.648" y2="52.328" gradientUnits="userSpaceOnUse"><stop stop-color="#D13F37"/><stop offset="1" stop-color="#F67130"/></linearGradient><linearGradient id="paint10_linear_7383_12060" x1="3.324" x2="145.27" y1="7.814" y2="61.79" gradientUnits="userSpaceOnUse"><stop stop-color="#D13F37"/><stop offset="1" stop-color="#F67130"/></linearGradient><linearGradient id="paint11_linear_7383_12060" x1="3.324" x2="145.27" y1="7.814" y2="61.789" gradientUnits="userSpaceOnUse"><stop stop-color="#D13F37"/><stop offset="1" stop-color="#F67130"/></linearGradient><linearGradient id="paint12_linear_7383_12060" x1="3.324" x2="145.27" y1="7.814" y2="61.789" gradientUnits="userSpaceOnUse"><stop stop-color="#D13F37"/><stop offset="1" stop-color="#F67130"/></linearGradient><linearGradient id="paint13_linear_7383_12060" x1="3.324" x2="145.27" y1="7.814" y2="61.789" gradientUnits="userSpaceOnUse"><stop stop-color="#D13F37"/><stop offset="1" stop-color="#F67130"/></linearGradient><linearGradient id="paint14_linear_7383_12060" x1="3.324" x2="145.27" y1="7.814" y2="61.79" gradientUnits="userSpaceOnUse"><stop stop-color="#D13F37"/><stop offset="1" stop-color="#F67130"/></linearGradient><linearGradient id="paint15_linear_7383_12060" x1="1.466" x2="143.414" y1="12.698" y2="66.674" gradientUnits="userSpaceOnUse"><stop stop-color="#D13F37"/><stop offset="1" stop-color="#F67130"/></linearGradient><linearGradient id="paint16_linear_7383_12060" x1="1.466" x2="143.414" y1="12.698" y2="66.674" gradientUnits="userSpaceOnUse"><stop stop-color="#D13F37"/><stop offset="1" stop-color="#F67130"/></linearGradient><linearGradient id="paint17_linear_7383_12060" x1="1.466" x2="143.414" y1="12.698" y2="66.674" gradientUnits="userSpaceOnUse"><stop stop-color="#D13F37"/><stop offset="1" stop-color="#F67130"/></linearGradient><linearGradient id="paint18_linear_7383_12060" x1="1.466" x2="143.414" y1="12.698" y2="66.674" gradientUnits="userSpaceOnUse"><stop stop-color="#D13F37"/><stop offset="1" stop-color="#F67130"/></linearGradient><linearGradient id="paint19_linear_7383_12060" x1="1.466" x2="143.414" y1="12.698" y2="66.674" gradientUnits="userSpaceOnUse"><stop stop-color="#D13F37"/><stop offset="1" stop-color="#F67130"/></linearGradient><linearGradient id="paint20_linear_7383_12060" x1="-8.981" x2="132.966" y1="40.172" y2="94.147" gradientUnits="userSpaceOnUse"><stop stop-color="#D13F37"/><stop offset="1" stop-color="#F67130"/></linearGradient><linearGradient id="paint21_linear_7383_12060" x1="-8.46" x2="133.488" y1="38.803" y2="92.779" gradientUnits="userSpaceOnUse"><stop stop-color="#D13F37"/><stop offset="1" stop-color="#F67130"/></linearGradient><linearGradient id="paint22_linear_7383_12060" x1="-7.815" x2="134.133" y1="37.104" y2="91.08" gradientUnits="userSpaceOnUse"><stop stop-color="#D13F37"/><stop offset="1" stop-color="#F67130"/></linearGradient><linearGradient id="paint23_linear_7383_12060" x1="-7.209" x2="134.739" y1="35.511" y2="89.487" gradientUnits="userSpaceOnUse"><stop stop-color="#D13F37"/><stop offset="1" stop-color="#F67130"/></linearGradient><linearGradient id="paint24_linear_7383_12060" x1="-6.897" x2="135.05" y1="34.694" y2="88.669" gradientUnits="userSpaceOnUse"><stop stop-color="#D13F37"/><stop offset="1" stop-color="#F67130"/></linearGradient><linearGradient id="paint25_linear_7383_12060" x1="-5.696" x2="136.252" y1="31.533" y2="85.509" gradientUnits="userSpaceOnUse"><stop stop-color="#D13F37"/><stop offset="1" stop-color="#F67130"/></linearGradient><linearGradient id="paint26_linear_7383_12060" x1="-4.525" x2="137.423" y1="28.454" y2="82.43" gradientUnits="userSpaceOnUse"><stop stop-color="#D13F37"/><stop offset="1" stop-color="#F67130"/></linearGradient><linearGradient id="paint27_linear_7383_12060" x1="-3.746" x2="138.202" y1="26.403" y2="80.379" gradientUnits="userSpaceOnUse"><stop stop-color="#D13F37"/><stop offset="1" stop-color="#F67130"/></linearGradient><linearGradient id="paint28_linear_7383_12060" x1="-3.145" x2="138.802" y1="24.825" y2="78.801" gradientUnits="userSpaceOnUse"><stop stop-color="#D13F37"/><stop offset="1" stop-color="#F67130"/></linearGradient><linearGradient id="paint29_linear_7383_12060" x1=".916" x2="142.863" y1="14.146" y2="68.122" gradientUnits="userSpaceOnUse"><stop stop-color="#D13F37"/><stop offset="1" stop-color="#F67130"/></linearGradient><linearGradient id="paint30_linear_7383_12060" x1=".916" x2="142.863" y1="14.146" y2="68.122" gradientUnits="userSpaceOnUse"><stop stop-color="#D13F37"/><stop offset="1" stop-color="#F67130"/></linearGradient><linearGradient id="paint31_linear_7383_12060" x1=".916" x2="142.863" y1="14.146" y2="68.122" gradientUnits="userSpaceOnUse"><stop stop-color="#D13F37"/><stop offset="1" stop-color="#F67130"/></linearGradient><linearGradient id="paint32_linear_7383_12060" x1="-12.403" x2="129.544" y1="49.171" y2="103.147" gradientUnits="userSpaceOnUse"><stop stop-color="#D13F37"/><stop offset="1" stop-color="#F67130"/></linearGradient><linearGradient id="paint33_linear_7383_12060" x1="-12.403" x2="129.544" y1="49.171" y2="103.147" gradientUnits="userSpaceOnUse"><stop stop-color="#D13F37"/><stop offset="1" stop-color="#F67130"/></linearGradient><linearGradient id="paint34_linear_7383_12060" x1="-12.403" x2="129.544" y1="49.171" y2="103.147" gradientUnits="userSpaceOnUse"><stop stop-color="#D13F37"/><stop offset="1" stop-color="#F67130"/></linearGradient><linearGradient id="paint35_linear_7383_12060" x1="-2.457" x2="139.49" y1="23.015" y2="76.991" gradientUnits="userSpaceOnUse"><stop stop-color="#D13F37"/><stop offset="1" stop-color="#F67130"/></linearGradient><clipPath id="clip0_7383_12060"><rect width="146.885" height="70" fill="#fff" transform="translate(0 0.678467)"/></clipPath></defs></svg>