<svg width="381" height="297" fill="none" xmlns="http://www.w3.org/2000/svg"><path d="M177.5.645a8 8 0 0 1 8 8v246h-140v-246a8 8 0 0 1 8-8h124Z" fill="#DADADA"/><path d="M109.457 218.317c0-1.272-.888-1.944-2.232-2.268l-.36-.084v-3.024c.816.18 1.308.804 1.332 1.656h1.056c-.036-1.392-.936-2.328-2.388-2.508v-1.188h-.876v1.164c-1.512.132-2.58 1.068-2.58 2.316 0 1.26.984 2.016 2.268 2.328l.312.072v3.18c-1.092-.156-1.764-.924-1.8-2.016h-1.056c.024 1.62 1.104 2.712 2.856 2.868v1.164h.876v-1.176c1.584-.168 2.592-1.224 2.592-2.484Zm-3.504-2.556c-1.068-.252-1.476-.732-1.476-1.38 0-.852.612-1.356 1.512-1.464v2.856l-.036-.012Zm.912 1.224c.924.252 1.512.648 1.512 1.404 0 .792-.564 1.416-1.512 1.56v-2.964Zm6.548 3.84c1.86 0 2.988-.936 2.988-2.412 0-.912-.648-1.776-1.764-2.124.948-.348 1.548-1.08 1.548-1.98 0-1.284-1.116-2.256-2.772-2.256-1.668 0-2.784.972-2.784 2.256 0 .9.6 1.632 1.56 1.98-1.116.348-1.764 1.212-1.764 2.124 0 1.476 1.128 2.412 2.988 2.412Zm0-5.052c-1.02 0-1.704-.6-1.704-1.464 0-.828.672-1.44 1.704-1.44s1.692.612 1.692 1.44c0 .864-.672 1.464-1.692 1.464Zm0 4.248c-1.14 0-1.896-.612-1.896-1.608 0-.924.768-1.608 1.896-1.608s1.896.684 1.896 1.608c0 .996-.756 1.608-1.896 1.608Zm8.731.624v-2.148h1.548v-.96h-1.548v-5.292h-1.416l-3.492 5.232v1.02h3.852v2.148h1.056Zm-3.912-3.108c.096-.144.192-.3.276-.42l2.22-3.348.36-.576v4.344h-2.856Zm-28.217 21.64v-3.336c.372.588 1.056.984 1.884.984 1.596 0 2.688-1.248 2.688-3.084 0-1.764-.996-3.072-2.664-3.072-.864 0-1.584.468-1.908.984v-.792h-1.032v8.316h1.032Zm1.728-3.156c-1.056 0-1.788-.924-1.788-2.28 0-1.38.744-2.256 1.788-2.256 1.068 0 1.764.924 1.764 2.256 0 1.344-.696 2.28-1.764 2.28Zm6.576.804c1.644 0 2.436-.948 2.556-1.968h-1.02c-.144.888-.816 1.164-1.524 1.164-.996 0-1.764-.756-1.788-2.076h4.392v-.204c0-1.86-.948-3.072-2.676-3.072-1.584 0-2.748 1.284-2.748 3.06 0 2.004 1.08 3.096 2.808 3.096Zm-1.74-3.612c.072-.972.708-1.728 1.68-1.728 1.008 0 1.572.696 1.572 1.728h-3.252Zm6.696 3.432v-3.06c0-1.284.636-1.908 1.752-1.908.144 0 .24.012.324.024v-1.02c-.096-.012-.192-.012-.264-.012-.888 0-1.524.492-1.812 1.152v-.96h-1.032v5.784h1.032Zm6.487 0v-3.396c0-.96.552-1.764 1.452-1.764.852 0 1.188.636 1.188 1.74v3.42h1.032v-3.444c0-.924.516-1.716 1.428-1.716.888 0 1.212.612 1.212 1.704v3.456h1.032v-3.66c0-1.584-.864-2.316-2.028-2.316-.828 0-1.488.468-1.884 1.14-.336-.768-.984-1.14-1.74-1.14s-1.344.408-1.692.972v-.78h-1.032v5.784h1.032Zm11.411.18c1.656 0 2.844-1.236 2.844-3.084 0-1.8-1.188-3.072-2.844-3.072-1.668 0-2.844 1.272-2.844 3.072 0 1.848 1.176 3.084 2.844 3.084Zm0-.804c-1.104 0-1.776-.924-1.776-2.28 0-1.356.696-2.256 1.776-2.256s1.776.9 1.776 2.256c0 1.356-.672 2.28-1.776 2.28Zm5.166.624v-3.48c0-.912.6-1.68 1.608-1.68.912 0 1.272.552 1.272 1.644v3.516h1.032v-3.648c0-1.488-.804-2.328-2.136-2.328-.78 0-1.476.468-1.776.972v-.78h-1.032v5.784h1.032Zm7.498.06c.24 0 .456-.024.672-.072v-.888a2.856 2.856 0 0 1-.432.036c-.516 0-.852-.216-.852-.888v-3.18h1.2v-.852h-1.2v-1.908h-1.032v1.908h-1.08v.852h1.08v3.288c0 1.284.78 1.704 1.644 1.704Zm2.833-.06v-3.48c0-.912.588-1.68 1.572-1.68.936 0 1.308.552 1.308 1.644v3.516h1.032v-3.648c0-1.488-.804-2.328-2.136-2.328-.78 0-1.464.42-1.776.972v-3.396h-1.032v8.4h1.032Z" fill="#12100C" fill-opacity=".7"/><path d="M341.5 179.045a8 8 0 0 1 8 8v67.6h-140v-67.6a8 8 0 0 1 8-8h124Z" fill="url(#a)"/><path d="M275.026 218.209c0-1.416-1.212-2.136-2.412-2.412l-.156-.036v-2.34c.54.228.876.732.936 1.368h1.524c-.144-1.464-1.008-2.472-2.46-2.712v-1.176h-1.128v1.152c-1.488.168-2.592 1.116-2.592 2.448 0 1.344 1.08 2.1 2.28 2.364l.312.072v2.604c-.756-.204-1.26-.876-1.32-1.776h-1.488c.132 1.704 1.14 2.856 2.808 3.06v1.152h1.128v-1.152c1.584-.204 2.568-1.26 2.568-2.616Zm-4.836-3.84c0-.588.432-.972 1.14-1.068v2.196c-.648-.192-1.14-.516-1.14-1.128Zm2.268 2.808c.732.216 1.116.576 1.116 1.176 0 .648-.468 1.056-1.116 1.2v-2.376Zm9.413 3.468v-1.404h-4.032c.108-.228.336-.396 1.152-.984l.564-.396c1.212-.852 2.316-1.728 2.316-3.276 0-1.452-1.044-2.556-2.856-2.556-1.968 0-3.144 1.236-3.144 3.096v.072h1.608v-.084c0-1.104.516-1.8 1.536-1.8.828 0 1.332.468 1.332 1.26 0 .828-.636 1.404-1.548 2.052l-.492.348c-1.404.996-2.496 1.788-2.544 3.672h6.108Zm3.981.216c1.728 0 3.108-1.068 3.108-2.988 0-1.644-1.068-2.904-2.664-2.904-.972 0-1.608.492-2.016 1.032.06-.168.096-.312.12-.504l.264-1.812h3.84v-1.44h-4.956l-.66 4.872h1.524c.24-.54.78-.876 1.488-.876 1.02 0 1.548.768 1.548 1.632 0 1.068-.72 1.704-1.644 1.704-.924 0-1.476-.6-1.512-1.344h-1.524c.012 1.488 1.164 2.628 3.084 2.628Zm-31.945 18.232v-2.688c0-.168-.012-.324-.048-.564.372.6.876 1.02 1.86 1.02 1.488 0 2.628-1.212 2.628-3.108 0-1.86-1.02-3.156-2.568-3.156-.924 0-1.548.408-1.92 1.032.036-.24.048-.396.048-.576v-.264h-1.464v8.304h1.464Zm1.452-3.384c-.888 0-1.512-.804-1.512-1.98 0-1.212.636-1.968 1.512-1.968.936 0 1.5.816 1.5 1.968 0 1.176-.6 1.98-1.5 1.98Zm6.682 1.152c1.584 0 2.616-.924 2.736-2.124h-1.488c-.096.612-.612.972-1.248.972-.888 0-1.476-.708-1.488-1.632h4.26v-.324c0-1.908-1.032-3.156-2.82-3.156-1.704 0-2.94 1.26-2.94 3.108 0 2.028 1.236 3.156 2.988 3.156Zm-1.5-3.84c.084-.768.648-1.332 1.44-1.332.792 0 1.308.54 1.332 1.332h-2.772Zm6.802 3.624v-2.904c0-1.284.66-1.74 1.56-1.74.192 0 .324.024.42.048v-1.416a1.238 1.238 0 0 0-.312-.036c-.876 0-1.404.588-1.716 1.248.036-.216.048-.396.048-.612v-.444h-1.464v5.856h1.464Zm6.382 0v-3.408c0-.912.468-1.476 1.104-1.476.66 0 .972.564.972 1.416v3.468h1.464v-3.408c0-.888.48-1.476 1.116-1.476.636 0 .972.564.972 1.416v3.468h1.464v-3.684c0-1.428-.828-2.364-2.016-2.364-.852 0-1.56.528-1.896 1.092-.216-.528-.804-1.092-1.536-1.092-.864 0-1.404.516-1.692 1.032.036-.192.048-.396.048-.576v-.264h-1.464v5.856h1.464Zm11.076.216c1.764 0 3.012-1.176 3.012-3.12 0-1.92-1.248-3.144-3.012-3.144-1.752 0-3 1.224-3 3.144 0 1.944 1.236 3.12 3 3.12Zm0-1.152c-.912 0-1.512-.72-1.512-1.968 0-1.272.624-1.98 1.512-1.98.9 0 1.524.708 1.524 1.98 0 1.248-.612 1.968-1.524 1.968Zm5.524.936v-3.432c0-.816.528-1.452 1.248-1.452.684 0 1.104.54 1.104 1.404v3.48h1.464v-3.696c0-1.44-.768-2.352-2.064-2.352-.924 0-1.476.444-1.8 1.032.036-.228.048-.408.048-.576v-.264h-1.464v5.856h1.464Zm7.676.108c.372 0 .72-.06.864-.108v-1.104a2.77 2.77 0 0 1-.444.036c-.624 0-.864-.36-.864-.972v-2.652h1.44v-1.164h-1.44v-2.112h-1.464v2.112h-1.332v1.164h1.332v2.868c0 1.308.66 1.932 1.908 1.932Zm3.335-.108v-3.432c0-.816.528-1.452 1.248-1.452.684 0 1.104.54 1.104 1.404v3.48h1.464v-3.696c0-1.44-.768-2.352-2.064-2.352-.924 0-1.476.444-1.8 1.032.036-.228.048-.408.048-.576v-2.808h-1.464v8.4h1.464Z" fill="#12100C"/><path fill-rule="evenodd" clip-rule="evenodd" d="M284.541 268.139c.802 1.421.314 3.232-1.089 4.044l-8.726 5.05a.752.752 0 0 0-.373.651v7.928c0 .269.143.518.373.651l6.907 3.998a.735.735 0 0 0 .734 0l6.907-3.998a.752.752 0 0 0 .373-.651v-4.93l-6.209 3.548a2.908 2.908 0 0 1-3.987-1.125c-.794-1.426-.297-3.234 1.111-4.038l8.884-5.077c2.706-1.547 6.054.434 6.054 3.581v8.643a5.655 5.655 0 0 1-2.806 4.898l-7.931 4.589a5.502 5.502 0 0 1-5.526 0l-7.931-4.589a5.655 5.655 0 0 1-2.806-4.898v-9.132a5.656 5.656 0 0 1 2.806-4.898l9.242-5.348a2.906 2.906 0 0 1 3.993 1.103Z" fill="url(#b)"/><path fill="#DADADA" d="M380.5 254.645v2H.5v-2z"/><path d="M104.432 295.796a27.892 27.892 0 0 0 13.636-5.009 28.245 28.245 0 0 0 9.329-11.218 28.13 28.13 0 0 0-10.019-8.873 27.835 27.835 0 0 0-15.402-3.093 28.534 28.534 0 0 0 2.456 28.193Z" fill="url(#c)"/><path d="M102.021 267.607a33.077 33.077 0 0 1 14.738 11.962h10.637a28.025 28.025 0 0 0-10.001-8.877 27.735 27.735 0 0 0-12.937-3.198c-.815 0-1.627.038-2.437.113Z" fill="url(#d)"/><path d="M116.759 279.569c-1.282 8.555-12.338 16.227-12.338 16.227 10.054-.959 18.866-7.034 22.976-16.227h-10.638Z" fill="url(#e)"/><defs><linearGradient id="a" x1="329.375" y1="189.912" x2="276.327" y2="280.204" gradientUnits="userSpaceOnUse"><stop stop-color="#FFAD33"/><stop offset="1" stop-color="#FF8A00"/></linearGradient><linearGradient id="b" x1="288.822" y1="271.181" x2="274.711" y2="293.085" gradientUnits="userSpaceOnUse"><stop stop-color="#FFB45B"/><stop offset="1" stop-color="#FF8A00"/></linearGradient><linearGradient id="c" x1="111.996" y1="267.113" x2="114.978" y2="295.115" gradientUnits="userSpaceOnUse"><stop stop-color="#FCF84A"/><stop offset=".32" stop-color="#ABE682"/><stop offset=".79" stop-color="#36CDD2"/><stop offset="1" stop-color="#07C3F2"/></linearGradient><linearGradient id="d" x1="101.262" y1="267.539" x2="127.601" y2="279.921" gradientUnits="userSpaceOnUse"><stop stop-color="#3BEA62"/><stop offset="1" stop-color="#087CFA"/></linearGradient><linearGradient id="e" x1="103.658" y1="294.905" x2="130.252" y2="276.464" gradientUnits="userSpaceOnUse"><stop stop-color="#009AE5"/><stop offset=".18" stop-color="#0490DD"/><stop offset=".49" stop-color="#1073C6"/><stop offset=".89" stop-color="#2346A1"/><stop offset="1" stop-color="#293896"/></linearGradient></defs></svg>