<svg width="41" height="40" fill="none" xmlns="http://www.w3.org/2000/svg"><path d="M8.826 38.868a37.174 37.174 0 0 0 18.18-6.679 37.652 37.652 0 0 0 12.439-14.956A37.498 37.498 0 0 0 26.087 5.402a37.113 37.113 0 0 0-17.261-4.27c-1.087 0-2.179.049-3.276.146a38.043 38.043 0 0 0-3.352 19.238 37.954 37.954 0 0 0 6.628 18.352Z" fill="url(#a)"/><path d="M5.61 1.283a44.099 44.099 0 0 1 19.653 15.95h14.183A37.38 37.38 0 0 0 26.11 5.396 36.994 36.994 0 0 0 8.861 1.132c-1.087 0-2.17.05-3.25.151Z" fill="url(#b)"/><path d="M25.263 17.233C23.553 28.639 8.812 38.868 8.812 38.868c13.405-1.278 25.155-9.379 30.634-21.635H25.263Z" fill="url(#c)"/><defs><linearGradient id="a" x1="18.911" y1=".624" x2="22.886" y2="37.96" gradientUnits="userSpaceOnUse"><stop stop-color="#FCF84A"/><stop offset=".32" stop-color="#ABE682"/><stop offset=".79" stop-color="#36CDD2"/><stop offset="1" stop-color="#07C3F2"/></linearGradient><linearGradient id="b" x1="4.599" y1="1.192" x2="39.718" y2="17.701" gradientUnits="userSpaceOnUse"><stop stop-color="#3BEA62"/><stop offset="1" stop-color="#087CFA"/></linearGradient><linearGradient id="c" x1="7.795" y1="37.681" x2="43.253" y2="13.092" gradientUnits="userSpaceOnUse"><stop stop-color="#009AE5"/><stop offset=".18" stop-color="#0490DD"/><stop offset=".49" stop-color="#1073C6"/><stop offset=".89" stop-color="#2346A1"/><stop offset="1" stop-color="#293896"/></linearGradient></defs></svg>