<svg width="51" height="51" fill="none" xmlns="http://www.w3.org/2000/svg"><g clip-path="url(#a)"><path d="m23.014 16.88-7.647 2.92V7.468l7.647 2.707v6.704Z" fill="#804998"/><path d="M8.412 9.496v8.1l5.728 2.178V7.469L8.412 9.496Zm.628 7.513-.312-.098v-6.707l.312-.088.328-.091.349-.098v7.291l-.35-.108-.327-.101Zm1.436.444-.392-.12v-7.51l.392-.11.415-.117.444-.125v8.248l-.444-.138-.415-.128Zm1.84.57-.508-.157V9.338l.508-.143.542-.153.586-.165v9.495l-.586-.18-.542-.17Z" fill="#68217A"/><path d="m40.914 16.88-7.648 2.92V7.468l7.648 2.707v6.704Z" fill="#804998"/><path d="M26.312 9.496v8.1l5.728 2.178V7.469l-5.728 2.028Zm.627 7.513-.312-.098v-6.707l.312-.088.328-.091.349-.098v7.291l-.35-.108-.327-.101Zm1.436.444-.392-.12v-7.51l.392-.11.415-.117.444-.125v8.248l-.444-.138-.415-.128Zm1.84.57-.508-.157V9.338l.508-.143.542-.153.586-.165v9.495l-.586-.18-.542-.17Z" fill="#68217A"/><path d="m23.014 41.474-7.647 2.92V32.06l7.647 2.71v6.703Z" fill="#804998"/><path d="M8.412 34.09v8.1l5.728 2.178V32.06l-5.728 2.03Zm.628 7.512-.312-.096v-6.708l.312-.087.328-.093.349-.098v7.292l-.35-.107-.327-.102Zm1.436.445-.392-.121v-7.51l.392-.11.415-.117.444-.126v8.25l-.444-.139-.415-.127Zm1.84.57-.508-.157v-8.53l.508-.142.542-.153.586-.166v9.496l-.586-.18-.542-.168Z" fill="#68217A"/><path d="m40.914 41.474-7.648 2.92V32.06l7.648 2.71v6.703Z" fill="#804998"/><path d="M26.312 34.09v8.1l5.728 2.178V32.06l-5.728 2.03Zm.627 7.512-.312-.096v-6.708l.312-.087.328-.093.349-.098v7.292l-.35-.107-.327-.102Zm1.436.445-.392-.121v-7.51l.392-.11.415-.117.444-.126v8.25l-.444-.139-.415-.127Zm1.84.57-.508-.157v-8.53l.508-.142.542-.153.586-.166v9.496l-.586-.18-.542-.168Z" fill="#68217A"/><path d="m32.54 29.14-7.648 2.92V19.728l7.648 2.708v6.704Z" fill="#804998"/><path d="M17.938 21.756v8.1l5.728 2.18V19.727l-5.728 2.028Zm.627 7.514-.312-.098v-6.707l.312-.087.328-.093.349-.098v7.293l-.35-.108-.327-.102Zm1.436.445-.392-.122v-7.509l.392-.11.415-.116.444-.125v8.248l-.444-.138-.415-.128Zm1.84.569-.508-.157v-8.528l.508-.143.542-.154.586-.165v9.497l-.586-.181-.542-.17Z" fill="#68217A"/><path d="m14.733 29.14-7.648 2.92V19.728l7.648 2.708v6.704Z" fill="#804998"/><path d="M.13 21.756v8.1l5.729 2.18V19.727L.13 21.756Zm.628 7.514-.312-.098v-6.707l.312-.087.328-.093.349-.098v7.293l-.35-.108-.327-.102Zm1.436.445-.392-.122v-7.509l.392-.11.415-.116.445-.128v8.25l-.444-.139-.416-.127Zm1.84.569-.508-.157v-8.528l.508-.143.542-.154.586-.165v9.497l-.586-.181-.542-.17Z" fill="#68217A"/><path d="m50.123 29.14-7.648 2.92V19.728l7.648 2.708v6.704Z" fill="#804998"/><path d="M35.52 21.756v8.1l5.729 2.18V19.727l-5.728 2.028Zm.628 7.514-.312-.098v-6.707l.312-.087.328-.093.349-.098v7.293l-.35-.108-.327-.102Zm1.436.445-.392-.122v-7.509l.392-.11.415-.116.444-.125v8.248l-.444-.138-.415-.128Zm1.84.569-.508-.157v-8.528l.508-.143.542-.154.586-.165v9.497l-.586-.181-.542-.17Z" fill="#68217A"/></g><defs><clipPath id="a"><path fill="#fff" transform="translate(.123 .93)" d="M0 0h50v50H0z"/></clipPath></defs></svg>