<svg xmlns="http://www.w3.org/2000/svg" width="51" height="51" fill="none" viewBox="0 0 51 51"><path fill="url(#paint0_linear_8968_18025)" d="M19.1245 20.9546L20.115 3.07837L30.5102 8.84027L19.1245 20.9546Z"/><path fill="url(#paint1_linear_8968_18025)" d="M19.1257 20.9546L20.1162 3.07837L6.91619 11.3974L2.69238 36.6879L19.1257 20.9546Z"/><path fill="url(#paint2_linear_8968_18025)" d="M47.4971 16.7784L41.6162 4.82129L30.5114 8.84034L19.1257 20.9546L2.69238 36.688L17.5162 47.4784L36.1495 30.6737L47.4971 16.7784Z"/><path fill="url(#paint3_linear_8968_18025)" d="M39.8352 29.2878V40.2212H21.8828L29.7733 46.3259L41.2019 48.7926L48.4066 32.4831L39.8352 29.2878Z"/><path fill="#000" d="M11.2637 11.6499H39.8351V40.2213H11.2637V11.6499Z"/><path fill="#fff" d="M14.8242 34.8213H25.5385V36.607H14.8242V34.8213Z"/><path fill="#fff" d="M25.5728 15.1926H27.9537V23.9498H32.6442V25.9355H25.5728V15.1926Z"/><path fill="#fff" d="M14.0629 20.6356V20.607C14.0498 19.8656 14.1869 19.1292 14.4659 18.4422C14.7449 17.7552 15.1601 17.1318 15.6864 16.6095C16.2127 16.0872 16.8393 15.6768 17.5284 15.403C18.2175 15.1292 18.9549 14.9978 19.6962 15.0165C20.4833 14.9777 21.2696 15.1062 22.0034 15.3935C22.7372 15.6808 23.4018 16.1203 23.9533 16.6832L22.4533 18.4308C21.7267 17.6773 20.7331 17.2395 19.6867 17.2118C17.8676 17.2118 16.5581 18.7213 16.5581 20.5737V20.607C16.5581 22.4594 17.8391 24.0022 19.6867 24.0022C20.9248 24.0022 21.6772 23.526 22.5438 22.7356L24.0295 24.2689C23.4828 24.9011 22.7998 25.401 22.0318 25.731C21.2639 26.0609 20.4311 26.2123 19.5962 26.1737C18.8661 26.1846 18.1413 26.0488 17.4647 25.7743C16.7881 25.4998 16.1736 25.0922 15.6575 24.5757C15.1414 24.0591 14.7343 23.4442 14.4604 22.7674C14.1865 22.0906 14.0513 21.3656 14.0629 20.6356Z"/><defs><linearGradient id="paint0_linear_8968_18025" x1="19.125" x2="32.22" y1="12.017" y2="12.017" gradientUnits="userSpaceOnUse"><stop stop-color="#FF318C"/><stop offset=".15" stop-color="#FB348C"/><stop offset=".28" stop-color="#F03C8C"/><stop offset=".42" stop-color="#DE4A8C"/><stop offset=".54" stop-color="#C45D8B"/><stop offset=".67" stop-color="#A2778B"/><stop offset=".79" stop-color="#79958A"/><stop offset=".91" stop-color="#49B98A"/><stop offset="1" stop-color="#21D789"/></linearGradient><linearGradient id="paint1_linear_8968_18025" x1="13.878" x2="7.154" y1="8.878" y2="53.993" gradientUnits="userSpaceOnUse"><stop offset=".09" stop-color="#21D789"/><stop offset=".9" stop-color="#009AE5"/></linearGradient><linearGradient id="paint2_linear_8968_18025" x1="44.383" x2="-1.608" y1="7.317" y2="55.888" gradientUnits="userSpaceOnUse"><stop offset=".09" stop-color="#21D789"/><stop offset=".9" stop-color="#009AE5"/></linearGradient><linearGradient id="paint3_linear_8968_18025" x1="30.473" x2="46.202" y1="37.612" y2="39.85" gradientUnits="userSpaceOnUse"><stop offset=".09" stop-color="#21D789"/><stop offset=".9" stop-color="#009AE5"/></linearGradient></defs></svg>