<svg xmlns="http://www.w3.org/2000/svg" width="24" height="22" fill="none" viewBox="0 0 24 22"><path fill="#575552" d="M10.9094 15.5092C11.3115 14.9798 12.1077 14.9798 12.5098 15.5092L15.9237 20.0032C16.4264 20.6649 15.9545 21.616 15.1235 21.616H8.29564C7.46467 21.616 6.99275 20.6649 7.49542 20.0032L10.9094 15.5092Z"/><g clip-path="url(#clip0_8980_18937)"><rect width="23.233" height="17.953" x=".093" y=".375" fill="#575552" rx="1.568"/><path fill="#696662" d="M0.0927734 1.94346C0.0927734 1.07736 0.794888 0.375244 1.66099 0.375244H21.7575C22.6236 0.375244 23.3257 1.07736 23.3257 1.94346V4.48641H0.0927734V1.94346Z"/><rect width="7.939" height="1.568" x="2.618" y="7.393" fill="#807C78"/><rect width="13.82" height="1.568" x="4.774" y="11.02" fill="#807C78"/></g><defs><clipPath id="clip0_8980_18937"><rect width="23.233" height="17.953" x=".093" y=".375" fill="#fff" rx="1.568"/></clipPath></defs></svg>