<svg width="36" height="22" fill="none" xmlns="http://www.w3.org/2000/svg"><path d="M21.695 6.1h.837l2.386-2.343.117-.996c-4.441-3.85-11.22-3.434-15.14.928A10.474 10.474 0 0 0 7.584 7.9c.265-.106.56-.124.837-.048l4.773-.774s.242-.395.37-.37c2.122-2.29 5.695-2.557 8.147-.609h-.016Z" fill="#EA4335"/><path d="M28.318 7.902a10.523 10.523 0 0 0-3.24-5.13l-3.35 3.288a5.806 5.806 0 0 1 2.186 4.638v.585c1.646 0 2.981 1.31 2.981 2.928 0 1.616-1.335 2.927-2.981 2.927h-5.963l-.595.592v3.512l.595.585h5.963c4.282.032 7.78-3.35 7.813-7.555a7.579 7.579 0 0 0-3.41-6.37Z" fill="#4285F4"/><path d="M11.98 21.789h5.963v-4.687H11.98c-.425 0-.844-.09-1.23-.264l-.838.256-2.403 2.343-.21.822a7.789 7.789 0 0 0 4.681 1.53Z" fill="#34A853"/><path d="M11.98 6.586c-4.283.024-7.732 3.454-7.707 7.66a7.564 7.564 0 0 0 3.027 5.99l3.458-3.396c-1.5-.665-2.168-2.4-1.49-3.873.677-1.472 2.444-2.128 3.944-1.463.66.293 1.19.814 1.49 1.463l3.457-3.395a7.787 7.787 0 0 0-6.178-2.986Z" fill="#FBBC05"/></svg>