<svg width="64" height="64" fill="none" xmlns="http://www.w3.org/2000/svg"><path d="M45.1 18.1 40.9 0h-23L0 27.5l5.2 12.6L0 51.6 30.7 57l19.4-17.2-5-21.7Z" fill="url(#a)"/><path d="M6.3 28.4 0 27.5l5.2 12.6L0 51.6l12.3-10.1-6-13.1Z" fill="url(#b)"/><path d="M6.3 28.4 0 27.5l5.2 12.6 7.1 1.4-6-13.1Z" fill="url(#c)"/><path d="M6.3 28.3 40.9 0h-23L0 27.5l6.3.8Z" fill="url(#d)"/><path d="M6.3 28.3 40.9 0h-23L0 27.5l6.3.8Z" fill="url(#e)"/><path d="M6.3 28.3 22.5 15 17.9 0 0 27.5l6.3.8Z" fill="url(#f)"/><path d="M6.3 28.3 22.5 15 17.9 0 0 27.5l6.3.8Z" fill="url(#g)"/><path d="M56.4 24.8 64 41.7 50.9 64l-8-19.5 13.5-19.7Z" fill="url(#h)"/><path d="M49.6 35 64 41.7 50.9 64l-8-19.5 6.7-9.5Z" fill="url(#i)"/><path d="m42.9 44.5 8 19.5-20.2-7 12.2-12.5Z" fill="url(#j)"/><path d="M64 13.6 37.2 20 0 51.6 24 64l18.9-19.5L64 13.6Z" fill="url(#k)"/><path d="M15.9 52.3 0 51.6 24 64l6.9-7.1-15-4.6Z" fill="url(#l)"/><path d="M15.9 52.3 0 51.6l12.1-10.4 3.8 11.1Z" fill="url(#m)"/><path d="M64 13.6 37.2 20l18.9 5.2L64 13.6Z" fill="url(#n)"/><path d="M64 13.6 37.2 20l17.7 4.9L64 13.6Z" fill="url(#o)"/><path d="m49.1 35.4-4-17.3-7.9 1.9-10.9 9.2 22.8 6.2Z" fill="url(#p)"/><path d="m46.1 22.4-1-4.3-7.9 1.9 8.9 2.4Z" fill="url(#q)"/><path d="m12.2 41.3 30.7 3.2 13.5-19.7-9.9 1.2-34.3 15.3Z" fill="url(#r)"/><path d="M64 13.6 24 64l18.9-19.5L64 13.6Z" fill="url(#s)"/><path d="M64 13.6 24 64l18.9-19.5L64 13.6Z" fill="url(#t)"/><path d="M52 12H12v40h40V12Z" fill="url(#u)"/><g opacity=".3"><path opacity=".3" d="m37.2 20 7.9-1.9-1.4-6.1H26.2L12 23.6v17.8L37.2 20Z" fill="url(#v)"/><path opacity=".3" d="M12 23.6 26.2 12H12v11.6Z" fill="url(#w)"/><g opacity=".3"><path opacity=".3" d="M44.3 47.8 46 52l-1.7-4.2Z" fill="url(#x)"/><path opacity=".3" d="m49.6 35 2.4 1.1v-4.9l-9.1 13.3 6.7-9.5Z" fill="url(#y)"/></g><path opacity=".3" d="m52 36.1-2.5-1.4-6.6 9.8L46 52h6V36.1Z" fill="url(#z)"/><path opacity=".3" d="M42.9 44.5 35.6 52H46l-3.1-7.5Z" fill="url(#A)"/><path opacity=".3" d="M52 16.4 37.2 20 12 41.4V52h23.6l7.3-7.5L52 31.2V16.4Z" fill="url(#B)"/><path opacity=".3" d="M52 24v-7.6L37.2 20 52 24Z" fill="#08FF6C"/></g><path d="M32 44.45H17v2.5h15v-2.5ZM15.7 24.54c0-4.284 3.373-7.749 7.931-7.749 2.735 0 4.376.73 5.926 2.097L27.46 21.35c-1.185-1.002-2.188-1.55-3.92-1.55-2.37 0-4.284 2.098-4.284 4.65 0 2.735 1.914 4.74 4.558 4.74 1.185 0 2.279-.273 3.1-.91V26.09H23.54v-2.826h6.564v6.564c-1.55 1.276-3.646 2.37-6.381 2.37-4.741.091-8.023-3.19-8.023-7.658ZM32 24.54c0-4.285 3.373-7.84 8.023-7.84 4.649 0 7.931 3.464 7.931 7.749s-3.373 7.75-8.023 7.75C35.282 32.288 32 28.824 32 24.54Zm12.49 0c0-2.644-1.915-4.74-4.559-4.74-2.643 0-4.467 2.096-4.467 4.649s1.915 4.74 4.559 4.74c2.643.092 4.467-2.005 4.467-4.649Z" fill="#fff"/><defs><linearGradient id="a" x1="28.826" y1="25.818" x2="44.019" y2="8.534" gradientUnits="userSpaceOnUse"><stop offset="0" stop-color="#087CFA"/><stop offset=".023" stop-color="#0D7BFA"/><stop offset=".373" stop-color="#5566F9"/><stop offset=".663" stop-color="#8A57F8"/><stop offset=".881" stop-color="#AB4EF7"/><stop offset="1" stop-color="#B74AF7"/></linearGradient><linearGradient id="b" x1="-.022" y1="39.518" x2="16.688" y2="38.791" gradientUnits="userSpaceOnUse"><stop offset=".12" stop-color="#2D58F9"/><stop offset=".946" stop-color="#B74AF7"/></linearGradient><linearGradient id="c" x1="3.061" y1="25.84" x2="9.172" y2="42.923" gradientUnits="userSpaceOnUse"><stop offset=".085" stop-color="#086AFA"/><stop offset=".476" stop-color="#087CFA"/><stop offset=".685" stop-color="#466AF9"/><stop offset=".898" stop-color="#8059F8"/><stop offset="1" stop-color="#9653F8"/></linearGradient><linearGradient id="d" x1="2.249" y1="22.239" x2="37.394" y2="-6.503" gradientUnits="userSpaceOnUse"><stop offset="0" stop-color="#087CFA"/><stop offset=".019" stop-color="#0D7BFA"/><stop offset=".311" stop-color="#5566F9"/><stop offset=".554" stop-color="#8A57F8"/><stop offset=".736" stop-color="#AB4EF7"/><stop offset=".835" stop-color="#B74AF7"/><stop offset=".98" stop-color="#DB5CFF"/></linearGradient><linearGradient id="e" x1="18.413" y1="12.111" x2="25.532" y2="17.704" gradientUnits="userSpaceOnUse"><stop offset=".523" stop-color="#B74AF7" stop-opacity="0"/><stop offset=".926" stop-color="#D66EFF"/></linearGradient><linearGradient id="f" x1=".829" y1="23.39" x2="29.602" y2="-.142" gradientUnits="userSpaceOnUse"><stop offset="0" stop-color="#087CFA"/><stop offset=".016" stop-color="#0D7BFA"/><stop offset=".27" stop-color="#5566F9"/><stop offset=".481" stop-color="#8A57F8"/><stop offset=".638" stop-color="#AB4EF7"/><stop offset=".725" stop-color="#B74AF7"/><stop offset=".953" stop-color="#DB5CFF"/></linearGradient><linearGradient id="g" x1="3.035" y1="31.409" x2="8.491" y2="23.831" gradientUnits="userSpaceOnUse"><stop offset="0" stop-color="#8F99FF"/><stop offset="1" stop-color="#B74AF7" stop-opacity="0"/></linearGradient><linearGradient id="h" x1="63.021" y1="36.457" x2="38.023" y2="57.608" gradientUnits="userSpaceOnUse"><stop offset="0" stop-color="#087CFA"/><stop offset=".023" stop-color="#0D7BFA"/><stop offset=".373" stop-color="#5566F9"/><stop offset=".663" stop-color="#8A57F8"/><stop offset=".881" stop-color="#AB4EF7"/><stop offset="1" stop-color="#B74AF7"/></linearGradient><linearGradient id="i" x1="62.278" y1="47.687" x2="39.494" y2="51.134" gradientUnits="userSpaceOnUse"><stop offset=".003" stop-color="#2D58F9"/><stop offset=".813" stop-color="#B74AF7"/></linearGradient><linearGradient id="j" x1="49.963" y1="51.522" x2="41.036" y2="59.509" gradientUnits="userSpaceOnUse"><stop offset="0" stop-color="#C386F7"/><stop offset=".813" stop-color="#B74AF7"/></linearGradient><linearGradient id="k" x1="8.891" y1="55.909" x2="55.058" y2="26.242" gradientUnits="userSpaceOnUse"><stop offset="0" stop-color="#087CFA"/><stop offset=".102" stop-color="#1598D3"/><stop offset=".225" stop-color="#23B6AA"/><stop offset=".345" stop-color="#2DCC8B"/><stop offset=".462" stop-color="#35DD74"/><stop offset=".572" stop-color="#39E767"/><stop offset=".67" stop-color="#3BEA62"/></linearGradient><linearGradient id="l" x1="11.502" y1="58.269" x2="33.019" y2="37.041" gradientUnits="userSpaceOnUse"><stop offset="0" stop-color="#087CFA"/><stop offset=".102" stop-color="#1598D3"/><stop offset=".225" stop-color="#23B6AA"/><stop offset=".345" stop-color="#2DCC8B"/><stop offset=".462" stop-color="#35DD74"/><stop offset=".572" stop-color="#39E767"/><stop offset=".67" stop-color="#3BEA62"/></linearGradient><linearGradient id="m" x1="6.274" y1="53.62" x2="24.975" y2="35.169" gradientUnits="userSpaceOnUse"><stop offset=".171" stop-color="#087CFA"/><stop offset=".402" stop-color="#19A1C8"/><stop offset=".68" stop-color="#2BC891"/><stop offset=".887" stop-color="#37E16F"/><stop offset="1" stop-color="#3BEA62"/></linearGradient><linearGradient id="n" x1="41.886" y1="26.992" x2="60.581" y2="9.543" gradientUnits="userSpaceOnUse"><stop offset=".493" stop-color="#00FA45"/><stop offset=".868" stop-color="#B5FF91"/></linearGradient><linearGradient id="o" x1="46.968" y1="14.694" x2="58.046" y2="21.064" gradientUnits="userSpaceOnUse"><stop offset=".175" stop-color="#00FA45" stop-opacity="0"/><stop offset=".868" stop-color="#A0FF5E"/></linearGradient><linearGradient id="p" x1="49.974" y1="19.167" x2="37.172" y2="32.877" gradientUnits="userSpaceOnUse"><stop offset="0" stop-color="#7165DF"/><stop offset=".068" stop-color="#6475D9"/><stop offset=".235" stop-color="#4897CD"/><stop offset=".32" stop-color="#44B2AA"/><stop offset=".414" stop-color="#40CA8B"/><stop offset=".506" stop-color="#3DDC74"/><stop offset=".593" stop-color="#3CE667"/><stop offset=".67" stop-color="#3BEA62"/></linearGradient><linearGradient id="q" x1="45.354" y1="17.198" x2="41.202" y2="21.646" gradientUnits="userSpaceOnUse"><stop offset=".383" stop-color="#59C1DB"/><stop offset=".469" stop-color="#4FCEB4"/><stop offset=".579" stop-color="#4D8"/><stop offset=".664" stop-color="#3EE76C"/><stop offset=".714" stop-color="#3BEA62"/></linearGradient><linearGradient id="r" x1="24.61" y1="29.833" x2="65.839" y2="43.455" gradientUnits="userSpaceOnUse"><stop offset="0" stop-color="#1CA7BE"/><stop offset=".375" stop-color="#2FCF87"/><stop offset=".655" stop-color="#3BEA62"/><stop offset=".857" stop-color="#5FFF58"/></linearGradient><linearGradient id="s" x1="22.79" y1="39.951" x2="52.758" y2="38.316" gradientUnits="userSpaceOnUse"><stop offset=".296" stop-color="#1CA7BE"/><stop offset=".343" stop-color="#23B5AA"/><stop offset=".431" stop-color="#2DCC8B"/><stop offset=".517" stop-color="#35DD74"/><stop offset=".598" stop-color="#39E767"/><stop offset=".67" stop-color="#3BEA62"/><stop offset="1" stop-color="#7EEF5A"/></linearGradient><linearGradient id="t" x1="56.11" y1="6.32" x2="44.759" y2="36.725" gradientUnits="userSpaceOnUse"><stop offset=".124" stop-color="#1CA563"/><stop offset=".327" stop-color="#29C163" stop-opacity=".747"/><stop offset=".541" stop-color="#33D862" stop-opacity=".48"/><stop offset=".745" stop-color="#39E562" stop-opacity=".226"/><stop offset=".926" stop-color="#3BEA62" stop-opacity="0"/></linearGradient><linearGradient id="u" x1="12.156" y1="12.156" x2="53.516" y2="53.516" gradientUnits="userSpaceOnUse"><stop offset="0" stop-color="#006396"/><stop offset=".034" stop-color="#005682"/><stop offset=".121" stop-color="#003754"/><stop offset=".204" stop-color="#001F2F"/><stop offset=".282" stop-color="#000E15"/><stop offset=".351" stop-color="#000406"/><stop offset=".406"/><stop offset=".914"/></linearGradient><linearGradient id="v" x1="27.721" y1="21.791" x2="37.65" y2="10.495" gradientUnits="userSpaceOnUse"><stop offset="0" stop-color="#083268"/><stop offset=".023" stop-color="#0D336C"/><stop offset=".373" stop-color="#553DA7"/><stop offset=".663" stop-color="#8A44D2"/><stop offset=".881" stop-color="#AB48ED"/><stop offset="1" stop-color="#B74AF7"/></linearGradient><linearGradient id="w" x1="15.717" y1="15.14" x2="20.127" y2="18.606" gradientUnits="userSpaceOnUse"><stop offset="0" stop-color="#087CFA"/><stop offset=".023" stop-color="#0D7BFA"/><stop offset=".373" stop-color="#5566F9"/><stop offset=".663" stop-color="#8A57F8"/><stop offset=".881" stop-color="#AB4EF7"/><stop offset="1" stop-color="#B74AF7"/></linearGradient><linearGradient id="x" x1="45.583" y1="49.553" x2="44.416" y2="50.541" gradientUnits="userSpaceOnUse"><stop offset="0" stop-color="#087CFA"/><stop offset=".023" stop-color="#0D7BFA"/><stop offset=".373" stop-color="#5566F9"/><stop offset=".663" stop-color="#8A57F8"/><stop offset=".881" stop-color="#AB4EF7"/><stop offset="1" stop-color="#B74AF7"/></linearGradient><linearGradient id="y" x1="52.386" y1="33.647" x2="39.211" y2="44.796" gradientUnits="userSpaceOnUse"><stop offset="0" stop-color="#087CFA"/><stop offset=".023" stop-color="#0D7BFA"/><stop offset=".373" stop-color="#5566F9"/><stop offset=".663" stop-color="#8A57F8"/><stop offset=".881" stop-color="#AB4EF7"/><stop offset="1" stop-color="#B74AF7"/></linearGradient><linearGradient id="z" x1="51.801" y1="43.175" x2="40.831" y2="44.834" gradientUnits="userSpaceOnUse"><stop offset=".003" stop-color="#103964"/><stop offset=".813" stop-color="#B74AF7"/></linearGradient><linearGradient id="A" x1="45.713" y1="47.113" x2="40.372" y2="51.892" gradientUnits="userSpaceOnUse"><stop offset="0" stop-color="#3A3531"/><stop offset=".813" stop-color="#B74AF7"/></linearGradient><linearGradient id="B" x1="29.674" y1="48.51" x2="36.099" y2="14.684" gradientUnits="userSpaceOnUse"><stop offset="0" stop-color="#235B5E"/><stop offset=".129" stop-color="#24635E"/><stop offset=".326" stop-color="#28785F"/><stop offset=".567" stop-color="#2E9B60"/><stop offset=".84" stop-color="#36CB61"/><stop offset="1" stop-color="#3BEA62"/></linearGradient></defs></svg>