<svg xmlns="http://www.w3.org/2000/svg" width="43" height="42" fill="none" viewBox="0 0 43 42"><path fill="url(#paint0_linear_9416_115)" d="M10.8961 32.602L0.836426 24.6257L5.83651 15.3398L20.182 20.9352L10.8961 32.602Z"/><path fill="url(#paint1_linear_9416_115)" d="M42.0271 11.2327L41.2533 35.3402L25.2412 41.7689L15.5981 35.5783L29.7055 20.9352L23.5149 7.42312L29.0507 0.756348L42.0271 11.2327Z"/><path fill="url(#paint2_linear_9416_115)" d="M42.0264 11.2327L29.3476 26.2329L23.5142 7.42312L29.05 0.756348L42.0264 11.2327Z"/><path fill="url(#paint3_linear_9416_115)" d="M20.4192 34.6862L3.69276 40.7577L6.37138 31.3528L9.88334 19.805L0.359375 16.5907L6.37138 0.102295L19.4668 1.70946L32.3242 16.4121L20.4192 34.6862Z"/><path fill="#000" d="M34.2293 8.1377H8.51465V33.8524H34.2293V8.1377Z"/><path fill="#F9F9F9" d="M20.538 29.0312H10.895V30.6384H20.538V29.0312Z"/><path fill="#F9F9F9" d="M17.8606 13.4355V11.4712H12.5034V13.4355H14.0511V20.1618H12.5034V22.1261H17.8606V20.1618H16.3725V13.4355H17.8606Z"/><path fill="#F9F9F9" d="M22.9788 22.3047C22.1455 22.3047 21.4312 22.1261 20.8954 21.8285C20.3597 21.5309 19.8835 21.1142 19.5264 20.6975L21.0145 19.0308C21.3121 19.388 21.6097 19.6261 21.9074 19.8047C22.205 19.9832 22.5621 20.1023 22.9193 20.1023C23.336 20.1023 23.6931 19.9832 23.9907 19.6856C24.2288 19.388 24.3479 18.9713 24.3479 18.3165V11.4712H26.7289V18.4356C26.7289 19.0904 26.6693 19.6261 26.4908 20.1023C26.3122 20.5785 26.0741 20.9356 25.7169 21.2928C25.4193 21.5904 25.0026 21.888 24.5264 22.0071C24.0502 22.1856 23.574 22.3047 22.9788 22.3047Z"/><defs><linearGradient id="paint0_linear_9416_115" x1=".83" x2="20.192" y1="23.965" y2="23.965" gradientUnits="userSpaceOnUse"><stop offset=".258" stop-color="#F97A12"/><stop offset=".459" stop-color="#B07B58"/><stop offset=".724" stop-color="#577BAE"/><stop offset=".91" stop-color="#1E7CE5"/><stop offset="1" stop-color="#087CFA"/></linearGradient><linearGradient id="paint1_linear_9416_115" x1="15.698" x2="47.637" y1="14.911" y2="32.584" gradientUnits="userSpaceOnUse"><stop stop-color="#F97A12"/><stop offset=".072" stop-color="#CB7A3E"/><stop offset=".154" stop-color="#9E7B6A"/><stop offset=".242" stop-color="#757B91"/><stop offset=".334" stop-color="#537BB1"/><stop offset=".432" stop-color="#387CCC"/><stop offset=".538" stop-color="#237CE0"/><stop offset=".655" stop-color="#147CEF"/><stop offset=".792" stop-color="#0B7CF7"/><stop offset="1" stop-color="#087CFA"/></linearGradient><linearGradient id="paint2_linear_9416_115" x1="37.995" x2="29.104" y1="25.647" y2="-.922" gradientUnits="userSpaceOnUse"><stop stop-color="#FE315D"/><stop offset=".078" stop-color="#CB417E"/><stop offset=".16" stop-color="#9E4E9B"/><stop offset=".247" stop-color="#755BB4"/><stop offset=".339" stop-color="#5365CA"/><stop offset=".436" stop-color="#386DDB"/><stop offset=".541" stop-color="#2374E9"/><stop offset=".658" stop-color="#1478F3"/><stop offset=".794" stop-color="#0B7BF8"/><stop offset="1" stop-color="#087CFA"/></linearGradient><linearGradient id="paint3_linear_9416_115" x1="6.741" x2="33.41" y1="9.908" y2="54.02" gradientUnits="userSpaceOnUse"><stop stop-color="#FE315D"/><stop offset=".04" stop-color="#F63462"/><stop offset=".104" stop-color="#DF3A71"/><stop offset=".167" stop-color="#C24383"/><stop offset=".291" stop-color="#AD4A91"/><stop offset=".55" stop-color="#755BB4"/><stop offset=".917" stop-color="#1D76ED"/><stop offset="1" stop-color="#087CFA"/></linearGradient></defs></svg>