<svg width="26" height="25" fill="none" xmlns="http://www.w3.org/2000/svg"><g clip-path="url(#a)"><path d="M23.12 5.559c-.137-.429-.463-.777-.872-.991L13.945.658a1.545 1.545 0 0 0-.68-.135c-.218 0-.463 0-.681.054L4.281 4.514a1.445 1.445 0 0 0-.817.991l-2.041 8.813c-.082.455.027.91.299 1.285l5.744 6.991c.327.322.79.536 1.252.563h9.147c.49.053.953-.161 1.253-.563l5.744-6.99c.272-.376.38-.831.326-1.286l-2.069-8.76Z" fill="#326DE6"/><path d="M21.84 13.97c-.027 0-.055 0-.055-.027s-.054-.027-.108-.027c-.11-.027-.218-.027-.327-.027-.055 0-.11 0-.164-.027h-.027c-.3-.026-.626-.08-.925-.16a.326.326 0 0 1-.19-.188c.026 0 0 0 0 0l-.219-.053c.11-.777.055-1.58-.109-2.357a7.192 7.192 0 0 0-.952-2.197l.163-.16V8.72c0-.08.027-.188.082-.241a4.88 4.88 0 0 1 .762-.536l.163-.08c.11-.054.19-.108.3-.161.027-.027.054-.027.081-.054.028-.027 0-.027 0-.053.245-.188.3-.51.11-.75a.523.523 0 0 0-.382-.188.657.657 0 0 0-.381.134l-.027.027c-.027.027-.055.053-.082.053-.082.08-.163.161-.218.242-.027.053-.081.08-.109.107-.19.214-.435.428-.68.589-.055.027-.109.054-.163.054-.028 0-.082 0-.11-.027h-.027l-.217.134c-.218-.215-.463-.429-.681-.643-1.007-.777-2.26-1.26-3.539-1.393l-.027-.214v.027c-.082-.054-.11-.134-.136-.215 0-.294 0-.59.054-.91v-.027c0-.054.027-.107.027-.161.028-.107.028-.214.055-.321v-.161a.532.532 0 0 0-.463-.563c-.163-.026-.327.054-.463.188a.525.525 0 0 0-.163.375v.134c0 .107.027.214.054.321.027.054.027.107.027.16v.028c.055.294.055.589.055.91-.027.08-.055.161-.136.215v.053l-.027.215c-.3.026-.6.08-.926.133a6.516 6.516 0 0 0-3.348 1.875l-.164-.107h-.027c-.027 0-.054.027-.109.027-.054 0-.109-.027-.163-.053a4.99 4.99 0 0 1-.68-.617c-.028-.053-.082-.08-.11-.107-.081-.08-.136-.16-.217-.24-.028-.028-.055-.028-.082-.054l-.027-.027a.657.657 0 0 0-.381-.134c-.164 0-.3.054-.382.187a.57.57 0 0 0 .11.75c.026 0 .026.027.026.027s.055.054.082.054c.082.053.19.107.3.16l.163.08c.272.162.544.322.762.537.055.053.11.16.082.24v-.026l.163.16c-.027.054-.054.08-.081.134-.844 1.313-1.198 2.867-.953 4.393l-.218.054c0 .027-.027.027-.027.027-.027.08-.11.133-.19.187-.3.08-.6.134-.926.16-.055 0-.11 0-.164.028-.109 0-.218.026-.326.026-.028 0-.055.027-.11.027-.027 0-.027 0-.054.027a.524.524 0 0 0-.435.616c.054.241.3.402.544.375.055 0 .082 0 .136-.027.027 0 .027 0 .027-.027 0-.026.082 0 .11 0 .108-.026.217-.08.299-.107a.391.391 0 0 1 .163-.053h.027c.3-.107.572-.188.899-.241h.027c.082 0 .163.026.218.08.027 0 .027.027.027.027l.245-.027a6.467 6.467 0 0 0 2.232 3.134c.245.187.463.348.735.482l-.136.188c0 .026.027.026.027.026.055.08.055.188.028.268a4.374 4.374 0 0 1-.436.777v.027a.473.473 0 0 1-.109.134c-.054.053-.109.16-.19.267-.028.027-.028.054-.055.08 0 0 0 .028-.027.028a.547.547 0 0 0 .218.723.51.51 0 0 0 .19.053.611.611 0 0 0 .518-.321s0-.027.027-.027c0-.027.027-.053.054-.08.027-.107.082-.188.11-.295l.053-.16c.082-.295.218-.563.354-.83a.424.424 0 0 1 .218-.162c.027 0 .027 0 .027-.026l.11-.215a6.5 6.5 0 0 0 2.368.429c.49 0 .98-.054 1.47-.188.3-.053.599-.16.871-.24l.109.187c.027 0 .027 0 .027.027.082.026.163.08.218.16.136.268.272.536.354.83v.027l.054.161a.95.95 0 0 0 .11.295c.026.027.026.053.054.08 0 0 0 .027.027.027.109.187.3.321.517.321.082 0 .136-.026.218-.053a.45.45 0 0 0 .245-.295.68.68 0 0 0-.027-.402c0-.026-.028-.026-.028-.026 0-.027-.027-.054-.054-.08a.962.962 0 0 0-.19-.269.472.472 0 0 0-.11-.134v-.053a3.149 3.149 0 0 1-.435-.777.313.313 0 0 1 .027-.268c0-.026.027-.026.027-.026l-.081-.215c1.388-.83 2.45-2.116 2.94-3.643l.218.027c.027 0 .027-.027.027-.027a.312.312 0 0 1 .218-.08h.027c.3.054.599.134.87.241h.028a.391.391 0 0 0 .163.054c.11.053.191.107.3.134.027 0 .054.026.109.026.027 0 .027 0 .054.027.055.027.082.027.136.027.245 0 .463-.16.545-.375a.635.635 0 0 0-.49-.563Zm-7.868-.83-.735.347-.735-.348-.19-.777.517-.642h.817l.517.642-.19.777Zm4.438-1.742c.136.563.163 1.125.109 1.688l-2.587-.724a.438.438 0 0 1-.326-.535.432.432 0 0 1 .109-.188l2.041-1.821c.3.482.518 1.018.654 1.58Zm-1.47-2.571-2.233 1.553c-.19.107-.462.08-.599-.107a.241.241 0 0 1-.081-.187l-.163-2.706a5.157 5.157 0 0 1 3.076 1.447ZM12.012 7.46l.545-.107-.136 2.678c0 .241-.218.429-.463.429-.082 0-.136-.027-.218-.054l-2.26-1.58a5.432 5.432 0 0 1 2.532-1.366ZM8.691 9.818l2.015 1.768c.19.16.217.428.054.616-.054.08-.109.107-.218.134l-2.64.75a5.566 5.566 0 0 1 .789-3.268Zm-.463 4.527 2.695-.456c.218 0 .436.134.463.348a.312.312 0 0 1-.027.268l-1.035 2.464a5.283 5.283 0 0 1-2.096-2.625Zm6.18 3.32c-.381.081-.762.135-1.17.135-.572 0-1.171-.107-1.716-.268l1.334-2.384a.427.427 0 0 1 .545-.107c.081.053.136.107.217.187l1.307 2.33a4.484 4.484 0 0 0-.517.108Zm3.321-2.33a5.159 5.159 0 0 1-1.633 1.608l-1.062-2.518a.434.434 0 0 1 .245-.51c.082-.026.163-.053.245-.053l2.722.456a4 4 0 0 1-.517 1.018Z" fill="#fff"/></g><defs><clipPath id="a"><path fill="#fff" transform="translate(.915 .108)" d="M0 0h25v24H0z"/></clipPath></defs></svg>