<svg width="64" height="64" fill="none" xmlns="http://www.w3.org/2000/svg"><path d="m36.8 11.3-3.6-6.5-9.9 4.8-13.1 1.1L12 33.2l18.6-3.1 6.2-18.8Z" fill="url(#a)"/><path d="M17.7 17 0 12.4 6.1 49 37 50.9 17.7 17Z" fill="url(#b)"/><path d="M26.2 31.8 6.1 49 37 50.9 26.2 31.8Z" fill="url(#c)"/><path d="m37 50.6-2.7-31 8.3-7.4 13.1-5.4L64 27.5 37 50.6Z" fill="url(#d)"/><path d="m37 50.6-2.7-31 12.5 4.3L64 27.5 37 50.6Z" fill="url(#e)"/><path d="m52 27.2-4.2-8.5-32.6 6.6 3.3 31.2L40.1 64 64 49.7 52 27.2Z" fill="url(#f)"/><path d="m52 27.2-4.1-8.3-12.8 9.8 5 35.3L64 49.7 52 27.2Z" fill="url(#g)"/><path d="m35.1 28.7.1.5 2.9 20.5 17.8-15.2-3.9-7.3-4.1-8.3-12.8 9.8Z" fill="url(#h)"/><path d="M19.6 24.4 37 50.9l14.4-12.5-10-18.4-21.8 4.4Z" fill="url(#i)"/><path d="m35.1 28.7-19.9-3.4 3.3 31.2L40.1 64l-5-35.3Z" fill="url(#j)"/><path d="m38.1 49.9-3-21.2-19.9-3.4 1.2 11L37 50.9l1.1-1Z" fill="url(#k)"/><path d="m38.1 49.9-2.4-17.1-6.2 4.6 7.4 13.4.1.1 1.1-1Z" fill="url(#l)"/><path d="m23.4 26.7-8.2-1.4 2.6 24.4L37 50.9 23.4 26.7Z" fill="url(#m)"/><path d="m27.6 50.3 9.4.6L29.2 37l-1.6 13.3Z" fill="url(#n)"/><path d="m35.1 28.7-19.9-3.4L39.5 3.8l16.2 3-10.9 11 3.2 1-12.9 9.9Z" fill="url(#o)"/><path d="m36.8 11.3-1.9-3.4-19.7 17.4 19.9 3.4 8-6.1-6.3-11.3Z" fill="url(#p)"/><path d="M33.2 4.8 10.9 0 0 12.4l17.7 4.7L33.2 4.8Z" fill="url(#q)"/><path d="M19.6 15.5 10.9 0 0 12.4l17.7 4.7 1.9-1.6Z" fill="url(#r)"/><path d="m27.5 50.3-9 6.2L40.1 64l-2-14.1-1 .9-9.6-.5Z" fill="url(#s)"/><path d="M64 49.7 51.4 38.3l-6.6-20.5 3.2 1 16 30.9Z" fill="url(#t)"/><path d="m45.7 20.6 2.3-1.8-3.2-1 .9 2.8Z" fill="url(#u)"/><path d="m44.7 26-9 6.8 2.4 17.1 13.3-11.5L44.7 26Z" fill="url(#v)"/><path d="M52 12H12v40h40V12Z" fill="url(#w)"/><g opacity=".3"><path opacity=".3" d="m12 49.3 25 1.6L17.7 17 12 15.5v33.8Z" fill="url(#x)"/><path opacity=".3" d="M37.8 52H39l-.8-36.9-1.1-3.1h-13l-6.4 5.1L37.8 52Z" fill="url(#y)"/><path opacity=".3" d="M52 37.8V12h-1.5l-5.7 5.8 3.2 1-.1.1 4.1 8.3v10.6Z" fill="url(#z)"/><path opacity=".3" d="m52 27.2-4.1-8.3-12.8 9.8L38.4 52H52V27.2Z" fill="url(#A)"/><path opacity=".3" d="m30.2 12-15 13.3 19.9 3.4L48 18.8l-3.2-1 5.7-5.8H30.2Z" fill="url(#B)"/><path opacity=".3" d="m17.7 17.1 6.4-5.1H12v3.5l5.7 1.6Z" fill="url(#C)"/></g><path d="M32 44.45H17v2.5h15v-2.5ZM30.1 29.7l2-2.3c1.4 1.1 2.8 1.8 4.5 1.8 1.4 0 2.2-.5 2.2-1.4 0-.8-.5-1.3-3-1.9-3-.8-5-1.6-5-4.6 0-2.7 2.2-4.5 5.3-4.5 2.2 0 4.1.7 5.6 1.9L40 21.2c-1.3-.9-2.6-1.5-3.9-1.5-1.5-.1-2.1.5-2.1 1.2 0 1 .6 1.3 3.2 2 3.1.8 4.8 1.9 4.8 4.5 0 3-2.3 4.7-5.5 4.7-2.3.1-4.6-.7-6.4-2.4ZM17 16.9h6.1c3.6 0 5.7 2.1 5.7 5.2 0 3.5-2.7 5.3-6.1 5.3h-2.4v4.5H17v-15Zm5.9 7.6c1.6 0 2.6-1 2.6-2.3 0-1.5-1-2.3-2.7-2.3h-2.5v4.6h2.6Z" fill="#fff"/><defs><linearGradient id="a" x1="11.8" y1="36.903" x2="29.872" y2="2.197" gradientUnits="userSpaceOnUse"><stop offset="0" stop-color="#AF1DF5"/><stop offset=".212" stop-color="#BC20E4"/><stop offset=".628" stop-color="#DD29B8"/><stop offset="1" stop-color="#FF318C"/></linearGradient><linearGradient id="b" x1="6.526" y1="47.453" x2="28.431" y2="18.519" gradientUnits="userSpaceOnUse"><stop offset=".121" stop-color="#6B57FF"/><stop offset=".401" stop-color="#B74AF7"/><stop offset=".709" stop-color="#FF318C"/><stop offset=".865" stop-color="#FF7FB8"/></linearGradient><linearGradient id="c" x1="9.716" y1="56.527" x2="26.525" y2="44.89" gradientUnits="userSpaceOnUse"><stop offset=".089" stop-color="#6B57FF"/><stop offset=".402" stop-color="#8253FD"/><stop offset=".458" stop-color="#8A52FC"/><stop offset=".705" stop-color="#AB4CF8"/><stop offset=".841" stop-color="#B74AF7"/></linearGradient><linearGradient id="d" x1="53.642" y1="45.987" x2="39.603" y2="12.668" gradientUnits="userSpaceOnUse"><stop offset="0" stop-color="#4335BE"/><stop offset=".131" stop-color="#5638C7"/><stop offset=".532" stop-color="#8A42E1"/><stop offset=".834" stop-color="#AB48F1"/><stop offset="1" stop-color="#B74AF7"/></linearGradient><linearGradient id="e" x1="53.381" y1="45.834" x2="40.894" y2="16.197" gradientUnits="userSpaceOnUse"><stop offset="0" stop-color="#4335BE"/><stop offset=".242" stop-color="#663BCF"/><stop offset=".741" stop-color="#B74AF7"/></linearGradient><linearGradient id="f" x1="46.227" y1="56.71" x2="26.047" y2="27.132" gradientUnits="userSpaceOnUse"><stop offset=".016" stop-color="#6B57FF"/><stop offset=".783" stop-color="#B74AF7"/></linearGradient><linearGradient id="g" x1="52.481" y1="53.855" x2="37.876" y2="32.447" gradientUnits="userSpaceOnUse"><stop offset=".016" stop-color="#6B57FF"/><stop offset=".783" stop-color="#B74AF7"/></linearGradient><linearGradient id="h" x1="73.932" y1="48.775" x2="28.332" y2="27.432" gradientUnits="userSpaceOnUse"><stop offset="0" stop-color="#4335BE"/><stop offset=".242" stop-color="#663BCF"/><stop offset=".741" stop-color="#B74AF7"/></linearGradient><linearGradient id="i" x1="48.509" y1="56.187" x2="28.709" y2="18.387" gradientUnits="userSpaceOnUse"><stop offset=".016" stop-color="#6B57FF"/><stop offset=".783" stop-color="#B74AF7"/></linearGradient><linearGradient id="j" x1="38.701" y1="60.022" x2="19.22" y2="31.468" gradientUnits="userSpaceOnUse"><stop offset=".016" stop-color="#6B57FF"/><stop offset=".691" stop-color="#B74AF7"/></linearGradient><linearGradient id="k" x1="22.61" y1="45.346" x2="32.27" y2="26.797" gradientUnits="userSpaceOnUse"><stop offset=".016" stop-color="#6B57FF"/><stop offset=".697" stop-color="#A329F5"/></linearGradient><linearGradient id="l" x1="27.682" y1="25.445" x2="38.16" y2="46.017" gradientUnits="userSpaceOnUse"><stop offset=".016" stop-color="#6B57FF"/><stop offset=".697" stop-color="#A329F5"/></linearGradient><linearGradient id="m" x1="15.251" y1="57.392" x2="32.093" y2="27.422" gradientUnits="userSpaceOnUse"><stop offset=".024" stop-color="#6B57FF"/><stop offset=".263" stop-color="#6B57FF"/><stop offset=".706" stop-color="#B74AF7"/><stop offset=".766" stop-color="#BC48F0"/><stop offset=".856" stop-color="#CA44DB"/><stop offset=".963" stop-color="#E03CBA"/><stop offset="1" stop-color="#E939AD"/></linearGradient><linearGradient id="n" x1="26.966" y1="54.868" x2="35.151" y2="40.303" gradientUnits="userSpaceOnUse"><stop offset=".046" stop-color="#6B57FF"/><stop offset=".295" stop-color="#8A52FC"/><stop offset=".599" stop-color="#AB4CF8"/><stop offset=".767" stop-color="#B74AF7"/></linearGradient><linearGradient id="o" x1="40.111" y1="40.834" x2="33.425" y2="5.477" gradientUnits="userSpaceOnUse"><stop offset=".016" stop-color="#6B57FF"/><stop offset=".567" stop-color="#B74AF7"/><stop offset=".906" stop-color="#C276FF"/></linearGradient><linearGradient id="p" x1="24.543" y1="32.787" x2="37.21" y2="8.46" gradientUnits="userSpaceOnUse"><stop offset=".016" stop-color="#6B57FF"/><stop offset=".597" stop-color="#B74AF7"/></linearGradient><linearGradient id="q" x1="7.282" y1="25.483" x2="19.286" y2="3.697" gradientUnits="userSpaceOnUse"><stop offset=".087" stop-color="#AF1DF5"/><stop offset=".233" stop-color="#BC20E4"/><stop offset=".519" stop-color="#DD29B8"/><stop offset=".775" stop-color="#FF318C"/><stop offset=".997" stop-color="#FF64B9"/></linearGradient><linearGradient id="r" x1="5.428" y1="21.825" x2="12.831" y2="8.392" gradientUnits="userSpaceOnUse"><stop offset=".009" stop-color="#BC20E4"/><stop offset=".444" stop-color="#D827C0"/><stop offset="1" stop-color="#FF318C"/></linearGradient><linearGradient id="s" x1="22.329" y1="60.809" x2="39.876" y2="55.21" gradientUnits="userSpaceOnUse"><stop offset=".016" stop-color="#6B57FF"/><stop offset=".691" stop-color="#B74AF7"/><stop offset=".977" stop-color="#BD6CF7"/></linearGradient><linearGradient id="t" x1="57.244" y1="32.701" x2="50.43" y2="35.208" gradientUnits="userSpaceOnUse"><stop offset=".075" stop-color="#6B57FF"/><stop offset=".74" stop-color="#B74AF7"/></linearGradient><linearGradient id="u" x1="45.633" y1="23.572" x2="46.469" y2="17.593" gradientUnits="userSpaceOnUse"><stop offset="0" stop-color="#B74AF7"/><stop offset="1" stop-color="#C276FF"/></linearGradient><linearGradient id="v" x1="48.386" y1="51.054" x2="37.022" y2="29.357" gradientUnits="userSpaceOnUse"><stop offset=".016" stop-color="#6B57FF"/><stop offset=".783" stop-color="#B74AF7"/></linearGradient><linearGradient id="w" x1="13.058" y1="11.158" x2="47.373" y2="48.916" gradientUnits="userSpaceOnUse"><stop offset="0" stop-color="#562274"/><stop offset=".594" stop-color="#020202"/></linearGradient><linearGradient id="x" x1="25.034" y1="56.225" x2="21.388" y2="12.579" gradientUnits="userSpaceOnUse"><stop offset=".139" stop-color="#2C083E"/><stop offset=".171" stop-color="#0E0A25"/><stop offset=".514" stop-color="#8D1BC7"/><stop offset=".865" stop-color="#FF45ED"/></linearGradient><linearGradient id="y" x1="35.258" y1="48.04" x2="27.288" y2="13.32" gradientUnits="userSpaceOnUse"><stop offset=".086" stop-color="#3B0B6E"/><stop offset=".281" stop-color="#601274"/><stop offset=".713" stop-color="#BE2482"/><stop offset="1" stop-color="#FF318C"/></linearGradient><linearGradient id="z" x1="47.575" y1="12.495" x2="51.261" y2="23.554" gradientUnits="userSpaceOnUse"><stop offset=".189" stop-color="#4335BE"/><stop offset=".517" stop-color="#2B227A"/><stop offset=".844" stop-color="#15113C"/><stop offset="1" stop-color="#0C0A23"/></linearGradient><linearGradient id="A" x1="52.201" y1="48.686" x2="39.651" y2="30.291" gradientUnits="userSpaceOnUse"><stop offset="0" stop-color="#15132A"/><stop offset=".405" stop-color="#331444"/><stop offset=".965" stop-color="#9F40D7"/></linearGradient><linearGradient id="B" x1="36.513" y1="38.031" x2="31.614" y2="12.122" gradientUnits="userSpaceOnUse"><stop offset=".016" stop-color="#6B57FF"/><stop offset=".567" stop-color="#B74AF7"/><stop offset=".906" stop-color="#C276FF"/></linearGradient><linearGradient id="C" x1="13.615" y1="20.033" x2="18.354" y2="11.433" gradientUnits="userSpaceOnUse"><stop offset=".087" stop-color="#FF45ED"/><stop offset=".213" stop-color="#FF42DC"/><stop offset=".459" stop-color="#FF38B0"/><stop offset=".641" stop-color="#FF318C"/></linearGradient></defs></svg>