<svg width="16" height="16" fill="none" xmlns="http://www.w3.org/2000/svg"><path d="m7.2 8.867-1.467.866-.066 1.534-2.134.933-2.666.2.533-9.6L6.933.533l5.934 5.4L7.2 8.867Z" fill="url(#a)"/><path d="M10.667 3.067 15.4 6.2l-1.6 3.533L11.2 9H8.867l1.8-5.933Z" fill="url(#b)"/><path d="M8.133 11.6 4.2 2.4 6.933.533 15.4 6.2l-7.267 5.4Z" fill="url(#c)"/><path d="M1.4 2.8 6.933.533 4.2 2.4l-2.8.4Z" fill="url(#d)"/><path d="M1.4 2.8 6.933.533 4.2 2.4.533 12.533 1.4 2.8Z" fill="url(#e)"/><path d="m6.133 5.467 2.4 7.866-2.866 2.134-5.134-2.934 1.334-3.8L6 4.467l.133 1Z" fill="#21D789"/><path d="m5.067 11.6-4.534.933 5.134 2.934 2.866-2.134L5.067 11.6Z" fill="url(#f)"/><path d="m5.067 11.6-4.534.933 1.334-3.8L6 4.467 5.067 11.6Z" fill="url(#g)"/><path d="m6.333 11.267 2.2 2.066-2.866 2.134.666-4.2Z" fill="url(#h)"/><path d="m15.467 13.933-4.534 1.534L4.8 13.733 6 4.467 11.667.533l.533 4.134L10.667 8 13.6 6.867l.6 2.266 1.267 4.8Z" fill="url(#i)"/><path d="m15.467 13.933-4.534 1.534 2.667-8.6 1.867 7.066Z" fill="url(#j)"/><path d="M11.667.533 9.533 5.267 7.8 9l2.867-1 1.6-3.4-.6-4.067Z" fill="url(#k)"/><path d="M1.4 2.8 6.933.533 4.2 2.4l-2.8.4Z" fill="url(#l)"/><path d="m15.467 13.933-4.534 1.534L4.8 13.733l3.733-.333 6.934.533Z" fill="url(#m)"/><path d="m11.533 13.6-.6 1.867 4.534-1.534-3.934-.333Z" fill="url(#n)"/><path d="M12.667 3.333H3.333v9.334h9.334V3.333Z" fill="url(#o)"/><path d="M8 6.667C8 5.533 8.867 4.6 10.067 4.6c.733 0 1.2.267 1.6.6l-.534.667C10.8 5.6 10.467 5.4 10.067 5.4c-.667 0-1.134.533-1.134 1.267 0 .666.467 1.266 1.134 1.266.466 0 .733-.2 1.066-.466l.534.533c-.4.467-.867.733-1.6.733C8.867 8.733 8 7.8 8 6.667ZM4.667 4.667h1.6c.933 0 1.466.533 1.466 1.4 0 .933-.733 1.4-1.6 1.4h-.666v1.2h-.8v-4Zm1.533 2c.4 0 .667-.267.667-.6 0-.4-.267-.6-.667-.6h-.667v1.2H6.2ZM8.667 10.667h-4v.666h4v-.666Z" fill="#fff"/><defs><linearGradient id="a" x1="-4.44" y1="12.934" x2="13.687" y2="-.448" gradientUnits="userSpaceOnUse"><stop offset=".011" stop-color="#FCF84A"/><stop offset=".112" stop-color="#A7EB62"/><stop offset=".206" stop-color="#5FE077"/><stop offset=".273" stop-color="#32DA84"/><stop offset=".306" stop-color="#21D789"/><stop offset=".577" stop-color="#21D789"/><stop offset=".597" stop-color="#21D789"/><stop offset=".686" stop-color="#20D68C"/><stop offset=".763" stop-color="#1ED497"/><stop offset=".835" stop-color="#19D1A9"/><stop offset=".904" stop-color="#13CCC2"/><stop offset=".971" stop-color="#0BC6E1"/><stop offset="1" stop-color="#07C3F2"/></linearGradient><linearGradient id="b" x1="11.108" y1="4.325" x2="13.296" y2="11.242" gradientUnits="userSpaceOnUse"><stop stop-color="#009AE5"/><stop offset="1" stop-color="#07C3F2"/></linearGradient><linearGradient id="c" x1="2.391" y1="3.719" x2="13.808" y2="8.887" gradientUnits="userSpaceOnUse"><stop offset=".034" stop-color="#10E899"/><stop offset=".174" stop-color="#13E596"/><stop offset=".295" stop-color="#1EDA8C"/><stop offset=".319" stop-color="#21D789"/><stop offset=".398" stop-color="#20D68C"/><stop offset=".465" stop-color="#1ED497"/><stop offset=".529" stop-color="#19D1A9"/><stop offset=".59" stop-color="#13CCC2"/><stop offset=".649" stop-color="#0BC6E1"/><stop offset=".675" stop-color="#07C3F2"/><stop offset=".921" stop-color="#07EBFF"/></linearGradient><linearGradient id="d" x1="4.811" y1="2.611" x2="3.81" y2="1.117" gradientUnits="userSpaceOnUse"><stop stop-color="#07C3F2"/><stop offset=".195" stop-color="#0BC6E2"/><stop offset=".575" stop-color="#15CEB8"/><stop offset=".946" stop-color="#21D789"/></linearGradient><linearGradient id="e" x1="-1.153" y1="4.071" x2="4.685" y2="6.99" gradientUnits="userSpaceOnUse"><stop offset=".03" stop-color="#C1EF5B"/><stop offset=".249" stop-color="#9DEA65"/><stop offset=".732" stop-color="#41DC80"/><stop offset=".896" stop-color="#21D789"/></linearGradient><linearGradient id="f" x1="6.255" y1="8.706" x2="2.897" y2="16.886" gradientUnits="userSpaceOnUse"><stop offset=".103" stop-color="#087CFA"/><stop offset=".227" stop-color="#0C89EA" stop-opacity=".806"/><stop offset=".472" stop-color="#15ABC0" stop-opacity=".427"/><stop offset=".747" stop-color="#21D789" stop-opacity="0"/></linearGradient><linearGradient id="g" x1="3.139" y1="4.105" x2="3.333" y2="12.503" gradientUnits="userSpaceOnUse"><stop offset=".011" stop-color="#FCF84A"/><stop offset=".092" stop-color="#ECF64F"/><stop offset=".253" stop-color="#C1EF5B"/><stop offset=".475" stop-color="#7DE56F"/><stop offset=".747" stop-color="#21D789"/></linearGradient><linearGradient id="h" x1="5.644" y1="13.387" x2="8.529" y2="13.387" gradientUnits="userSpaceOnUse"><stop stop-color="#13A5C7"/><stop offset="1" stop-color="#21D789"/></linearGradient><linearGradient id="i" x1="18.579" y1="14.528" x2="3.189" y2="3.508" gradientUnits="userSpaceOnUse"><stop offset=".473" stop-color="#FCF84A"/><stop offset=".532" stop-color="#ECF74C"/><stop offset=".647" stop-color="#C1F451"/><stop offset=".806" stop-color="#7EEF5A"/><stop offset=".949" stop-color="#3BEA62"/></linearGradient><linearGradient id="j" x1="18.167" y1="10.155" x2="5.884" y2="12.239" gradientUnits="userSpaceOnUse"><stop offset=".276" stop-color="#FCF84A"/><stop offset=".365" stop-color="#ECF74C"/><stop offset=".54" stop-color="#C1F451"/><stop offset=".782" stop-color="#7EEF5A"/><stop offset="1" stop-color="#3BEA62"/></linearGradient><linearGradient id="k" x1="13.373" y1="9.804" x2="8.731" y2="3.359" gradientUnits="userSpaceOnUse"><stop offset=".122" stop-color="#FCF84A"/><stop offset=".202" stop-color="#F3F74B"/><stop offset=".335" stop-color="#DAF350"/><stop offset=".504" stop-color="#B1ED56"/><stop offset=".703" stop-color="#78E55F"/><stop offset=".924" stop-color="#30DB6B"/><stop offset="1" stop-color="#16D76F"/></linearGradient><linearGradient id="l" x1="1.803" y1="1.414" x2="5.983" y2="1.834" gradientUnits="userSpaceOnUse"><stop stop-color="#FCF84A"/><stop offset=".164" stop-color="#D8F957"/><stop offset=".529" stop-color="#7BFC79"/><stop offset=".986" stop-color="#00FFA6"/></linearGradient><linearGradient id="m" x1="15.246" y1="13.364" x2="3.634" y2="15.335" gradientUnits="userSpaceOnUse"><stop offset=".09" stop-color="#3BEA62"/><stop offset=".168" stop-color="#67ED5C"/><stop offset=".25" stop-color="#8FF058"/><stop offset=".338" stop-color="#B1F353"/><stop offset=".432" stop-color="#CCF550"/><stop offset=".533" stop-color="#E1F64D"/><stop offset=".645" stop-color="#F0F74B"/><stop offset=".776" stop-color="#F9F84A"/><stop offset=".974" stop-color="#FCF84A"/></linearGradient><linearGradient id="n" x1="12.027" y1="13.083" x2="14.426" y2="16.348" gradientUnits="userSpaceOnUse"><stop stop-color="#3BEA62"/><stop offset=".088" stop-color="#67ED5C"/><stop offset=".181" stop-color="#8FF058"/><stop offset=".281" stop-color="#B1F353"/><stop offset=".387" stop-color="#CCF550"/><stop offset=".501" stop-color="#E1F64D"/><stop offset=".627" stop-color="#F0F74B"/><stop offset=".776" stop-color="#F9F84A"/><stop offset="1" stop-color="#FCF84A"/></linearGradient><linearGradient id="o" x1="3.18" y1="4.07" x2="12.753" y2="11.875" gradientUnits="userSpaceOnUse"><stop stop-color="#1D510B"/><stop offset=".536"/></linearGradient></defs></svg>