<svg xmlns="http://www.w3.org/2000/svg" width="47" height="48" fill="none" viewBox="0 0 47 48"><path fill="url(#paint0_linear_9142_1052)" d="M44.5936 19.1848L14.9067 2.70923L34.7832 32.2417L38.8679 29.5641L44.5936 19.1848Z"/><path fill="url(#paint1_linear_9142_1052)" d="M32.75 12.4666L29.0314 3.37524L20.8047 11.4741L24.1704 40.8609L32.1413 45.0559L44.5938 37.782L32.75 12.4666Z"/><path fill="url(#paint2_linear_9142_1052)" d="M14.906 2.70923L2.24609 11.2359L6.95276 40.3184L19.0921 44.9854L34.7825 32.2417L14.906 2.70923Z"/><path fill="#000" d="M10.187 10.7021H36.6537V37.1689H10.187V10.7021Z"/><path fill="#fff" d="M13.4863 32.1667H23.4113V33.8209H13.4863V32.1667Z"/><path fill="#fff" d="M13.4946 13.9753H18.0381C18.564 13.9429 19.0911 14.0155 19.5887 14.189C20.0863 14.3624 20.5443 14.6331 20.9362 14.9854C21.2238 15.2883 21.4477 15.6458 21.5947 16.0368C21.7417 16.4277 21.8088 16.8442 21.7919 17.2616V17.288C21.8248 17.9658 21.6335 18.6355 21.2476 19.1936C20.8617 19.7517 20.3027 20.1672 19.657 20.3758L22.0919 23.9312H19.529L17.3985 20.7463H15.7002V23.9312H13.4946V13.9753ZM17.9057 18.8275C18.9732 18.8275 19.5864 18.2585 19.5864 17.4204V17.3939C19.5864 16.4543 18.9335 15.9691 17.866 15.9691H15.7002V18.8275H17.9057Z"/><path fill="#fff" d="M23.6099 13.9751H27.4916C30.6191 13.9751 32.785 16.1233 32.785 18.9244V18.9552C32.785 21.7563 30.6235 23.931 27.4916 23.931H23.6099V13.9751ZM25.8154 15.9513V21.9504H27.5093C27.9071 21.9738 28.3053 21.9132 28.6781 21.7724C29.0508 21.6316 29.3897 21.4139 29.6727 21.1334C29.9557 20.8529 30.1765 20.5159 30.3205 20.1444C30.4646 19.7729 30.5288 19.3753 30.5089 18.9773V18.9508C30.5291 18.5514 30.4653 18.1521 30.3218 17.7788C30.1783 17.4055 29.9581 17.0664 29.6755 16.7834C29.3929 16.5004 29.0541 16.2797 28.681 16.1356C28.3079 15.9916 27.9088 15.9273 27.5093 15.9469L25.8154 15.9513Z"/><defs><linearGradient id="paint0_linear_9142_1052" x1="41.872" x2="9.23" y1="26.966" y2="8.236" gradientUnits="userSpaceOnUse"><stop stop-color="#DD1265"/><stop offset=".48" stop-color="#DD1265"/><stop offset=".94" stop-color="#FDB60D"/></linearGradient><linearGradient id="paint1_linear_9142_1052" x1="22.463" x2="35.401" y1="6.406" y2="42.136" gradientUnits="userSpaceOnUse"><stop offset=".14" stop-color="#087CFA"/><stop offset=".48" stop-color="#DD1265"/><stop offset=".96" stop-color="#087CFA"/></linearGradient><linearGradient id="paint2_linear_9142_1052" x1="12.771" x2="22.326" y1="7.509" y2="41.474" gradientUnits="userSpaceOnUse"><stop offset=".28" stop-color="#DD1265"/><stop offset=".97" stop-color="#FDB60D"/></linearGradient></defs></svg>