<svg width="16" height="16" fill="none" xmlns="http://www.w3.org/2000/svg"><path d="M13 .533 8.667 2.067 5.333.533 3.4 5.067l.067 6.533 10.4.067 1.6-8.267L13 .533Z" fill="url(#a)"/><path d="m3.333 10.267 11.134-6.4L13 .533 8.667 2.067 5.333.533l-2 4.4v5.334Z" fill="url(#b)"/><path d="m3.333 10.267 11.134-6.4L13 .533 8.667 2.067l-5.334 8.2Z" fill="url(#c)"/><path d="M15.467 3.4 13 .533 8.667 2.067l6.8 1.333Z" fill="url(#d)"/><path d="m14.467 3.867-.6 7.8 1.6-8.267-1 .467Z" fill="url(#e)"/><path d="m13 .533 1.467 3.334 1-.467L13 .533Z" fill="url(#f)"/><path d="M11.933 5.333 6 1.8l6.467 8.133-.534-4.6Z" fill="url(#g)"/><path d="m12.333 14.333-.866-1.666 1-2.734L6 1.8.533 3.133V11l3.134 4.467 8.666-1.134Z" fill="url(#h)"/><path d="m4.933 11.6-4.4-8.467V11l3.134 4.467L4.933 11.6Z" fill="url(#i)"/><path d="M4.933 11.6 5.6 9.733.533 11l3.134 4.467L4.933 11.6Z" fill="url(#j)"/><path d="m4.933 11.6-4.4-8.467V11l3.134 4.467L4.933 11.6Z" fill="url(#k)"/><path d="m4.933 11.667-1.266 3.8 8.666-1.134-7.4-2.666Z" fill="url(#l)"/><path d="m4.933 11.667 6.534 1 .866 1.666-7.4-2.666Z" fill="url(#m)"/><path d="m3.667 15.467 7.8-2.8.866 1.666-8.666 1.134Z" fill="url(#n)"/><path d="m12.333 14.333-.866-1.666-1.867.666 2.733 1Z" fill="url(#o)"/><path d="M6 1.8 2.733 7.4l2.2 4.2 6.934.067.6-1.734L6 1.8Z" fill="url(#p)"/><path d="m4.933 11.667 6.534 1 1-2.734-7.534 1.734Z" fill="url(#q)"/><path d="M.533 3.133v7.934l2.2-3.667-2.2-4.267Z" fill="url(#r)"/><path d="M6 1.8.533 3.133l2.2 4.267L6 1.8Z" fill="url(#s)"/><path d="M4.533 2.2 2.4 6.867l.333.533L6 1.8l-1.467.4Z" fill="url(#t)"/><path d="M3.333 6.4v2.067L4 9.867l5.733-3.334L6 1.8 3.333 6.4Z" fill="url(#u)"/><path d="M12.667 3.333H3.333v9.334h9.334V3.333Z" fill="url(#v)"/><path d="M8.133 4.667H9l.933 1.736.867-1.736h.867v4h-.8V6.1l-.934 1.66h-.066l-.934-1.66v2.566h-.8v-4ZM4.667 4.667h1.6c.466 0 .8.15 1 .377.266.302.333.604.333.981 0 .302-.067.604-.2.755a1.058 1.058 0 0 1-.533.453l.866 1.434H6.8l-.733-1.208H5.4v1.208h-.733v-4Zm1.6 1.962c.2 0 .333-.076.466-.151a.618.618 0 0 0 .134-.377c0-.227-.067-.378-.2-.453-.067-.151-.267-.151-.467-.151h-.733v1.132h.8ZM8.667 10.667h-4v.666h4v-.666Z" fill="#fff"/><defs><linearGradient id="a" x1="10.117" y1="9.176" x2="8.221" y2="4.2" gradientUnits="userSpaceOnUse"><stop stop-color="#FE2857"/><stop offset=".056" stop-color="#FE3052"/><stop offset=".325" stop-color="#FD533B"/><stop offset=".58" stop-color="#FC6C2A"/><stop offset=".811" stop-color="#FC7B20"/><stop offset="1" stop-color="#FC801D"/></linearGradient><linearGradient id="b" x1="8.874" y1="6.899" x2="8.772" y2="1.234" gradientUnits="userSpaceOnUse"><stop offset=".374" stop-color="#FEB51A"/><stop offset=".431" stop-color="#FEAD1A"/><stop offset=".645" stop-color="#FD941C"/><stop offset=".841" stop-color="#FC851D"/><stop offset="1" stop-color="#FC801D"/></linearGradient><linearGradient id="c" x1="13.219" y1="10.118" x2="6.168" y2="3.518" gradientUnits="userSpaceOnUse"><stop offset=".374" stop-color="#FEB51A"/><stop offset=".417" stop-color="#FEAD1A"/><stop offset=".58" stop-color="#FD941C"/><stop offset=".729" stop-color="#FC851D"/><stop offset=".851" stop-color="#FC801D"/><stop offset=".984" stop-color="#F26522"/></linearGradient><linearGradient id="d" x1="10.916" y1=".539" x2="12.158" y2="2.911" gradientUnits="userSpaceOnUse"><stop offset=".024" stop-color="#FDB60D"/><stop offset="1" stop-color="#FF9600" stop-opacity="0"/></linearGradient><linearGradient id="e" x1="14.981" y1="11.471" x2="14.408" y2="3.726" gradientUnits="userSpaceOnUse"><stop offset=".013" stop-color="#EE2A7B"/><stop offset=".716" stop-color="#FE2857"/><stop offset=".986" stop-color="#FC801D"/></linearGradient><linearGradient id="f" x1="16.748" y1="6.003" x2="12.831" y2=".851" gradientUnits="userSpaceOnUse"><stop stop-color="#FE2857"/><stop offset=".174" stop-color="#FE2C54"/><stop offset=".198" stop-color="#FE3051"/><stop offset=".427" stop-color="#FD533B"/><stop offset=".643" stop-color="#FC6C2A"/><stop offset=".84" stop-color="#FC7B20"/><stop offset="1" stop-color="#FC801D"/></linearGradient><linearGradient id="g" x1="6.797" y1="1.504" x2="12.733" y2="8.254" gradientUnits="userSpaceOnUse"><stop stop-color="#6B57FF"/><stop offset="1" stop-color="#FE2857"/></linearGradient><linearGradient id="h" x1=".434" y1="3.006" x2="10.076" y2="15.262" gradientUnits="userSpaceOnUse"><stop offset=".042" stop-color="#7D11EF"/><stop offset=".116" stop-color="#A019CB"/><stop offset=".202" stop-color="#C220A8"/><stop offset=".283" stop-color="#DA268F"/><stop offset=".357" stop-color="#E92980"/><stop offset=".417" stop-color="#EE2A7B"/><stop offset="1" stop-color="#F26522"/></linearGradient><linearGradient id="i" x1="-1.593" y1="4.657" x2="5.372" y2="13.512" gradientUnits="userSpaceOnUse"><stop offset=".001" stop-color="#6B57FF"/><stop offset=".248" stop-color="#FE2857"/><stop offset=".685" stop-color="#FE2857"/></linearGradient><linearGradient id="j" x1="3.122" y1="7.985" x2="2.965" y2="14.477" gradientUnits="userSpaceOnUse"><stop offset=".001" stop-color="#FDB60D"/><stop offset=".725" stop-color="#FE2857" stop-opacity="0"/></linearGradient><linearGradient id="k" x1="4.327" y1="8.216" x2="2.133" y2="9.302" gradientUnits="userSpaceOnUse"><stop offset=".024" stop-color="#FF7100"/><stop offset="1" stop-color="#FF9600" stop-opacity="0"/></linearGradient><linearGradient id="l" x1="6.204" y1="9.376" x2="8.437" y2="16.262" gradientUnits="userSpaceOnUse"><stop offset=".336" stop-color="#FE2857"/><stop offset=".353" stop-color="#FE3052"/><stop offset=".432" stop-color="#FD533B"/><stop offset=".507" stop-color="#FC6C2A"/><stop offset=".576" stop-color="#FC7B20"/><stop offset=".631" stop-color="#FC801D"/><stop offset=".996" stop-color="#FFDE17"/></linearGradient><linearGradient id="m" x1="7.091" y1="8.22" x2="9.759" y2="16.445" gradientUnits="userSpaceOnUse"><stop offset=".221" stop-color="#EE2A7B"/><stop offset=".699" stop-color="#F7941D"/></linearGradient><linearGradient id="n" x1="7.374" y1="12.984" x2="8.391" y2="16.12" gradientUnits="userSpaceOnUse"><stop offset=".093" stop-color="#F15A29"/><stop offset=".389" stop-color="#FC801D"/><stop offset="1" stop-color="#FEC519"/></linearGradient><linearGradient id="o" x1="6.851" y1="14.545" x2="12.737" y2="13.36" gradientUnits="userSpaceOnUse"><stop offset=".093" stop-color="#F15A29"/><stop offset=".389" stop-color="#FC801D"/><stop offset=".821" stop-color="#FEC519"/><stop offset=".989" stop-color="#FCF84A"/></linearGradient><linearGradient id="p" x1="4.853" y1="13.681" x2="10.226" y2="4.516" gradientUnits="userSpaceOnUse"><stop offset=".042" stop-color="#7D11EF"/><stop offset=".116" stop-color="#A019CB"/><stop offset=".202" stop-color="#C220A8"/><stop offset=".283" stop-color="#DA268F"/><stop offset=".357" stop-color="#E92980"/><stop offset=".417" stop-color="#EE2A7B"/></linearGradient><linearGradient id="q" x1="8.108" y1="8.926" x2="9.759" y2="14.015" gradientUnits="userSpaceOnUse"><stop stop-color="#F7941D" stop-opacity="0"/><stop offset=".547" stop-color="#FB851D" stop-opacity=".547"/><stop offset="1" stop-color="#FC801D"/></linearGradient><linearGradient id="r" x1="-1.439" y1="3.553" x2="2.341" y2="10.446" gradientUnits="userSpaceOnUse"><stop offset=".192" stop-color="#7D11EF"/><stop offset=".282" stop-color="#A019CB"/><stop offset=".386" stop-color="#C220A8"/><stop offset=".484" stop-color="#DA268F"/><stop offset=".574" stop-color="#E92980"/><stop offset=".647" stop-color="#EE2A7B"/></linearGradient><linearGradient id="s" x1="2.661" y1="1.514" x2="5.253" y2="6.241" gradientUnits="userSpaceOnUse"><stop offset=".192" stop-color="#7D11EF"/><stop offset=".282" stop-color="#A019CB"/><stop offset=".386" stop-color="#C220A8"/><stop offset=".484" stop-color="#DA268F"/><stop offset=".574" stop-color="#E92980"/><stop offset=".647" stop-color="#EE2A7B"/><stop offset="1" stop-color="#F26522"/></linearGradient><linearGradient id="t" x1="6.132" y1="-1.072" x2="2.75" y2="8.416" gradientUnits="userSpaceOnUse"><stop offset=".192" stop-color="#7D11EF"/><stop offset=".282" stop-color="#A019CB"/><stop offset=".386" stop-color="#C220A8"/><stop offset=".484" stop-color="#DA268F"/><stop offset=".574" stop-color="#E92980"/><stop offset=".647" stop-color="#EE2A7B"/><stop offset="1" stop-color="#F26522"/></linearGradient><linearGradient id="u" x1="9.586" y1="9.172" x2="2.473" y2="3.983" gradientUnits="userSpaceOnUse"><stop offset=".042" stop-color="#FFDE17"/><stop offset=".043" stop-color="#FFDD18"/><stop offset=".115" stop-color="#FAA736"/><stop offset=".184" stop-color="#F67A4E"/><stop offset=".251" stop-color="#F25762"/><stop offset=".314" stop-color="#F03E70"/><stop offset=".371" stop-color="#EE2F78"/><stop offset=".417" stop-color="#EE2A7B"/></linearGradient><linearGradient id="v" x1="1.913" y1="3.254" x2="12.586" y2="11.576" gradientUnits="userSpaceOnUse"><stop offset=".011" stop-color="#7C0F13"/><stop offset=".076" stop-color="#6C0D11"/><stop offset=".252" stop-color="#45080B"/><stop offset=".426" stop-color="#270506"/><stop offset=".597" stop-color="#110203"/><stop offset=".762" stop-color="#040101"/><stop offset=".914"/></linearGradient></defs></svg>