<svg xmlns="http://www.w3.org/2000/svg" width="42" height="42" fill="none" viewBox="0 0 42 42"><path fill="#019833" stroke="#000" stroke-width=".14" d="M20.9917 2.66528L2.79565 20.8858L20.9159 39.0304L39.112 20.8099L20.9917 2.66528Z"/><path fill="#66FE98" stroke="#000" stroke-width=".14" d="M20.9159 2.74102V1.14673L1.12769 20.9615H2.79566L20.9159 2.74102Z"/><path fill="#45FE02" stroke="#000" stroke-width=".14" d="M20.8704 2.74121V1.14691L40.6586 20.9617H38.9906L20.8704 2.74121Z"/><path fill="#017D17" stroke="#000" stroke-width=".14" d="M20.9159 39.1367V40.731L1.12769 20.9161H2.79566L20.9159 39.1367Z"/><path stroke="#000" stroke-width="2.794" d="M4.7986 3.15918H17.5579L18.3353 3.93758V6.32646L17.7188 7.07802H16.3249V18.9419L28.3337 7.07802H26.3501L25.6531 6.32646V3.80337L26.2965 3.21286H39.2166L39.86 3.85705V6.21909L10.6422 36.2277H7.3183L6.3562 35.6715V6.97065H4.74499L4.15527 6.38014V3.85705L4.7986 3.15918V3.15918Z"/><path fill="#005D04" stroke="#000" stroke-width=".14" d="M20.8704 39.1367V40.731L40.6586 20.9161H38.9906L20.8704 39.1367Z"/><path stroke="#000" stroke-width=".838" d="M20.8626 1L1 20.8893L20.7799 40.6958L40.6425 20.8065L20.8626 1Z"/><path fill="#FEFEFE" stroke="#000" stroke-width=".14" d="M17.6937 4.37346L18.4139 3.99387L17.6747 3.25366H4.8048L4.15088 3.90846V6.38531L4.87588 7.11129L5.22179 6.38531L4.76689 5.9298V4.18367L5.10807 3.87999H17.3904L17.6937 4.37346Z"/><path stroke="#000" stroke-width=".14" d="M26.7926 3.80353L26.3382 4.25857V5.92926L26.7362 6.32783H28.8392V7.94205L14.9278 22.0615V6.34776H17.2397L17.714 5.87279V4.18217L17.2762 3.84339H5.10946L4.71143 4.24196V5.96911L5.1161 6.37433H7.23234V35.3108L7.63038 35.7094H10.0352L39.1882 5.58715V4.25857L38.7338 3.80353H26.7926Z"/><path fill="#FEFEFE" stroke="#000" stroke-width=".14" d="M7.21124 6.32648V35.3151L7.58652 35.7446L7.29223 36.3062L6.46069 35.4762V7.07803L7.21124 6.32648Z"/><path fill="gray" stroke="#000" stroke-width=".14" d="M5.13192 6.32648L4.91748 7.02435H6.47219L7.32996 6.32648H5.13192Z"/><path fill="#FEFEFE" d="M26.4886 7.11033L26.8298 6.40809L26.337 5.95257V4.39624L26.9056 3.82684H38.7709L39.2258 4.4342L39.8703 3.97868L39.2069 3.31439H26.4507L25.8157 3.95021V6.44604L26.4744 7.06763M16.1656 19.0519L14.9265 22.0625L28.9147 8.01757V6.34735L16.1656 19.0519Z"/><path stroke="#000" stroke-width=".14" d="M26.4886 7.11033L26.8298 6.40809L26.337 5.95257V4.39624L26.9056 3.82684H38.7709L39.2258 4.4342L39.8703 3.97868L39.2069 3.31439H26.4507L25.8157 3.95021V6.44604L26.4744 7.06763M16.1656 19.0519L14.9265 22.0625L28.9147 8.01757V6.34735L16.1656 19.0519V19.0519Z"/><path fill="gray" stroke="#000" stroke-width=".14" d="M17.6655 4.28653L18.2821 3.88391V6.32647L17.5717 7.03777H16.1912V19.0761L14.9314 22.0555V6.32647H17.2367L17.6655 5.97754V4.28653Z"/><path fill="#CCC" stroke="#000" stroke-width=".14" d="M26.7926 3.80353L26.3382 4.25857V5.92926L26.7362 6.32783H28.8392V7.94205L14.9278 22.0615V6.34776H17.2397L17.714 5.87279V4.18217L17.2762 3.84339H5.10946L4.71143 4.24196V5.96911L5.1161 6.37433H7.23234V35.3108L7.63038 35.7094H10.0352L39.1882 5.58715V4.25857L38.7338 3.80353H26.7926Z"/><path fill="gray" stroke="#000" stroke-width=".14" d="M39.2257 4.29754L39.8731 3.92322V6.27143L10.5058 36.3206H7.38794L7.68582 35.7279H10.0741L39.1878 5.62612L39.2257 4.29754Z"/><path fill="gray" stroke="#000" stroke-width=".14" d="M28.8564 6.36676L28.1997 7.05122H26.4841L26.8862 6.36676C26.8996 6.36676 28.8564 6.36676 28.8564 6.36676Z"/><path fill="#CCC" stroke="#000" stroke-miterlimit="10" stroke-width="1.118" d="M21.8538 23.3085C21.8317 23.3132 21.8111 23.3235 21.7941 23.3384L21.2302 23.8234C21.2134 23.8387 21.2008 23.8581 21.1938 23.8798L20.6299 25.4608C20.6215 25.484 20.6199 25.5091 20.6252 25.5332C20.6305 25.5573 20.6425 25.5794 20.6597 25.597L21.0909 26.0288C21.1159 26.0528 21.1492 26.0659 21.1838 26.0653H22.9252C22.9598 26.0659 22.9932 26.0528 23.0181 26.0288L23.4725 25.5704C23.4882 25.5547 23.4996 25.5353 23.5057 25.514L23.99 23.8499C23.9966 23.8273 23.997 23.8034 23.9911 23.7806C23.9853 23.7578 23.9734 23.737 23.9568 23.7204L23.582 23.3451C23.5571 23.3211 23.5237 23.308 23.4891 23.3085H21.8804C21.8716 23.3076 21.8627 23.3076 21.8538 23.3085ZM18.6629 27.7659C18.639 27.7711 18.617 27.7828 18.5994 27.7998C18.5818 27.8169 18.5693 27.8385 18.5634 27.8622L18.3478 28.7192C18.343 28.7384 18.3426 28.7585 18.3467 28.7779C18.3508 28.7973 18.3592 28.8155 18.3714 28.8312C18.3835 28.8469 18.399 28.8596 18.4168 28.8684C18.4345 28.8771 18.454 28.8818 18.4738 28.8819H19.4988L16.958 36.1459C16.9514 36.1655 16.9496 36.1864 16.9526 36.2069C16.9556 36.2273 16.9634 36.2467 16.9754 36.2636C16.9874 36.2804 17.0032 36.2942 17.0215 36.3038C17.0398 36.3133 17.0601 36.3184 17.0807 36.3187H20.7791C20.8069 36.319 20.8341 36.3106 20.8568 36.2944C20.8795 36.2783 20.8964 36.2554 20.9052 36.229L21.1473 35.4484C21.1533 35.4288 21.1546 35.408 21.1511 35.3877C21.1476 35.3674 21.1394 35.3483 21.1271 35.3318C21.1149 35.3153 21.0989 35.3019 21.0805 35.2928C21.0621 35.2836 21.0418 35.2789 21.0213 35.279H20.1854L22.6997 27.9386C22.7062 27.919 22.7081 27.8982 22.7051 27.8777C22.702 27.8573 22.6942 27.8378 22.6822 27.821C22.6703 27.8041 22.6545 27.7904 22.6362 27.7808C22.6179 27.7712 22.5976 27.7661 22.5769 27.7659H18.6894C18.6806 27.765 18.6717 27.765 18.6629 27.7659ZM30.4316 27.7925C30.4031 27.7984 30.3775 27.8136 30.3586 27.8357L29.5891 28.7059H28.3651L27.5491 27.8589C27.537 27.8464 27.5226 27.8365 27.5067 27.8297C27.4907 27.8228 27.4736 27.8192 27.4562 27.8191H24.534C24.5071 27.8191 24.481 27.8274 24.459 27.8429C24.4371 27.8583 24.4204 27.8802 24.4112 27.9054L24.1426 28.7092C24.136 28.7288 24.1342 28.7497 24.1372 28.7701C24.1402 28.7906 24.148 28.81 24.16 28.8269C24.172 28.8437 24.1878 28.8575 24.2061 28.867C24.2244 28.8766 24.2447 28.8817 24.2653 28.8819H25.0481L22.6134 36.0662C22.6069 36.0858 22.605 36.1067 22.6081 36.1271C22.6111 36.1476 22.6189 36.167 22.6309 36.1839C22.6428 36.2007 22.6586 36.2145 22.6769 36.224C22.6952 36.2336 22.7155 36.2387 22.7362 36.2389H25.8475C25.8743 36.2389 25.9005 36.2306 25.9224 36.2151C25.9444 36.1997 25.9611 36.1778 25.9702 36.1526L26.2091 35.4518C26.2156 35.4322 26.2175 35.4113 26.2144 35.3908C26.2114 35.3704 26.2036 35.351 26.1916 35.3341C26.1796 35.3173 26.1639 35.3035 26.1456 35.2939C26.1273 35.2844 26.107 35.2793 26.0863 35.279H25.5423L27.0947 30.3865H29.9042L28.1329 36.0695C28.1269 36.0892 28.1256 36.11 28.1291 36.1303C28.1326 36.1505 28.1408 36.1697 28.1531 36.1862C28.1654 36.2027 28.1814 36.216 28.1997 36.2252C28.2181 36.2344 28.2384 36.2391 28.259 36.2389H31.2608C31.2863 36.2387 31.3112 36.2311 31.3324 36.2169C31.3536 36.2028 31.3703 36.1827 31.3802 36.1592L31.6489 35.5149C31.6567 35.4952 31.6596 35.4739 31.6574 35.4528C31.6552 35.4317 31.6479 35.4115 31.6362 35.3938C31.6244 35.3762 31.6086 35.3617 31.59 35.3515C31.5714 35.3414 31.5507 35.3359 31.5295 35.3355H30.9855L32.5644 30.36H35.2379L33.4401 36.0695C33.4341 36.0892 33.4328 36.11 33.4363 36.1303C33.4398 36.1505 33.448 36.1697 33.4603 36.1862C33.4726 36.2027 33.4885 36.216 33.5069 36.2252C33.5253 36.2344 33.5456 36.2391 33.5661 36.2389H36.8632C36.8897 36.2391 36.9155 36.2313 36.9375 36.2165C36.9594 36.2017 36.9763 36.1805 36.986 36.1559L37.2546 35.4551C37.2619 35.4353 37.2642 35.4141 37.2615 35.3932C37.2588 35.3723 37.2511 35.3523 37.239 35.3351C37.227 35.3178 37.211 35.3037 37.1923 35.2939C37.1737 35.2842 37.1529 35.2791 37.1319 35.279H36.4785L38.4653 28.8188C38.4719 28.7988 38.4735 28.7774 38.47 28.7566C38.4666 28.7358 38.4581 28.7161 38.4454 28.6992L37.8285 27.8689C37.8159 27.8529 37.7997 27.8401 37.7813 27.8314C37.7629 27.8228 37.7427 27.8185 37.7223 27.8191H35.3639C35.346 27.8188 35.3283 27.8221 35.3117 27.829C35.2952 27.8359 35.2802 27.846 35.2678 27.8589L34.5247 28.676H33.2245L32.4549 27.8323C32.4425 27.8195 32.4275 27.8093 32.411 27.8024C32.3944 27.7956 32.3767 27.7922 32.3588 27.7925H30.4581C30.4493 27.7916 30.4404 27.7916 30.4316 27.7925Z"/><path fill="#CCC" stroke="#000" stroke-miterlimit="10" stroke-width=".14" d="M21.8803 23.4379L21.3164 23.9228L20.7525 25.5038L21.1837 25.9356H22.9251L23.3795 25.4772L23.8638 23.8132L23.489 23.4379H21.8803ZM18.6893 27.8953L18.4737 28.7522H19.6811L17.0806 36.1889H20.779L21.0212 35.4084H20.0028L22.5768 27.8953H18.6893ZM30.458 27.9218L29.652 28.8352H28.3119L27.4561 27.9484H24.5338L24.2652 28.7522H25.2304L22.736 36.1092H25.8474L26.0862 35.4084H25.3631L26.9984 30.2568H30.0832L28.2588 36.1092H31.2607L31.5294 35.4648H30.8063L32.4681 30.2302H35.4169L33.566 36.1092H36.8631L37.1318 35.4084H36.2992L38.3392 28.7788L37.7222 27.9484H35.3638L34.5843 28.8053H33.1647L32.3586 27.9218H30.458Z"/></svg>