<svg width="16" height="16" fill="none" xmlns="http://www.w3.org/2000/svg"><path d="m2.533 14.067-2-12L4.267.533l2.333 1.4 2.2-1.2 4.6 1.8-2.6 12.934-8.267-1.4Z" fill="url(#a)"/><path d="m8.8.733-2.2 1.2.667 4.867 1.333.933L9 10.6l1.533.133L9.4 5.467 8.8.733Z" fill="url(#b)"/><path d="m7.267 7.333-.667-5.4-2.333-1.4 1 5.8.333 3.6 2.067-.066-.2-.934-.2-1.6Z" fill="url(#c)"/><path d="m2.533 14.067-2-12L4.267.533l1 6-2.734 7.534Z" fill="url(#d)"/><path d="m5.267 6.533-1-6L.533 2.067l4.134 3.6.6.866Z" fill="url(#e)"/><path d="m2.533 14.067-2-12 4.134 3.6L8.8 11.2l-6.267 2.867Z" fill="url(#f)"/><path d="m2.533 14.067 3.534-2.6 4.733 4-8.267-1.4Z" fill="url(#g)"/><path d="M7.733 10.867 6.067 12.4l4.733 3.067.867-4.134-3.934-.466Z" fill="url(#h)"/><path d="M2.533 14.067 6.067 12.4l4.733 3.067-8.267-1.4Z" fill="url(#i)"/><path d="M15.467 5.6 13.533.8 10.067.533 4.6 5.733 6 12.4l2.933 1.867 6.534-3.934-1.6-3.066 1.6-1.667Z" fill="url(#j)"/><path d="m10.467 5.333-.4-4.8-5.467 5.2 4.067 1.2 1.8-1.6Z" fill="url(#k)"/><path d="M9.533 1 4.6 5.733l4.067 1.2L10.8 9.267l-.667-8-.6-.267Z" fill="url(#l)"/><path d="m8.667 6.933.866-.8-.133-.666L8.933 1.6l-2.066 2L7.2 6.533l1.467.4Z" fill="url(#m)"/><path d="M7.2 6.533 6.8 3.6 5.067 5.267l.066.6 2.067.666Z" fill="url(#n)"/><path d="M9.533 1 4.6 5.733l5.533-4.466-.6-.267Z" fill="url(#o)"/><path d="M9 2.133 8.933 1.6l-2.066 2v.267L9 2.133Z" fill="url(#p)"/><path d="M6.867 3.867 6.8 3.6 5.067 5.267v.066l1.8-1.466Z" fill="url(#q)"/><path d="m12 3.933-3.333 3 .266 7.334 6.534-3.934-1.6-3.066L12 3.933Z" fill="url(#r)"/><path d="m10.467 5.733.333 3.8 4.667.8-1.6-3.066-1-1.734-2.4.2Z" fill="url(#s)"/><path d="m10.467 5.733.333 3.8.733.134 2.334-2.4-1-1.734-2.4.2Z" fill="url(#t)"/><path d="M8.667 6.933 4.6 5.733 6 12.4l2.933 1.867-.266-7.334Z" fill="url(#u)"/><path d="m7.333 7.333-.133-.8-2.067-.666.134.466.666 5.2L6 12l2.133 1.667-.8-6.334Z" fill="url(#v)"/><path d="m6 12.4 2.933 1.867-.133-3.6L6 12.4Z" fill="url(#w)"/><path d="m12 3.933 1.867 3.334 1.6-1.667L13.533.8l-2.4 3 .867.133Z" fill="url(#x)"/><path d="m12.933 5.6.934 1.667 1.6-1.667h-2.534Z" fill="url(#y)"/><path d="m4.6 5.733.333 1.534L4.6 5.733Z" fill="url(#z)"/><path d="M12.667 3.333H3.333v9.334h9.334V3.333Z" fill="url(#A)"/><path d="M8.667 10.667h-4v.666h4v-.666ZM8.8 8.067l.533-.6c.334.266.734.466 1.2.466.334 0 .6-.133.6-.4 0-.2-.133-.333-.8-.533C9.533 6.8 9 6.6 9 5.8c0-.733.6-1.2 1.4-1.2.6 0 1.067.2 1.467.533L11.4 5.8c-.333-.267-.733-.4-1.067-.4-.333 0-.533.133-.533.333 0 .267.2.334.867.534.866.2 1.333.533 1.333 1.2 0 .8-.6 1.266-1.467 1.266-.6 0-1.2-.2-1.733-.666ZM5.867 8.667l.666-2.334.6 2.334h.734l1.133-4h-.933L7.533 7l-.666-2.333H6.2L5.533 7l-.6-2.333h-.866l1.066 4h.734Z" fill="#fff"/><defs><linearGradient id="a" x1="5.872" y1=".813" x2="9.754" y2="14.787" gradientUnits="userSpaceOnUse"><stop offset=".285" stop-color="#07C3F2"/><stop offset=".941" stop-color="#087CFA"/></linearGradient><linearGradient id="b" x1="7.161" y1=".018" x2="9.183" y2="8.723" gradientUnits="userSpaceOnUse"><stop offset=".067" stop-color="#42FFFA"/><stop offset=".341" stop-color="#07C3F2"/><stop offset=".941" stop-color="#087CFA"/></linearGradient><linearGradient id="c" x1="3.761" y1=".039" x2="6.933" y2="8.002" gradientUnits="userSpaceOnUse"><stop offset=".285" stop-color="#07C3F2"/><stop offset=".941" stop-color="#087CFA"/></linearGradient><linearGradient id="d" x1="1.363" y1="-.908" x2="4.79" y2="13.012" gradientUnits="userSpaceOnUse"><stop offset=".067" stop-color="#42FFFA"/><stop offset=".341" stop-color="#07C3F2"/><stop offset=".941" stop-color="#087CFA"/></linearGradient><linearGradient id="e" x1="2.622" y1="4.566" x2="3.653" y2="3.501" gradientUnits="userSpaceOnUse"><stop offset=".01" stop-color="#42FFFA"/><stop offset=".922" stop-color="#07C3F2" stop-opacity="0"/></linearGradient><linearGradient id="f" x1="-3.247" y1="5.006" x2="6.884" y2="11.519" gradientUnits="userSpaceOnUse"><stop offset=".199" stop-color="#07C3F2"/><stop offset=".94" stop-color="#087CFA"/></linearGradient><linearGradient id="g" x1=".549" y1="13.264" x2="6.381" y2="13.434" gradientUnits="userSpaceOnUse"><stop offset=".129" stop-color="#1D53B8"/><stop offset=".87" stop-color="#087CFA"/></linearGradient><linearGradient id="h" x1="8.59" y1="10.889" x2="9.853" y2="15.439" gradientUnits="userSpaceOnUse"><stop offset=".277" stop-color="#087BFA"/><stop offset=".683" stop-color="#085DFA"/></linearGradient><linearGradient id="i" x1="5.84" y1="8.072" x2="6.734" y2="15.309" gradientUnits="userSpaceOnUse"><stop offset=".523" stop-color="#087BFA"/><stop offset=".977" stop-color="#086DFA"/></linearGradient><linearGradient id="j" x1="7.058" y1="2.603" x2="13.625" y2="12.232" gradientUnits="userSpaceOnUse"><stop offset=".129" stop-color="#FCF84A"/><stop offset=".499" stop-color="#07C3F2"/></linearGradient><linearGradient id="k" x1="9.945" y1=".438" x2="9.303" y2="1.795" gradientUnits="userSpaceOnUse"><stop stop-color="#73A4AA"/><stop offset=".675" stop-color="#FCF84A"/></linearGradient><linearGradient id="l" x1="6.609" y1="-1.713" x2="8.903" y2="13.882" gradientUnits="userSpaceOnUse"><stop offset=".179" stop-color="#FCF84A"/><stop offset=".859" stop-color="#07C3F2"/></linearGradient><linearGradient id="m" x1="7.443" y1="1.36" x2="9.194" y2="8.898" gradientUnits="userSpaceOnUse"><stop offset=".179" stop-color="#FCF84A"/><stop offset=".973" stop-color="#12C6EC"/></linearGradient><linearGradient id="n" x1="5.582" y1="3.889" x2="7.011" y2="6.863" gradientUnits="userSpaceOnUse"><stop offset=".129" stop-color="#FCF84A"/><stop offset=".941" stop-color="#07C3F2"/></linearGradient><linearGradient id="o" x1="6.852" y1="-.07" x2="7.929" y2="7.249" gradientUnits="userSpaceOnUse"><stop offset=".179" stop-color="#FCF84A"/><stop offset=".859" stop-color="#07C3F2"/></linearGradient><linearGradient id="p" x1="7.656" y1="1.69" x2="8.247" y2="4.237" gradientUnits="userSpaceOnUse"><stop offset=".179" stop-color="#D3FF8C"/><stop offset=".876" stop-color="#12C6EC"/></linearGradient><linearGradient id="q" x1="5.734" y1="4.036" x2="6.149" y2="4.9" gradientUnits="userSpaceOnUse"><stop offset=".129" stop-color="#FCF84A"/><stop offset=".941" stop-color="#07C3F2"/></linearGradient><linearGradient id="r" x1="8.553" y1="6.305" x2="12.827" y2="12.572" gradientUnits="userSpaceOnUse"><stop stop-color="#07C3F2"/><stop offset=".906" stop-color="#00A0FF"/></linearGradient><linearGradient id="s" x1="14.751" y1="7.82" x2="9.387" y2="8.501" gradientUnits="userSpaceOnUse"><stop stop-color="#07C3F2"/><stop offset="1" stop-color="#0895F7"/></linearGradient><linearGradient id="t" x1="13.56" y1="7.376" x2="9.646" y2="7.873" gradientUnits="userSpaceOnUse"><stop stop-color="#07C3F2"/><stop offset="1" stop-color="#0895F7"/></linearGradient><linearGradient id="u" x1="4.02" y1="4.84" x2="9.575" y2="12.986" gradientUnits="userSpaceOnUse"><stop offset=".081" stop-color="#FCF84A"/><stop offset=".571" stop-color="#07C3F2"/></linearGradient><linearGradient id="v" x1="4.652" y1="5.194" x2="8.901" y2="14.038" gradientUnits="userSpaceOnUse"><stop offset=".129" stop-color="#FCF84A"/><stop offset=".422" stop-color="#07C3F2"/></linearGradient><linearGradient id="w" x1="5.879" y1="10.501" x2="9.492" y2="12.947" gradientUnits="userSpaceOnUse"><stop offset=".093" stop-color="#087CFA"/><stop offset=".658" stop-color="#07C3F2"/></linearGradient><linearGradient id="x" x1="12.219" y1=".81" x2="14.073" y2="7.375" gradientUnits="userSpaceOnUse"><stop stop-color="#FCF84A"/><stop offset=".465" stop-color="#07C3F2"/><stop offset=".941" stop-color="#087CFA"/></linearGradient><linearGradient id="y" x1="16.225" y1="6.012" x2="10.733" y2="6.821" gradientUnits="userSpaceOnUse"><stop stop-color="#0863FA"/><stop offset=".941" stop-color="#1AC8FB"/></linearGradient><linearGradient id="z" x1="4.38" y1="5.888" x2="5.244" y2="7.155" gradientUnits="userSpaceOnUse"><stop offset=".129" stop-color="#FCF84A"/><stop offset=".422" stop-color="#07C3F2"/></linearGradient><linearGradient id="A" x1="3.099" y1="2.909" x2="11.268" y2="11.394" gradientUnits="userSpaceOnUse"><stop stop-color="#006396"/><stop offset=".047" stop-color="#005682"/><stop offset=".168" stop-color="#003754"/><stop offset=".283" stop-color="#001F2F"/><stop offset=".391" stop-color="#000E15"/><stop offset=".487" stop-color="#000406"/><stop offset=".562"/><stop offset=".914"/></linearGradient></defs></svg>