<svg xmlns="http://www.w3.org/2000/svg" width="144" height="144" style="enable-background:new 0 0 144 144" viewBox="19 19 106 106" xml:space="preserve"><path d="m124 70.7-4.39-2.72a59.613 59.613 0 0 0-.125-1.28l3.78-3.52c.384-.358.556-.888.452-1.4a1.5 1.5 0 0 0-.953-1.12l-4.83-1.8a63.844 63.844 0 0 0-.378-1.25l3.01-4.18c.307-.425.37-.978.17-1.46a1.516 1.516 0 0 0-1.15-.914l-5.09-.828a38.524 38.524 0 0 0-.612-1.14l2.14-4.7a1.51 1.51 0 0 0-1.428-2.141l-5.17.18a40.822 40.822 0 0 0-.816-.99l1.19-5.03a1.515 1.515 0 0 0-1.823-1.823l-5.03 1.19a43.417 43.417 0 0 0-.992-.816l.181-5.17a1.515 1.515 0 0 0-2.141-1.429l-4.69 2.14a62.934 62.934 0 0 0-1.14-.613l-.83-5.09a1.5 1.5 0 0 0-.914-1.15 1.505 1.505 0 0 0-1.46.17l-4.18 3.01a50.417 50.417 0 0 0-1.24-.377l-1.8-4.83a1.51 1.51 0 0 0-2.52-.503l-3.52 3.78c-.425-.047-.853-.09-1.28-.125l-2.72-4.4a1.513 1.513 0 0 0-2.57 0l-2.72 4.4a44.71 44.71 0 0 0-1.28.125l-3.52-3.78a1.517 1.517 0 0 0-1.4-.452 1.505 1.505 0 0 0-1.12.955l-1.8 4.83c-.418.12-.832.247-1.24.377l-4.18-3.01a1.502 1.502 0 0 0-1.46-.17c-.483.2-.83.638-.914 1.15l-.83 5.09c-.384.199-.764.404-1.14.613l-4.69-2.14a1.514 1.514 0 0 0-2.141 1.429l.18 5.17c-.334.267-.665.54-.992.816l-5.03-1.19a1.514 1.514 0 0 0-1.823 1.823l1.18 5.03a48.63 48.63 0 0 0-.814.99l-5.17-.18a1.514 1.514 0 0 0-1.429 2.141l2.14 4.7c-.208.377-.414.757-.613 1.14l-5.09.828a1.51 1.51 0 0 0-.98 2.374l3.01 4.18c-.131.413-.258.828-.378 1.25l-4.83 1.8a1.51 1.51 0 0 0-.501 2.52l3.78 3.52c-.047.425-.089.853-.125 1.28l-4.39 2.72c-.445.275-.716.761-.716 1.29s.271 1.01.716 1.28l4.39 2.72c.036.428.078.855.125 1.28l-3.78 3.52a1.512 1.512 0 0 0 .501 2.52l4.83 1.8c.12.418.247.833.378 1.25l-3.01 4.18a1.508 1.508 0 0 0 .99 2.374l5.09.828c.199.386.403.766.613 1.14l-2.14 4.69a1.514 1.514 0 0 0 1.429 2.141l5.16-.181c.269.336.54.665.816.992l-1.18 5.03c-.12.51.031 1.04.403 1.41a1.51 1.51 0 0 0 1.42.402l5.03-1.18c.327.278.658.548.992.814l-.18 5.17a1.514 1.514 0 0 0 2.141 1.427l4.69-2.14c.378.21.758.414 1.14.613l.83 5.09c.084.518.43.956.914 1.16.483.201 1.04.136 1.46-.169l4.18-3.01c.413.131.828.259 1.25.379l1.8 4.83c.183.49.607.853 1.12.953a1.506 1.506 0 0 0 1.4-.452l3.52-3.78c.425.049.853.09 1.28.128l2.72 4.39c.274.443.761.716 1.28.716s1.01-.272 1.29-.716l2.72-4.39a49.06 49.06 0 0 0 1.28-.128l3.52 3.78c.357.384.887.556 1.4.452a1.502 1.502 0 0 0 1.12-.953l1.8-4.83c.418-.12.833-.248 1.25-.379l4.18 3.01a1.51 1.51 0 0 0 2.374-.991l.83-5.09c.384-.199.764-.406 1.14-.613l4.69 2.14a1.51 1.51 0 0 0 2.141-1.427l-.18-5.17c.334-.267.665-.536.991-.814l5.03 1.18a1.512 1.512 0 0 0 1.823-1.812l-1.18-5.03c.276-.327.548-.656.814-.992l5.17.181a1.504 1.504 0 0 0 1.31-.671 1.51 1.51 0 0 0 .118-1.47l-2.14-4.69c.209-.379.414-.759.612-1.14l5.09-.828a1.493 1.493 0 0 0 1.15-.914c.2-.483.137-1.04-.17-1.46l-3.01-4.18c.13-.413.257-.828.378-1.25l4.83-1.8c.491-.184.853-.607.953-1.12a1.506 1.506 0 0 0-.452-1.4l-3.78-3.52c.046-.425.088-.853.125-1.28l4.39-2.72c.445-.274.716-.761.716-1.28s-.27-1.01-.715-1.29zm-29.4 36.5a3.112 3.112 0 0 1-2.38-3.7 3.107 3.107 0 0 1 3.69-2.39c1.68.359 2.75 2.02 2.39 3.7s-2.01 2.75-3.69 2.39zm-1.49-10.1a2.824 2.824 0 0 0-3.36 2.18l-1.56 7.28a38.32 38.32 0 0 1-15.8 3.4c-5.76 0-11.2-1.27-16.1-3.55l-1.56-7.28a2.83 2.83 0 0 0-3.36-2.18l-6.43 1.38a38.85 38.85 0 0 1-3.32-3.92h31.3c.354 0 .59-.064.59-.386v-11.1c0-.322-.236-.386-.59-.386h-9.15v-7.01h9.89c.903 0 4.83.258 6.08 5.28.393 1.54 1.26 6.56 1.85 8.17.588 1.8 2.98 5.4 5.53 5.4h15.6c.177 0 .366-.02.565-.056a39.07 39.07 0 0 1-3.54 4.16l-6.58-1.41zm-43.3 9.95a3.104 3.104 0 0 1-3.69-2.39 3.109 3.109 0 1 1 6.08-1.31 3.117 3.117 0 0 1-2.39 3.7zm-11.9-48.1a3.12 3.12 0 0 1-1.58 4.11c-1.57.697-3.4-.012-4.1-1.58s.012-3.41 1.58-4.11c1.57-.696 3.4.012 4.1 1.58zm-3.65 8.64 6.7-2.98a2.83 2.83 0 0 0 1.44-3.74l-1.38-3.12h5.42v24.4h-10.9a38.354 38.354 0 0 1-1.46-10.5c0-1.39.075-2.76.219-4.11zm29.4-2.37v-7.2h12.9c.667 0 4.71.771 4.71 3.79 0 2.51-3.1 3.41-5.65 3.41h-12zm46.9 6.48c0 .956-.035 1.9-.105 2.84h-3.93c-.393 0-.551.258-.551.643v1.8c0 4.24-2.39 5.17-4.49 5.4-2 .225-4.21-.836-4.48-2.06-1.18-6.63-3.14-8.04-6.24-10.5 3.85-2.44 7.85-6.05 7.85-10.9 0-5.21-3.57-8.49-6-10.1-3.42-2.25-7.2-2.7-8.22-2.7h-40.6c5.51-6.14 13-10.5 21.4-12.1l4.79 5.02a2.833 2.833 0 0 0 4.01.092l5.36-5.12c11.2 2.09 20.7 9.07 26.2 18.7l-3.67 8.28a2.837 2.837 0 0 0 1.44 3.74l7.06 3.14c.122 1.25.186 2.52.186 3.8zm-40.6-41.9a3.1 3.1 0 0 1 4.39.101 3.119 3.119 0 0 1-.103 4.4 3.098 3.098 0 0 1-4.39-.102 3.119 3.119 0 0 1 .103-4.4zm36.4 29.3a3.101 3.101 0 0 1 4.1-1.58 3.113 3.113 0 0 1 1.58 4.11 3.101 3.101 0 0 1-4.1 1.58 3.113 3.113 0 0 1-1.58-4.11z"/></svg>