<svg xmlns="http://www.w3.org/2000/svg" width="93" height="28" fill="none" viewBox="0 0 93 28"><path fill="#666564" d="M1.0034 9.11186L4.98765 16.6278C5.25968 17.1398 5.93022 17.5554 6.48413 17.5541L14.612 17.5371C15.1668 17.536 15.3958 17.1193 15.124 16.6064L11.1393 9.09088C10.8675 8.57785 10.1971 8.16336 9.64267 8.16457L1.51498 8.18131C1.50244 8.18131 1.4903 8.18172 1.47776 8.18172C0.95049 8.20143 0.737331 8.61038 1.0034 9.11186Z"/><path fill="#666564" d="M16.4419 17.8692L18.8547 22.3276C19.0188 22.6317 19.4202 22.8758 19.7508 22.8722L24.5934 22.8214C24.9241 22.8182 25.0575 22.5688 24.8935 22.2644L22.4815 17.8064C22.3171 17.5021 21.9151 17.2585 21.5854 17.262L16.7426 17.3124C16.7369 17.3124 16.7316 17.3124 16.7259 17.3124C16.4076 17.3241 16.2804 17.5696 16.4419 17.8692Z"/><path fill="#666564" d="M16.4702 0.94058L11.6281 7.09534C11.2972 7.51584 11.2533 8.26935 11.5296 8.78053L15.5778 16.2624C15.8537 16.7727 16.346 16.8463 16.6764 16.4269L21.519 10.2709C21.8493 9.8512 21.8936 9.09681 21.6167 8.5861L17.5691 1.10403C17.4086 0.808713 17.1766 0.659824 16.9453 0.667822C16.7773 0.674589 16.6094 0.763801 16.4702 0.94058Z"/><path fill="#666564" d="M15.3362 17.9438L12.4502 21.6113C12.2527 21.8617 12.2272 22.311 12.3915 22.6149L14.8037 27.0731C14.9687 27.3775 15.2616 27.4212 15.4588 27.1708L18.3439 23.5038C18.5406 23.2529 18.5669 22.8032 18.4028 22.4999L15.9904 18.0414C15.8955 17.8653 15.7568 17.7765 15.6186 17.781C15.519 17.7844 15.4184 17.8379 15.3362 17.9438Z"/><path fill="#666564" d="M68.277 19.2494H69.8939V7.19617H68.277V19.2494Z"/><path fill="#666564" d="M39.3113 11.0044C36.9929 11.0044 35.1134 12.8661 35.1134 15.1625H35.1105V22.8395H36.7274V15.1625H36.7353C36.7353 13.7421 37.8981 12.5906 39.3314 12.5906C40.7657 12.5906 41.9281 13.7421 41.9281 15.1625C41.9281 16.5824 40.7657 17.7339 39.3314 17.7339C38.5227 17.7339 37.8 17.367 37.3241 16.7926V18.8251C37.9157 19.1407 38.5931 19.3204 39.3113 19.3204C41.6312 19.3204 43.5112 17.4583 43.5112 15.1625C43.5112 12.8661 41.6312 11.0044 39.3113 11.0044Z"/><path fill="#666564" d="M48.4242 11.0044C46.1049 11.0044 44.2258 12.8661 44.2258 15.1625H44.2229V22.8395H45.8395V15.1625H45.8479C45.8479 13.7421 47.0099 12.5906 48.4436 12.5906C49.8786 12.5906 51.041 13.7421 51.041 15.1625C51.041 16.5824 49.8786 17.7339 48.4436 17.7339C47.6347 17.7339 46.9124 17.367 46.4363 16.7926V18.8251C47.0275 19.1407 47.7062 19.3204 48.4242 19.3204C50.7428 19.3204 52.6227 17.4583 52.6227 15.1625C52.6227 12.8661 50.7428 11.0044 48.4242 11.0044Z"/><path fill="#666564" d="M29.924 7.19617C27.6048 7.19617 25.7255 9.05825 25.7255 11.3544V19.2494H27.3424V11.3544H27.3449C27.3449 9.94346 28.4992 8.79966 29.9246 8.79966C31.3492 8.79966 32.5036 9.94346 32.5036 11.3544H32.5058V12.2582H28.3518V13.8591H32.5058V19.2494H34.1236V11.3544C34.1236 9.05825 32.2435 7.19617 29.924 7.19617"/><path fill="#666564" d="M62.878 11.3544C62.878 9.94313 64.0336 8.7987 65.4597 8.7987V8.7979H67.4954V7.19617H65.4592C63.1408 7.1965 61.2609 9.05825 61.2609 11.3544V19.2494H62.878V14.0234H67.3463V12.422H62.878V11.3544Z"/><path fill="#666564" d="M76.6625 11.0568V16.09H76.6617C76.641 17.1027 75.8087 17.9177 74.7792 17.9177C73.7525 17.9177 72.9187 17.1027 72.8991 16.09H72.897V11.0568H71.2806V16.095H71.2831C71.3024 17.7139 72.4433 19.0631 73.972 19.422V22.8395H75.5886V19.422C77.1169 19.0631 78.2584 17.7139 78.2776 16.095H78.2789V11.0568H76.6625"/><path fill="#666564" d="M85.7522 15.7924C85.5878 16.4367 85.1716 17.0177 84.5437 17.3758C83.3092 18.0827 81.7307 17.6637 81.0179 16.4415C80.3049 15.2181 80.7286 13.6559 81.9627 12.9497C82.9519 12.384 84.162 12.5422 84.9696 13.2567L81.3385 15.3326L82.1472 16.7199L83.8277 15.7586L87.2253 13.8161C87.1385 13.5661 87.0283 13.3212 86.8898 13.0839C85.7303 11.0952 83.1613 10.4139 81.1536 11.5623C79.145 12.7105 78.4576 15.2535 79.6171 17.2421C80.7767 19.2305 83.3436 19.9122 85.3521 18.7643C86.5007 18.1079 87.2162 16.9958 87.4021 15.7924H85.7522"/><path fill="#666564" d="M92.4709 11.0044C91.4964 11.0044 90.6018 11.3339 89.8904 11.8848V11.0423H88.2728V19.2494H89.8904V15.1625H89.8908C89.8908 13.7507 91.0464 12.6065 92.4709 12.6065V12.6055H92.7988V11.0044H92.4709"/><path fill="#666564" d="M58.7583 15.4427L54.7366 13.5856L54.7379 13.5841C54.544 13.4887 54.4616 13.2588 54.553 13.0642C54.62 12.921 54.7638 12.8384 54.9133 12.8378V12.8345H59.502V11.2333H54.9133V11.2354C54.1539 11.2362 53.4276 11.6605 53.0855 12.3868C52.6156 13.3836 53.0499 14.5674 54.053 15.0365L58.0752 16.8943L58.0747 16.8952C58.0747 16.8952 58.0752 16.8952 58.0762 16.8961C58.2762 16.988 58.3622 17.2225 58.269 17.4202C58.2019 17.5641 58.0567 17.6478 57.9066 17.6469V17.649H53.205V19.2494H57.9068V19.2482C58.6658 19.2471 59.3918 18.8227 59.7337 18.0963C60.2051 17.097 59.7685 15.9089 58.7583 15.4427"/></svg>