<svg width="89" height="20" fill="none" xmlns="http://www.w3.org/2000/svg"><path d="m19.65 7.617-.027-.072-2.72-7.094a.718.718 0 0 0-1.359.073l-1.835 5.62H6.274L4.44.524A.72.72 0 0 0 3.08.45L.362 7.546l-.029.07a5.05 5.05 0 0 0 1.676 5.837l.01.008.023.017L6.18 16.58l2.052 1.551 1.247.943a.843.843 0 0 0 1.016 0l1.247-.943 2.053-1.55 4.167-3.12.011-.009a5.05 5.05 0 0 0 1.677-5.834ZM35.932 7.25h2.923c-.488-3.107-3.178-5.271-6.68-5.271-4.141 0-7.25 3.045-7.25 8.146 0 5.01 2.969 8.117 7.336 8.117 3.919 0 6.724-2.521 6.724-6.602V9.74h-6.423v2.241h3.649c-.047 2.258-1.554 3.687-3.935 3.687-2.65 0-4.467-1.986-4.467-5.573 0-3.564 1.847-5.542 4.405-5.542 1.91 0 3.215 1.02 3.718 2.698ZM40.917 18.025h2.798V6.158h-2.798v11.867ZM42.33 4.272c.889 0 1.615-.68 1.615-1.515 0-.833-.726-1.522-1.615-1.522-.89 0-1.623.68-1.623 1.522 0 .843.72 1.515 1.617 1.515h.006ZM52.094 6.158h-2.343v-2.85h-2.798v2.85H45.27v2.165h1.684v6.601c-.015 2.234 1.61 3.336 3.71 3.27a5.68 5.68 0 0 0 1.648-.278l-.472-2.189a3.41 3.41 0 0 1-.819.11c-.704 0-1.269-.248-1.269-1.377V8.316h2.343V6.158ZM54.26 18.025h9.84v-2.404h-6.972V2.194H54.26v15.831ZM69.46 18.265c1.862 0 2.974-.874 3.485-1.87h.092v1.63h2.694v-7.946c0-3.138-2.558-4.081-4.823-4.081-2.497 0-4.414 1.112-5.032 3.276l2.613.372c.277-.812 1.066-1.507 2.438-1.507 1.3 0 2.01.665 2.01 1.832v.046c0 .803-.843.843-2.938 1.066-2.303.248-4.505.935-4.505 3.61-.008 2.335 1.7 3.572 3.965 3.572Zm.919-2.053c-1.168 0-2.003-.533-2.003-1.561 0-1.075.935-1.523 2.181-1.701.735-.1 2.204-.286 2.566-.579v1.399c.008 1.317-1.06 2.438-2.744 2.438v.004ZM77.791 18.025h2.752v-1.87h.162c.441.865 1.361 2.08 3.402 2.08 2.798 0 4.893-2.22 4.893-6.13 0-3.958-2.156-6.107-4.9-6.107-2.096 0-2.97 1.26-3.395 2.118h-.118V2.194H77.79v15.831Zm2.745-5.936c0-2.31.989-3.796 2.79-3.796 1.863 0 2.822 1.584 2.822 3.796 0 2.212-.974 3.849-2.822 3.849-1.786 0-2.79-1.546-2.79-3.849Z" fill="#12100C"/></svg>