<svg xmlns="http://www.w3.org/2000/svg" width="94" height="29" fill="none" viewBox="0 0 94 29"><path fill="#565252" d="M28.5055 0.919678H0.938477V28.3225H28.5055V0.919678Z"/><path fill="url(#paint0_linear_6032_10358)" d="M15.1035 9.17548C15.1035 9.27937 15.083 9.38225 15.043 9.47824C15.003 9.57424 14.9444 9.66146 14.8705 9.73493C14.7967 9.80841 14.7089 9.8667 14.6124 9.90646C14.5158 9.94623 14.4123 9.96669 14.3078 9.96669C14.2033 9.96669 14.0998 9.94623 14.0033 9.90646C13.9067 9.8667 13.819 9.80841 13.7451 9.73493C13.6712 9.66146 13.6126 9.57424 13.5727 9.47824C13.5327 9.38225 13.5122 9.27937 13.5122 9.17548C13.5122 9.0716 13.5327 8.96872 13.5727 8.87273C13.6126 8.77674 13.6712 8.68951 13.7451 8.61604C13.819 8.54256 13.9067 8.48428 14.0033 8.44451C14.0998 8.40474 14.2033 8.38428 14.3078 8.38428C14.4123 8.38428 14.5158 8.40474 14.6124 8.44451C14.7089 8.48428 14.7967 8.54256 14.8705 8.61604C14.9444 8.68951 15.003 8.77674 15.043 8.87273C15.083 8.96872 15.1035 9.0716 15.1035 9.17548V9.17548Z"/><path fill="url(#paint1_linear_6032_10358)" d="M15.1035 21.1047C15.1035 21.2086 15.083 21.3115 15.043 21.4074C15.003 21.5034 14.9444 21.5907 14.8705 21.6641C14.7967 21.7376 14.7089 21.7959 14.6124 21.8357C14.5158 21.8754 14.4123 21.8959 14.3078 21.8959C14.2033 21.8959 14.0998 21.8754 14.0033 21.8357C13.9067 21.7959 13.819 21.7376 13.7451 21.6641C13.6712 21.5907 13.6126 21.5034 13.5727 21.4074C13.5327 21.3115 13.5122 21.2086 13.5122 21.1047C13.5122 21.0008 13.5327 20.8979 13.5727 20.8019C13.6126 20.7059 13.6712 20.6187 13.7451 20.5452C13.819 20.4718 13.9067 20.4135 14.0033 20.3737C14.0998 20.3339 14.2033 20.3135 14.3078 20.3135C14.4123 20.3135 14.5158 20.3339 14.6124 20.3737C14.7089 20.4135 14.7967 20.4718 14.8705 20.5452C14.9444 20.6187 15.003 20.7059 15.043 20.8019C15.083 20.8979 15.1035 21.0008 15.1035 21.1047V21.1047Z"/><path fill="url(#paint2_linear_6032_10358)" d="M9.17768 15.1813C9.17772 15.2852 9.15717 15.3881 9.11721 15.4841C9.07724 15.5801 9.01864 15.6673 8.94476 15.7408C8.87087 15.8143 8.78315 15.8726 8.6866 15.9123C8.59005 15.9521 8.48656 15.9726 8.38205 15.9726C8.27754 15.9726 8.17405 15.9521 8.0775 15.9123C7.98095 15.8726 7.89323 15.8143 7.81934 15.7408C7.74546 15.6673 7.68686 15.5801 7.6469 15.4841C7.60693 15.3881 7.58638 15.2852 7.58643 15.1813C7.58638 15.0775 7.60693 14.9746 7.6469 14.8786C7.68686 14.7826 7.74546 14.6954 7.81934 14.6219C7.89323 14.5484 7.98095 14.4901 8.0775 14.4504C8.17405 14.4106 8.27754 14.3901 8.38205 14.3901C8.48656 14.3901 8.59005 14.4106 8.6866 14.4504C8.78315 14.4901 8.87087 14.5484 8.94476 14.6219C9.01864 14.6954 9.07724 14.7826 9.11721 14.8786C9.15717 14.9746 9.17772 15.0775 9.17768 15.1813V15.1813Z"/><path fill="url(#paint3_linear_6032_10358)" d="M21.0927 15.1813C21.0928 15.2852 21.0722 15.3881 21.0322 15.4841C20.9923 15.5801 20.9337 15.6673 20.8598 15.7408C20.7859 15.8143 20.6982 15.8726 20.6016 15.9123C20.5051 15.9521 20.4016 15.9726 20.2971 15.9726C20.1926 15.9726 20.0891 15.9521 19.9925 15.9123C19.896 15.8726 19.8083 15.8143 19.7344 15.7408C19.6605 15.6673 19.6019 15.5801 19.5619 15.4841C19.522 15.3881 19.5014 15.2852 19.5015 15.1813C19.5014 15.0775 19.522 14.9746 19.5619 14.8786C19.6019 14.7826 19.6605 14.6954 19.7344 14.6219C19.8083 14.5484 19.896 14.4901 19.9925 14.4504C20.0891 14.4106 20.1926 14.3901 20.2971 14.3901C20.4016 14.3901 20.5051 14.4106 20.6016 14.4504C20.6982 14.4901 20.7859 14.5484 20.8598 14.6219C20.9337 14.6954 20.9923 14.7826 21.0322 14.8786C21.0722 14.9746 21.0928 15.0775 21.0927 15.1813V15.1813Z"/><path fill="url(#paint4_linear_6032_10358)" d="M11.1069 11.2021C11.1069 11.306 11.0864 11.4089 11.0464 11.5049C11.0064 11.6008 10.9478 11.6881 10.874 11.7615C10.8001 11.835 10.7123 11.8933 10.6158 11.9331C10.5192 11.9728 10.4158 11.9933 10.3113 11.9933C10.2067 11.9933 10.1033 11.9728 10.0067 11.9331C9.91015 11.8933 9.82243 11.835 9.74854 11.7615C9.67466 11.6881 9.61606 11.6008 9.5761 11.5049C9.53613 11.4089 9.51558 11.306 9.51563 11.2021C9.51558 11.0982 9.53613 10.9953 9.5761 10.8993C9.61606 10.8033 9.67466 10.7161 9.74854 10.6426C9.82243 10.5692 9.91015 10.5109 10.0067 10.4711C10.1033 10.4314 10.2067 10.4109 10.3113 10.4109C10.4158 10.4109 10.5192 10.4314 10.6158 10.4711C10.7123 10.5109 10.8001 10.5692 10.874 10.6426C10.9478 10.7161 11.0064 10.8033 11.0464 10.8993C11.0864 10.9953 11.1069 11.0982 11.1069 11.2021V11.2021Z"/><path fill="url(#paint5_linear_6032_10358)" d="M19.1137 11.2021C19.1138 11.306 19.0932 11.4089 19.0532 11.5049C19.0133 11.6008 18.9547 11.6881 18.8808 11.7615C18.8069 11.835 18.7192 11.8933 18.6226 11.9331C18.5261 11.9728 18.4226 11.9933 18.3181 11.9933C18.2136 11.9933 18.1101 11.9728 18.0135 11.9331C17.917 11.8933 17.8293 11.835 17.7554 11.7615C17.6815 11.6881 17.6229 11.6008 17.5829 11.5049C17.543 11.4089 17.5224 11.306 17.5225 11.2021C17.5224 11.0982 17.543 10.9953 17.5829 10.8993C17.6229 10.8033 17.6815 10.7161 17.7554 10.6426C17.8293 10.5692 17.917 10.5109 18.0135 10.4711C18.1101 10.4314 18.2136 10.4109 18.3181 10.4109C18.4226 10.4109 18.5261 10.4314 18.6226 10.4711C18.7192 10.5109 18.8069 10.5692 18.8808 10.6426C18.9547 10.7161 19.0133 10.8033 19.0532 10.8993C19.0932 10.9953 19.1138 11.0982 19.1137 11.2021V11.2021Z"/><path fill="url(#paint6_linear_6032_10358)" d="M19.1137 19.0944C19.1138 19.1983 19.0932 19.3012 19.0532 19.3972C19.0133 19.4932 18.9547 19.5804 18.8808 19.6539C18.8069 19.7274 18.7192 19.7856 18.6226 19.8254C18.5261 19.8652 18.4226 19.8856 18.3181 19.8856C18.2136 19.8856 18.1101 19.8652 18.0135 19.8254C17.917 19.7856 17.8293 19.7274 17.7554 19.6539C17.6815 19.5804 17.6229 19.4932 17.5829 19.3972C17.543 19.3012 17.5224 19.1983 17.5225 19.0944C17.5224 18.9905 17.543 18.8877 17.5829 18.7917C17.6229 18.6957 17.6815 18.6085 17.7554 18.535C17.8293 18.4615 17.917 18.4032 18.0135 18.3635C18.1101 18.3237 18.2136 18.3032 18.3181 18.3032C18.4226 18.3032 18.5261 18.3237 18.6226 18.3635C18.7192 18.4032 18.8069 18.4615 18.8808 18.535C18.9547 18.6085 19.0133 18.6957 19.0532 18.7917C19.0932 18.8877 19.1138 18.9905 19.1137 19.0944V19.0944Z"/><path fill="url(#paint7_linear_6032_10358)" d="M12.9872 9.17556C12.9872 9.34598 12.9191 9.50943 12.7979 9.62994C12.6767 9.75045 12.5122 9.81815 12.3408 9.81815C12.1693 9.81815 12.0049 9.75045 11.8837 9.62994C11.7624 9.50943 11.6943 9.34598 11.6943 9.17556C11.6943 9.00513 11.7624 8.84168 11.8837 8.72117C12.0049 8.60066 12.1693 8.53296 12.3408 8.53296C12.5122 8.53296 12.6767 8.60066 12.7979 8.72117C12.9191 8.84168 12.9872 9.00513 12.9872 9.17556V9.17556Z"/><path fill="url(#paint8_linear_6032_10358)" d="M16.8788 9.17556C16.8788 9.34598 16.8107 9.50943 16.6895 9.62994C16.5683 9.75045 16.4038 9.81815 16.2324 9.81815C16.0609 9.81815 15.8965 9.75045 15.7753 9.62994C15.654 9.50943 15.5859 9.34598 15.5859 9.17556C15.5859 9.00513 15.654 8.84168 15.7753 8.72117C15.8965 8.60066 16.0609 8.53296 16.2324 8.53296C16.4038 8.53296 16.5683 8.60066 16.6895 8.72117C16.8107 8.84168 16.8788 9.00513 16.8788 9.17556V9.17556Z"/><path fill="url(#paint9_linear_6032_10358)" d="M9.02873 13.1341C9.02873 13.3045 8.96062 13.4679 8.83939 13.5884C8.71816 13.7089 8.55373 13.7766 8.38229 13.7766C8.21084 13.7766 8.04641 13.7089 7.92518 13.5884C7.80395 13.4679 7.73584 13.3045 7.73584 13.1341C7.73584 12.9636 7.80395 12.8002 7.92518 12.6797C8.04641 12.5592 8.21084 12.4915 8.38229 12.4915C8.55373 12.4915 8.71816 12.5592 8.83939 12.6797C8.96062 12.8002 9.02873 12.9636 9.02873 13.1341V13.1341Z"/><path fill="url(#paint10_linear_6032_10358)" d="M20.9433 13.1341C20.9433 13.3045 20.8752 13.4679 20.7539 13.5884C20.6327 13.7089 20.4683 13.7766 20.2968 13.7766C20.1254 13.7766 19.961 13.7089 19.8397 13.5884C19.7185 13.4679 19.6504 13.3045 19.6504 13.1341C19.6504 12.9636 19.7185 12.8002 19.8397 12.6797C19.961 12.5592 20.1254 12.4915 20.2968 12.4915C20.4683 12.4915 20.6327 12.5592 20.7539 12.6797C20.8752 12.8002 20.9433 12.9636 20.9433 13.1341V13.1341Z"/><path fill="url(#paint11_linear_6032_10358)" d="M20.9433 17.0925C20.9433 17.263 20.8752 17.4264 20.7539 17.5469C20.6327 17.6674 20.4683 17.7351 20.2968 17.7351C20.1254 17.7351 19.961 17.6674 19.8397 17.5469C19.7185 17.4264 19.6504 17.263 19.6504 17.0925C19.6504 16.9221 19.7185 16.7587 19.8397 16.6382C19.961 16.5177 20.1254 16.45 20.2968 16.45C20.4683 16.45 20.6327 16.5177 20.7539 16.6382C20.8752 16.7587 20.9433 16.9221 20.9433 17.0925V17.0925Z"/><path fill="url(#paint12_linear_6032_10358)" d="M12.9872 21.1048C12.9872 21.2752 12.9191 21.4386 12.7979 21.5591C12.6767 21.6796 12.5122 21.7474 12.3408 21.7474C12.1693 21.7474 12.0049 21.6796 11.8837 21.5591C11.7624 21.4386 11.6943 21.2752 11.6943 21.1048C11.6943 20.9343 11.7624 20.7709 11.8837 20.6504C12.0049 20.5299 12.1693 20.4622 12.3408 20.4622C12.5122 20.4622 12.6767 20.5299 12.7979 20.6504C12.9191 20.7709 12.9872 20.9343 12.9872 21.1048V21.1048Z"/><path fill="url(#paint13_linear_6032_10358)" d="M16.8788 21.1048C16.8788 21.2752 16.8107 21.4386 16.6895 21.5591C16.5683 21.6796 16.4038 21.7474 16.2324 21.7474C16.0609 21.7474 15.8965 21.6796 15.7753 21.5591C15.654 21.4386 15.5859 21.2752 15.5859 21.1048C15.5859 20.9343 15.654 20.7709 15.7753 20.6504C15.8965 20.5299 16.0609 20.4622 16.2324 20.4622C16.4038 20.4622 16.5683 20.5299 16.6895 20.6504C16.8107 20.7709 16.8788 20.9343 16.8788 21.1048V21.1048Z"/><path fill="url(#paint14_linear_6032_10358)" d="M10.8747 17.0927C10.8747 17.2413 10.8153 17.3838 10.7096 17.4888C10.6039 17.5939 10.4606 17.6529 10.3111 17.6529C10.1617 17.6529 10.0183 17.5939 9.91262 17.4888C9.80693 17.3838 9.74756 17.2413 9.74756 17.0927C9.74756 16.9441 9.80693 16.8016 9.91262 16.6966C10.0183 16.5915 10.1617 16.5325 10.3111 16.5325C10.4606 16.5325 10.6039 16.5915 10.7096 16.6966C10.8153 16.8016 10.8747 16.9441 10.8747 17.0927V17.0927Z"/><path fill="url(#paint15_linear_6032_10358)" d="M10.8747 19.0946C10.8747 19.2432 10.8153 19.3857 10.7096 19.4908C10.6039 19.5958 10.4606 19.6548 10.3111 19.6548C10.1617 19.6548 10.0183 19.5958 9.91262 19.4908C9.80693 19.3857 9.74756 19.2432 9.74756 19.0946C9.74756 18.9461 9.80693 18.8036 9.91262 18.6985C10.0183 18.5934 10.1617 18.5344 10.3111 18.5344C10.4606 18.5344 10.6039 18.5934 10.7096 18.6985C10.8153 18.8036 10.8747 18.9461 10.8747 19.0946V19.0946Z"/><path fill="url(#paint16_linear_6032_10358)" d="M12.9045 19.0946C12.9045 19.2432 12.8451 19.3857 12.7394 19.4908C12.6337 19.5958 12.4904 19.6548 12.3409 19.6548C12.1914 19.6548 12.0481 19.5958 11.9424 19.4908C11.8367 19.3857 11.7773 19.2432 11.7773 19.0946C11.7773 18.9461 11.8367 18.8036 11.9424 18.6985C12.0481 18.5934 12.1914 18.5344 12.3409 18.5344C12.4904 18.5344 12.6337 18.5934 12.7394 18.6985C12.8451 18.8036 12.9045 18.9461 12.9045 19.0946V19.0946Z"/><path fill="url(#paint17_linear_6032_10358)" d="M16.7961 11.2021C16.7961 11.3506 16.7367 11.4931 16.631 11.5982C16.5253 11.7032 16.382 11.7623 16.2325 11.7623C16.083 11.7623 15.9397 11.7032 15.834 11.5982C15.7283 11.4931 15.6689 11.3506 15.6689 11.2021C15.6689 11.0535 15.7283 10.911 15.834 10.8059C15.9397 10.7009 16.083 10.6418 16.2325 10.6418C16.382 10.6418 16.5253 10.7009 16.631 10.8059C16.7367 10.911 16.7961 11.0535 16.7961 11.2021V11.2021Z"/><path fill="url(#paint18_linear_6032_10358)" d="M9.02873 17.0925C9.02873 17.263 8.96062 17.4264 8.83939 17.5469C8.71816 17.6674 8.55373 17.7351 8.38229 17.7351C8.21084 17.7351 8.04641 17.6674 7.92518 17.5469C7.80395 17.4264 7.73584 17.263 7.73584 17.0925C7.73584 16.9221 7.80395 16.7587 7.92518 16.6382C8.04641 16.5177 8.21084 16.45 8.38229 16.45C8.55373 16.45 8.71816 16.5177 8.83939 16.6382C8.96062 16.7587 9.02873 16.9221 9.02873 17.0925V17.0925Z"/><path fill="url(#paint19_linear_6032_10358)" d="M18.7326 13.134C18.7326 13.1881 18.722 13.2418 18.7012 13.2918C18.6804 13.3418 18.6498 13.3873 18.6114 13.4256C18.5729 13.4638 18.5272 13.4942 18.4769 13.515C18.4266 13.5357 18.3726 13.5464 18.3182 13.5464C18.2637 13.5464 18.2098 13.5357 18.1595 13.515C18.1092 13.4942 18.0635 13.4638 18.025 13.4256C17.9865 13.3873 17.956 13.3418 17.9352 13.2918C17.9144 13.2418 17.9038 13.1881 17.9038 13.134C17.9038 13.0799 17.9144 13.0263 17.9352 12.9763C17.956 12.9262 17.9865 12.8808 18.025 12.8425C18.0635 12.8042 18.1092 12.7738 18.1595 12.7531C18.2098 12.7323 18.2637 12.7217 18.3182 12.7217C18.3726 12.7217 18.4266 12.7323 18.4769 12.7531C18.5272 12.7738 18.5729 12.8042 18.6114 12.8425C18.6498 12.8808 18.6804 12.9262 18.7012 12.9763C18.722 13.0263 18.7326 13.0799 18.7326 13.134V13.134Z"/><path fill="url(#paint20_linear_6032_10358)" d="M18.7326 15.1814C18.7326 15.2355 18.722 15.2891 18.7012 15.3391C18.6804 15.3892 18.6498 15.4346 18.6114 15.4729C18.5729 15.5112 18.5272 15.5416 18.4769 15.5623C18.4266 15.583 18.3726 15.5937 18.3182 15.5937C18.2637 15.5937 18.2098 15.583 18.1595 15.5623C18.1092 15.5416 18.0635 15.5112 18.025 15.4729C17.9865 15.4346 17.956 15.3892 17.9352 15.3391C17.9144 15.2891 17.9038 15.2355 17.9038 15.1814C17.9038 15.1273 17.9144 15.0736 17.9352 15.0236C17.956 14.9736 17.9865 14.9281 18.025 14.8898C18.0635 14.8515 18.1092 14.8212 18.1595 14.8004C18.2098 14.7797 18.2637 14.769 18.3182 14.769C18.3726 14.769 18.4266 14.7797 18.4769 14.8004C18.5272 14.8212 18.5729 14.8515 18.6114 14.8898C18.6498 14.9281 18.6804 14.9736 18.7012 15.0236C18.722 15.0736 18.7326 15.1273 18.7326 15.1814V15.1814Z"/><path fill="url(#paint21_linear_6032_10358)" d="M18.7326 17.0925C18.7326 17.1466 18.722 17.2002 18.7012 17.2503C18.6804 17.3003 18.6498 17.3458 18.6114 17.3841C18.5729 17.4223 18.5272 17.4527 18.4769 17.4735C18.4266 17.4942 18.3726 17.5048 18.3182 17.5048C18.2637 17.5048 18.2098 17.4942 18.1595 17.4735C18.1092 17.4527 18.0635 17.4223 18.025 17.3841C17.9865 17.3458 17.956 17.3003 17.9352 17.2503C17.9144 17.2002 17.9038 17.1466 17.9038 17.0925C17.9038 17.0384 17.9144 16.9848 17.9352 16.9347C17.956 16.8847 17.9865 16.8393 18.025 16.801C18.0635 16.7627 18.1092 16.7323 18.1595 16.7116C18.2098 16.6908 18.2637 16.6802 18.3182 16.6802C18.3726 16.6802 18.4266 16.6908 18.4769 16.7116C18.5272 16.7323 18.5729 16.7627 18.6114 16.801C18.6498 16.8393 18.6804 16.8847 18.7012 16.9347C18.722 16.9848 18.7326 17.0384 18.7326 17.0925V17.0925Z"/><path fill="url(#paint22_linear_6032_10358)" d="M14.7223 19.0945C14.7224 19.1486 14.7117 19.2022 14.6909 19.2522C14.6701 19.3022 14.6396 19.3477 14.6011 19.386C14.5626 19.4243 14.5169 19.4547 14.4666 19.4754C14.4163 19.4961 14.3624 19.5068 14.3079 19.5068C14.2535 19.5068 14.1996 19.4961 14.1493 19.4754C14.099 19.4547 14.0533 19.4243 14.0148 19.386C13.9763 19.3477 13.9458 19.3022 13.925 19.2522C13.9042 19.2022 13.8935 19.1486 13.8936 19.0945C13.8935 19.0403 13.9042 18.9867 13.925 18.9367C13.9458 18.8867 13.9763 18.8412 14.0148 18.8029C14.0533 18.7646 14.099 18.7343 14.1493 18.7135C14.1996 18.6928 14.2535 18.6821 14.3079 18.6821C14.3624 18.6821 14.4163 18.6928 14.4666 18.7135C14.5169 18.7343 14.5626 18.7646 14.6011 18.8029C14.6396 18.8412 14.6701 18.8867 14.6909 18.9367C14.7117 18.9867 14.7224 19.0403 14.7223 19.0945V19.0945Z"/><path fill="url(#paint23_linear_6032_10358)" d="M16.6466 19.0945C16.6467 19.1486 16.636 19.2022 16.6152 19.2522C16.5944 19.3022 16.5639 19.3477 16.5254 19.386C16.4869 19.4243 16.4412 19.4547 16.3909 19.4754C16.3406 19.4961 16.2867 19.5068 16.2323 19.5068C16.1778 19.5068 16.1239 19.4961 16.0736 19.4754C16.0233 19.4547 15.9776 19.4243 15.9391 19.386C15.9006 19.3477 15.8701 19.3022 15.8493 19.2522C15.8285 19.2022 15.8178 19.1486 15.8179 19.0945C15.8178 19.0403 15.8285 18.9867 15.8493 18.9367C15.8701 18.8867 15.9006 18.8412 15.9391 18.8029C15.9776 18.7646 16.0233 18.7343 16.0736 18.7135C16.1239 18.6928 16.1778 18.6821 16.2323 18.6821C16.2867 18.6821 16.3406 18.6928 16.3909 18.7135C16.4412 18.7343 16.4869 18.7646 16.5254 18.8029C16.5639 18.8412 16.5944 18.8867 16.6152 18.9367C16.636 18.9867 16.6467 19.0403 16.6466 19.0945V19.0945Z"/><path fill="#fff" d="M13.1367 7.1654C13.1367 7.60219 12.7804 7.95629 12.341 7.95629C11.9016 7.95629 11.5454 7.60219 11.5454 7.1654C11.5454 6.7286 11.9016 6.37451 12.341 6.37451C12.7804 6.37451 13.1367 6.7286 13.1367 7.1654V7.1654Z"/><path fill="#fff" d="M15.1035 7.1654C15.1035 7.60219 14.7472 7.95629 14.3078 7.95629C13.8684 7.95629 13.5122 7.60219 13.5122 7.1654C13.5122 6.7286 13.8684 6.37451 14.3078 6.37451C14.7472 6.37451 15.1035 6.7286 15.1035 7.1654V7.1654Z"/><path fill="#fff" d="M17.0283 7.1654C17.0283 7.60219 16.672 7.95629 16.2326 7.95629C15.7932 7.95629 15.437 7.60219 15.437 7.1654C15.437 6.7286 15.7932 6.37451 16.2326 6.37451C16.672 6.37451 17.0283 6.7286 17.0283 7.1654V7.1654Z"/><path fill="#fff" d="M13.1367 23.1644C13.1367 23.6012 12.7804 23.9553 12.341 23.9553C11.9016 23.9553 11.5454 23.6012 11.5454 23.1644C11.5454 22.7276 11.9016 22.3735 12.341 22.3735C12.7804 22.3735 13.1367 22.7276 13.1367 23.1644V23.1644Z"/><path fill="#fff" d="M15.1035 23.1644C15.1035 23.6012 14.7472 23.9553 14.3078 23.9553C13.8684 23.9553 13.5122 23.6012 13.5122 23.1644C13.5122 22.7276 13.8684 22.3735 14.3078 22.3735C14.7472 22.3735 15.1035 22.7276 15.1035 23.1644V23.1644Z"/><path fill="#fff" d="M17.0283 23.1644C17.0283 23.6012 16.672 23.9553 16.2326 23.9553C15.7932 23.9553 15.437 23.6012 15.437 23.1644C15.437 22.7276 15.7932 22.3735 16.2326 22.3735C16.672 22.3735 17.0283 22.7276 17.0283 23.1644V23.1644Z"/><path fill="#fff" d="M9.17768 9.17565C9.17768 9.61245 8.82146 9.96654 8.38205 9.96654C7.94264 9.96654 7.58643 9.61245 7.58643 9.17565C7.58643 8.73886 7.94264 8.38477 8.38205 8.38477C8.82146 8.38477 9.17768 8.73886 9.17768 9.17565V9.17565Z"/><path fill="#fff" d="M11.1069 9.17565C11.1069 9.61245 10.7507 9.96654 10.3113 9.96654C9.87184 9.96654 9.51562 9.61245 9.51562 9.17565C9.51562 8.73886 9.87184 8.38477 10.3113 8.38477C10.7507 8.38477 11.1069 8.73886 11.1069 9.17565V9.17565Z"/><path fill="#fff" d="M19.1137 9.17565C19.1137 9.61245 18.7575 9.96654 18.3181 9.96654C17.8787 9.96654 17.5225 9.61245 17.5225 9.17565C17.5225 8.73886 17.8787 8.38477 18.3181 8.38477C18.7575 8.38477 19.1137 8.73886 19.1137 9.17565V9.17565Z"/><path fill="#fff" d="M21.0927 9.17565C21.0927 9.61245 20.7365 9.96654 20.2971 9.96654C19.8577 9.96654 19.5015 9.61245 19.5015 9.17565C19.5015 8.73886 19.8577 8.38477 20.2971 8.38477C20.7365 8.38477 21.0927 8.73886 21.0927 9.17565V9.17565Z"/><path fill="#fff" d="M5.13031 13.1341C5.13031 13.5709 4.7741 13.925 4.33469 13.925C3.89528 13.925 3.53906 13.5709 3.53906 13.1341C3.53906 12.6974 3.89528 12.3433 4.33469 12.3433C4.7741 12.3433 5.13031 12.6974 5.13031 13.1341V13.1341Z"/><path fill="#fff" d="M7.12885 13.1341C7.12885 13.5709 6.77264 13.925 6.33322 13.925C5.89381 13.925 5.5376 13.5709 5.5376 13.1341C5.5376 12.6974 5.89381 12.3433 6.33322 12.3433C6.77264 12.3433 7.12885 12.6974 7.12885 13.1341V13.1341Z"/><path fill="#fff" d="M5.13031 15.1813C5.13031 15.6181 4.7741 15.9722 4.33469 15.9722C3.89528 15.9722 3.53906 15.6181 3.53906 15.1813C3.53906 14.7445 3.89528 14.3904 4.33469 14.3904C4.7741 14.3904 5.13031 14.7445 5.13031 15.1813V15.1813Z"/><path fill="#fff" d="M7.12885 15.1813C7.12885 15.6181 6.77264 15.9722 6.33322 15.9722C5.89381 15.9722 5.5376 15.6181 5.5376 15.1813C5.5376 14.7445 5.89381 14.3904 6.33322 14.3904C6.77264 14.3904 7.12885 14.7445 7.12885 15.1813V15.1813Z"/><path fill="#fff" d="M5.13031 17.0926C5.13031 17.5294 4.7741 17.8835 4.33469 17.8835C3.89528 17.8835 3.53906 17.5294 3.53906 17.0926C3.53906 16.6558 3.89528 16.3018 4.33469 16.3018C4.7741 16.3018 5.13031 16.6558 5.13031 17.0926V17.0926Z"/><path fill="#fff" d="M7.12885 17.0926C7.12885 17.5294 6.77264 17.8835 6.33322 17.8835C5.89381 17.8835 5.5376 17.5294 5.5376 17.0926C5.5376 16.6558 5.89381 16.3018 6.33322 16.3018C6.77264 16.3018 7.12885 16.6558 7.12885 17.0926V17.0926Z"/><path fill="#fff" d="M23.1406 13.1341C23.1406 13.5709 22.7844 13.925 22.3449 13.925C21.9055 13.925 21.5493 13.5709 21.5493 13.1341C21.5493 12.6974 21.9055 12.3433 22.3449 12.3433C22.7844 12.3433 23.1406 12.6974 23.1406 13.1341V13.1341Z"/><path fill="#fff" d="M25.1411 13.1341C25.1411 13.5709 24.7848 13.925 24.3454 13.925C23.906 13.925 23.5498 13.5709 23.5498 13.1341C23.5498 12.6974 23.906 12.3433 24.3454 12.3433C24.7848 12.3433 25.1411 12.6974 25.1411 13.1341V13.1341Z"/><path fill="#fff" d="M23.1406 15.1813C23.1406 15.6181 22.7844 15.9722 22.3449 15.9722C21.9055 15.9722 21.5493 15.6181 21.5493 15.1813C21.5493 14.7445 21.9055 14.3904 22.3449 14.3904C22.7844 14.3904 23.1406 14.7445 23.1406 15.1813V15.1813Z"/><path fill="#fff" d="M25.1411 15.1813C25.1411 15.6181 24.7848 15.9722 24.3454 15.9722C23.906 15.9722 23.5498 15.6181 23.5498 15.1813C23.5498 14.7445 23.906 14.3904 24.3454 14.3904C24.7848 14.3904 25.1411 14.7445 25.1411 15.1813V15.1813Z"/><path fill="#fff" d="M23.1406 17.0926C23.1406 17.5294 22.7844 17.8835 22.3449 17.8835C21.9055 17.8835 21.5493 17.5294 21.5493 17.0926C21.5493 16.6558 21.9055 16.3018 22.3449 16.3018C22.7844 16.3018 23.1406 16.6558 23.1406 17.0926V17.0926Z"/><path fill="#fff" d="M25.1411 17.0926C25.1411 17.5294 24.7848 17.8835 24.3454 17.8835C23.906 17.8835 23.5498 17.5294 23.5498 17.0926C23.5498 16.6558 23.906 16.3018 24.3454 16.3018C24.7848 16.3018 25.1411 16.6558 25.1411 17.0926V17.0926Z"/><path fill="#fff" d="M19.1137 21.1049C19.1137 21.5416 18.7575 21.8957 18.3181 21.8957C17.8787 21.8957 17.5225 21.5416 17.5225 21.1049C17.5225 20.6681 17.8787 20.314 18.3181 20.314C18.7575 20.314 19.1137 20.6681 19.1137 21.1049V21.1049Z"/><path fill="#fff" d="M21.0927 21.1049C21.0927 21.5416 20.7365 21.8957 20.2971 21.8957C19.8577 21.8957 19.5015 21.5416 19.5015 21.1049C19.5015 20.6681 19.8577 20.314 20.2971 20.314C20.7365 20.314 21.0927 20.6681 21.0927 21.1049V21.1049Z"/><path fill="#fff" d="M9.17768 21.1049C9.17768 21.5416 8.82146 21.8957 8.38205 21.8957C7.94264 21.8957 7.58643 21.5416 7.58643 21.1049C7.58643 20.6681 7.94264 20.314 8.38205 20.314C8.82146 20.314 9.17768 20.6681 9.17768 21.1049V21.1049Z"/><path fill="#fff" d="M11.1069 21.1049C11.1069 21.5416 10.7507 21.8957 10.3113 21.8957C9.87184 21.8957 9.51562 21.5416 9.51562 21.1049C9.51562 20.6681 9.87184 20.314 10.3113 20.314C10.7507 20.314 11.1069 20.6681 11.1069 21.1049V21.1049Z"/><path fill="#fff" d="M13.1367 13.1341C13.1367 13.5709 12.7804 13.925 12.341 13.925C11.9016 13.925 11.5454 13.5709 11.5454 13.1341C11.5454 12.6974 11.9016 12.3433 12.341 12.3433C12.7804 12.3433 13.1367 12.6974 13.1367 13.1341V13.1341Z"/><path fill="#fff" d="M15.1035 13.1341C15.1035 13.5709 14.7472 13.925 14.3078 13.925C13.8684 13.925 13.5122 13.5709 13.5122 13.1341C13.5122 12.6974 13.8684 12.3433 14.3078 12.3433C14.7472 12.3433 15.1035 12.6974 15.1035 13.1341V13.1341Z"/><path fill="#fff" d="M7.12885 11.2023C7.12885 11.6391 6.77264 11.9932 6.33322 11.9932C5.89381 11.9932 5.5376 11.6391 5.5376 11.2023C5.5376 10.7655 5.89381 10.4114 6.33322 10.4114C6.77264 10.4114 7.12885 10.7655 7.12885 11.2023V11.2023Z"/><path fill="#fff" d="M7.12885 19.0946C7.12885 19.5314 6.77264 19.8855 6.33322 19.8855C5.89381 19.8855 5.5376 19.5314 5.5376 19.0946C5.5376 18.6578 5.89381 18.3037 6.33322 18.3037C6.77264 18.3037 7.12885 18.6578 7.12885 19.0946V19.0946Z"/><path fill="#fff" d="M23.1406 11.2023C23.1406 11.6391 22.7844 11.9932 22.3449 11.9932C21.9055 11.9932 21.5493 11.6391 21.5493 11.2023C21.5493 10.7655 21.9055 10.4114 22.3449 10.4114C22.7844 10.4114 23.1406 10.7655 23.1406 11.2023V11.2023Z"/><path fill="#fff" d="M23.1406 19.0946C23.1406 19.5314 22.7844 19.8855 22.3449 19.8855C21.9055 19.8855 21.5493 19.5314 21.5493 19.0946C21.5493 18.6578 21.9055 18.3037 22.3449 18.3037C22.7844 18.3037 23.1406 18.6578 23.1406 19.0946V19.0946Z"/><path fill="#fff" d="M9.02873 11.2022C9.02873 11.5571 8.73931 11.8448 8.38229 11.8448C8.02526 11.8448 7.73584 11.5571 7.73584 11.2022C7.73584 10.8473 8.02526 10.5596 8.38229 10.5596C8.73931 10.5596 9.02873 10.8473 9.02873 11.2022Z"/><path fill="#fff" d="M12.9872 11.2022C12.9872 11.5571 12.6978 11.8448 12.3408 11.8448C11.9838 11.8448 11.6943 11.5571 11.6943 11.2022C11.6943 10.8473 11.9838 10.5596 12.3408 10.5596C12.6978 10.5596 12.9872 10.8473 12.9872 11.2022Z"/><path fill="#fff" d="M14.954 11.2022C14.954 11.5571 14.6646 11.8448 14.3076 11.8448C13.9506 11.8448 13.6611 11.5571 13.6611 11.2022C13.6611 10.8473 13.9506 10.5596 14.3076 10.5596C14.6646 10.5596 14.954 10.8473 14.954 11.2022Z"/><path fill="#fff" d="M20.9433 11.2022C20.9433 11.5571 20.6539 11.8448 20.2968 11.8448C19.9398 11.8448 19.6504 11.5571 19.6504 11.2022C19.6504 10.8473 19.9398 10.5596 20.2968 10.5596C20.6539 10.5596 20.9433 10.8473 20.9433 11.2022Z"/><path fill="#fff" d="M10.9579 13.1341C10.9579 13.4889 10.6685 13.7766 10.3115 13.7766C9.95446 13.7766 9.66504 13.4889 9.66504 13.1341C9.66504 12.7792 9.95446 12.4915 10.3115 12.4915C10.6685 12.4915 10.9579 12.7792 10.9579 13.1341Z"/><path fill="#fff" d="M14.954 15.1814C14.954 15.5363 14.6646 15.824 14.3076 15.824C13.9506 15.824 13.6611 15.5363 13.6611 15.1814C13.6611 14.8265 13.9506 14.5388 14.3076 14.5388C14.6646 14.5388 14.954 14.8265 14.954 15.1814Z"/><path fill="#fff" d="M20.9433 19.0945C20.9433 19.4494 20.6539 19.7371 20.2968 19.7371C19.9398 19.7371 19.6504 19.4494 19.6504 19.0945C19.6504 18.7396 19.9398 18.4519 20.2968 18.4519C20.6539 18.4519 20.9433 18.7396 20.9433 19.0945Z"/><path fill="#fff" d="M9.02873 19.0945C9.02873 19.4494 8.73931 19.7371 8.38229 19.7371C8.02526 19.7371 7.73584 19.4494 7.73584 19.0945C7.73584 18.7396 8.02526 18.4519 8.38229 18.4519C8.73931 18.4519 9.02873 18.7396 9.02873 19.0945Z"/><path fill="#fff" d="M12.9872 15.1814C12.9872 15.5363 12.6978 15.824 12.3408 15.824C11.9838 15.824 11.6943 15.5363 11.6943 15.1814C11.6943 14.8265 11.9838 14.5388 12.3408 14.5388C12.6978 14.5388 12.9872 14.8265 12.9872 15.1814Z"/><path fill="#fff" d="M6.89667 9.17569C6.89667 9.48509 6.64435 9.7359 6.3331 9.7359C6.02185 9.7359 5.76953 9.48509 5.76953 9.17569C5.76953 8.86629 6.02185 8.61548 6.3331 8.61548C6.64435 8.61548 6.89667 8.86629 6.89667 9.17569Z"/><path fill="#fff" d="M10.8747 15.1813C10.8747 15.4907 10.6224 15.7415 10.3111 15.7415C9.99988 15.7415 9.74756 15.4907 9.74756 15.1813C9.74756 14.8719 9.99988 14.6211 10.3111 14.6211C10.6224 14.6211 10.8747 14.8719 10.8747 15.1813Z"/><path fill="#fff" d="M10.8747 23.1645C10.8747 23.4739 10.6224 23.7247 10.3111 23.7247C9.99988 23.7247 9.74756 23.4739 9.74756 23.1645C9.74756 22.8551 9.99988 22.6042 10.3111 22.6042C10.6224 22.6042 10.8747 22.8551 10.8747 23.1645Z"/><path fill="#fff" d="M18.8815 23.1645C18.8815 23.4739 18.6292 23.7247 18.318 23.7247C18.0067 23.7247 17.7544 23.4739 17.7544 23.1645C17.7544 22.8551 18.0067 22.6042 18.318 22.6042C18.6292 22.6042 18.8815 22.8551 18.8815 23.1645Z"/><path fill="#fff" d="M6.89667 21.1049C6.89667 21.4143 6.64435 21.6651 6.3331 21.6651C6.02185 21.6651 5.76953 21.4143 5.76953 21.1049C5.76953 20.7955 6.02185 20.5447 6.3331 20.5447C6.64435 20.5447 6.89667 20.7955 6.89667 21.1049Z"/><path fill="#fff" d="M2.86151 15.1813C2.86151 15.4907 2.60919 15.7415 2.29794 15.7415C1.98669 15.7415 1.73438 15.4907 1.73438 15.1813C1.73438 14.8719 1.98669 14.6211 2.29794 14.6211C2.60919 14.6211 2.86151 14.8719 2.86151 15.1813Z"/><path fill="#fff" d="M26.7634 15.1813C26.7634 15.4907 26.511 15.7415 26.1998 15.7415C25.8885 15.7415 25.6362 15.4907 25.6362 15.1813C25.6362 14.8719 25.8885 14.6211 26.1998 14.6211C26.511 14.6211 26.7634 14.8719 26.7634 15.1813Z"/><path fill="#fff" d="M10.8747 7.16544C10.8747 7.47483 10.6224 7.72565 10.3111 7.72565C9.99988 7.72565 9.74756 7.47483 9.74756 7.16544C9.74756 6.85604 9.99988 6.60522 10.3111 6.60522C10.6224 6.60522 10.8747 6.85604 10.8747 7.16544Z"/><path fill="#fff" d="M18.8815 7.16544C18.8815 7.47483 18.6292 7.72565 18.318 7.72565C18.0067 7.72565 17.7544 7.47483 17.7544 7.16544C17.7544 6.85604 18.0067 6.60522 18.318 6.60522C18.6292 6.60522 18.8815 6.85604 18.8815 7.16544Z"/><path fill="#fff" d="M22.9089 9.17569C22.9089 9.48509 22.6566 9.7359 22.3453 9.7359C22.0341 9.7359 21.7817 9.48509 21.7817 9.17569C21.7817 8.86629 22.0341 8.61548 22.3453 8.61548C22.6566 8.61548 22.9089 8.86629 22.9089 9.17569Z"/><path fill="#fff" d="M4.74919 11.2022C4.74919 11.4297 4.56366 11.6141 4.3348 11.6141C4.10594 11.6141 3.92041 11.4297 3.92041 11.2022C3.92041 10.9747 4.10594 10.7903 4.3348 10.7903C4.56366 10.7903 4.74919 10.9747 4.74919 11.2022Z"/><path fill="#fff" d="M24.7599 11.2022C24.7599 11.4297 24.5744 11.6141 24.3455 11.6141C24.1167 11.6141 23.9312 11.4297 23.9312 11.2022C23.9312 10.9747 24.1167 10.7903 24.3455 10.7903C24.5744 10.7903 24.7599 10.9747 24.7599 11.2022Z"/><path fill="#fff" d="M16.6471 13.1341C16.6471 13.3616 16.4616 13.546 16.2327 13.546C16.0039 13.546 15.8184 13.3616 15.8184 13.1341C15.8184 12.9066 16.0039 12.7222 16.2327 12.7222C16.4616 12.7222 16.6471 12.9066 16.6471 13.1341Z"/><path fill="#fff" d="M16.6471 15.1815C16.6471 15.4089 16.4616 15.5934 16.2327 15.5934C16.0039 15.5934 15.8184 15.4089 15.8184 15.1815C15.8184 14.954 16.0039 14.7695 16.2327 14.7695C16.4616 14.7695 16.6471 14.954 16.6471 15.1815Z"/><path fill="#fff" d="M12.755 17.0926C12.755 17.3201 12.5695 17.5045 12.3407 17.5045C12.1118 17.5045 11.9263 17.3201 11.9263 17.0926C11.9263 16.8651 12.1118 16.6807 12.3407 16.6807C12.5695 16.6807 12.755 16.8651 12.755 17.0926Z"/><path fill="#fff" d="M4.74919 19.0945C4.74919 19.322 4.56366 19.5065 4.3348 19.5065C4.10594 19.5065 3.92041 19.322 3.92041 19.0945C3.92041 18.867 4.10594 18.6826 4.3348 18.6826C4.56366 18.6826 4.74919 18.867 4.74919 19.0945Z"/><path fill="#fff" d="M24.7599 19.0945C24.7599 19.322 24.5744 19.5065 24.3455 19.5065C24.1167 19.5065 23.9312 19.322 23.9312 19.0945C23.9312 18.867 24.1167 18.6826 24.3455 18.6826C24.5744 18.6826 24.7599 18.867 24.7599 19.0945Z"/><path fill="#fff" d="M22.7594 21.1048C22.7594 21.3323 22.5739 21.5167 22.3451 21.5167C22.1162 21.5167 21.9307 21.3323 21.9307 21.1048C21.9307 20.8773 22.1162 20.6929 22.3451 20.6929C22.5739 20.6929 22.7594 20.8773 22.7594 21.1048Z"/><path fill="#fff" d="M14.606 17.0927C14.606 17.2565 14.4724 17.3893 14.3076 17.3893C14.1429 17.3893 14.0093 17.2565 14.0093 17.0927C14.0093 16.9289 14.1429 16.7961 14.3076 16.7961C14.4724 16.7961 14.606 16.9289 14.606 17.0927Z"/><path fill="#565252" d="M38.5724 16.1493C38.2695 16.581 37.9358 16.8982 37.5715 17.1008C37.2072 17.3035 36.7856 17.4048 36.3067 17.4048C35.4675 17.4048 34.7737 17.0502 34.2251 16.3409C33.6766 15.6273 33.4023 14.7198 33.4023 13.6185C33.4023 12.5128 33.6766 11.6076 34.2251 10.9027C34.7737 10.1935 35.4675 9.83888 36.3067 9.83887C36.7856 9.83888 37.2072 9.94019 37.5715 10.1428C37.9358 10.3455 38.2695 10.6648 38.5724 11.101V10.0041H40.7829V16.6581C40.7829 17.8475 40.4329 18.755 39.7329 19.3805C39.037 20.0105 38.0259 20.3254 36.6996 20.3254C36.2698 20.3254 35.8543 20.2902 35.4532 20.2197C35.052 20.1492 34.6488 20.0413 34.2435 19.8959V18.0524C34.6283 18.2902 35.0049 18.4664 35.3733 18.581C35.7418 18.6999 36.1122 18.7594 36.4847 18.7594C37.2052 18.7594 37.7332 18.5898 38.0689 18.2506C38.4046 17.9114 38.5724 17.3806 38.5724 16.6581V16.1493M37.1233 11.5437C36.6689 11.5437 36.3148 11.7243 36.061 12.0855C35.8073 12.4467 35.6804 12.9578 35.6804 13.6185C35.6804 14.2969 35.8032 14.8123 36.0488 15.1647C36.2944 15.5128 36.6526 15.6868 37.1233 15.6868C37.5818 15.6868 37.9379 15.5062 38.1917 15.1449C38.4455 14.7837 38.5724 14.2749 38.5724 13.6185C38.5724 12.9578 38.4455 12.4467 38.1917 12.0855C37.9379 11.7243 37.5818 11.5437 37.1233 11.5437Z"/><path fill="#565252" d="M45.4472 11.5173C44.9601 11.5173 44.5876 11.7067 44.3297 12.0855C44.0759 12.46 43.949 13.0018 43.949 13.7111C43.949 14.4203 44.0759 14.9643 44.3297 15.3432C44.5876 15.7176 44.9601 15.9049 45.4472 15.9049C45.9261 15.9049 46.2925 15.7176 46.5463 15.3432C46.8001 14.9643 46.927 14.4203 46.927 13.7111C46.927 13.0018 46.8001 12.46 46.5463 12.0855C46.2925 11.7067 45.9261 11.5173 45.4472 11.5173M45.4472 9.82568C46.6302 9.82569 47.5533 10.1693 48.2164 10.8565C48.8836 11.5437 49.2173 12.4952 49.2173 13.7111C49.2173 14.9269 48.8836 15.8784 48.2164 16.5656C47.5533 17.2528 46.6302 17.5964 45.4472 17.5964C44.2601 17.5964 43.3309 17.2528 42.6595 16.5656C41.9923 15.8784 41.6587 14.9269 41.6587 13.7111C41.6587 12.4952 41.9923 11.5437 42.6595 10.8565C43.3309 10.1693 44.2601 9.82569 45.4472 9.82568Z"/><path fill="#565252" d="M50.0869 7.12305H52.2851V17.4048H50.0869V7.12305Z"/><path fill="#565252" d="M60.5417 13.6846V14.3586H55.4023C55.4555 14.9137 55.6418 15.33 55.9611 15.6075C56.2804 15.885 56.7265 16.0238 57.2996 16.0238C57.7622 16.0238 58.235 15.9511 58.718 15.8057C59.2051 15.656 59.7045 15.4313 60.2162 15.1317V16.9555C59.6963 17.1669 59.1765 17.3255 58.6566 17.4313C58.1367 17.5414 57.6169 17.5964 57.097 17.5964C55.8526 17.5964 54.8845 17.2573 54.1927 16.5789C53.505 15.896 53.1611 14.9401 53.1611 13.7111C53.1611 12.504 53.4988 11.5547 54.1743 10.8631C54.8538 10.1715 55.7871 9.82569 56.9742 9.82568C58.0549 9.82569 58.9186 10.1759 59.5654 10.8763C60.2162 11.5768 60.5416 12.5129 60.5417 13.6846M58.2821 12.8983C58.2821 12.449 58.1592 12.0878 57.9136 11.8146C57.6721 11.5371 57.3549 11.3983 56.9619 11.3983C56.5362 11.3983 56.1903 11.5283 55.9242 11.7882C55.6581 12.0437 55.4924 12.4137 55.4269 12.8983H58.2821Z"/><path fill="#565252" d="M67.8404 11.2331C68.1187 10.775 68.4483 10.427 68.829 10.1891C69.2137 9.94684 69.6354 9.82569 70.0938 9.82568C70.8839 9.82569 71.4856 10.0878 71.8991 10.612C72.3125 11.1362 72.5192 11.8983 72.5192 12.8983V17.4048H70.3088V13.5459C70.3128 13.4886 70.3149 13.4291 70.3149 13.3675C70.319 13.3058 70.321 13.2177 70.321 13.1031C70.321 12.5789 70.2494 12.2001 70.1061 11.9666C69.9628 11.7287 69.7316 11.6098 69.4123 11.6098C68.9947 11.6098 68.6714 11.7948 68.4421 12.1648C68.217 12.5349 68.1003 13.0701 68.0921 13.7705V17.4048H65.8817V13.5459C65.8817 12.7265 65.8162 12.2001 65.6852 11.9666C65.5542 11.7287 65.3209 11.6098 64.9852 11.6098C64.5636 11.6098 64.2381 11.797 64.0089 12.1715C63.7797 12.5415 63.6651 13.0723 63.6651 13.7639V17.4048H61.4546V10.0041H63.6651V11.0878C63.9352 10.6693 64.2443 10.3543 64.5922 10.1429C64.9443 9.93142 65.3311 9.82569 65.7527 9.82568C66.2276 9.82569 66.6471 9.94904 67.0115 10.1957C67.3758 10.4424 67.6521 10.7882 67.8404 11.2331"/><path fill="#565252" d="M74.0767 14.8477H76.2871V17.4049H74.0767V14.8477Z"/><path fill="#565252" d="M82.5846 11.0877V7.12305H84.7951V17.4048H82.5846V16.3343C82.2817 16.7704 81.9481 17.0898 81.5837 17.2924C81.2194 17.4951 80.7978 17.5964 80.3189 17.5964C79.4715 17.5964 78.7756 17.2352 78.2312 16.5127C77.6868 15.7859 77.4145 14.852 77.4146 13.711C77.4145 12.5701 77.6868 11.6384 78.2312 10.9159C78.7756 10.1891 79.4715 9.82564 80.3189 9.82563C80.7937 9.82564 81.2133 9.92916 81.5776 10.1362C81.946 10.3388 82.2817 10.656 82.5846 11.0877M81.1355 15.8784C81.6063 15.8784 81.9644 15.6934 82.21 15.3233C82.4597 14.9533 82.5846 14.4159 82.5846 13.711C82.5846 13.0062 82.4597 12.4688 82.21 12.0987C81.9644 11.7287 81.6063 11.5437 81.1355 11.5437C80.6689 11.5437 80.3107 11.7287 80.061 12.0987C79.8154 12.4688 79.6926 13.0062 79.6926 13.711C79.6926 14.4159 79.8154 14.9533 80.061 15.3233C80.3107 15.6934 80.6689 15.8784 81.1355 15.8784Z"/><path fill="#565252" d="M93.0514 13.6846V14.3586H87.9121C87.9653 14.9137 88.1515 15.33 88.4708 15.6075C88.7901 15.885 89.2363 16.0238 89.8094 16.0238C90.2719 16.0238 90.7447 15.9511 91.2278 15.8057C91.7149 15.656 92.2143 15.4313 92.726 15.1317V16.9555C92.2061 17.1669 91.6862 17.3255 91.1664 17.4313C90.6465 17.5414 90.1266 17.5964 89.6068 17.5964C88.3624 17.5964 87.3942 17.2573 86.7025 16.5789C86.0147 15.896 85.6709 14.9401 85.6709 13.7111C85.6709 12.504 86.0086 11.5547 86.684 10.8631C87.3635 10.1715 88.2969 9.82569 89.484 9.82568C90.5646 9.82569 91.4284 10.1759 92.0751 10.8763C92.726 11.5768 93.0514 12.5129 93.0514 13.6846M90.7918 12.8983C90.7918 12.449 90.669 12.0878 90.4234 11.8146C90.1819 11.5371 89.8647 11.3983 89.4717 11.3983C89.046 11.3983 88.7001 11.5283 88.434 11.7882C88.1679 12.0437 88.0021 12.4137 87.9366 12.8983H90.7918"/><path fill="#565252" d="M42.2393 20.123H42.6289V23.1803H42.2393V20.123"/><path fill="#565252" d="M43.5898 20.123H46.0261V20.4712H45.0037V23.1803H44.6122V20.4712H43.5898V20.123"/><path fill="#565252" d="M46.4312 21.8635H47.4708V22.1994H46.4312V21.8635Z"/><path fill="#565252" d="M48.6382 20.123H49.1629L50.4398 22.6807V20.123H50.8179V23.1803H50.2932L49.0163 20.6227V23.1803H48.6382V20.123"/><path fill="#565252" d="M52.1782 20.123H53.9991V20.4712H52.5679V21.3763H53.9393V21.7244H52.5679V22.8322H54.0339V23.1803H52.1782V20.123"/><path fill="#565252" d="M55.0059 20.123H55.3994L56.005 22.7073L56.6088 20.123H57.0467L57.6523 22.7073L58.2561 20.123H58.6515L57.9282 23.1803H57.4382L56.8306 20.5265L56.2172 23.1803H55.7273L55.0059 20.123"/><path fill="#565252" d="M61.4777 20.2235V20.6269C61.3298 20.5518 61.1903 20.4958 61.0591 20.459C60.928 20.4221 60.8013 20.4037 60.6792 20.4037C60.467 20.4037 60.303 20.4474 60.1873 20.5348C60.0728 20.6221 60.0156 20.7464 60.0156 20.9074C60.0156 21.0426 60.0535 21.145 60.1294 21.2146C60.2066 21.2829 60.3519 21.3381 60.5653 21.3805L60.8007 21.4317C61.0913 21.4904 61.3054 21.5941 61.443 21.7429C61.5819 21.8904 61.6513 22.0883 61.6513 22.3368C61.6513 22.633 61.5575 22.8576 61.3697 23.0105C61.1832 23.1634 60.9093 23.2398 60.548 23.2398C60.4117 23.2398 60.2664 23.2234 60.112 23.1907C59.959 23.1579 59.8002 23.1094 59.6356 23.0453V22.6193C59.7938 22.7135 59.9487 22.7845 60.1005 22.8323C60.2522 22.8801 60.4014 22.904 60.548 22.904C60.7704 22.904 60.9421 22.8576 61.063 22.7647C61.1839 22.6719 61.2443 22.5395 61.2443 22.3675C61.2443 22.2173 61.2006 22.0999 61.1132 22.0153C61.027 21.9306 60.8849 21.8671 60.6869 21.8248L60.4496 21.7757C60.159 21.7142 59.9487 21.618 59.8188 21.4869C59.689 21.3559 59.624 21.1736 59.624 20.9402C59.624 20.6699 59.7134 20.4569 59.8921 20.3013C60.0722 20.1457 60.3197 20.0679 60.6348 20.0679C60.7698 20.0679 60.9074 20.0808 61.0476 20.1068C61.1877 20.1327 61.3311 20.1716 61.4777 20.2235"/><path fill="#565252" d="M64.7832 20.123H66.4382V20.4712H65.1728V21.3722H66.3148V21.7203H65.1728V23.1803H64.7832V20.123"/><path fill="#565252" d="M67.5996 20.1231H67.9912V21.9804C67.9912 22.308 68.0471 22.5442 68.159 22.6889C68.2709 22.8322 68.4522 22.9039 68.703 22.9039C68.9524 22.9039 69.1331 22.8322 69.245 22.6889C69.3569 22.5442 69.4128 22.308 69.4128 21.9804V20.1231H69.8044V22.0316C69.8044 22.4302 69.7111 22.7312 69.5247 22.9346C69.3395 23.138 69.0656 23.2397 68.703 23.2397C68.339 23.2397 68.0638 23.138 67.8774 22.9346C67.6922 22.7312 67.5996 22.4302 67.5996 22.0316V20.1231M68.8843 19.3511H69.2759V19.7668H68.8843V19.3511ZM68.1301 19.3511H68.5216V19.7668H68.1301V19.3511Z"/><path fill="#565252" d="M72.4878 21.7469C72.5713 21.7769 72.6524 21.8411 72.7308 21.9394C72.8105 22.0377 72.8903 22.1728 72.97 22.3448L73.3654 23.1803H72.9468L72.5784 22.396C72.4833 22.1913 72.3907 22.0554 72.3007 21.9885C72.2119 21.9216 72.0904 21.8882 71.9361 21.8882H71.5117V23.1803H71.1221V20.123H72.0017C72.3309 20.123 72.5765 20.1961 72.7385 20.3422C72.9005 20.4882 72.9816 20.7087 72.9816 21.0036C72.9816 21.1961 72.9391 21.3558 72.8543 21.4827C72.7707 21.6097 72.6485 21.6978 72.4878 21.7469M71.5117 20.463V21.5483H72.0017C72.1894 21.5483 72.3309 21.5025 72.426 21.4111C72.5225 21.3182 72.5707 21.1824 72.5707 21.0036C72.5707 20.8247 72.5225 20.6903 72.426 20.6002C72.3309 20.5087 72.1894 20.463 72.0017 20.463H71.5117"/><path fill="#565252" d="M76.7827 20.463V21.6117H77.2727C77.454 21.6117 77.5941 21.5619 77.6932 21.4623C77.7922 21.3626 77.8417 21.2206 77.8417 21.0363C77.8417 20.8534 77.7922 20.7121 77.6932 20.6125C77.5941 20.5128 77.454 20.463 77.2727 20.463H76.7827ZM76.3931 20.123H77.2727C77.5954 20.123 77.8391 20.2009 78.0037 20.3565C78.1696 20.5108 78.2526 20.7374 78.2526 21.0363C78.2526 21.338 78.1696 21.566 78.0037 21.7203C77.8391 21.8745 77.5954 21.9517 77.2727 21.9517H76.7827V23.1803H76.3931V20.123"/><path fill="#565252" d="M80.7275 21.7469C80.8111 21.7769 80.8921 21.8411 80.9705 21.9394C81.0503 22.0377 81.13 22.1728 81.2097 22.3448L81.6052 23.1803H81.1866L80.8182 22.396C80.723 22.1913 80.6304 22.0554 80.5404 21.9885C80.4517 21.9216 80.3301 21.8882 80.1758 21.8882H79.7515V23.1803H79.3618V20.123H80.2414C80.5706 20.123 80.8162 20.1961 80.9783 20.3422C81.1403 20.4882 81.2213 20.7087 81.2213 21.0036C81.2213 21.1961 81.1789 21.3558 81.094 21.4827C81.0104 21.6097 80.8882 21.6978 80.7275 21.7469M79.7515 20.463V21.5483H80.2414C80.4292 21.5483 80.5706 21.5025 80.6658 21.4111C80.7622 21.3182 80.8104 21.1824 80.8104 21.0036C80.8104 20.8247 80.7622 20.6903 80.6658 20.6002C80.5706 20.5087 80.4292 20.463 80.2414 20.463H79.7515"/><path fill="#565252" d="M83.8622 20.4037C83.5793 20.4037 83.3542 20.5156 83.187 20.7395C83.0212 20.9634 82.9382 21.2685 82.9382 21.6549C82.9382 22.0398 83.0212 22.3443 83.187 22.5682C83.3542 22.792 83.5793 22.904 83.8622 22.904C84.1451 22.904 84.3688 22.792 84.5334 22.5682C84.6993 22.3443 84.7823 22.0398 84.7823 21.6549C84.7823 21.2685 84.6993 20.9634 84.5334 20.7395C84.3688 20.5156 84.1451 20.4037 83.8622 20.4037M83.8622 20.0679C84.266 20.0679 84.5887 20.2119 84.8305 20.4999C85.0722 20.7866 85.1931 21.1716 85.1931 21.6549C85.1931 22.1368 85.0722 22.5217 84.8305 22.8098C84.5887 23.0965 84.266 23.2398 83.8622 23.2398C83.4571 23.2398 83.133 23.0965 82.89 22.8098C82.6482 22.5231 82.5273 22.1381 82.5273 21.6549C82.5273 21.1716 82.6482 20.7866 82.89 20.4999C83.133 20.2119 83.4571 20.0679 83.8622 20.0679"/><path fill="#565252" d="M86.3877 20.123H88.0427V20.4712H86.7773V21.3722H87.9193V21.7203H86.7773V23.1803H86.3877V20.123"/><path fill="#565252" d="M89.2485 20.123H89.6382V23.1803H89.2485V20.123"/><path fill="#565252" d="M92.7243 20.2235V20.6269C92.5764 20.5518 92.4369 20.4958 92.3057 20.459C92.1746 20.4221 92.0479 20.4037 91.9257 20.4037C91.7135 20.4037 91.5496 20.4474 91.4339 20.5348C91.3194 20.6221 91.2622 20.7464 91.2622 20.9074C91.2622 21.0426 91.3001 21.145 91.376 21.2146C91.4531 21.2829 91.5985 21.3381 91.8119 21.3805L92.0473 21.4317C92.3379 21.4904 92.552 21.5941 92.6896 21.7429C92.8285 21.8904 92.8979 22.0883 92.8979 22.3368C92.8979 22.633 92.804 22.8576 92.6163 23.0105C92.4298 23.1634 92.1559 23.2398 91.7946 23.2398C91.6582 23.2398 91.5129 23.2234 91.3586 23.1907C91.2056 23.1579 91.0468 23.1094 90.8822 23.0453V22.6193C91.0404 22.7135 91.1953 22.7845 91.347 22.8323C91.4988 22.8801 91.648 22.904 91.7946 22.904C92.017 22.904 92.1887 22.8576 92.3096 22.7647C92.4305 22.6719 92.4909 22.5395 92.4909 22.3675C92.4909 22.2173 92.4472 22.0999 92.3597 22.0153C92.2736 21.9306 92.1315 21.8671 91.9334 21.8248L91.6962 21.7757C91.4056 21.7142 91.1953 21.618 91.0654 21.4869C90.9355 21.3559 90.8706 21.1736 90.8706 20.9402C90.8706 20.6699 90.96 20.4569 91.1387 20.3013C91.3188 20.1457 91.5663 20.0679 91.8814 20.0679C92.0164 20.0679 92.154 20.0808 92.2942 20.1068C92.4343 20.1327 92.5777 20.1716 92.7243 20.2235"/><defs><linearGradient id="paint0_linear_6032_10358" x1="9.429" x2="19.148" y1="10.283" y2="20.059" gradientUnits="userSpaceOnUse"><stop stop-color="#5BBFCD"/><stop offset="1" stop-color="#8BC154"/></linearGradient><linearGradient id="paint1_linear_6032_10358" x1="9.429" x2="19.148" y1="10.283" y2="20.059" gradientUnits="userSpaceOnUse"><stop stop-color="#5BBFCD"/><stop offset="1" stop-color="#8BC154"/></linearGradient><linearGradient id="paint2_linear_6032_10358" x1="9.429" x2="19.148" y1="10.283" y2="20.06" gradientUnits="userSpaceOnUse"><stop stop-color="#5BBFCD"/><stop offset="1" stop-color="#8BC154"/></linearGradient><linearGradient id="paint3_linear_6032_10358" x1="9.429" x2="19.148" y1="10.283" y2="20.06" gradientUnits="userSpaceOnUse"><stop stop-color="#5BBFCD"/><stop offset="1" stop-color="#8BC154"/></linearGradient><linearGradient id="paint4_linear_6032_10358" x1="9.429" x2="19.148" y1="10.283" y2="20.059" gradientUnits="userSpaceOnUse"><stop stop-color="#5BBFCD"/><stop offset="1" stop-color="#8BC154"/></linearGradient><linearGradient id="paint5_linear_6032_10358" x1="9.429" x2="19.148" y1="10.283" y2="20.059" gradientUnits="userSpaceOnUse"><stop stop-color="#5BBFCD"/><stop offset="1" stop-color="#8BC154"/></linearGradient><linearGradient id="paint6_linear_6032_10358" x1="9.429" x2="19.148" y1="10.283" y2="20.059" gradientUnits="userSpaceOnUse"><stop stop-color="#5BBFCD"/><stop offset="1" stop-color="#8BC154"/></linearGradient><linearGradient id="paint7_linear_6032_10358" x1="9.429" x2="19.148" y1="10.283" y2="20.06" gradientUnits="userSpaceOnUse"><stop stop-color="#5BBFCD"/><stop offset="1" stop-color="#8BC154"/></linearGradient><linearGradient id="paint8_linear_6032_10358" x1="9.429" x2="19.148" y1="10.283" y2="20.06" gradientUnits="userSpaceOnUse"><stop stop-color="#5BBFCD"/><stop offset="1" stop-color="#8BC154"/></linearGradient><linearGradient id="paint9_linear_6032_10358" x1="9.429" x2="19.148" y1="10.283" y2="20.059" gradientUnits="userSpaceOnUse"><stop stop-color="#5BBFCD"/><stop offset="1" stop-color="#8BC154"/></linearGradient><linearGradient id="paint10_linear_6032_10358" x1="9.429" x2="19.148" y1="10.283" y2="20.059" gradientUnits="userSpaceOnUse"><stop stop-color="#5BBFCD"/><stop offset="1" stop-color="#8BC154"/></linearGradient><linearGradient id="paint11_linear_6032_10358" x1="9.429" x2="19.148" y1="10.283" y2="20.059" gradientUnits="userSpaceOnUse"><stop stop-color="#5BBFCD"/><stop offset="1" stop-color="#8BC154"/></linearGradient><linearGradient id="paint12_linear_6032_10358" x1="9.429" x2="19.148" y1="10.283" y2="20.06" gradientUnits="userSpaceOnUse"><stop stop-color="#5BBFCD"/><stop offset="1" stop-color="#8BC154"/></linearGradient><linearGradient id="paint13_linear_6032_10358" x1="9.429" x2="19.148" y1="10.283" y2="20.06" gradientUnits="userSpaceOnUse"><stop stop-color="#5BBFCD"/><stop offset="1" stop-color="#8BC154"/></linearGradient><linearGradient id="paint14_linear_6032_10358" x1="9.429" x2="19.148" y1="10.283" y2="20.06" gradientUnits="userSpaceOnUse"><stop stop-color="#5BBFCD"/><stop offset="1" stop-color="#8BC154"/></linearGradient><linearGradient id="paint15_linear_6032_10358" x1="9.429" x2="19.148" y1="10.283" y2="20.06" gradientUnits="userSpaceOnUse"><stop stop-color="#5BBFCD"/><stop offset="1" stop-color="#8BC154"/></linearGradient><linearGradient id="paint16_linear_6032_10358" x1="9.429" x2="19.148" y1="10.283" y2="20.06" gradientUnits="userSpaceOnUse"><stop stop-color="#5BBFCD"/><stop offset="1" stop-color="#8BC154"/></linearGradient><linearGradient id="paint17_linear_6032_10358" x1="9.429" x2="19.148" y1="10.283" y2="20.059" gradientUnits="userSpaceOnUse"><stop stop-color="#5BBFCD"/><stop offset="1" stop-color="#8BC154"/></linearGradient><linearGradient id="paint18_linear_6032_10358" x1="9.429" x2="19.148" y1="10.283" y2="20.059" gradientUnits="userSpaceOnUse"><stop stop-color="#5BBFCD"/><stop offset="1" stop-color="#8BC154"/></linearGradient><linearGradient id="paint19_linear_6032_10358" x1="9.429" x2="19.148" y1="10.283" y2="20.059" gradientUnits="userSpaceOnUse"><stop stop-color="#5BBFCD"/><stop offset="1" stop-color="#8BC154"/></linearGradient><linearGradient id="paint20_linear_6032_10358" x1="9.429" x2="19.148" y1="10.283" y2="20.06" gradientUnits="userSpaceOnUse"><stop stop-color="#5BBFCD"/><stop offset="1" stop-color="#8BC154"/></linearGradient><linearGradient id="paint21_linear_6032_10358" x1="9.429" x2="19.148" y1="10.283" y2="20.059" gradientUnits="userSpaceOnUse"><stop stop-color="#5BBFCD"/><stop offset="1" stop-color="#8BC154"/></linearGradient><linearGradient id="paint22_linear_6032_10358" x1="9.429" x2="19.148" y1="10.283" y2="20.059" gradientUnits="userSpaceOnUse"><stop stop-color="#5BBFCD"/><stop offset="1" stop-color="#8BC154"/></linearGradient><linearGradient id="paint23_linear_6032_10358" x1="9.429" x2="19.148" y1="10.283" y2="20.059" gradientUnits="userSpaceOnUse"><stop stop-color="#5BBFCD"/><stop offset="1" stop-color="#8BC154"/></linearGradient></defs></svg>