<svg xmlns="http://www.w3.org/2000/svg" width="153" height="28" fill="none" viewBox="0 0 153 28"><path fill="#666564" d="M25.3854 22.2211L25.976 23.0844C24.6661 24.5928 23.0479 25.8105 21.2277 26.6577C19.4076 27.5048 17.4266 27.9623 15.4148 28C7.46827 28 0.899981 22.3144 0.899981 14.28C0.840098 12.4614 1.14399 10.6491 1.79427 8.94665C2.44455 7.24423 3.42844 5.68519 4.68961 4.35877C5.95078 3.03236 7.46448 1.96462 9.14403 1.21668C10.8236 0.468741 12.636 0.0552914 14.4776 0L15.2652 0C22.1642 0 27.8662 4.27 27.8662 11.4022C27.7609 14.1828 26.5631 16.8135 24.5269 18.7367L23.4873 17.8889C24.7692 16.2893 25.4881 14.3205 25.535 12.2811C25.535 6.42444 20.8805 2.61333 15.1234 2.61333C7.42102 2.61333 4.71179 8.61 4.71179 15.2989C4.62905 18.0788 5.6664 20.7775 7.5962 22.8029C9.526 24.8283 12.1906 26.0148 15.0053 26.1022H15.273C18.3872 26.1085 21.4271 25.163 23.9756 23.3956C24.4788 23.0448 24.9505 22.6518 25.3854 22.2211ZM16.289 21.6378C16.4777 21.7223 16.6814 21.7693 16.8886 21.776C17.0957 21.7826 17.3021 21.7489 17.496 21.6766C17.6898 21.6044 17.8674 21.495 18.0184 21.3549C18.1694 21.2148 18.2909 21.0466 18.376 20.86L21.5263 13.86C21.6119 13.6736 21.6595 13.4724 21.6662 13.2679C21.673 13.0634 21.6388 12.8595 21.5656 12.668C21.4925 12.4766 21.3818 12.3012 21.2399 12.1521C21.098 12.003 20.9277 11.8829 20.7387 11.7989C20.55 11.7143 20.3463 11.6674 20.1392 11.6607C19.9321 11.654 19.7257 11.6878 19.5318 11.7601C19.3379 11.8323 19.1604 11.9416 19.0093 12.0818C18.8583 12.2219 18.7368 12.3901 18.6517 12.5767L15.5014 19.5767C15.4158 19.763 15.3683 19.9642 15.3615 20.1688C15.3548 20.3733 15.389 20.5772 15.4621 20.7686C15.5353 20.9601 15.646 21.1354 15.7879 21.2846C15.9298 21.4337 16.1001 21.5537 16.289 21.6378ZM16.9033 5.58444C16.5248 5.42095 16.0964 5.41086 15.7104 5.55635C15.3245 5.70183 15.0118 5.99125 14.8399 6.36222L8.91739 19.5844C8.74693 19.96 8.73411 20.3869 8.88172 20.7718C9.02933 21.1566 9.32535 21.468 9.70496 21.6378C10.0835 21.8013 10.5119 21.8114 10.8978 21.6659C11.2838 21.5204 11.5964 21.231 11.7684 20.86L17.6909 7.63778C17.8613 7.26225 17.8741 6.83531 17.7265 6.45046C17.5789 6.06561 17.2829 5.75421 16.9033 5.58444Z"/><path fill="#666564" d="M43.736 11.309C44.362 12.3102 44.6565 13.4792 44.5787 14.6534V21.7779H41.8537V14.9956C41.9114 14.3086 41.7664 13.6197 41.4363 13.0123C41.2744 12.8159 41.0663 12.6615 40.8303 12.5626C40.5942 12.4636 40.3372 12.4231 40.0817 12.4445C39.6154 12.439 39.157 12.563 38.7586 12.8023C38.2923 13.1132 37.8572 13.4674 37.4591 13.8601V21.7779H34.7656V5.44453H37.4591V9.6523L37.3646 11.8534C37.8452 11.4024 38.3732 11.0035 38.9397 10.6634C39.5811 10.2837 40.3186 10.0921 41.0661 10.1112C41.577 10.0752 42.0889 10.1659 42.5552 10.3751C43.0214 10.5843 43.4274 10.9053 43.736 11.309ZM56.6914 13.3779C56.8966 14.0858 56.9974 14.8193 56.9907 15.5556C56.9907 15.8123 56.9907 16.0612 56.9907 16.3334C56.9724 16.519 56.9435 16.7033 56.9041 16.8856H49.5876C49.6536 17.7673 50.0395 18.5958 50.6744 19.219C51.3052 19.7746 52.1295 20.0673 52.9741 20.0356C53.4478 20.0405 53.919 19.9669 54.3681 19.8179C54.8135 19.6623 55.239 19.4561 55.6361 19.2034L56.5497 20.8679C55.9781 21.2314 55.3647 21.5265 54.7225 21.7467C54.0483 21.9749 53.3403 22.0905 52.6276 22.089C51.8678 22.0969 51.1136 21.9595 50.4067 21.6845C49.7309 21.4261 49.1188 21.0284 48.611 20.5179C48.0786 19.9941 47.6675 19.3626 47.406 18.6667C47.1034 17.8663 46.9564 17.0166 46.9729 16.1623C46.9609 15.3127 47.1105 14.4685 47.4139 13.6734C47.6847 12.9807 48.0855 12.3447 48.5953 11.799C49.0757 11.301 49.6512 10.9018 50.2885 10.6245C50.9065 10.3553 51.5741 10.2149 52.2496 10.2123C52.9547 10.1992 53.6548 10.3316 54.3051 10.6012C54.8766 10.8365 55.3839 11.2015 55.7857 11.6667C56.2017 12.1707 56.5098 12.7529 56.6914 13.3779ZM54.6595 15.0423C54.6996 14.3094 54.4979 13.5834 54.0846 12.9734C53.8767 12.712 53.6074 12.5045 53.3 12.369C52.9926 12.2334 52.6564 12.1739 52.3204 12.1956C51.9881 12.1917 51.6582 12.2529 51.35 12.3757C51.0418 12.4985 50.7613 12.6805 50.5248 12.9112C49.9667 13.4793 49.6269 14.2221 49.564 15.0112L54.6595 15.0423ZM60.9128 5.44453C60.475 5.4283 60.0482 5.58183 59.7236 5.8723C59.5651 6.0136 59.441 6.18841 59.3606 6.38369C59.2801 6.57897 59.2454 6.78968 59.2589 7.00008C59.2508 7.20297 59.2883 7.40512 59.3686 7.59203C59.449 7.77894 59.5702 7.94598 59.7236 8.08119C60.06 8.34363 60.4762 8.48637 60.9049 8.48637C61.3336 8.48637 61.7498 8.34363 62.0862 8.08119C62.2435 7.94785 62.3689 7.78172 62.4533 7.59478C62.5377 7.40783 62.5791 7.20473 62.5745 7.00008C62.5818 6.79428 62.5432 6.58941 62.4616 6.39993C62.3799 6.21044 62.2572 6.04095 62.102 5.90342C61.9442 5.75327 61.7579 5.63543 61.5538 5.55668C61.3497 5.47792 61.1318 5.43981 60.9128 5.44453ZM59.5582 21.7779H62.2438V10.4534H59.5582V21.7779ZM72.2773 16.2401C71.9542 15.9678 71.5968 15.7377 71.2141 15.5556C70.8203 15.3845 70.4266 15.2212 70.0485 15.0812C69.6705 14.9412 69.4185 14.8945 69.1428 14.7779C68.8717 14.6812 68.6084 14.5642 68.3553 14.4279C68.1592 14.318 67.9855 14.1729 67.8433 14.0001C67.7123 13.8305 67.6429 13.6223 67.6465 13.409C67.6432 13.2403 67.6784 13.0731 67.7492 12.9197C67.8201 12.7662 67.9249 12.6304 68.056 12.5223C68.4226 12.2528 68.8765 12.1255 69.3318 12.1645C69.7764 12.1617 70.2166 12.2518 70.6234 12.429C71.0576 12.6174 71.4696 12.8521 71.852 13.129L73.0885 11.519C72.5783 11.1375 72.0229 10.8188 71.4346 10.5701C70.754 10.2889 70.0223 10.1486 69.2846 10.1579C68.1959 10.1119 67.1262 10.4511 66.2682 11.1145C65.9082 11.4144 65.6209 11.7901 65.4274 12.2141C65.2338 12.6381 65.139 13.0996 65.1499 13.5645C65.1301 13.9843 65.2195 14.402 65.4098 14.7779C65.6144 15.128 65.8812 15.4389 66.1973 15.6956C66.512 15.9636 66.8616 16.1885 67.2369 16.3645C67.6228 16.5434 68.0245 16.7067 68.3789 16.8467L69.2688 17.2045C69.5408 17.3116 69.8041 17.439 70.0564 17.5856C70.2692 17.7074 70.4585 17.8654 70.6156 18.0523C70.7562 18.2267 70.8314 18.4438 70.8282 18.6667C70.8324 18.8529 70.7942 19.0375 70.7165 19.2071C70.6388 19.3767 70.5236 19.527 70.3793 19.6467C69.9816 19.934 69.492 20.0694 69.0011 20.0279C68.4344 20.0346 67.873 19.9206 67.3551 19.6934C66.8099 19.4436 66.2969 19.1303 65.8272 18.7601L64.5671 20.4634C65.1672 20.9384 65.8397 21.3164 66.5596 21.5834C67.3105 21.8823 68.1127 22.0355 68.9223 22.0345C69.5569 22.0466 70.1894 21.96 70.7967 21.7779C71.3104 21.6156 71.7849 21.3509 72.1907 21.0001C72.5577 20.7007 72.8512 20.3231 73.0491 19.8956C73.2451 19.4703 73.3496 19.0095 73.3563 18.5423C73.3764 18.0983 73.2906 17.6559 73.106 17.2506C72.9213 16.8454 72.6429 16.4886 72.2931 16.209L72.2773 16.2401ZM85.0123 15.5556C85.0123 15.8123 85.0123 16.0612 85.0123 16.3334C85.0123 16.6056 84.9571 16.7456 84.9335 16.8856H77.6091C77.6751 17.7673 78.061 18.5958 78.696 19.219C79.3268 19.7746 80.151 20.0673 80.9957 20.0356C81.4694 20.0411 81.9407 19.9675 82.3897 19.8179C82.835 19.6623 83.2606 19.4561 83.6576 19.2034L84.5712 20.8679C84.0025 21.2315 83.3917 21.5265 82.7519 21.7467C82.075 21.9749 81.3644 22.0905 80.6492 22.089C79.8894 22.0969 79.1352 21.9595 78.4282 21.6845C77.7525 21.4261 77.1403 21.0284 76.6326 20.5179C76.1052 19.9901 75.6948 19.3597 75.4276 18.6667C75.1249 17.8663 74.978 17.0166 74.9944 16.1623C74.9812 15.3119 75.1336 14.467 75.4433 13.6734C75.7084 12.9797 76.1069 12.3432 76.6168 11.799C77.0988 11.3028 77.6739 10.9039 78.3101 10.6245C78.9281 10.3553 79.5957 10.2149 80.2711 10.2123C80.9762 10.1992 81.6764 10.3316 82.3267 10.6012C82.8987 10.8394 83.4079 11.2039 83.8152 11.6667C84.2247 12.1708 84.5298 12.7496 84.713 13.3701C84.919 14.0805 85.0198 14.8167 85.0123 15.5556ZM82.6496 15.0501C82.6938 14.3168 82.4917 13.5895 82.0746 12.9812C81.8672 12.7192 81.5979 12.5114 81.2904 12.3758C80.9829 12.2402 80.6465 12.181 80.3105 12.2034C79.9781 12.1995 79.6483 12.2607 79.3401 12.3835C79.0318 12.5063 78.7513 12.6883 78.5149 12.919C77.9567 13.4871 77.6169 14.2298 77.554 15.019L82.6496 15.0501Z"/><path fill="#666564" d="M91.4702 16.1234C91.4702 12.3434 94.0613 10.1734 96.9123 10.1734C99.7633 10.1734 102.378 12.3434 102.378 16.1234C102.378 19.9034 99.7869 22.0501 96.9123 22.0501C94.0377 22.0501 91.4702 19.8801 91.4702 16.1234ZM99.6215 16.1234C99.6215 13.8367 98.5898 12.3434 96.9123 12.3434C95.2348 12.3434 94.2267 13.8367 94.2267 16.1234C94.2267 18.4101 95.2269 19.8801 96.9123 19.8801C98.5977 19.8801 99.6215 18.3867 99.6215 16.1234ZM104.859 10.4456H107.08L107.261 12.0012H107.355C107.831 11.4574 108.413 11.0149 109.067 10.7007C109.721 10.3864 110.433 10.207 111.159 10.1734C113.609 10.1734 114.68 11.8067 114.68 14.669V21.7778H111.947V15.019C111.947 13.1445 111.411 12.4523 110.151 12.4523C109.151 12.4523 108.497 12.9423 107.537 13.8601V21.7778H104.859V10.4456ZM117.854 18.869V5.49118H120.539V19.009C120.539 19.6545 120.846 19.8801 121.122 19.8801C121.263 19.883 121.403 19.8673 121.539 19.8334L121.894 21.8167C121.439 21.9876 120.955 22.067 120.468 22.0501C118.555 22.0501 117.854 20.829 117.854 18.869ZM124.233 7.00007C124.203 6.67048 124.274 6.33959 124.438 6.0508C124.601 5.76202 124.85 5.52885 125.15 5.38189C125.45 5.23492 125.788 5.18104 126.12 5.2273C126.452 5.27356 126.762 5.4178 127.009 5.64111C127.257 5.86441 127.43 6.15634 127.506 6.47857C127.582 6.80081 127.558 7.1383 127.437 7.44676C127.315 7.75522 127.102 8.02023 126.826 8.20701C126.549 8.3938 126.222 8.49363 125.887 8.4934C125.679 8.50385 125.47 8.47339 125.274 8.40378C125.078 8.33417 124.898 8.2268 124.744 8.0879C124.59 7.94899 124.466 7.78131 124.378 7.59458C124.29 7.40785 124.241 7.20577 124.233 7.00007ZM124.548 10.4767H127.234V21.7778H124.548V10.4767ZM130.423 10.4767H132.644L132.833 12.0323H132.92C133.393 11.4988 133.97 11.0648 134.617 10.7562C135.264 10.4475 135.967 10.2705 136.684 10.2356C139.134 10.2356 140.213 11.869 140.213 14.7312V21.7778H137.527V15.019C137.527 13.1445 136.984 12.4523 135.723 12.4523C134.723 12.4523 134.07 12.9423 133.109 13.8601V21.7778H130.423V10.4767ZM142.512 16.1545C142.512 12.4601 145.111 10.2045 147.797 10.2045C150.9 10.2045 152.522 12.4212 152.522 15.579C152.529 16.0122 152.489 16.445 152.404 16.8701H145.119C145.129 17.2977 145.225 17.7191 145.401 18.1099C145.577 18.5007 145.83 18.8531 146.145 19.1468C146.46 19.4404 146.831 19.6695 147.236 19.8207C147.641 19.972 148.073 20.0424 148.506 20.0278C149.458 20.0216 150.385 19.7315 151.168 19.1956L152.113 20.829C150.949 21.606 149.58 22.0305 148.175 22.0501C145.025 22.0501 142.512 19.8567 142.512 16.1234V16.1545ZM150.199 15.0734C150.199 13.3156 149.411 12.2578 147.836 12.2578C146.482 12.2578 145.308 13.2456 145.08 15.0734H150.199Z"/></svg>