<svg xmlns="http://www.w3.org/2000/svg" width="92" height="29" fill="none" viewBox="0 0 92 29"><path fill="#565252" fill-rule="evenodd" d="M80.7387 19.7126C79.6202 21.0928 78.0637 21.7821 76.0684 21.7821C74.086 21.7821 72.5326 21.0868 71.4078 19.6946C70.2842 18.303 69.7224 16.3826 69.7224 13.9339C69.7224 11.4851 70.2873 9.55862 71.4179 8.15532C72.5475 6.75178 74.098 6.04952 76.0684 6.04952C78.0517 6.04952 79.6041 6.74577 80.7289 8.13827C81.8535 9.52956 82.4153 11.4623 82.4153 13.9339C82.4153 16.4056 81.8563 18.3321 80.7387 19.7126ZM79.6423 26.6345C80.7659 26.3685 81.7925 25.9812 82.7231 25.4732C83.5929 26.4314 84.6094 27.1905 85.775 27.7518C86.9397 28.312 88.2342 28.661 89.6589 28.8L91.5421 24.3299C90.5645 24.2257 89.6469 23.9856 88.7891 23.6106C87.9324 23.2356 87.1416 22.7292 86.417 22.0942C87.2266 21.0088 87.8234 19.7935 88.2102 18.4471C88.5963 17.1019 88.7891 15.5973 88.7891 13.9339C88.7891 9.9598 87.6294 6.77795 85.3102 4.38718C82.991 1.99544 79.91 0.800049 76.0684 0.800049C74.3649 0.800049 72.8044 1.0423 71.385 1.52727C69.9654 2.01249 68.6939 2.74067 67.5703 3.71085C66.1687 4.92329 65.1149 6.3878 64.4084 8.10322C63.7006 9.81863 63.3477 11.7621 63.3477 13.9339C63.3477 17.9069 64.5051 21.0839 66.8183 23.4637C69.1328 25.8431 72.2167 27.0325 76.0715 27.0325C77.3278 27.0325 78.5184 26.8995 79.6423 26.6345ZM0.258789 1.37256H6.41574V26.4267H0.258789V1.37256ZM10.458 26.4267V7.80037H16.0892V9.53308C16.8138 8.80586 17.6315 8.26254 18.5424 7.90457C19.454 7.54636 20.4777 7.36726 21.6124 7.36726C23.6406 7.36726 25.1491 8.00853 26.1387 9.29082C27.1296 10.5722 27.6244 12.5368 27.6244 15.1816V26.4267H21.9922V15.4586C21.9922 14.2003 21.7713 13.276 21.3274 12.6868C20.8835 12.0977 20.1827 11.8026 19.2231 11.8026C18.0935 11.8026 17.2887 12.0777 16.809 12.6259C16.3291 13.1749 16.0892 14.1192 16.0892 15.4586V26.4267H10.458ZM31.7428 26.4267V11.6646H28.8819V8.25053H31.7428C31.707 7.86952 31.6859 7.59246 31.6799 7.41936C31.6729 7.2453 31.671 7.0902 31.671 6.95119C31.671 4.97673 32.1517 3.5523 33.1135 2.68007C34.0752 1.8088 35.6507 1.37256 37.8398 1.37256C38.3197 1.37256 38.8104 1.40065 39.3093 1.45875C39.8082 1.51661 40.328 1.60881 40.8699 1.73581V5.63481H39.9283C38.8894 5.63481 38.2047 5.76181 37.8729 6.01606C37.5399 6.27007 37.375 6.77809 37.375 7.54036V8.25053H40.8699V11.6646H37.375V26.4267H31.7428ZM46.7539 17.1222C46.7539 18.8206 47.1438 20.1691 47.9224 21.1683C48.7013 22.1676 49.7418 22.6667 51.0464 22.6667C52.3501 22.6667 53.3937 22.1645 54.1783 21.1592C54.9632 20.154 55.355 18.8085 55.355 17.1222C55.355 15.4236 54.9661 14.0724 54.1875 13.0681C53.4086 12.0626 52.3611 11.5606 51.0464 11.5606C49.7538 11.5606 48.7161 12.0686 47.9315 13.0849C47.1467 14.1012 46.7539 15.4476 46.7539 17.1222ZM51.0464 27.0329C48.0276 27.0329 45.5984 26.1266 43.7569 24.3123C41.9164 22.4996 40.9957 20.1019 40.9957 17.1222C40.9957 14.1533 41.9196 11.7565 43.767 9.93113C45.6133 8.10648 48.0396 7.1944 51.0464 7.1944C54.0873 7.1944 56.5297 8.1036 58.37 9.92297C60.2114 11.7426 61.1322 14.1413 61.1322 17.1222C61.1322 20.0911 60.2054 22.4847 58.352 24.3041C56.4997 26.1237 54.0636 27.0329 51.0464 27.0329Z" clip-rule="evenodd"/></svg>