<svg xmlns="http://www.w3.org/2000/svg" width="85" height="28" fill="none" viewBox="0 0 85 28"><path fill="#DADADA" fill-rule="evenodd" d="M1.54944 18.9726H2.7404C3.76109 24.0203 5.51965 26.573 7.44799 26.573C8.75247 26.573 9.7164 25.4388 9.7164 23.6234C9.7164 21.2983 8.29889 19.483 6.14351 16.8177C4.72551 14.9461 3.42102 13.5849 2.68413 12.1669C1.88999 10.6359 1.49316 8.99082 1.49316 7.34627C1.49316 3.65937 3.47827 0.880615 5.8602 0.880615C7.22144 0.880615 8.18537 2.01482 8.80923 2.01482C9.2633 2.01482 9.65964 1.67475 9.94344 0.994133H10.9079V9.55841H9.7164C8.86599 4.68103 7.50475 2.24186 5.7462 2.24186C4.49847 2.24186 3.70482 3.31979 3.70482 4.79406C3.70482 6.89269 5.17958 8.65075 7.44799 11.3732C8.07234 12.1106 9.20654 13.3016 10.3975 15.3434C11.4434 17.1328 11.9916 19.1694 11.9853 21.242C11.9853 25.2122 10.0002 27.9342 7.44799 27.9342C5.74668 27.9342 4.66875 26.6865 3.93137 26.6865C3.36426 26.6865 3.08096 27.1405 2.51385 27.991H1.54992V18.9726H1.54944ZM17.3735 24.3603V4.45303C17.3735 3.03551 17.6568 2.52517 18.6212 2.52517C21.1734 2.52517 21.627 6.26834 21.627 13.6979C21.627 21.9784 21.4567 26.1756 18.5077 26.1756C17.487 26.1756 17.3735 25.7221 17.3735 24.3603ZM12.4956 27.5364H17.487C22.6482 27.5364 25.7107 22.8293 25.7107 14.3218C25.7107 9.21737 24.463 5.30392 22.3076 3.03551C20.8329 1.50399 19.1878 1.2202 17.0897 1.2202H12.4956V2.46792C13.4596 2.58144 13.7434 3.09178 13.7434 4.28275V24.4739C13.7434 25.7216 13.4596 26.1756 12.4956 26.345V27.5364ZM40.5132 10.6359H39.6055C38.9816 5.64448 37.9042 2.86523 36.5429 2.41165V23.9067C36.5429 25.6085 36.77 26.2329 38.0177 26.3454V27.5364H31.4385V26.3454C32.63 26.2329 32.9133 25.6081 32.9133 23.9067V2.41165C31.5521 2.86523 30.4746 5.64448 29.7935 10.6359H28.8863L29.0566 1.22068H40.3996L40.5132 10.6359ZM46.582 26.459V27.5364H41.1943V26.459C42.0447 26.2324 42.3285 25.7788 42.3285 24.5306V13.2443C42.3285 11.9966 42.1014 11.4858 41.1943 11.3727V10.125C42.6118 10.0683 44.0861 9.95475 45.4478 9.84123V24.5311C45.4478 25.7221 45.6743 26.2324 46.582 26.459ZM53.1044 26.459V27.5364H47.773V26.459C48.6806 26.2324 48.8514 25.7788 48.8514 24.5306V13.2443C48.8514 11.9966 48.7379 11.4858 47.773 11.3727V10.125C49.1347 10.0683 50.5522 9.95475 51.9134 9.84123L51.9702 12.3934C52.9336 10.6354 53.7845 9.78448 54.9755 9.78448C56.28 9.78448 57.0741 10.6921 57.4142 12.507C58.4354 10.6921 59.3425 9.78448 60.5903 9.78448C62.6321 9.78448 63.1997 11.6561 63.1997 15.57V24.5311C63.1997 25.8356 63.3695 26.3454 64.2772 26.4594V27.5369H60.1934V15.1727C60.1934 13.2443 59.9669 12.3367 59.116 12.3367C58.2651 12.3367 57.585 13.6412 57.585 15.9668V24.5311C57.585 25.8356 57.7547 26.3454 58.6624 26.4594V27.5369H54.5787V15.1727C54.5787 13.2443 54.3521 12.3367 53.558 12.3367C52.5936 12.3367 52.027 13.6979 52.027 16.3069V24.5311C52.027 25.7221 52.1967 26.2324 53.1044 26.459ZM68.2474 17.7816V17.4411C68.2474 13.0741 68.7582 10.8619 69.7784 10.8619C70.8568 10.8619 71.1969 12.7335 71.1969 16.647V17.7812H68.2474V17.7816ZM73.522 21.6383C73.182 24.5311 72.1603 26.1189 70.6861 26.1189C69.0983 26.1189 68.2474 24.0203 68.2474 19.9365V19.2559H74.4865V19.0856C74.4865 13.0173 72.6712 9.67096 69.7784 9.67096C66.9434 9.67096 64.7312 13.2443 64.7312 19.0856C64.7312 24.4739 66.9438 27.99 69.8924 27.99C72.5018 27.99 74.2027 25.6648 74.4869 21.6379H73.522V21.6383ZM76.7549 20.5609C77.3225 24.5879 78.7967 26.7423 80.4418 26.7423C81.4052 26.7423 82.1436 25.8356 82.1436 24.5879C82.1436 23.6234 81.6327 22.6028 80.6683 21.8086C78.6265 20.1636 77.0954 18.9726 76.3581 17.3843C75.904 16.5339 75.7337 15.5695 75.7337 14.4921C75.7337 11.7696 77.2657 9.67096 79.1373 9.67096C80.2715 9.67096 81.0656 10.5219 81.6332 10.5219C81.9165 10.5219 82.2566 10.2385 82.4274 9.72771H83.335V16.1934H82.3706C81.5765 12.6767 80.4423 10.9187 79.081 10.9187C78.2869 10.9187 77.6067 11.7691 77.6067 12.7903C77.6067 14.265 78.5702 15.0024 80.1027 16.1934C82.7112 18.292 84.1296 19.9365 84.1296 22.7163C84.1296 25.6648 82.3711 27.99 80.2725 27.99C78.9117 27.99 78.1171 27.0265 77.5505 27.0265C77.2672 27.0265 76.9829 27.3666 76.5298 27.99H75.7347V20.5609H76.7549ZM45.4478 4.56703C45.4478 5.81427 44.5969 6.77868 43.5767 6.77868C42.5555 6.77868 41.7046 5.81475 41.7046 4.56703C41.7046 3.37558 42.555 2.35489 43.5767 2.35489C44.5969 2.35489 45.4478 3.37558 45.4478 4.56703Z" clip-rule="evenodd"/><path fill="#666564" fill-rule="evenodd" d="M0.138793 18.2128H1.33024C2.35093 23.26 4.10949 25.8127 6.03783 25.8127C7.34231 25.8127 8.30673 24.6785 8.30673 22.8632C8.30673 20.538 6.88873 18.7232 4.73335 16.0575C3.31535 14.1859 2.01086 12.8246 1.27349 11.4066C0.479347 9.8756 0.0825195 8.23056 0.0825195 6.58553C0.0825195 2.89911 2.06714 0.119873 4.44955 0.119873C5.81079 0.119873 6.77472 1.25408 7.39859 1.25408C7.85266 1.25408 8.24948 0.913525 8.53279 0.232905H9.49721V8.79718H8.30624C7.45535 3.9198 6.0941 1.48111 4.33604 1.48111C3.08831 1.48111 2.29466 2.55856 2.29466 4.03332C2.29466 6.13146 3.76893 7.89001 6.03783 10.6125C6.66169 11.3499 7.7959 12.5408 8.98686 14.5822C10.0324 16.3717 10.5806 18.4082 10.5747 20.4808C10.5747 24.451 8.58955 27.1739 6.03734 27.1739C4.33604 27.1739 3.2581 25.9262 2.52072 25.9262C1.95362 25.9262 1.66983 26.3793 1.10272 27.2302H0.138793V18.2128ZM15.9624 23.6006V3.69374C15.9624 2.27574 16.2457 1.76491 17.2101 1.76491C19.7623 1.76491 20.2159 5.50808 20.2159 12.9381C20.2159 21.2191 20.0456 25.4154 17.0966 25.4154C16.0759 25.4159 15.9624 24.9618 15.9624 23.6006ZM11.085 26.7771H16.0759C21.2371 26.7771 24.2996 22.069 24.2996 13.562C24.2996 8.4576 23.0519 4.54415 20.8965 2.27525C19.4218 0.744219 17.7772 0.460426 15.6786 0.460426H11.0845V1.70815C12.0489 1.82167 12.3318 2.33201 12.3318 3.52298V23.7136C12.3318 24.9613 12.0489 25.4154 11.0845 25.5847V26.7771H11.085ZM39.1025 9.8756H38.1953C37.571 4.8847 36.4935 2.10546 35.1328 1.65187V23.1475C35.1328 24.8483 35.3593 25.4726 36.6076 25.5852V26.7771H30.0279V25.5852C31.2189 25.4726 31.5027 24.8478 31.5027 23.1475V1.65187C30.1414 2.10546 29.064 4.8847 28.3833 9.8756H27.4757L27.646 0.460911H38.989L39.1025 9.8756ZM45.1709 25.6992V26.7776H39.7831V25.6992C40.6335 25.4726 40.9173 25.019 40.9173 23.7708V12.4846C40.9173 11.2368 40.6903 10.726 39.7831 10.613V9.36477C41.2011 9.30849 42.6749 9.19449 44.0366 9.08146V23.7708C44.0371 24.9618 44.2632 25.4726 45.1709 25.6992ZM51.6938 25.6992V26.7776H46.3623V25.6992C47.27 25.4726 47.4407 25.019 47.4407 23.7708V12.4846C47.4407 11.2368 47.3272 10.726 46.3623 10.613V9.36477C47.724 9.30849 49.142 9.19449 50.5028 9.08146L50.5595 11.6337C51.523 9.8756 52.3739 9.0247 53.5649 9.0247C54.8693 9.0247 55.6635 9.93236 56.0035 11.7472C57.0247 9.93236 57.9319 9.0247 59.1796 9.0247C61.2215 9.0247 61.7891 10.8963 61.7891 14.8097V23.7708C61.7891 25.0753 61.9589 25.5852 62.8665 25.6992V26.7776H58.7828V14.4129C58.7828 12.4846 58.5562 11.5769 57.7053 11.5769C56.8544 11.5769 56.1743 12.8814 56.1743 15.2066V23.7708C56.1743 25.0753 56.3441 25.5852 57.2518 25.6992V26.7776H53.168V14.4129C53.168 12.4846 52.9415 11.5769 52.1473 11.5769C51.1829 11.5769 50.6163 12.9386 50.6163 15.5471V23.7708C50.6163 24.9618 50.7861 25.4726 51.6938 25.6992ZM66.8367 17.0219V16.6813C66.8367 12.3143 67.3475 10.1021 68.3677 10.1021C69.4462 10.1021 69.7862 11.9732 69.7862 15.8872V17.0214H66.8367V17.0219ZM72.1114 20.8781C71.7713 23.7708 70.7506 25.3586 69.2754 25.3586C67.6876 25.3586 66.8367 23.26 66.8367 19.1768V18.4961H73.0758V18.3259C73.0758 12.2575 71.2605 8.91118 68.3677 8.91118C65.5317 8.91118 63.3206 12.4846 63.3206 18.3259C63.3206 23.7136 65.5322 27.2297 68.4818 27.2297C71.0912 27.2297 72.792 24.9046 73.0763 20.8776H72.1114V20.8781ZM75.3442 19.8011C75.9118 23.8281 77.3861 25.9825 79.0311 25.9825C79.9946 25.9825 80.7329 25.0758 80.7329 23.8281C80.7329 22.8637 80.2221 21.843 79.2577 21.0488C77.2158 19.4038 75.6848 18.2128 74.9474 16.625C74.4933 15.7741 74.324 14.8097 74.324 13.7323C74.324 11.0098 75.8551 8.91118 77.7267 8.91118C78.8609 8.91118 79.655 9.76208 80.2226 9.76208C80.5059 9.76208 80.846 9.47877 81.0167 8.96794H81.9244V15.4336H80.96C80.1658 11.917 79.0316 10.1589 77.6704 10.1589C76.8762 10.1589 76.1961 11.0093 76.1961 12.0305C76.1961 13.5053 77.1605 14.2426 78.692 15.4336C81.3005 17.5322 82.719 19.1768 82.719 21.9565C82.719 24.905 80.9604 27.2302 78.8618 27.2302C77.5011 27.2302 76.7074 26.2668 76.1398 26.2668C75.8565 26.2668 75.5732 26.6068 75.1191 27.2302H74.325V19.8011H75.3442Z" clip-rule="evenodd"/><path fill="#666564" fill-rule="evenodd" d="M44.0371 3.80687C44.0371 5.05459 43.1862 6.019 42.1655 6.019C41.1448 6.019 40.2939 5.05507 40.2939 3.80687C40.2939 2.6159 41.1448 1.59473 42.1655 1.59473C43.1862 1.59521 44.0371 2.6159 44.0371 3.80687ZM46.5326 5.67894C46.0217 5.67894 45.7952 5.28211 45.7384 4.71452L46.305 4.601C46.305 5.05508 46.4186 5.16811 46.5326 5.16811C46.6451 5.16811 46.7024 5.05507 46.7024 4.82804C46.7024 4.48797 46.6456 4.31769 46.3055 3.97714C45.9655 3.63707 45.7389 3.29652 45.7389 2.8997C45.7389 2.38935 46.0222 1.99204 46.4763 1.99204C46.9871 1.99204 47.1564 2.33211 47.2704 2.84294L46.7028 2.95645C46.7028 2.6159 46.6461 2.50238 46.4763 2.50238C46.3628 2.50238 46.3055 2.6159 46.3055 2.84294C46.3055 3.06997 46.419 3.23976 46.6456 3.52356C47.0997 3.92038 47.2699 4.3177 47.2699 4.77128C47.2699 5.28163 46.9866 5.67894 46.5326 5.67894ZM48.6312 3.86411C48.6312 4.94156 48.5744 5.16811 48.3469 5.16811C48.1771 5.16811 48.1204 4.8848 48.1204 3.80687C48.1204 2.78618 48.1771 2.55914 48.3469 2.55914C48.5177 2.55963 48.6312 2.78618 48.6312 3.86411ZM49.1978 3.80687C49.1978 2.6159 48.9713 1.99204 48.3469 1.99204C47.7235 1.99204 47.5528 2.6159 47.5528 3.86362C47.5528 5.05459 47.7235 5.67845 48.3469 5.67845C48.9713 5.67894 49.1978 5.05507 49.1978 3.80687ZM50.1055 2.6159V3.4668H50.7288V4.0339H50.1055V5.62218H49.5379V2.0488H50.8996V2.6159H50.1055ZM52.2041 2.6159V5.62218H51.637V2.6159H51.1829V2.0488H52.7139V2.6159H52.2041ZM54.8126 5.62218H54.3585L54.2459 4.65825C54.1892 4.31818 54.1324 3.86411 54.0752 3.52404C54.0752 3.86459 54.0184 4.31818 53.9617 4.65825L53.8491 5.62218H53.3383L52.9415 2.04928H53.4523L53.5648 3.24025C53.6216 3.52356 53.6216 3.92087 53.6784 4.26094C53.6784 3.92038 53.7351 3.52356 53.7351 3.24025L53.8486 2.04928H54.3017L54.4153 3.24025C54.472 3.52356 54.5288 3.92087 54.5288 4.26094C54.5288 3.92038 54.5855 3.52356 54.5855 3.24025L54.6981 2.04928H55.2657L54.8126 5.62218ZM56.2878 4.3177H55.9477L56.0603 3.69383C56.0603 3.41004 56.117 3.12673 56.117 2.84294C56.117 3.12625 56.1738 3.41004 56.2306 3.69383L56.2878 4.3177ZM57.0252 5.62218L56.4576 2.04928H55.8342L55.2666 5.62218H55.8342L55.9477 4.82804H56.3436L56.4571 5.62218H57.0252ZM58.2729 3.06997C58.2729 3.4668 58.1594 3.58032 57.9886 3.58032H57.8761V2.55963H57.9886C58.1594 2.55963 58.2729 2.67266 58.2729 3.06997ZM58.8395 5.62218L58.4995 3.92087C58.726 3.75059 58.8395 3.46728 58.8395 3.07046C58.8395 2.33259 58.4427 2.04977 58.0454 2.04977H57.308V5.62266H57.8756V4.03487H57.9881L58.2724 5.62266H58.8395V5.62218ZM59.2368 5.62218V2.0488H60.5413V2.6159H59.8039V3.4668H60.3706V4.0339H59.8039V5.11135H60.5981V5.62218H59.2368ZM62.8665 3.80687C62.8665 4.8848 62.753 5.11135 62.5264 5.11135H62.4129V2.55914H62.5264C62.753 2.55963 62.8665 2.78618 62.8665 3.80687ZM63.4341 3.80687C63.4341 2.72942 63.2633 2.0488 62.5832 2.0488H61.8458V5.62169H62.5259C63.1498 5.62218 63.4341 5.05507 63.4341 3.80687ZM63.7742 5.62218V2.0488H65.0791V2.6159H64.3408V3.4668H64.9084V4.0339H64.3408V5.11135H65.1349V5.62218H63.7742ZM66.4394 5.62218H65.8728L65.3052 2.04928H65.8728L66.0993 3.80735C66.0993 4.09114 66.1561 4.48797 66.1561 4.71501C66.1561 4.48846 66.2128 4.09114 66.2128 3.80735L66.4394 2.04928H67.007L66.4394 5.62218ZM67.2903 5.62218V2.0488H68.5953V2.6159H67.8579V3.4668H68.4245V4.0339H67.8579V5.11135H68.652V5.62218H67.2903ZM68.9921 5.62218V2.0488H69.5597V5.11135H70.2398V5.62218H68.9921ZM71.5448 3.86411C71.5448 4.94156 71.488 5.16811 71.3173 5.16811C71.0907 5.16811 71.0339 4.8848 71.0339 3.80687C71.0339 2.78618 71.0907 2.55914 71.3173 2.55914C71.4875 2.55963 71.5448 2.78618 71.5448 3.86411ZM72.1114 3.80687C72.1114 2.6159 71.9416 1.99204 71.3173 1.99204C70.6939 1.99204 70.4664 2.6159 70.4664 3.86362C70.4664 5.05459 70.6371 5.67845 71.2605 5.67845C71.9416 5.67894 72.1114 5.05507 72.1114 3.80687ZM73.4726 3.12673C73.4726 3.46728 73.3591 3.63708 73.1884 3.63708H73.0758V2.55963H73.1884C73.4159 2.55963 73.4726 2.67266 73.4726 3.12673ZM74.0393 3.06997C74.0393 2.33211 73.6992 2.04928 73.2451 2.04928H72.5077V5.62218H73.0753V4.14742H73.1879C73.6424 4.14742 74.0393 3.80687 74.0393 3.06997ZM75.7978 5.62218V4.65825C75.7978 4.26142 75.7978 3.86411 75.8546 3.46728C75.7739 3.86741 75.6794 4.26464 75.5713 4.65825L75.3437 5.7357L75.0604 4.65825C75.0037 4.31818 74.8897 3.75059 74.8329 3.46728V5.62218H74.323V2.04928H74.8897L75.1172 3.12673C75.2297 3.46728 75.287 3.86411 75.3437 4.14742C75.3437 3.86411 75.4573 3.4668 75.5145 3.12673L75.7411 2.04928H76.3086V5.62218H75.7978ZM76.7617 5.62218V2.0488H78.0662V2.6159H77.3288V3.4668H77.8964V4.0339H77.3288V5.11135H78.123V5.62218H76.7617ZM79.5982 5.62218L79.2572 4.54473C79.1497 4.17003 79.0552 3.79174 78.9739 3.41052V5.62266H78.463V2.04977H78.9739L79.2572 2.95742C79.3139 3.24073 79.4847 3.6948 79.5415 3.97811V2.04977H80.0513V5.62266H79.5982V5.62218ZM81.4126 2.6159V5.62218H80.8455V2.6159H80.3356V2.0488H81.8666V2.6159H81.4126Z" clip-rule="evenodd"/></svg>