<svg xmlns="http://www.w3.org/2000/svg" width="234" height="29" fill="none" viewBox="0 0 234 29"><g clip-path="url(#clip0_6032_10331)"><path fill="#666564" d="M0.0297852 1.01147V5.83766H6.89997V27.8348H12.8525V5.83766H19.5782V1.01147H0.0297852Z"/><path fill="#666564" d="M153.226 1.01147V5.83766H160.098V27.8348H166.048V5.83766H172.773V1.01147H153.226Z"/><path fill="#666564" d="M21.7651 27.8355H27.7921V16.1996H35.2758V27.8355H41.2283V0.963135H35.1657V11.3734H27.7546V0.963135H21.7651V27.8355Z"/><path fill="#666564" d="M114.011 0.963135H108.022V27.8355L114.03 14.925L114.011 0.963135Z"/><path fill="#666564" d="M114.03 14.925L114.049 27.8355L120.531 13.8705V0.963135L114.03 14.925Z"/><path fill="#666564" d="M108.022 27.8361H114.049L114.03 14.9255L108.022 27.8361Z"/><path fill="#666564" d="M126.52 0.963135L120.531 13.8705V27.8355L126.538 14.925L126.52 0.963135Z"/><path fill="#666564" d="M120.531 0.963135V13.8705L126.52 0.963135H120.531Z"/><path fill="#666564" d="M133.038 0.963135L126.537 14.925L126.556 27.8355L139.026 0.963135H133.038Z"/><path fill="#666564" d="M120.531 27.8361H126.557L126.538 14.9255L120.531 27.8361Z"/><path fill="#666564" d="M88.1479 27.7852H105.038V22.9597H94.1005V16.1989H102.441V11.3727H94.0273V5.83766H105.038V1.01147H88.1479V27.7852Z"/><path fill="#666564" d="M44.8696 27.7852H61.7593V22.9597H50.8228V16.1989H59.163V11.3727H50.7496V5.83766H61.7593V1.01147H44.8696V27.7852Z"/><path fill="#666564" d="M65.4399 27.8355H70.674V15.3055C70.674 14.6068 70.5398 11.1844 70.5105 10.4125H70.674C72.1746 13.6834 72.2178 13.8005 72.8485 14.8651L79.6378 27.8361H84.3514V0.963135H79.1173V11.0018C79.1173 12.0301 79.1173 12.2497 79.2147 14.0945L79.3445 16.8124H79.186C79.0804 16.6291 78.6833 15.6377 78.5662 15.4169C78.2907 14.8658 77.8917 14.1301 77.5735 13.579L70.9139 0.963771H65.4406L65.4399 27.8355Z"/><path fill="#666564" d="M176.444 1.01831L168.836 27.8347H174.606L176.003 22.3231H184.271L185.63 27.8347H191.398L183.608 1.01831H176.444ZM183.095 18.1098H177.034L179.972 5.8324H180.119L183.095 18.1098Z"/><path fill="#666564" d="M191.33 18.0991C191.33 23.6113 192.726 25.0857 193.804 26.109C195.452 27.6948 197.571 28.3999 200.627 28.3999C201.779 28.3999 204.533 28.1543 206.445 26.6741C208.687 24.9464 209.055 23.0595 209.276 21.9943C209.459 20.8552 209.497 20.6337 209.533 18.6871H203.58C203.58 21.5895 202.864 23.5737 200.487 23.5737C197.285 23.5737 197.285 20.7457 197.285 19.2757V9.0169C197.285 8.27554 197.323 6.95127 198.257 6.07245C198.865 5.52008 199.788 5.22608 200.524 5.22608C203.47 5.22608 203.543 8.16545 203.58 9.49354H209.533C209.459 7.31972 209.166 4.03672 206.722 2.1639C204.834 0.723811 202.402 0.399902 200.778 0.399902C194.557 0.399902 191.33 3.82227 191.33 9.97208V18.0991H191.33Z"/><path fill="#666564" d="M211.502 27.8355H217.529V0.963135H211.502V27.8355ZM225.906 0.963135L217.752 13.9284L226.68 27.8361H233.771L224.182 13.488L232.413 0.963771L225.906 0.963135Z"/><path fill="#666564" d="M147.087 1.01147C141.459 1.01147 138.613 4.12266 138.613 8.53775C138.613 13.817 141.724 14.9867 145.79 16.554C150.254 18.1157 151.474 18.5503 151.474 20.5536C151.474 22.9902 148.92 23.5725 147.498 23.5725C144.939 23.5725 143.047 22.189 142.178 19.935L138.062 22.9546C140.266 27.2659 142.728 28.3987 147.781 28.3987C149.281 28.3987 151.724 27.9946 153.238 27.0457C156.911 24.7421 156.911 21.1715 156.911 19.9713C156.911 17.4615 155.779 15.7153 155.459 15.2794C154.437 13.8208 152.606 12.732 150.989 12.1504L147.21 10.9127C145.385 10.3247 143.438 10.1783 143.438 8.28702C143.438 8.00447 143.512 6.02666 146.487 5.83638H151.185V1.01147C151.184 1.01147 147.443 1.01147 147.087 1.01147Z"/></g><defs><clipPath id="clip0_6032_10331"><rect width="233.741" height="28" fill="#fff" transform="translate(0.0297852 0.400146)"/></clipPath></defs></svg>