<svg xmlns="http://www.w3.org/2000/svg" width="192" height="29" fill="none" viewBox="0 0 192 29"><g clip-path="url(#clip0_6032_10298)"><path fill="#666564" d="M78.8786 15.8978C77.7006 16.7953 76.4664 17.6368 75.1761 18.4783C73.942 19.2636 72.82 19.8807 71.8103 20.2173C70.8005 20.5539 70.1834 20.4978 69.7907 20.049C69.4542 19.488 69.4542 18.5905 69.7346 17.4685C70.0151 16.3465 70.4639 15.1685 70.9688 13.9343C71.5298 12.8124 71.9786 11.6904 72.3712 10.5685C72.7639 9.44649 72.9322 8.26844 72.9322 7.09038C72.9322 5.91232 72.5395 4.73426 71.8664 3.6123C71.2493 2.65864 70.3517 1.92937 69.1176 1.48058C67.8834 1.0318 66.5371 0.751308 65.0224 0.807406C63.5078 0.807406 62.0492 1.0879 60.5907 1.64888C59.4687 2.09766 58.4029 2.71474 57.4492 3.6123C56.4955 4.50987 55.7662 5.63183 55.2053 6.92208C55.037 7.42697 54.8687 8.04404 54.8126 8.82942C54.7565 9.61479 54.7004 10.288 54.7004 10.9611C54.7004 11.6343 54.7004 11.9148 54.7004 11.9709C54.0833 12.4197 53.4101 12.9246 52.6248 13.5416C51.8394 14.1587 51.054 14.888 50.3247 15.7295C49.5394 16.6831 48.8662 17.5807 48.3052 18.5344C47.7442 19.4319 47.4076 20.1612 47.2955 20.6661C47.2394 20.8905 47.2954 21.3954 47.4637 22.349C47.632 23.2466 48.1369 24.3125 48.8662 25.4905C49.5955 26.6686 50.8857 27.7905 52.5687 28.8003C52.5687 28.8003 52.6248 28.8003 52.6809 28.6881C52.737 28.632 52.7931 28.5759 52.7931 28.5759C52.737 28.5759 52.5687 28.3515 52.176 27.9027C51.7833 27.4539 51.4467 26.893 51.1101 26.2198C50.7735 25.5466 50.6052 24.8173 50.6613 24.0881C50.7174 23.0783 51.3906 22.1246 52.6248 21.2832C53.8589 20.4417 55.9906 19.6563 59.0199 19.0392C59.8614 18.8149 60.5907 18.4783 61.2638 18.0295C61.8809 17.5807 62.2175 17.3563 62.2736 17.3002C62.0492 19.7124 62.4419 21.9002 63.5639 23.8637C64.4614 25.5466 65.6956 27.0052 67.1541 28.3515L81.1225 14.3831V14.327C80.5055 14.6636 79.7201 15.2246 78.8786 15.8978ZM60.5907 8.15624C60.3663 8.71722 60.1419 9.3343 59.9175 9.89528C59.6931 10.4563 59.5809 10.7928 59.5809 10.905C59.637 10.9611 59.7492 11.1294 59.9736 11.4099C60.198 11.6343 60.3102 11.8026 60.3663 11.9148C60.3663 12.027 60.3102 12.4197 60.1419 12.9246C59.9736 13.4294 59.637 13.8221 59.076 14.1026C58.4029 14.3831 57.7858 14.3831 57.1687 14.2709C56.5516 14.1026 56.1028 13.9343 55.7662 13.7099C55.4297 13.4855 55.2053 13.3173 55.2053 13.3173L60.9273 7.09038V7.31477C60.9273 7.25867 60.8151 7.53916 60.5907 8.15624Z"/><path fill="#666564" d="M188.494 5.68872C190.177 5.68872 191.467 6.97897 191.467 8.60581C191.467 10.2327 190.177 11.5229 188.494 11.5229C186.811 11.5229 185.465 10.2327 185.465 8.60581C185.465 6.97897 186.811 5.68872 188.494 5.68872ZM188.438 6.2497C187.148 6.2497 186.194 7.31556 186.194 8.54972C186.194 9.83997 187.148 10.8497 188.494 10.8497C189.784 10.8497 190.738 9.83997 190.738 8.54972C190.682 7.31556 189.784 6.2497 188.438 6.2497ZM187.989 10.0644H187.316V7.20337C187.597 7.14727 187.933 7.09117 188.438 7.09117C188.999 7.09117 189.223 7.20337 189.448 7.31556C189.616 7.42776 189.728 7.65215 189.728 7.93264C189.728 8.26923 189.504 8.49362 189.111 8.60581V8.66191C189.392 8.77411 189.56 8.9985 189.672 9.39119C189.784 9.83997 189.784 10.0083 189.897 10.1205H189.167C189.055 10.0083 189.055 9.78387 188.943 9.44728C188.887 9.1107 188.719 8.9985 188.326 8.9985H187.989V10.0644ZM187.989 8.43752H188.326C188.719 8.43752 188.999 8.32533 188.999 7.98874C188.999 7.70825 188.775 7.53995 188.382 7.53995C188.214 7.53995 188.101 7.53995 187.989 7.59605V8.43752Z"/><path fill="#666564" d="M0.733398 4.11694H17.0579V9.05357H12.5701V22.4049H5.27733V9.05357H0.733398V4.11694Z"/><path fill="#666564" d="M31.3076 22.4049H25.1368V14.6634C25.1368 14.1585 25.0246 13.7658 24.8563 13.5414C24.688 13.317 24.4075 13.2048 24.0149 13.2048C23.6222 13.2048 23.3978 13.317 23.1734 13.5414C22.949 13.7658 22.8929 14.2146 22.8929 14.8878V22.461H16.666V4.11694H22.8929V11.4097C23.3417 10.6804 23.8466 10.1755 24.4636 9.83894C25.0807 9.50235 25.8661 9.33405 26.8197 9.33405C27.4929 9.33405 28.0539 9.39015 28.5588 9.55845C29.0637 9.72674 29.4564 9.89503 29.7929 10.1755C30.1295 10.456 30.41 10.7365 30.6344 11.0731C30.8588 11.4097 31.0271 11.8585 31.1393 12.4755C31.2515 12.9804 31.3076 13.7097 31.3076 14.7195V22.4049Z"/><path fill="#666564" d="M46.6205 17.132H37.8131V17.5808C37.8131 18.4222 37.9253 18.9832 38.2058 19.2637C38.4863 19.5442 38.879 19.7125 39.4961 19.7125C39.9449 19.7125 40.3375 19.6003 40.618 19.3198C40.8985 19.0393 41.0668 18.7027 41.1229 18.1978H46.5083C46.5083 18.7588 46.2839 19.3759 45.8912 20.0491C45.4986 20.7223 44.9937 21.2271 44.4327 21.6198C43.8717 22.0125 43.1985 22.293 42.3571 22.5174C41.5156 22.7418 40.5058 22.854 39.3278 22.854C38.2619 22.854 37.3644 22.7418 36.579 22.5735C35.7936 22.4052 35.0643 22.0686 34.5034 21.6198C33.8863 21.171 33.3814 20.6101 32.9326 19.9369C32.596 19.432 32.3716 18.871 32.2033 18.1978C32.035 17.5247 31.9229 16.7954 31.9229 16.0661C31.9229 14.7759 32.0911 13.71 32.4838 12.8124C32.7643 12.1393 33.2692 11.5222 33.8863 10.9612C34.5595 10.4002 35.2887 9.95144 36.018 9.72705C37.0278 9.39046 38.2058 9.22217 39.4961 9.22217C40.7863 9.22217 41.9083 9.39046 42.7498 9.72705C43.6473 10.0636 44.3766 10.5685 45.0498 11.2978C45.5547 11.8588 45.9473 12.5319 46.2278 13.3173C46.5083 14.1027 46.6205 15.1125 46.6205 16.1783V17.132ZM41.0668 14.4393C41.0668 13.71 40.9546 13.2612 40.8424 12.9807C40.5619 12.5319 40.1132 12.3637 39.4961 12.3637C38.879 12.3637 38.4302 12.588 38.1497 12.9807C37.9253 13.2612 37.8131 13.7661 37.8131 14.4393H41.0668Z"/><path fill="#666564" d="M79.7754 4.05957H90.7145C93.0145 4.05957 94.6414 4.45226 95.5389 5.29373C96.4926 6.0791 96.9414 7.25715 96.9414 8.7157C96.9414 9.33278 96.8292 9.89376 96.6609 10.3986C96.4926 10.9035 96.2682 11.3523 95.9316 11.6889C95.595 12.0255 95.2584 12.306 94.8097 12.5304C94.4731 12.6987 93.9682 12.923 93.295 13.1474C94.0243 13.2596 94.5853 13.4279 94.978 13.5962C95.3706 13.7645 95.6511 14.045 95.8755 14.3255C96.0999 14.606 96.2682 14.9987 96.3804 15.5597C96.4926 16.0645 96.6609 17.0743 96.8292 18.5328C97.0536 20.328 97.3341 21.6182 97.6146 22.5158H90.4901C90.3779 22.2353 90.3218 21.9548 90.2657 21.6743C90.2096 21.3938 90.1535 20.9451 90.0413 20.2158L89.7047 17.7475C89.5925 17.1304 89.4803 16.7377 89.3682 16.5133C89.256 16.2889 89.0877 16.1206 88.8633 16.0645C88.6389 16.0084 88.2462 15.9523 87.7413 15.9523H86.9559V22.4597H79.7754V4.05957ZM86.8998 11.745H87.4608C87.9657 11.745 88.4145 11.6889 88.8072 11.5767C89.1999 11.4645 89.4803 11.2401 89.7047 10.9596C89.9291 10.6791 89.9852 10.2864 89.9852 9.83766C89.9852 9.27668 89.8169 8.884 89.4803 8.60351C89.1438 8.32302 88.4706 8.21082 87.4608 8.21082H86.8998V11.745Z"/><path fill="#666564" d="M111.921 17.132H103.113V17.5808C103.113 18.4222 103.226 18.9832 103.506 19.2637C103.787 19.5442 104.179 19.7125 104.796 19.7125C105.245 19.7125 105.638 19.6003 105.918 19.3198C106.199 19.0393 106.367 18.7027 106.423 18.1978H111.809C111.809 18.7588 111.584 19.3759 111.192 20.0491C110.799 20.7223 110.294 21.2271 109.733 21.6198C109.172 22.0125 108.499 22.293 107.657 22.5174C106.816 22.7418 105.806 22.854 104.628 22.854C103.562 22.854 102.665 22.7418 101.879 22.5735C101.094 22.4052 100.421 22.0686 99.8036 21.6198C99.1866 21.171 98.6817 20.6101 98.2329 19.9369C97.8963 19.432 97.6719 18.871 97.5036 18.1978C97.3353 17.5247 97.2231 16.7954 97.2231 16.0661C97.2231 14.7759 97.4475 13.71 97.7841 12.8124C98.0646 12.1393 98.5695 11.5222 99.1866 10.9612C99.8597 10.4002 100.533 9.95144 101.318 9.72705C102.328 9.39046 103.506 9.22217 104.796 9.22217C106.087 9.22217 107.209 9.39046 108.05 9.72705C108.948 10.0636 109.677 10.5685 110.35 11.2978C110.855 11.8588 111.248 12.5319 111.528 13.3173C111.809 14.1027 111.921 15.1125 111.921 16.1783C111.977 16.5149 111.921 16.8515 111.921 17.132ZM106.423 14.4393C106.423 13.71 106.367 13.2612 106.199 12.9807C105.918 12.5319 105.47 12.3637 104.852 12.3637C104.235 12.3637 103.787 12.588 103.506 12.9807C103.282 13.2612 103.17 13.7661 103.17 14.4393H106.423Z"/><path fill="#666564" d="M121.622 11.0729L121.847 9.72653H127.625V20.7778C127.625 21.9559 127.569 22.7974 127.457 23.3022C127.288 24.0315 127.008 24.7047 126.671 25.2096C126.278 25.7145 125.774 26.1632 125.156 26.5559C124.539 26.9486 123.698 27.173 122.8 27.3974C121.903 27.6218 120.893 27.6779 119.827 27.6779C117.359 27.6779 115.62 27.2852 114.61 26.4998C113.6 25.7145 113.039 24.6486 112.983 23.3022H118.93C118.93 23.6388 119.042 23.8632 119.266 24.0315C119.491 24.1998 119.771 24.312 120.22 24.312C120.837 24.312 121.286 24.0876 121.51 23.6949C121.678 23.3583 121.791 22.7974 121.791 21.8998V20.6095C121.454 21.1144 120.949 21.5071 120.276 21.8437C119.603 22.1242 118.817 22.2925 117.92 22.2925C116.013 22.2925 114.61 21.6193 113.544 20.3291C112.703 19.2632 112.31 17.9168 112.31 16.1778C112.31 13.99 112.815 12.3631 113.881 11.1851C114.947 10.007 116.237 9.44604 117.864 9.44604C118.817 9.44604 119.603 9.61434 120.164 9.89483C120.725 10.1192 121.23 10.568 121.622 11.0729ZM119.995 18.7583C120.388 18.7583 120.669 18.6461 120.893 18.4778C121.117 18.3095 121.286 18.029 121.342 17.6924C121.398 17.3559 121.454 16.6827 121.454 15.7851C121.454 14.9436 121.398 14.3827 121.342 14.0461C121.23 13.7095 121.117 13.4851 120.893 13.2607C120.669 13.0924 120.444 13.0363 120.108 13.0363C119.771 13.0363 119.491 13.0924 119.266 13.3168C119.042 13.5412 118.874 13.7095 118.761 14.0461C118.649 14.4388 118.593 15.2241 118.593 16.29C118.593 17.0193 118.649 17.5803 118.705 17.8607C118.761 18.1412 118.93 18.4217 119.154 18.59C119.434 18.7022 119.659 18.7583 119.995 18.7583Z"/><path fill="#666564" d="M128.582 8.04312V4.17236H134.641V8.04312H128.582ZM128.582 9.72606H134.641V22.4042H128.582V9.72606Z"/><path fill="#666564" d="M135.198 18.31H140.808C140.808 18.9271 140.92 19.3759 141.145 19.6564C141.369 19.9369 141.706 20.0491 142.154 20.0491C142.603 20.0491 142.94 19.9369 143.164 19.7686C143.389 19.6003 143.501 19.3198 143.501 18.9271C143.501 18.5905 143.389 18.3661 143.22 18.1978C142.996 18.0296 142.491 17.8613 141.65 17.7491L139.406 17.3564C138.452 17.1881 137.667 16.9637 137.162 16.6832C136.825 16.5149 136.545 16.2905 136.264 15.9539C135.984 15.6173 135.759 15.3368 135.647 14.9442C135.535 14.5515 135.423 14.1588 135.423 13.6539C135.423 12.588 135.703 11.7466 136.264 11.1295C136.825 10.5124 137.554 10.0075 138.508 9.67095C139.406 9.33436 140.64 9.22217 142.098 9.22217C143.164 9.22217 144.118 9.33436 145.072 9.50266C145.969 9.67095 146.754 10.0075 147.315 10.4563C147.876 10.9051 148.325 11.41 148.55 12.0271C148.662 12.3637 148.774 12.8685 148.774 13.5417H143.501C143.501 12.9807 143.389 12.6441 143.22 12.4198C142.996 12.1954 142.715 12.0832 142.267 12.0832C141.818 12.0832 141.481 12.1393 141.257 12.3637C141.032 12.588 140.976 12.7563 140.976 13.0929C140.976 13.3173 141.032 13.4856 141.089 13.6539C141.145 13.8222 141.313 13.8783 141.481 13.9344C141.65 13.9905 142.042 14.1027 142.603 14.1588L144.679 14.4954C145.913 14.6637 146.867 14.9442 147.428 15.2808C148.045 15.5612 148.493 16.01 148.774 16.571C149.054 17.132 149.223 17.7491 149.223 18.4783C149.223 19.3759 148.998 20.2174 148.55 20.8344C148.101 21.4515 147.372 22.0125 146.418 22.4052C145.464 22.7979 144.062 23.0223 142.21 23.0223C141.201 23.0223 140.359 22.9662 139.574 22.854C138.789 22.7418 138.115 22.5174 137.61 22.293C137.106 22.0686 136.657 21.732 136.32 21.3393C135.984 20.9466 135.703 20.554 135.591 20.1052C135.31 19.5442 135.198 18.9832 135.198 18.31Z"/><path fill="#666564" d="M150.573 7.59583L156.631 5.46411V9.67146H159.492V13.4861H156.631V17.2447C156.631 17.8618 156.687 18.2544 156.912 18.4227C157.08 18.6471 157.36 18.7032 157.697 18.7032C158.146 18.7032 158.707 18.6471 159.324 18.4788V22.2374C157.585 22.574 156.239 22.7423 155.285 22.7423C154.443 22.7423 153.714 22.6301 153.041 22.4057C152.368 22.1813 151.863 21.9008 151.47 21.452C151.19 21.1154 150.965 20.7228 150.797 20.2179C150.685 19.8252 150.629 19.3203 150.629 18.6471V13.4861H148.946V9.72756H150.629L150.573 7.59583Z"/><path fill="#666564" d="M174.019 17.132H165.212V17.5808C165.212 18.4222 165.324 18.9832 165.605 19.2637C165.885 19.5442 166.278 19.7125 166.895 19.7125C167.344 19.7125 167.736 19.6003 168.017 19.3198C168.297 19.0393 168.466 18.7027 168.522 18.1978H173.851C173.851 18.7588 173.627 19.3759 173.234 20.0491C172.841 20.7223 172.336 21.2271 171.775 21.6198C171.215 22.0125 170.541 22.293 169.7 22.5174C168.858 22.7418 167.849 22.854 166.671 22.854C165.605 22.854 164.707 22.7418 163.922 22.5735C163.136 22.4052 162.463 22.0686 161.846 21.6198C161.229 21.171 160.724 20.6101 160.275 19.9369C159.939 19.432 159.714 18.871 159.546 18.1978C159.378 17.5247 159.266 16.7954 159.266 16.0661C159.266 14.7759 159.49 13.71 159.827 12.8124C160.107 12.1393 160.612 11.5222 161.229 10.9612C161.902 10.4002 162.632 9.95144 163.361 9.72705C164.371 9.39046 165.549 9.22217 166.839 9.22217C168.129 9.22217 169.251 9.39046 170.093 9.72705C170.99 10.0636 171.719 10.5685 172.393 11.2978C172.897 11.8588 173.29 12.5319 173.515 13.3173C173.739 14.1027 173.907 15.1125 173.907 16.1783C174.075 16.5149 174.019 16.8515 174.019 17.132ZM168.522 14.4393C168.522 13.71 168.466 13.2612 168.297 12.9807C168.017 12.5319 167.568 12.3637 166.951 12.3637C166.334 12.3637 165.885 12.588 165.605 12.9807C165.38 13.2612 165.324 13.7661 165.324 14.4393H168.522Z"/><path fill="#666564" d="M174.692 9.55805H180.582L180.75 11.0727C181.311 10.4556 181.816 10.0629 182.209 9.83854C182.658 9.61415 183.05 9.50195 183.555 9.50195C184.004 9.50195 184.453 9.61415 185.014 9.78244V14.663C184.229 14.4947 183.724 14.3825 183.443 14.3825C183.163 14.3825 182.938 14.3264 182.658 14.3264C182.097 14.3264 181.648 14.4947 181.368 14.7752C181.087 15.0557 180.919 15.5605 180.919 16.2337V22.4606H174.692V9.55805Z"/></g><defs><clipPath id="clip0_6032_10298"><rect width="190.733" height="28" fill="#fff" transform="translate(0.733398 0.800049)"/></clipPath></defs></svg>