<svg width="35" height="33" fill="none" xmlns="http://www.w3.org/2000/svg"><path d="m33.68 13.056-.048-.123L28.97.767a1.215 1.215 0 0 0-1.205-.763c-.255.013-.5.105-.701.262-.2.162-.344.381-.414.628l-3.148 9.63H10.757L7.609.894a1.223 1.223 0 0 0-.414-.63A1.248 1.248 0 0 0 5.77.188c-.217.137-.385.34-.48.578l-4.67 12.16-.047.123a8.657 8.657 0 0 0 2.871 10.005l.016.012.043.03 7.101 5.319 3.514 2.659 2.14 1.615a1.439 1.439 0 0 0 1.74 0l2.14-1.615 3.513-2.66 7.144-5.35.018-.014a8.66 8.66 0 0 0 2.868-9.994Z" fill="#E24329"/><path d="m33.68 13.056-.048-.123a15.746 15.746 0 0 0-6.269 2.818l-10.238 7.742c3.486 2.637 6.522 4.929 6.522 4.929l7.144-5.35.018-.014a8.66 8.66 0 0 0 2.87-10.002Z" fill="#FC6D26"/><path d="m10.603 28.422 3.514 2.659 2.14 1.616a1.439 1.439 0 0 0 1.74 0l2.14-1.616 3.513-2.66s-3.038-2.298-6.525-4.928c-3.486 2.63-6.522 4.929-6.522 4.929Z" fill="#FCA326"/><path d="M6.885 15.751a15.727 15.727 0 0 0-6.267-2.825l-.046.123a8.657 8.657 0 0 0 2.871 10.005l.016.012.043.03 7.101 5.319 6.522-4.93-10.24-7.734Z" fill="#FC6D26"/></svg>