<svg xmlns="http://www.w3.org/2000/svg" width="43" height="42" fill="none" viewBox="0 0 43 42"><path fill="#000" d="M0.942383 0.309082H42.4083V41.3091H0.942383V0.309082Z"/><path fill="#fff" d="M5.45605 33.6216H21.0058V36.1841H5.45605V33.6216Z"/><path fill="#fff" d="M4.80664 10.8805L5.96078 9.80083C6.07061 9.97221 6.21993 10.1154 6.39651 10.2188C6.57309 10.3221 6.77191 10.3826 6.9767 10.3953C7.419 10.3953 7.70926 10.0878 7.70926 9.49334V5.448H9.4923V9.507C9.51895 9.83384 9.47615 10.1626 9.36665 10.4721C9.25715 10.7816 9.08337 11.065 8.85648 11.3042C8.62219 11.5304 8.34412 11.7076 8.03892 11.825C7.73372 11.9424 7.40768 11.9977 7.08036 11.9875C6.63806 12.0051 6.19833 11.9131 5.80121 11.7197C5.40409 11.5264 5.06219 11.2379 4.80664 10.8805Z"/><path fill="#fff" d="M10.2942 5.448H15.4981V6.9445H12.0426V7.92167H15.1457V9.28834H12.0703V10.3065H15.5258V11.8099H10.2734L10.2942 5.448Z"/><path fill="#fff" d="M18.0337 6.99917H16.0986V5.448H21.7726V6.99917H19.8306V11.844H18.0337V6.99917Z"/><path fill="#fff" d="M5.52539 14.372H8.58005C8.89716 14.3462 9.21629 14.3831 9.51885 14.4804C9.82141 14.5778 10.1013 14.7338 10.3424 14.9392C10.4797 15.0753 10.5879 15.2375 10.6603 15.416C10.7328 15.5944 10.768 15.7855 10.7639 15.9778C10.7691 16.2896 10.6752 16.5952 10.4954 16.8514C10.3156 17.1076 10.059 17.3016 9.76183 17.406C10.1295 17.4726 10.461 17.6669 10.6967 17.9538C10.9324 18.2407 11.0567 18.6013 11.0473 18.9708C11.0473 20.1256 10.1419 20.809 8.59387 20.809H5.52539V14.372ZM8.98089 16.3468C8.98089 15.9915 8.69062 15.8002 8.16539 15.8002H7.27388V16.9208H8.13775C8.67681 16.9208 8.99471 16.7363 8.99471 16.3673L8.98089 16.3468ZM8.3589 18.1645H7.27388V19.3466H8.39345C8.94633 19.3466 9.25041 19.1348 9.25041 18.759C9.23659 18.3968 8.97398 18.1645 8.37272 18.1645H8.3589Z"/><path fill="#fff" d="M11.6212 14.3726H14.4893C14.869 14.342 15.251 14.3867 15.6129 14.5041C15.9749 14.6214 16.3095 14.809 16.5972 15.0559C16.7912 15.2519 16.9422 15.4854 17.0409 15.7417C17.1396 15.998 17.1838 16.2717 17.1708 16.5456C17.1832 16.971 17.0615 17.3896 16.8225 17.7434C16.5835 18.0973 16.2391 18.3689 15.8369 18.5204L17.385 20.8096H15.3117L14.0055 18.869H13.4043V20.8096H11.6074L11.6212 14.3726ZM14.3856 17.4476C14.9869 17.4476 15.3532 17.1538 15.3532 16.6823C15.3532 16.1698 14.9731 15.9101 14.3787 15.9101H13.4181V17.4613L14.3856 17.4476Z"/><path fill="#fff" d="M19.6665 14.3247H21.3943L24.1587 20.7754H22.2305L21.7674 19.6205H19.2588L18.7957 20.8095H16.9229L19.6665 14.3247ZM21.2422 18.2402L20.5166 16.4294L19.784 18.2402H21.2422Z"/><path fill="#fff" d="M24.4395 14.3516H26.2363V20.7544H24.4395V14.3516Z"/><path fill="#fff" d="M26.9004 14.3516H28.5867L30.9157 17.7682V14.3516H32.6918V20.7544H31.123L28.6834 17.2421V20.7544H26.9004V14.3516Z"/><path fill="#fff" d="M32.9902 19.8047L33.9854 18.6225C34.5683 19.1044 35.2992 19.3766 36.0587 19.3947C36.5494 19.3947 36.8051 19.2239 36.8051 18.9505C36.8051 18.6704 36.5978 18.5337 35.7063 18.3287C34.3241 18.0144 33.2667 17.6454 33.2667 16.3265C33.2667 15.1375 34.2204 14.2765 35.7754 14.2765C36.7366 14.2409 37.6794 14.5436 38.4361 15.1307L37.5722 16.347C37.0495 15.9564 36.4165 15.7367 35.7615 15.7183C35.3262 15.7183 35.1119 15.8892 35.1119 16.1283C35.1119 16.4222 35.3331 16.552 36.2384 16.7502C37.7243 17.0713 38.6434 17.5497 38.6434 18.7455C38.6434 20.0507 37.5999 20.7955 36.0311 20.7955C34.9293 20.8419 33.8482 20.4897 32.9902 19.8047Z"/></svg>