<svg xmlns="http://www.w3.org/2000/svg" width="189" height="49" fill="none" viewBox="0 0 189 49"><path fill="#F9F9F9" d="M0.638489 16.0438C0.638489 7.20727 7.80193 0.0438232 16.6385 0.0438232H172.638C181.475 0.0438232 188.638 7.20727 188.638 16.0438V32.0438C188.638 40.8804 181.475 48.0438 172.638 48.0438H16.6385C7.80193 48.0438 0.638489 40.8804 0.638489 32.0438V16.0438Z"/><path fill="url(#paint0_linear_4_142)" fill-rule="evenodd" d="M30.2464 12.3151C30.9087 13.522 30.5019 15.0569 29.3378 15.7436L21.6865 20.2566C21.5643 20.3287 21.4888 20.4633 21.4888 20.6091V27.9185C21.4888 28.0643 21.5643 28.1989 21.6865 28.271L27.9451 31.9625C28.065 32.0332 28.212 32.0332 28.3319 31.9625L34.5904 28.271C34.7127 28.1989 34.7881 28.0643 34.7881 27.9185V23.2747L29.3263 26.4557C28.1586 27.1358 26.6802 26.7058 26.0241 25.4952C25.3681 24.2846 25.7829 22.752 26.9507 22.0719L34.6269 17.6012C36.8693 16.2952 39.6385 17.9752 39.6385 20.6416V27.9185C39.6385 29.8721 38.6269 31.6753 36.989 32.6414L30.7305 36.3329C29.1235 37.2808 27.1535 37.2808 25.5464 36.3329L19.2879 32.6414C17.6501 31.6753 16.6385 29.8721 16.6385 27.9185V20.6091C16.6385 18.6555 17.6501 16.8523 19.2879 15.8862L26.9392 11.3732C28.1033 10.6865 29.584 11.1082 30.2464 12.3151Z" clip-rule="evenodd"/><path fill="#12100C" d="M57.6871 30.3678C61.2151 30.3678 63.9151 27.9558 63.9151 23.7438C63.9151 19.7478 61.2151 17.1198 57.6871 17.1198C54.1591 17.1198 51.5131 19.6938 51.5131 23.7438C51.5131 27.9738 54.1591 30.3678 57.6871 30.3678ZM57.6871 28.3698C55.4551 28.3698 53.9431 26.6778 53.9431 23.7438C53.9431 20.8818 55.4371 19.1178 57.6871 19.1178C59.9371 19.1178 61.4851 20.9178 61.4851 23.7438C61.4851 26.7138 59.9191 28.3698 57.6871 28.3698ZM67.8328 33.7158V29.6838C67.8328 29.4318 67.8148 29.1978 67.7608 28.8378C68.3188 29.7378 69.0748 30.3678 70.5508 30.3678C72.7828 30.3678 74.4928 28.5498 74.4928 25.7058C74.4928 22.9158 72.9628 20.9718 70.6408 20.9718C69.2548 20.9718 68.3188 21.5838 67.7608 22.5198C67.8148 22.1598 67.8328 21.9258 67.8328 21.6558V21.2598H65.6368V33.7158H67.8328ZM70.0108 28.6398C68.6788 28.6398 67.7428 27.4338 67.7428 25.6698C67.7428 23.8518 68.6968 22.7178 70.0108 22.7178C71.4148 22.7178 72.2608 23.9418 72.2608 25.6698C72.2608 27.4338 71.3608 28.6398 70.0108 28.6398ZM80.1248 30.3678C82.5008 30.3678 84.0488 28.9818 84.2288 27.1818H81.9968C81.8528 28.0998 81.0788 28.6398 80.1248 28.6398C78.7928 28.6398 77.9108 27.5778 77.8928 26.1918H84.2828V25.7058C84.2828 22.8438 82.7348 20.9718 80.0528 20.9718C77.4968 20.9718 75.6428 22.8618 75.6428 25.6338C75.6428 28.6758 77.4968 30.3678 80.1248 30.3678ZM77.8748 24.6078C78.0008 23.4558 78.8468 22.6098 80.0348 22.6098C81.2228 22.6098 81.9968 23.4198 82.0328 24.6078H77.8748ZM88.1673 30.0438V24.8958C88.1673 23.6718 88.9593 22.7178 90.0393 22.7178C91.0653 22.7178 91.6953 23.5278 91.6953 24.8238V30.0438H93.8913V24.4998C93.8913 22.3398 92.7393 20.9718 90.7953 20.9718C89.4093 20.9718 88.5813 21.6378 88.0953 22.5198C88.1493 22.1778 88.1673 21.9078 88.1673 21.6558V21.2598H85.9713V30.0438H88.1673ZM99.6249 19.9278H101.929V17.6238H99.6249V19.9278ZM99.6789 21.2598V30.0438H101.875V21.2598H99.6789ZM106.233 30.0438V24.8958C106.233 23.6718 107.025 22.7178 108.105 22.7178C109.131 22.7178 109.761 23.5278 109.761 24.8238V30.0438H111.957V24.4998C111.957 22.3398 110.805 20.9718 108.861 20.9718C107.475 20.9718 106.647 21.6378 106.161 22.5198C106.215 22.1778 106.233 21.9078 106.233 21.6558V21.2598H104.037V30.0438H106.233ZM123.252 30.3678C125.214 30.3678 126.492 29.5218 127.086 28.3878C126.996 28.8018 126.96 29.2158 126.96 29.6478V30.0438H129.12V23.3298H123.54V25.3278H126.96V25.4178C126.96 27.2178 125.502 28.3698 123.63 28.3698C121.326 28.3698 119.742 26.6058 119.742 23.7438C119.742 20.8818 121.362 19.1178 123.684 19.1178C125.358 19.1178 126.474 20.0898 126.636 21.3498H129.066C128.832 18.9018 126.798 17.1198 123.648 17.1198C119.85 17.1198 117.312 19.8558 117.312 23.7438C117.312 27.7758 119.688 30.3678 123.252 30.3678ZM131.048 19.9278H133.352V17.6238H131.048V19.9278ZM131.102 21.2598V30.0438H133.298V21.2598H131.102ZM139.348 30.2058C139.906 30.2058 140.428 30.1158 140.644 30.0438V28.3878C140.428 28.4238 140.194 28.4418 139.978 28.4418C139.042 28.4418 138.682 27.9018 138.682 26.9838V23.0058H140.842V21.2598H138.682V18.0918H136.486V21.2598H134.488V23.0058H136.486V27.3078C136.486 29.2698 137.476 30.2058 139.348 30.2058ZM144.439 33.7158V29.6838C144.439 29.4318 144.421 29.1978 144.367 28.8378C144.925 29.7378 145.681 30.3678 147.157 30.3678C149.389 30.3678 151.099 28.5498 151.099 25.7058C151.099 22.9158 149.569 20.9718 147.247 20.9718C145.861 20.9718 144.925 21.5838 144.367 22.5198C144.421 22.1598 144.439 21.9258 144.439 21.6558V21.2598H142.243V33.7158H144.439ZM146.617 28.6398C145.285 28.6398 144.349 27.4338 144.349 25.6698C144.349 23.8518 145.303 22.7178 146.617 22.7178C148.021 22.7178 148.867 23.9418 148.867 25.6698C148.867 27.4338 147.967 28.6398 146.617 28.6398ZM156.749 30.3678C159.395 30.3678 161.267 28.6038 161.267 25.6878C161.267 22.8078 159.395 20.9718 156.749 20.9718C154.121 20.9718 152.249 22.8078 152.249 25.6878C152.249 28.6038 154.103 30.3678 156.749 30.3678ZM156.749 28.6398C155.381 28.6398 154.481 27.5598 154.481 25.6878C154.481 23.7798 155.417 22.7178 156.749 22.7178C158.099 22.7178 159.035 23.7798 159.035 25.6878C159.035 27.5598 158.117 28.6398 156.749 28.6398ZM166.457 30.3678C168.077 30.3678 168.869 29.4858 169.211 28.8378C169.139 29.1438 169.139 29.3778 169.139 29.6838V30.0438H171.335V17.4438H169.139V21.6558C169.139 21.9258 169.139 22.1958 169.211 22.5198C168.707 21.6738 167.861 20.9718 166.493 20.9718C164.441 20.9718 162.443 22.5378 162.443 25.6878C162.443 28.7838 164.135 30.3678 166.457 30.3678ZM166.979 28.6398C165.665 28.6398 164.675 27.4878 164.675 25.6698C164.675 23.9238 165.665 22.7178 166.979 22.7178C168.293 22.7178 169.265 23.8698 169.265 25.6698C169.265 27.4338 168.293 28.6398 166.979 28.6398Z"/><defs><linearGradient id="paint0_linear_4_142" x1="33.95" x2="21.634" y1="14.976" y2="33.766" gradientUnits="userSpaceOnUse"><stop stop-color="#FFB45B"/><stop offset="1" stop-color="#FF8A00"/></linearGradient></defs></svg>