<svg xmlns="http://www.w3.org/2000/svg" width="42" height="42" fill="none" viewBox="0 0 42 42"><g clip-path="url(#clip0_5318_7725)"><path fill="#141414" d="M5.85785 25.6647C8.63785 25.6647 10.8915 23.411 10.8915 20.631C10.8915 17.851 8.63785 15.5974 5.85785 15.5974C3.07785 15.5974 0.824219 17.851 0.824219 20.631C0.824219 23.411 3.07785 25.6647 5.85785 25.6647Z"/><path fill="#141414" d="M20.9584 25.6647C23.7384 25.6647 25.9921 23.411 25.9921 20.631C25.9921 17.851 23.7384 15.5974 20.9584 15.5974C18.1784 15.5974 15.9248 17.851 15.9248 20.631C15.9248 23.411 18.1784 25.6647 20.9584 25.6647Z"/><path fill="#141414" d="M5.85785 40.7658C8.63785 40.7658 10.8915 38.5121 10.8915 35.7321C10.8915 32.9521 8.63785 30.6985 5.85785 30.6985C3.07785 30.6985 0.824219 32.9521 0.824219 35.7321C0.824219 38.5121 3.07785 40.7658 5.85785 40.7658Z" opacity=".2"/><path fill="#141414" d="M36.06 40.7658C38.84 40.7658 41.0936 38.5121 41.0936 35.7321C41.0936 32.9521 38.84 30.6985 36.06 30.6985C33.28 30.6985 31.0264 32.9521 31.0264 35.7321C31.0264 38.5121 33.28 40.7658 36.06 40.7658Z" opacity=".2"/><path fill="#141414" d="M20.9584 40.7658C23.7384 40.7658 25.9921 38.5121 25.9921 35.7321C25.9921 32.9521 23.7384 30.6985 20.9584 30.6985C18.1784 30.6985 15.9248 32.9521 15.9248 35.7321C15.9248 38.5121 18.1784 40.7658 20.9584 40.7658Z"/><path fill="#141414" d="M36.06 25.6647C38.84 25.6647 41.0936 23.411 41.0936 20.631C41.0936 17.851 38.84 15.5974 36.06 15.5974C33.28 15.5974 31.0264 17.851 31.0264 20.631C31.0264 23.411 33.28 25.6647 36.06 25.6647Z"/><path fill="#141414" d="M5.85785 10.5638C8.63785 10.5638 10.8915 8.31021 10.8915 5.53021C10.8915 2.75022 8.63785 0.496582 5.85785 0.496582C3.07785 0.496582 0.824219 2.75022 0.824219 5.53021C0.824219 8.31021 3.07785 10.5638 5.85785 10.5638Z" opacity=".2"/><path fill="#141414" d="M20.9584 10.5638C23.7384 10.5638 25.9921 8.31021 25.9921 5.53021C25.9921 2.75022 23.7384 0.496582 20.9584 0.496582C18.1784 0.496582 15.9248 2.75022 15.9248 5.53021C15.9248 8.31021 18.1784 10.5638 20.9584 10.5638Z" opacity=".2"/><path fill="#141414" d="M36.06 10.5638C38.84 10.5638 41.0936 8.31021 41.0936 5.53021C41.0936 2.75022 38.84 0.496582 36.06 0.496582C33.28 0.496582 31.0264 2.75022 31.0264 5.53021C31.0264 8.31021 33.28 10.5638 36.06 10.5638Z" opacity=".2"/></g><defs><clipPath id="clip0_5318_7725"><rect width="41" height="41" fill="#fff" transform="translate(0.824219 0.496582)"/></clipPath></defs></svg>