<svg xmlns="http://www.w3.org/2000/svg" width="42" height="42" fill="none" viewBox="0 0 42 42"><g clip-path="url(#clip0_5364_6889)"><path fill="#fff" d="M5.625 26.125C8.45546 26.125 10.75 23.8305 10.75 21C10.75 18.1695 8.45546 15.875 5.625 15.875C2.79454 15.875 0.5 18.1695 0.5 21C0.5 23.8305 2.79454 26.125 5.625 26.125Z"/><path fill="#fff" d="M21 26.125C23.8305 26.125 26.125 23.8305 26.125 21C26.125 18.1695 23.8305 15.875 21 15.875C18.1695 15.875 15.875 18.1695 15.875 21C15.875 23.8305 18.1695 26.125 21 26.125Z"/><path fill="#fff" d="M5.625 41.5C8.45546 41.5 10.75 39.2055 10.75 36.375C10.75 33.5445 8.45546 31.25 5.625 31.25C2.79454 31.25 0.5 33.5445 0.5 36.375C0.5 39.2055 2.79454 41.5 5.625 41.5Z" opacity=".2"/><path fill="#fff" d="M36.375 41.5C39.2055 41.5 41.5 39.2055 41.5 36.375C41.5 33.5445 39.2055 31.25 36.375 31.25C33.5445 31.25 31.25 33.5445 31.25 36.375C31.25 39.2055 33.5445 41.5 36.375 41.5Z" opacity=".2"/><path fill="#fff" d="M21 41.5C23.8305 41.5 26.125 39.2055 26.125 36.375C26.125 33.5445 23.8305 31.25 21 31.25C18.1695 31.25 15.875 33.5445 15.875 36.375C15.875 39.2055 18.1695 41.5 21 41.5Z"/><path fill="#fff" d="M36.375 26.125C39.2055 26.125 41.5 23.8305 41.5 21C41.5 18.1695 39.2055 15.875 36.375 15.875C33.5445 15.875 31.25 18.1695 31.25 21C31.25 23.8305 33.5445 26.125 36.375 26.125Z"/><path fill="#fff" d="M5.625 10.75C8.45546 10.75 10.75 8.45546 10.75 5.625C10.75 2.79454 8.45546 0.5 5.625 0.5C2.79454 0.5 0.5 2.79454 0.5 5.625C0.5 8.45546 2.79454 10.75 5.625 10.75Z" opacity=".2"/><path fill="#fff" d="M21 10.75C23.8305 10.75 26.125 8.45546 26.125 5.625C26.125 2.79454 23.8305 0.5 21 0.5C18.1695 0.5 15.875 2.79454 15.875 5.625C15.875 8.45546 18.1695 10.75 21 10.75Z" opacity=".2"/><path fill="#fff" d="M36.375 10.75C39.2055 10.75 41.5 8.45546 41.5 5.625C41.5 2.79454 39.2055 0.5 36.375 0.5C33.5445 0.5 31.25 2.79454 31.25 5.625C31.25 8.45546 33.5445 10.75 36.375 10.75Z" opacity=".2"/></g><defs><clipPath id="clip0_5364_6889"><rect width="41" height="41" fill="#fff" transform="translate(0.5 0.5)"/></clipPath></defs></svg>