<svg xmlns="http://www.w3.org/2000/svg" width="20" height="12" fill="none" viewBox="0 0 20 12"><path fill="#999795" d="M13.4504 3.30469C13.777 3.30469 14.0441 3.54199 14.0441 3.89062V4.00781H15.8254C16.152 4.00781 16.4191 4.24512 16.4191 4.59375C16.4191 4.91602 16.152 5.17969 15.8254 5.17969H15.766L15.7185 5.31152C15.4543 6.00293 15.0505 6.67676 14.5399 7.22754C14.5666 7.24219 14.5934 7.2334 14.6201 7.27441L15.1812 7.60547C15.4632 7.77246 15.5523 8.13281 15.383 8.41113C15.2168 8.68945 14.8516 8.77734 14.5696 8.61035L14.0085 8.2793C13.8779 8.20019 13.7205 8.11816 13.6196 8.03027C13.3079 8.25 12.9695 8.44043 12.6132 8.59863L12.5034 8.64551C12.2035 8.77734 11.8532 8.64258 11.7196 8.34668C11.586 8.05078 11.7226 7.70508 12.0224 7.57324L12.1293 7.52637C12.3193 7.44141 12.5034 7.32129 12.6785 7.23926L12.3193 6.88184C12.0848 6.65332 12.0848 6.28418 12.3193 6.05566C12.5509 5.82422 12.9249 5.82422 13.1565 6.05566L13.5899 6.48047L13.6077 6.47168C13.9759 6.11426 14.2757 5.66895 14.4924 5.15332H11.3129C10.9596 5.15332 10.7191 4.91602 10.7191 4.56738C10.7191 4.24512 10.9596 3.98145 11.3129 3.98145H12.8566V3.86426C12.8566 3.54199 13.0971 3.27832 13.4504 3.27832V3.30469ZM4.90039 5.33203L5.46445 6.58594H4.30961L4.90039 5.33203ZM0.150391 2.25C0.150391 1.21436 1.00094 0.375 2.05039 0.375H17.2504C18.2984 0.375 19.1504 1.21436 19.1504 2.25V9.75C19.1504 10.7842 18.2984 11.625 17.2504 11.625H2.05039C1.00094 11.625 0.150391 10.7842 0.150391 9.75V2.25ZM9.65039 9.75H17.2504V2.25H9.65039V9.75ZM5.44367 3.65332C5.34867 3.44238 5.13492 3.30469 4.90039 3.30469C4.66586 3.30469 4.45211 3.44238 4.35711 3.65332L2.4577 7.87207C2.3247 8.1416 2.45948 8.51367 2.75933 8.64551C3.05887 8.77734 3.41008 8.64258 3.54367 8.34668L3.80789 7.73145H5.99289L6.25711 8.34668C6.3907 8.64258 6.74102 8.77734 7.04086 8.64551C7.3407 8.51367 7.47727 8.1416 7.34367 7.87207L5.44367 3.65332Z"/></svg>