<svg width="111" height="22" fill="none" xmlns="http://www.w3.org/2000/svg"><g clip-path="url(#a)" fill="#000"><path d="M3.53 8.267h1.08c1.058 0 1.839-.175 2.343-.523.503-.35.755-.897.755-1.645 0-.74-.259-1.267-.777-1.58-.511-.313-1.306-.47-2.386-.47H3.53v4.218Zm0 2.69v5.99H.183V1.338h4.6c2.144 0 3.732.388 4.76 1.164 1.03.769 1.545 1.94 1.545 3.513 0 .918-.256 1.737-.767 2.456-.51.712-1.234 1.27-2.17 1.676 2.375 3.51 3.923 5.777 4.643 6.802H9.08l-3.768-5.99H3.53Z"/><path d="M17.632 7.103c-.698 0-1.245.22-1.641.662-.396.434-.623 1.054-.68 1.858h4.62c-.014-.804-.226-1.424-.636-1.858-.41-.441-.965-.662-1.663-.662Zm.464 10.058c-1.943 0-3.462-.53-4.556-1.59-1.094-1.061-1.641-2.563-1.641-4.507 0-2 .504-3.545 1.511-4.634 1.015-1.096 2.415-1.644 4.2-1.644 1.706 0 3.034.48 3.984 1.441.95.961 1.425 2.289 1.425 3.983v1.58h-7.784c.036.926.313 1.648.831 2.168.519.52 1.246.78 2.181.78.727 0 1.415-.075 2.063-.225.647-.15 1.324-.388 2.03-.715v2.52a7.627 7.627 0 0 1-1.847.63c-.655.142-1.454.213-2.397.213ZM28.634 17.161c-1.418 0-2.533-.544-3.347-1.633-.806-1.09-1.209-2.598-1.209-4.528 0-1.957.41-3.48 1.231-4.57.828-1.096 1.965-1.644 3.412-1.644 1.518 0 2.677.584 3.476 1.751h.108c-.165-.89-.248-1.683-.248-2.381V.333h3.304v16.615h-2.527l-.637-1.548h-.14c-.749 1.174-1.89 1.761-3.423 1.761Zm1.156-2.594c.842 0 1.457-.242 1.846-.726.396-.484.612-1.307.648-2.467v-.352c0-1.282-.202-2.2-.605-2.755-.396-.555-1.044-.833-1.943-.833-.735 0-1.307.31-1.717.929-.403.612-.605 1.506-.605 2.68 0 1.175.205 2.057.616 2.648.41.584.997.876 1.76.876ZM47.843 16.948l-.929-4.175-1.252-5.275h-.076l-2.202 9.45h-3.541L36.409 5.01h3.282l1.393 5.286c.223.947.45 2.253.68 3.918h.065c.029-.54.155-1.398.378-2.573l.173-.907 1.49-5.724h3.627l1.415 5.724.13.694a26.564 26.564 0 0 1 .335 1.997c.05.327.078.59.085.79h.065c.065-.513.18-1.214.346-2.104.165-.897.284-1.502.356-1.815l1.447-5.286h3.228l-3.477 11.938h-3.584ZM58.597 10.958c0 1.181.194 2.075.583 2.68.396.605 1.037.907 1.922.907.878 0 1.508-.299 1.89-.897.388-.605.582-1.502.582-2.69 0-1.182-.194-2.068-.583-2.66-.388-.59-1.026-.885-1.91-.885-.879 0-1.512.295-1.901.886-.389.584-.583 1.47-.583 2.659Zm8.346 0c0 1.943-.518 3.463-1.555 4.559-1.036 1.096-2.48 1.644-4.33 1.644-1.158 0-2.18-.249-3.066-.747a5.066 5.066 0 0 1-2.04-2.168c-.475-.94-.713-2.036-.713-3.288 0-1.95.515-3.467 1.544-4.55 1.03-1.081 2.476-1.622 4.34-1.622 1.16 0 2.181.249 3.067.747a5.013 5.013 0 0 1 2.04 2.147c.475.932.713 2.025.713 3.278ZM71.403 10.958c0 1.181.194 2.075.583 2.68.396.605 1.036.907 1.922.907.878 0 1.507-.299 1.889-.897.389-.605.583-1.502.583-2.69 0-1.182-.194-2.068-.583-2.66-.389-.59-1.026-.885-1.911-.885-.878 0-1.512.295-1.9.886-.389.584-.583 1.47-.583 2.659Zm8.346 0c0 1.943-.519 3.463-1.555 4.559-1.037 1.096-2.48 1.644-4.33 1.644-1.159 0-2.18-.249-3.066-.747a5.065 5.065 0 0 1-2.04-2.168c-.476-.94-.713-2.036-.713-3.288 0-1.95.515-3.467 1.544-4.55 1.03-1.081 2.476-1.622 4.34-1.622 1.159 0 2.181.249 3.067.747a5.013 5.013 0 0 1 2.04 2.147c.475.932.713 2.025.713 3.278ZM85.407 17.161c-1.418 0-2.534-.544-3.347-1.633-.806-1.09-1.21-2.598-1.21-4.528 0-1.957.41-3.48 1.232-4.57.827-1.096 1.964-1.644 3.411-1.644 1.519 0 2.678.584 3.477 1.751h.108c-.166-.89-.249-1.683-.249-2.381V.333h3.304v16.615h-2.526L88.97 15.4h-.14c-.75 1.174-1.89 1.761-3.423 1.761Zm1.155-2.594c.842 0 1.458-.242 1.846-.726.396-.484.612-1.307.648-2.467v-.352c0-1.282-.201-2.2-.605-2.755-.395-.555-1.043-.833-1.943-.833-.734 0-1.306.31-1.717.929-.403.612-.604 1.506-.604 2.68 0 1.175.205 2.057.615 2.648.41.584.997.876 1.76.876Z"/><path d="M93.3 21.54c-.756 0-1.414-.079-1.976-.236V18.55a6.62 6.62 0 0 0 1.577.214c.734 0 1.26-.228 1.576-.683.317-.449.475-1.153.475-2.114V1.335h3.347v14.608c0 1.822-.421 3.21-1.263 4.164-.842.954-2.088 1.431-3.736 1.431ZM110.705 12.613c0 1.41-.514 2.52-1.544 3.331-1.022.812-2.447 1.217-4.275 1.217-1.684 0-3.174-.313-4.47-.94v-3.074c1.065.47 1.965.8 2.699.993.742.192 1.418.288 2.03.288.734 0 1.296-.139 1.684-.416.396-.278.594-.69.594-1.24 0-.305-.086-.576-.259-.81-.173-.243-.428-.474-.767-.695-.331-.22-1.011-.573-2.04-1.057-.965-.448-1.688-.879-2.17-1.292a4.833 4.833 0 0 1-1.155-1.441c-.288-.548-.432-1.189-.432-1.922 0-1.381.471-2.467 1.414-3.257.95-.79 2.26-1.185 3.93-1.185.821 0 1.601.096 2.343.288.748.192 1.529.463 2.343.812l-1.08 2.573c-.842-.342-1.54-.58-2.094-.715a6.738 6.738 0 0 0-1.62-.203c-.633 0-1.119.146-1.458.437-.338.292-.507.673-.507 1.143 0 .292.068.548.205.769.137.213.353.423.648.63.302.2 1.011.562 2.127 1.089 1.475.698 2.487 1.399 3.034 2.103.547.698.82 1.556.82 2.574Z"/></g><defs><clipPath id="a"><path fill="#fff" transform="translate(.183 .333)" d="M0 0h110.522v21.333H0z"/></clipPath></defs></svg>