<svg width="75" height="36" fill="none" xmlns="http://www.w3.org/2000/svg"><path d="M57.26.856c9.575 0 17.331 7.756 17.331 17.331 0 9.57-7.756 17.332-17.331 17.332H19.055a2.473 2.473 0 1 1 0-4.946h8.902a2.472 2.472 0 0 0 2.467-2.474 2.472 2.472 0 0 0-2.467-2.473h-1.981a2.473 2.473 0 1 1 0-4.946h5.937c1.373-.004 2.439-1.123 2.473-2.473a2.473 2.473 0 0 0-2.473-2.474H11.137a2.473 2.473 0 1 1 0-4.946h15.331c1.374-.004 2.439-1.123 2.473-2.473a2.473 2.473 0 0 0-2.473-2.473H23.01a2.473 2.473 0 0 1-2.474-2.473c0-1.366 1.108-2.538 2.474-2.538L57.26.856ZM54.489 6.63a9.625 9.625 0 0 0-9.628 9.627v3.852a9.621 9.621 0 0 0 9.628 9.627 9.625 9.625 0 0 0 9.627-9.627v-3.852c0-5.315-4.312-9.627-9.627-9.627Zm3.289 9.102a2.327 2.327 0 0 1 2.324 2.325v.298a2.327 2.327 0 0 1-2.324 2.324h-7.226a2.326 2.326 0 0 1-2.324-2.324v-.298a2.326 2.326 0 0 1 2.324-2.325h7.226ZM11.286 30.573a2.318 2.318 0 0 1 2.324 2.324v.298a2.322 2.322 0 0 1-2.324 2.324H2.732a2.327 2.327 0 0 1-2.324-2.324v-.298a2.322 2.322 0 0 1 2.324-2.324h8.553Z" fill="#000"/><path d="M15.248.894a2.321 2.321 0 0 1 2.318 2.325v.304a2.315 2.315 0 0 1-2.318 2.318h-9.55a2.321 2.321 0 0 1-2.324-2.318v-.304A2.327 2.327 0 0 1 5.698.894h9.55ZM18.213 20.68a2.326 2.326 0 0 1 2.324 2.324v.298a2.326 2.326 0 0 1-2.324 2.324h-5.244a2.327 2.327 0 0 1-2.324-2.324v-.298a2.327 2.327 0 0 1 2.324-2.324h5.244Z" fill="#000"/></svg>