<svg xmlns="http://www.w3.org/2000/svg" width="100%" fill="none" viewBox="0 0 51 51"><rect width="50" height="50" x=".5" y=".338" fill="url(#check_paint0-linear-1802-3323)" rx="4.32"/><path fill="#fff" d="M18.2519 30.8799H23.9451C24.5123 30.8799 24.9449 31.0008 25.243 31.2426C25.5412 31.4843 25.6902 31.813 25.6902 32.2286C25.6902 32.5988 25.5702 32.9123 25.3303 33.1692C25.0976 33.4261 24.7413 33.5546 24.2614 33.5546H16.2342C15.6888 33.5546 15.2635 33.3997 14.9581 33.0899C14.6527 32.7726 14.5 32.4023 14.5 31.9792C14.5 31.7072 14.5982 31.3483 14.7945 30.9026C14.9908 30.4492 15.2053 30.0941 15.438 29.8372C16.405 28.7946 17.2776 27.903 18.0556 27.1626C18.8336 26.4146 19.3898 25.9234 19.7243 25.6892C20.3205 25.251 20.8149 24.8128 21.2076 24.3746C21.6075 23.9288 21.9092 23.4754 22.1128 23.0146C22.3237 22.5461 22.4291 22.089 22.4291 21.6432C22.4291 21.1597 22.3164 20.729 22.091 20.3512C21.8729 19.9659 21.5711 19.6674 21.1858 19.4559C20.8077 19.2443 20.3932 19.1386 19.9424 19.1386C18.9899 19.1386 18.241 19.573 17.6956 20.4419C17.6229 20.5552 17.4993 20.865 17.3248 21.3712C17.1576 21.8774 16.9649 22.2666 16.7468 22.5386C16.5359 22.8106 16.2232 22.9466 15.8088 22.9466C15.4452 22.9466 15.1435 22.8219 14.9035 22.5726C14.6636 22.3232 14.5436 21.9832 14.5436 21.5526C14.5436 21.0312 14.6563 20.4872 14.8817 19.9206C15.1071 19.3539 15.4416 18.8401 15.8851 18.3792C16.336 17.9183 16.9031 17.5481 17.5866 17.2686C18.2773 16.9814 19.0844 16.8379 20.0079 16.8379C21.1203 16.8379 22.0692 17.0192 22.8545 17.3819C23.3635 17.6237 23.8106 17.9561 24.196 18.3792C24.5814 18.8023 24.8795 19.2934 25.0903 19.8526C25.3085 20.4041 25.4175 20.9783 25.4175 21.5752C25.4175 22.5121 25.1921 23.3659 24.7413 24.1366C24.2978 24.8997 23.8434 25.5003 23.378 25.9386C22.9127 26.3692 22.131 27.0492 21.0331 27.9786C19.9424 28.9079 19.1935 29.6294 18.7863 30.1432C18.6118 30.3472 18.4337 30.5928 18.2519 30.8799Z"/><path fill="#fff" d="M34.457 32.5572L32.2975 29.2592L30.0835 32.5572C29.7636 33.0181 29.4909 33.3468 29.2655 33.5432C29.0474 33.7397 28.7674 33.8379 28.4257 33.8379C28.0476 33.8379 27.724 33.717 27.455 33.4752C27.1932 33.2259 27.0624 32.9426 27.0624 32.6252C27.0624 32.3003 27.2659 31.8357 27.6731 31.2312L30.3671 27.2192L27.9785 23.8759C27.5641 23.3243 27.3568 22.8446 27.3568 22.4366C27.3568 22.1192 27.4804 21.8434 27.7277 21.6092C27.9749 21.375 28.2984 21.2579 28.6983 21.2579C29.0474 21.2579 29.3346 21.3599 29.56 21.5639C29.7926 21.7679 30.0617 22.089 30.3671 22.5272L32.2975 25.2699L34.1735 22.5272C34.4861 22.0739 34.7552 21.749 34.9806 21.5526C35.2132 21.3561 35.5005 21.2579 35.8422 21.2579C36.2348 21.2579 36.5584 21.375 36.8129 21.6092C37.0746 21.8359 37.2055 22.1117 37.2055 22.4366C37.2055 22.6708 37.151 22.8974 37.0419 23.1166C36.9401 23.3281 36.7802 23.5812 36.562 23.8759L34.1735 27.2192L36.8674 31.2312C37.2891 31.8583 37.5 32.3306 37.5 32.6479C37.5 32.9728 37.3691 33.2523 37.1074 33.4866C36.8456 33.7208 36.522 33.8379 36.1367 33.8379C35.7949 33.8379 35.5041 33.7359 35.2641 33.5319C35.0315 33.3279 34.7624 33.003 34.457 32.5572Z"/><defs><linearGradient id="check_paint0-linear-1802-3323" x1="25.5" x2="-1.576" y1="-1.162" y2="29.161" gradientUnits="userSpaceOnUse"><stop stop-color="#FFAD33"/><stop offset="1" stop-color="#FF8A00"/></linearGradient></defs></svg>