<svg xmlns="http://www.w3.org/2000/svg" width="100%" fill="none" viewBox="0 0 66 65"><path fill="url(#Subtract_paint0-linear-96-410)" fill-rule="evenodd" d="M32.9999 64.3495C50.6935 64.3495 65.037 50.006 65.037 32.3125C65.037 14.6189 50.6935 0.275421 32.9999 0.275421C15.3064 0.275421 0.962891 14.6189 0.962891 32.3125C0.962891 50.006 15.3064 64.3495 32.9999 64.3495ZM31.2632 9.66849C32.7695 9.66849 33.9907 10.8896 33.9907 12.396V31.4886L50.6168 31.4886C52.1231 31.4886 53.3443 32.7097 53.3443 34.2161C53.3443 35.7224 52.1231 36.9436 50.6168 36.9436H31.706C31.6315 36.9436 31.5577 36.9406 31.4847 36.9347C31.4116 36.9406 31.3377 36.9436 31.2632 36.9436C29.7568 36.9436 28.5356 35.7225 28.5356 34.2161V12.396C28.5356 10.8896 29.7568 9.66849 31.2632 9.66849Z" clip-rule="evenodd"/><defs><linearGradient id="Subtract_paint0-linear-96-410" x1="38.71" x2="11.922" y1=".313" y2="40.393" gradientUnits="userSpaceOnUse"><stop stop-color="#FFAD33"/><stop offset="1" stop-color="#FF8A00"/></linearGradient></defs></svg>