<svg xmlns="http://www.w3.org/2000/svg" width="60" height="40" fill="none" viewBox="0 0 60 40"><path fill="url(#paint0_linear_1853_3446)" fill-rule="evenodd" d="M52.9917 17.4554C57.0252 19.1219 59.8606 23.1481 59.8606 27.8503C59.8606 34.0314 54.9283 39.065 48.8439 39.065H11.3804C5.28321 39.065 0.363708 34.044 0.363708 27.8503C0.363708 23.2503 3.09541 19.2858 7.00069 17.5586C6.98329 17.2532 6.97447 16.9454 6.97447 16.6356C6.97447 7.96438 13.8805 0.934998 22.3996 0.934998C28.157 0.934998 33.1777 4.14565 35.8278 8.90389C37.4294 8.10952 39.2286 7.66381 41.1301 7.66381C46.9666 7.66381 51.8396 11.8632 52.9917 17.4554Z" clip-rule="evenodd"/><defs><linearGradient id="paint0_linear_1853_3446" x1="45.36" x2="13.621" y1="3.817" y2="30.019" gradientUnits="userSpaceOnUse"><stop stop-color="#FFAD33"/><stop offset="1" stop-color="#FF8A00"/></linearGradient></defs></svg>