<svg xmlns="http://www.w3.org/2000/svg" width="100%" fill="none" viewBox="0 0 51 60"><path fill="url(#Subtract_paint0-linear-5105-5438)" fill-rule="evenodd" d="M7.78949 0.456055C3.61422 0.456055 0.229492 3.84078 0.229492 8.01606V51.9839C0.229492 56.1592 3.61421 59.5439 7.78949 59.5439H43.2105C47.3857 59.5439 50.7705 56.1592 50.7705 51.9839V8.01605C50.7705 3.84078 47.3857 0.456055 43.2105 0.456055H7.78949ZM12.4741 16.5691C11.2933 16.5691 10.336 17.5264 10.336 18.7073C10.336 19.8881 11.2933 20.8454 12.4741 20.8454H22.7439C23.9248 20.8454 24.8821 19.8881 24.8821 18.7073C24.8821 17.5264 23.9248 16.5691 22.7439 16.5691H12.4741ZM10.336 28.4787C10.336 27.2978 11.2933 26.3405 12.4741 26.3405H38.5258C39.7067 26.3405 40.6639 27.2978 40.6639 28.4787C40.6639 29.6595 39.7067 30.6168 38.5258 30.6168H12.4741C11.2933 30.6168 10.336 29.6595 10.336 28.4787ZM12.4741 36.112C11.2933 36.112 10.336 37.0692 10.336 38.2501C10.336 39.431 11.2933 40.3882 12.4741 40.3882H38.5258C39.7067 40.3882 40.6639 39.431 40.6639 38.2501C40.6639 37.0692 39.7067 36.112 38.5258 36.112H12.4741Z" clip-rule="evenodd"/><defs><linearGradient id="Subtract_paint0-linear-5105-5438" x1="38.453" x2=".823" y1="4.922" y2="21.951" gradientUnits="userSpaceOnUse"><stop stop-color="#FFAD33"/><stop offset="1" stop-color="#FF8A00"/></linearGradient></defs></svg>