<svg xmlns="http://www.w3.org/2000/svg" width="100%" fill="none" viewBox="0 0 71 71"><path fill="url(#Subtract_paint0-linear-1802-3209)" fill-rule="evenodd" d="M68.7316 27.7933L63.3515 26.6237C62.8836 25.1914 62.3042 23.7943 61.6201 22.4485L64.5985 17.8155C65.1304 16.9877 65.0135 15.9009 64.3181 15.2056L55.9366 6.8241C55.2413 6.12875 54.1545 6.01179 53.3267 6.54372L48.6937 9.52215C47.3479 8.83803 45.9508 8.25857 44.5185 7.79074L43.3489 2.41064C43.1401 1.44934 42.2888 0.763611 41.305 0.763611H29.4522C28.4684 0.763611 27.6171 1.44934 27.4083 2.41064L26.2387 7.79074C24.8064 8.25857 23.4093 8.83803 22.0635 9.52215L17.4305 6.54372C16.6027 6.01179 15.5159 6.12875 14.8206 6.8241L6.43909 15.2056C5.74374 15.9009 5.62678 16.9877 6.15871 17.8155L9.13715 22.4485C8.45302 23.7943 7.87357 25.1914 7.40573 26.6237L2.02563 27.7933C1.06433 28.0027 0.378601 28.8534 0.378601 29.8372V41.69C0.378601 42.6738 1.06433 43.5245 2.02563 43.7339L7.40573 44.9035C7.87357 46.3358 8.45302 47.7329 9.13715 49.0787L6.15871 53.7117C5.62678 54.5395 5.74374 55.6263 6.43909 56.3216L14.8206 64.7031C15.5159 65.3985 16.6027 65.5154 17.4305 64.9835L22.0635 62.0051C23.4093 62.6892 24.8064 63.2686 26.2387 63.7365L27.4083 69.1166C27.6171 70.0779 28.4684 70.7636 29.4522 70.7636H41.305C42.2888 70.7636 43.1401 70.0779 43.3489 69.1166L44.5185 63.7365C45.9508 63.2686 47.3479 62.6892 48.6937 62.0051L53.3267 64.9835C54.1545 65.5154 55.2413 65.399 55.9366 64.7031L64.3181 56.3216C65.0135 55.6263 65.1304 54.5395 64.5985 53.7117L61.6201 49.0787C62.3042 47.7329 62.8836 46.3358 63.3515 44.9035L68.7316 43.7339C69.6929 43.5245 70.3786 42.6738 70.3786 41.69V29.8372C70.3786 28.8534 69.6929 28.0027 68.7316 27.7933ZM48.4718 37.2284C49.0822 36.8785 49.0822 36.004 48.4718 35.6542L28.5567 24.2415C27.9463 23.8917 27.1833 24.3289 27.1833 25.0285L27.1833 47.854C27.1833 48.5536 27.9463 48.9909 28.5567 48.6411L48.4718 37.2284Z" clip-rule="evenodd"/><defs><linearGradient id="Subtract_paint0-linear-1802-3209" x1="53.319" x2="4.259" y1="6.054" y2="32.01" gradientUnits="userSpaceOnUse"><stop stop-color="#FFAD33"/><stop offset="1" stop-color="#FF8A00"/></linearGradient></defs></svg>