<svg xmlns="http://www.w3.org/2000/svg" fill="none" viewBox="0 0 61 42"><path fill="url(#Union_paint0-linear-5105-1311)" fill-rule="evenodd" d="M7.67033 17.2662C3.82491 17.8484 0.877686 21.1679 0.877686 25.1757V33.7944C0.877686 38.2127 4.4594 41.7944 8.87768 41.7944H9.18437C13.6027 41.7944 17.1844 38.2127 17.1844 33.7944V25.1757C17.1844 22.0185 15.3554 19.2884 12.6991 17.9872C15.3837 10.5013 22.3924 5.20557 30.5414 5.20557C38.679 5.20557 45.6776 10.4841 48.3712 17.9533C45.6771 19.2405 43.8158 21.9908 43.8158 25.1757V33.7944C43.8158 38.2127 47.3976 41.7944 51.8158 41.7944H52.1225C56.5408 41.7944 60.1225 38.2127 60.1225 33.7944V25.1757C60.1225 21.1982 57.2197 17.8986 53.417 17.2799C50.3308 7.40577 41.2906 0.205566 30.5414 0.205566C19.7962 0.205566 10.7608 7.39785 7.67033 17.2662Z" clip-rule="evenodd"/><defs><linearGradient id="Union_paint0-linear-5105-1311" x1="45.684" x2="11.791" y1="3.349" y2="28.893" gradientUnits="userSpaceOnUse"><stop stop-color="#FFAD33"/><stop offset="1" stop-color="#FF8A00"/></linearGradient></defs></svg>