<svg xmlns="http://www.w3.org/2000/svg" width="100%" fill="none" viewBox="0 0 44 51"><path fill="url(#Union_paint0-linear-1802-3346)" fill-rule="evenodd" d="M10.3565 18.4068H33.7545C33.7879 18.0456 33.805 17.6796 33.805 17.3096C33.805 10.8205 28.5446 5.56008 22.0555 5.56008C15.5664 5.56008 10.3059 10.8205 10.3059 17.3096C10.3059 17.6796 10.323 18.0456 10.3565 18.4068ZM5.20946 18.8334C5.16464 18.3314 5.14175 17.8232 5.14175 17.3096C5.14175 7.96846 12.7143 0.395935 22.0555 0.395935C31.3966 0.395935 38.9692 7.96846 38.9692 17.3096C38.9692 17.823 38.9463 18.331 38.9015 18.8327C41.7579 19.8503 43.8026 22.5784 43.8026 25.7842V43.5145C43.8026 47.5889 40.4996 50.8919 36.4252 50.8919H7.68756C3.61316 50.8919 0.310211 47.5889 0.310211 43.5145V25.7842C0.310211 22.5791 2.35404 19.8515 5.20946 18.8334Z" clip-rule="evenodd"/><defs><linearGradient id="Union_paint0-linear-1802-3346" x1="33.203" x2=".897" y1="4.212" y2="18.934" gradientUnits="userSpaceOnUse"><stop stop-color="#FFAD33"/><stop offset="1" stop-color="#FF8A00"/></linearGradient></defs></svg>