<svg xmlns="http://www.w3.org/2000/svg" width="81" height="41" fill="none" viewBox="0 0 81 41"><path fill="url(#paint0_linear_133_1198)" d="M24.987 30.4154L11.8662 25.5011C10.4146 24.9297 8.6279 24.244 6.50625 23.5583C8.51624 22.8726 10.3029 22.1868 11.8104 21.6154L24.987 16.4154V9.10112L0.0854492 19.7868V27.2726L24.987 38.0154V30.4154Z"/><path fill="url(#paint1_linear_133_1198)" d="M36.2142 40.644L50.675 0.643982H43.975L29.5143 40.644H36.2142Z"/><path fill="url(#paint2_linear_133_1198)" d="M80.0854 27.2726V19.7868L55.1839 9.10112V16.4154L69.533 22.0726C70.9288 22.5868 72.0455 22.9868 73.8321 23.5011C72.0455 24.0154 70.9847 24.4154 69.5888 24.9297L55.1839 30.4154V38.0154L80.0854 27.2726Z"/><defs><linearGradient id="paint0_linear_133_1198" x1="11.585" x2="33.997" y1="6.394" y2="55.161" gradientUnits="userSpaceOnUse"><stop stop-color="#FFAD33"/><stop offset="1" stop-color="#FF8A00"/></linearGradient><linearGradient id="paint1_linear_133_1198" x1="11.585" x2="33.997" y1="6.394" y2="55.161" gradientUnits="userSpaceOnUse"><stop stop-color="#FFAD33"/><stop offset="1" stop-color="#FF8A00"/></linearGradient><linearGradient id="paint2_linear_133_1198" x1="11.585" x2="33.997" y1="6.394" y2="55.161" gradientUnits="userSpaceOnUse"><stop stop-color="#FFAD33"/><stop offset="1" stop-color="#FF8A00"/></linearGradient></defs></svg>