<svg xmlns="http://www.w3.org/2000/svg" width="70" height="82" fill="none" viewBox="0 0 70 82"><path fill="url(#paint0_linear_1853_3433)" d="M2.76141 11.7729L33.4423 0.967936C34.3022 0.665094 35.2398 0.665095 36.0997 0.967936L66.5997 11.7092C68.2002 12.2729 69.271 13.7852 69.271 15.4821V21.2996C69.271 40.6296 66.4793 61.4945 51.0579 73.1491C45.3534 77.4603 39.5865 80.2884 35.2131 81.3931C34.9186 81.4675 34.6233 81.4675 34.3288 81.3932C30.2709 80.3698 25.0095 77.8812 19.6067 73.9477C1.9422 61.0871 -0.752845 37.1191 0.160586 15.2881C0.227251 13.6948 1.25729 12.3026 2.76141 11.7729Z"/><defs><linearGradient id="paint0_linear_1853_3433" x1="59.352" x2="48.684" y1="8.6" y2="79.672" gradientUnits="userSpaceOnUse"><stop stop-color="#FFAD33"/><stop offset="1" stop-color="#FF8A00"/></linearGradient></defs></svg>