<svg xmlns="http://www.w3.org/2000/svg" width="100%" fill="none" viewBox="0 0 61 60"><g clip-path="url(#team_clip0-5105-5251)"><circle cx="51.125" cy="27.375" r="6.375" fill="url(#team_paint0-linear-5105-5251)" opacity=".5"/><ellipse cx="9.875" cy="32.625" fill="url(#team_paint1-linear-5105-5251)" opacity=".5" rx="6.375" ry="6.375"/><ellipse cx="51.125" cy="44.625" fill="url(#team_paint2-linear-5105-5251)" opacity=".5" rx="10.125" ry="10.125"/><circle cx="9.875" cy="49.875" r="10.125" fill="url(#team_paint3-linear-5105-5251)" opacity=".5"/><ellipse cx="30.503" cy="24.964" fill="url(#team_paint4-linear-5105-5251)" rx="10.714" ry="10.714"/><ellipse cx="30.504" cy="54.964" fill="url(#team_paint5-linear-5105-5251)" rx="17.143" ry="17.143"/></g><defs><linearGradient id="team_paint0-linear-5105-5251" x1="54.393" x2="45.457" y1="21.964" y2="26.691" gradientUnits="userSpaceOnUse"><stop stop-color="#FFAD33"/><stop offset="1" stop-color="#FF8A00"/></linearGradient><linearGradient id="team_paint1-linear-5105-5251" x1="13.143" x2="4.207" y1="27.214" y2="31.941" gradientUnits="userSpaceOnUse"><stop stop-color="#FFAD33"/><stop offset="1" stop-color="#FF8A00"/></linearGradient><linearGradient id="team_paint2-linear-5105-5251" x1="56.315" x2="42.123" y1="36.031" y2="43.539" gradientUnits="userSpaceOnUse"><stop stop-color="#FFAD33"/><stop offset="1" stop-color="#FF8A00"/></linearGradient><linearGradient id="team_paint3-linear-5105-5251" x1="15.065" x2=".872" y1="41.281" y2="48.789" gradientUnits="userSpaceOnUse"><stop stop-color="#FFAD33"/><stop offset="1" stop-color="#FF8A00"/></linearGradient><linearGradient id="team_paint4-linear-5105-5251" x1="35.995" x2="20.976" y1="15.87" y2="23.815" gradientUnits="userSpaceOnUse"><stop stop-color="#FFAD33"/><stop offset="1" stop-color="#FF8A00"/></linearGradient><linearGradient id="team_paint5-linear-5105-5251" x1="39.291" x2="15.261" y1="40.413" y2="53.126" gradientUnits="userSpaceOnUse"><stop stop-color="#FFAD33"/><stop offset="1" stop-color="#FF8A00"/></linearGradient><clipPath id="team_clip0-5105-5251"><path fill="#fff" d="M0.5 30C0.5 13.4315 13.9315 0 30.5 0C47.0685 0 60.5 13.4315 60.5 30C60.5 46.5685 47.0685 60 30.5 60C13.9315 60 0.5 46.5685 0.5 30Z"/></clipPath></defs></svg>