<svg xmlns="http://www.w3.org/2000/svg" width="34" height="37" fill="none" viewBox="0 0 34 37"><path fill="url(#paint0_linear_9194_1422)" fill-rule="evenodd" d="M4.6535 0.910278C2.26763 0.910278 0.333496 2.84441 0.333496 5.23028V32.3046C0.333496 34.6904 2.26763 36.6246 4.6535 36.6246H29.3468C31.7327 36.6246 33.6668 34.6904 33.6668 32.3046V5.23028C33.6668 2.84441 31.7327 0.910278 29.3468 0.910278H4.6535ZM21.4626 24.8735C21.4574 25.5221 21.9439 26.0523 22.5492 26.0579C23.1545 26.0635 23.6495 25.5422 23.6547 24.8937L23.7515 12.8182C23.7541 12.5026 23.638 12.1993 23.4294 11.9765C23.2209 11.7537 22.9374 11.6301 22.6429 11.6338L11.4047 11.7722C10.7994 11.7796 10.3143 12.3114 10.3213 12.96C10.3283 13.6085 10.8246 14.1282 11.4299 14.1208L19.9785 14.0155L9.99639 24.7106C9.56835 25.1692 9.56835 25.9128 9.99639 26.3714C10.4244 26.83 11.1184 26.83 11.5465 26.3714L21.5364 15.6679L21.4626 24.8735Z" clip-rule="evenodd"/><defs><linearGradient id="paint0_linear_9194_1422" x1="25.543" x2="1.504" y1="3.61" y2="15.48" gradientUnits="userSpaceOnUse"><stop stop-color="#FFAD33"/><stop offset="1" stop-color="#FF8A00"/></linearGradient></defs></svg>