<svg viewBox="0 0 161 70" fill="none" xmlns="http://www.w3.org/2000/svg"><circle cx="35.018" cy="34.438" r="34.403" fill="url(#a)"/><path d="m28.204 30.457-3.075-7.474h-1.601l-3.075 7.474h1.494l.759-2.04h3.181l.748 2.04h1.57Zm-4.207-5.552c.118-.3.214-.556.31-.865.086.31.171.555.288.865l.855 2.327h-2.307l.854-2.327Zm4.878-1.922v7.474h1.399v-7.474h-1.399Zm6.163 7.666c2.007 0 3.257-1.164 3.438-2.893h-1.399c-.15.993-.886 1.708-1.996 1.708-1.303 0-2.242-1.057-2.242-2.797 0-1.677.95-2.691 2.274-2.691 1.1 0 1.74.662 1.879 1.634h1.452c-.192-1.773-1.505-2.82-3.331-2.82-2.114 0-3.716 1.474-3.716 3.877 0 2.54 1.42 3.982 3.641 3.982Zm5.846-.192v-2.99h1.74c1.506 0 2.734-.619 2.734-2.242 0-1.58-1.174-2.242-2.733-2.242h-3.14v7.474h1.4Zm0-6.289h1.74c.919 0 1.293.406 1.293 1.057 0 .651-.395 1.057-1.292 1.057h-1.74v-2.114Zm11.68 6.289-3.075-7.474h-1.602l-3.075 7.474h1.495l.758-2.04h3.182l.747 2.04h1.57Zm-4.207-5.552c.117-.3.214-.556.31-.865.085.31.17.555.288.865l.854 2.327h-2.306l.854-2.327ZM27.227 44.885c1.921 0 2.968-1.014 2.968-2.413 0-1.25-.918-1.911-2.082-2.136l-1.26-.245c-.758-.15-1.26-.352-1.26-.93 0-.608.62-.95 1.43-.95 1.111 0 1.602.588 1.634 1.271h1.453c-.086-1.452-1.122-2.456-3-2.456-1.688 0-2.916.93-2.916 2.253 0 1.196.918 1.89 2.093 2.114l1.27.246c.823.15 1.229.47 1.229 1.036 0 .726-.663 1.025-1.495 1.025-.993 0-1.837-.534-1.912-1.57h-1.452c.118 1.666 1.292 2.755 3.3 2.755Zm7.391 0c2.093 0 3.695-1.43 3.695-3.93 0-2.37-1.602-3.929-3.695-3.929s-3.662 1.527-3.662 3.93c0 2.509 1.57 3.93 3.662 3.93Zm0-1.185c-1.324 0-2.22-1.004-2.22-2.744 0-1.698.886-2.744 2.22-2.744 1.335 0 2.253 1.067 2.253 2.744 0 1.761-.929 2.744-2.253 2.744Zm8.047 1.185c2.008 0 3.257-1.164 3.438-2.893h-1.398c-.15.992-.886 1.708-1.997 1.708-1.303 0-2.242-1.057-2.242-2.798 0-1.676.95-2.69 2.274-2.69 1.1 0 1.74.662 1.88 1.633h1.452c-.193-1.772-1.506-2.819-3.332-2.819-2.114 0-3.716 1.474-3.716 3.876 0 2.542 1.42 3.983 3.641 3.983Z" fill="#12100C"/><path stroke="#F9F9F9" stroke-width="1.186" stroke-linecap="round" d="M15.444 33.844h38.568"/><g clip-path="url(#b)"><circle cx="125.185" cy="35.328" r="34.405" fill="url(#c)"/><path fill-rule="evenodd" clip-rule="evenodd" d="m127.663 10.667-2.302-1.302-2.281 1.344.47-2.698-1.923-1.86 2.592-.364 1.092-2.492 1.132 2.472 2.598.318-1.893 1.893.515 2.69ZM134.78 65.241l-2.302-1.302-2.28 1.344.47-2.698-1.923-1.859 2.592-.365 1.092-2.492 1.132 2.472 2.597.318-1.892 1.893.514 2.69ZM120.543 65.241l-2.302-1.302-2.28 1.344.469-2.698-1.923-1.859 2.592-.365 1.092-2.492 1.133 2.472 2.597.318-1.892 1.893.514 2.69ZM154.949 35.341l-2.302-1.302-2.28 1.344.469-2.698-1.923-1.859 2.592-.365 1.092-2.492 1.133 2.472 2.597.318-1.893 1.893.515 2.69ZM100.375 35.582l-2.302-1.302-2.28 1.343.469-2.697-1.923-1.86 2.592-.365 1.092-2.492 1.132 2.472 2.597.319-1.892 1.893.515 2.689ZM101.562 48.632l-2.302-1.301-2.28 1.343.47-2.698-1.924-1.859 2.593-.365 1.091-2.492 1.133 2.472 2.597.319-1.892 1.892.514 2.69ZM109.866 59.31l-2.302-1.302-2.28 1.343.47-2.697-1.923-1.86 2.592-.365 1.092-2.492 1.132 2.472 2.597.319-1.892 1.893.514 2.689ZM140.712 14.227l-2.302-1.302-2.28 1.343.469-2.698-1.923-1.859 2.592-.365 1.092-2.492 1.133 2.472 2.597.319-1.893 1.893.515 2.689ZM150.203 22.532l-2.302-1.302-2.28 1.343.47-2.697-1.924-1.86 2.593-.365 1.092-2.491 1.132 2.471 2.597.319-1.892 1.893.514 2.689ZM153.763 48.632l-2.302-1.301-2.28 1.343.469-2.698-1.923-1.859 2.592-.365 1.092-2.492 1.133 2.472 2.597.319-1.893 1.892.515 2.69ZM146.645 59.31l-2.302-1.302-2.281 1.343.47-2.697-1.923-1.86 2.592-.365 1.092-2.492 1.132 2.472 2.597.319-1.892 1.893.515 2.689ZM104.88 22.771l-2.302-1.301-2.28 1.343.47-2.698-1.923-1.859 2.592-.365 1.092-2.492 1.132 2.472 2.597.319-1.892 1.893.514 2.689ZM114.372 13.28l-2.302-1.301-2.28 1.343.47-2.698-1.924-1.859 2.593-.365 1.092-2.492 1.132 2.472 2.597.318-1.892 1.893.514 2.69Z" fill="#F9F9F9"/><path d="M114.957 38.656c1.164 0 1.922-.502 2.274-1.175a3.505 3.505 0 0 0-.075.747v.235h1.282v-3.982h-3.31v1.185h2.028v.053c0 1.068-.865 1.751-1.975 1.751-1.367 0-2.306-1.046-2.306-2.744 0-1.697.961-2.744 2.338-2.744.993 0 1.655.577 1.751 1.324h1.442c-.139-1.452-1.346-2.51-3.214-2.51-2.253 0-3.759 1.624-3.759 3.93 0 2.392 1.41 3.93 3.524 3.93Zm7.443-.193c2.573 0 3.929-1.473 3.929-3.726 0-2.434-1.441-3.748-3.961-3.748h-2.648v7.474h2.68Zm-1.281-6.289h1.174c1.719 0 2.606.95 2.606 2.563 0 1.73-1.025 2.541-2.595 2.541h-1.185v-5.104Zm7.766 6.29v-2.99h1.74c1.506 0 2.734-.62 2.734-2.243 0-1.58-1.175-2.242-2.734-2.242h-3.139v7.474h1.399Zm0-6.29h1.74c.918 0 1.292.406 1.292 1.057 0 .652-.395 1.057-1.292 1.057h-1.74v-2.114Zm6.806 6.29V35.43h1.57c.908 0 1.228.32 1.228 1.207v1.825h1.409V36.51c0-.96-.459-1.58-1.313-1.73.715-.213 1.431-.8 1.431-1.825 0-1.303-1.014-1.965-2.413-1.965h-3.31v7.474h1.398Zm0-6.29h1.645c.822 0 1.238.363 1.238 1.036s-.416 1.025-1.238 1.025h-1.645v-2.06Z" fill="#12100C"/></g><defs><linearGradient id="a" x1="10.506" y1="9.926" x2="61.127" y2="65.002" gradientUnits="userSpaceOnUse"><stop stop-color="#FFAD33"/><stop offset="1" stop-color="#FF8A00"/></linearGradient><linearGradient id="c" x1="100.671" y1="10.814" x2="151.296" y2="65.893" gradientUnits="userSpaceOnUse"><stop stop-color="#FFAD33"/><stop offset="1" stop-color="#FF8A00"/></linearGradient><clipPath id="b"><path fill="#fff" transform="translate(90.249 .91)" d="M0 0h70.037v69.09H0z"/></clipPath></defs></svg>