<svg xmlns="http://www.w3.org/2000/svg" width="146" height="142" fill="none" viewBox="0 0 146 142"><g filter="url(#filter0_dd_4679_2640)"><g clip-path="url(#clip0_4679_2640)"><rect width="74" height="70" x="36" y="27" fill="#F3F1F0" rx="4.315"/><path fill="#DADADA" d="M36 31.3152C36 28.932 37.932 27 40.3152 27H105.685C108.068 27 110 28.932 110 31.3152V39.069H36V31.3152Z"/><ellipse cx="44.222" cy="33.034" fill="#C4C4C4" rx="2.349" ry="2.414"/><rect width="24.667" height="4.828" x="44.222" y="47.517" fill="#DADADA"/><rect width="43.46" height="4.828" x="51.27" y="59.586" fill="#DADADA"/><rect width="43.46" height="4.828" x="51.27" y="71.655" fill="#DADADA"/><path fill="#FFB45B" d="M36 87.3447H110V92.6799C110 95.0658 108.066 96.9999 105.68 96.9999H40.32C37.9341 96.9999 36 95.0658 36 92.6799V87.3447Z"/></g></g><defs><filter id="filter0_dd_4679_2640" width="151.68" height="149.68" x="-2.84" y="-3.88" color-interpolation-filters="sRGB" filterUnits="userSpaceOnUse"><feFlood flood-opacity="0" result="BackgroundImageFix"/><feColorMatrix in="SourceAlpha" result="hardAlpha" type="matrix" values="0 0 0 0 0 0 0 0 0 0 0 0 0 0 0 0 0 0 127 0"/><feOffset dy="8.96"/><feGaussianBlur stdDeviation="17.92"/><feColorMatrix type="matrix" values="0 0 0 0 0 0 0 0 0 0 0 0 0 0 0 0 0 0 0.12 0"/><feBlend in2="BackgroundImageFix" mode="normal" result="effect1_dropShadow_4679_2640"/><feColorMatrix in="SourceAlpha" result="hardAlpha" type="matrix" values="0 0 0 0 0 0 0 0 0 0 0 0 0 0 0 0 0 0 127 0"/><feOffset dy="3.584"/><feGaussianBlur stdDeviation="4.48"/><feColorMatrix type="matrix" values="0 0 0 0 0 0 0 0 0 0 0 0 0 0 0 0 0 0 0.08 0"/><feBlend in2="effect1_dropShadow_4679_2640" mode="normal" result="effect2_dropShadow_4679_2640"/><feBlend in="SourceGraphic" in2="effect2_dropShadow_4679_2640" mode="normal" result="shape"/></filter><clipPath id="clip0_4679_2640"><rect width="74" height="70" x="36" y="27" fill="#fff" rx="4.315"/></clipPath></defs></svg>