<svg width="41" height="48" fill="none" xmlns="http://www.w3.org/2000/svg"><g filter="url(#a)"><path fill-rule="evenodd" clip-rule="evenodd" d="M31.498 14.562c0 .85-.099 1.677-.285 2.47H10.23a10.807 10.807 0 0 1-.285-2.47c0-5.952 4.825-10.777 10.776-10.777 5.952 0 10.777 4.825 10.777 10.777Zm-25.338 0c0 .876.077 1.734.225 2.567A5.41 5.41 0 0 0 2 22.44v17.152A5.408 5.408 0 0 0 7.408 45h26.629a5.408 5.408 0 0 0 5.407-5.408V22.44a5.41 5.41 0 0 0-4.386-5.311 14.65 14.65 0 0 0 .225-2.567C35.283 6.519 28.763 0 20.721 0S6.16 6.52 6.16 14.562Zm19.275 14.21a4.558 4.558 0 0 1-2.864 4.232v4.1a1.692 1.692 0 0 1-3.386 0v-4.1a4.558 4.558 0 0 1 1.693-8.789 4.557 4.557 0 0 1 4.557 4.557Z" fill="#DADADA"/></g><defs><filter id="a" x=".934" y="0" width="39.576" height="47.131" filterUnits="userSpaceOnUse" color-interpolation-filters="sRGB"><feFlood flood-opacity="0" result="BackgroundImageFix"/><feColorMatrix in="SourceAlpha" values="0 0 0 0 0 0 0 0 0 0 0 0 0 0 0 0 0 0 127 0" result="hardAlpha"/><feOffset dy="1.066"/><feGaussianBlur stdDeviation=".533"/><feComposite in2="hardAlpha" operator="out"/><feColorMatrix values="0 0 0 0 0 0 0 0 0 0 0 0 0 0 0 0 0 0 0.25 0"/><feBlend in2="BackgroundImageFix" result="effect1_dropShadow"/><feBlend in="SourceGraphic" in2="effect1_dropShadow" result="shape"/></filter></defs></svg>