<svg xmlns="http://www.w3.org/2000/svg" width="61" height="31" fill="none" viewBox="0 0 61 31"><path fill="url(#paint0_linear_514_1162)" d="M19.4491 23.6659C19.4491 23.2489 19.1903 22.8756 18.7998 22.7294L9.60853 19.2868C9.24331 19.1431 8.84982 18.9897 8.42806 18.8298C7.5284 18.4889 7.51976 17.1459 8.42011 16.8068C8.82276 16.6552 9.20539 16.5095 9.56665 16.3726L18.8162 12.7223C19.1981 12.5716 19.4491 12.2027 19.4491 11.7921V8.50414C19.4491 7.78603 18.7147 7.30199 18.0548 7.58518L1.37861 14.7412C1.01115 14.8989 0.772949 15.2603 0.772949 15.6602V19.9577C0.772949 20.3569 1.01032 20.7178 1.37683 20.8759L18.053 28.0702C18.7131 28.355 19.4491 27.871 19.4491 27.1521V23.6659Z"/><path fill="url(#paint1_linear_514_1162)" d="M27.1677 30.644C27.5889 30.644 27.9649 30.3801 28.1081 29.984L38.2307 1.98396C38.4663 1.33208 37.9834 0.643982 37.2902 0.643982H34.3919C33.9707 0.643982 33.5947 0.907896 33.4515 1.304L23.329 29.304C23.0933 29.9559 23.5762 30.644 24.2694 30.644H27.1677Z"/><path fill="url(#paint2_linear_514_1162)" d="M60.1691 20.8759C60.5356 20.7178 60.7729 20.3569 60.7729 19.9577V15.6602C60.7729 15.2603 60.5348 14.8989 60.1673 14.7412L43.4911 7.58518C42.8312 7.30199 42.0968 7.78603 42.0968 8.50414V11.7919C42.0968 12.2026 42.3479 12.5716 42.73 12.7222L52.8586 16.7154C52.8711 16.72 52.8835 16.7246 52.896 16.7292C53.8066 17.0645 53.8111 18.5228 52.9005 18.8583L42.7409 22.7273C42.3531 22.8749 42.0968 23.2468 42.0968 23.6618V27.152C42.0968 27.871 42.8328 28.355 43.4929 28.0702L60.1691 20.8759Z"/><defs><linearGradient id="paint0_linear_514_1162" x1="9.398" x2="26.206" y1="4.956" y2="41.532" gradientUnits="userSpaceOnUse"><stop stop-color="#FFAD33"/><stop offset="1" stop-color="#FF8A00"/></linearGradient><linearGradient id="paint1_linear_514_1162" x1="9.398" x2="26.206" y1="4.956" y2="41.532" gradientUnits="userSpaceOnUse"><stop stop-color="#FFAD33"/><stop offset="1" stop-color="#FF8A00"/></linearGradient><linearGradient id="paint2_linear_514_1162" x1="9.398" x2="26.206" y1="4.956" y2="41.532" gradientUnits="userSpaceOnUse"><stop stop-color="#FFAD33"/><stop offset="1" stop-color="#FF8A00"/></linearGradient></defs></svg>